G04 EAGLE Gerber X2 export*
%TF.Part,Single*%
%TF.FileFunction,Copper,L1,Top,Mixed*%
%TF.FilePolarity,Positive*%
%TF.GenerationSoftware,Autodesk,EAGLE,8.6.3*%
%TF.CreationDate,2019-05-08T23:32:03Z*%
G75*
%MOMM*%
%FSLAX34Y34*%
%LPD*%
%AMOC8*
5,1,8,0,0,1.08239X$1,22.5*%
G01*
%ADD10C,0.152400*%
%ADD11R,0.540000X0.600000*%
%ADD12R,1.450000X1.100000*%
%ADD13R,0.600000X0.400000*%
%ADD14R,0.400000X0.600000*%
%ADD15R,0.600000X0.540000*%
%ADD16C,2.540000*%


D10*
X66068Y17018D02*
X66068Y762D01*
X64262Y762D02*
X67874Y762D01*
X67874Y17018D02*
X64262Y17018D01*
X74579Y17018D02*
X74579Y762D01*
X83610Y762D02*
X74579Y17018D01*
X83610Y17018D02*
X83610Y762D01*
X90870Y7084D02*
X101707Y7084D01*
X96289Y1665D02*
X96289Y12502D01*
X66068Y191262D02*
X66068Y207518D01*
X64262Y191262D02*
X67874Y191262D01*
X67874Y207518D02*
X64262Y207518D01*
X74579Y207518D02*
X74579Y191262D01*
X83610Y191262D02*
X74579Y207518D01*
X83610Y207518D02*
X83610Y191262D01*
X90870Y197584D02*
X101707Y197584D01*
D11*
X275100Y88900D03*
X283700Y88900D03*
X237000Y88900D03*
X245600Y88900D03*
X353550Y116840D03*
X344950Y116840D03*
D12*
X431800Y110600D03*
X431800Y92600D03*
D13*
X245110Y122110D03*
X245110Y114110D03*
D14*
X276670Y111760D03*
X284670Y111760D03*
D13*
X330200Y105600D03*
X330200Y97600D03*
X330200Y80200D03*
X330200Y72200D03*
D15*
X381000Y105900D03*
X381000Y97300D03*
D10*
X245110Y114110D02*
X237300Y114110D01*
X232410Y109220D01*
X232410Y93490D01*
X237000Y88900D01*
X245110Y114110D02*
X274320Y114110D01*
X276670Y111760D01*
X259080Y88900D02*
X245600Y88900D01*
X259080Y88900D02*
X275100Y88900D01*
X259080Y88900D02*
X259080Y45720D01*
D16*
X139700Y45720D01*
X259080Y45720D02*
X259080Y-38100D01*
X139700Y25400D02*
X139700Y45720D01*
X139700Y25400D02*
X139700Y-38100D01*
X259080Y-38100D01*
X241300Y25400D02*
X139700Y25400D01*
X241300Y25400D02*
X241300Y0D01*
X241300Y-25400D01*
X241300Y0D02*
X152400Y0D01*
X152400Y-12700D01*
X228600Y-12700D01*
D10*
X283700Y88900D02*
X317500Y88900D01*
X321500Y88900D02*
X330200Y80200D01*
X321500Y88900D02*
X317500Y88900D01*
X321500Y88900D02*
X330200Y97600D01*
X341440Y116840D02*
X344950Y116840D01*
X341440Y116840D02*
X330200Y105600D01*
X324040Y111760D02*
X284670Y111760D01*
X324040Y111760D02*
X330200Y105600D01*
X330200Y72200D02*
X381000Y72200D01*
X415100Y72200D01*
X431800Y88900D02*
X431800Y92600D01*
X431800Y88900D02*
X415100Y72200D01*
X381000Y72200D02*
X381000Y97300D01*
X385700Y110600D02*
X431800Y110600D01*
X385700Y110600D02*
X381000Y105900D01*
X370060Y116840D02*
X353550Y116840D01*
X370060Y116840D02*
X381000Y105900D01*
X353550Y116840D02*
X353550Y129050D01*
X351790Y130810D01*
X259080Y130810D01*
X247650Y130810D01*
X245110Y128270D02*
X245110Y122110D01*
X245110Y128270D02*
X247650Y130810D01*
X259080Y130810D02*
X259080Y171450D01*
X259080Y177800D02*
X259080Y180340D01*
D16*
X259080Y194310D02*
X154940Y194310D01*
X259080Y177800D02*
X259080Y171450D01*
X259080Y177800D02*
X259080Y194310D01*
X259080Y171450D02*
X259080Y170180D01*
X143510Y170180D01*
X143510Y247650D01*
X259080Y247650D02*
X259080Y208280D01*
X259080Y194310D01*
X259080Y247650D02*
X143510Y247650D01*
X162560Y208280D02*
X259080Y208280D01*
X246380Y228600D02*
X162560Y228600D01*
X162560Y208280D01*
M02*
