G04 EAGLE Gerber X2 export*
%TF.Part,Single*%
%TF.FileFunction,Copper,L1,Top,Mixed*%
%TF.FilePolarity,Positive*%
%TF.GenerationSoftware,Autodesk,EAGLE,8.6.3*%
%TF.CreationDate,2019-05-07T10:44:22Z*%
G75*
%MOMM*%
%FSLAX34Y34*%
%LPD*%
%AMOC8*
5,1,8,0,0,1.08239X$1,22.5*%
G01*
%ADD10C,0.286200*%
%ADD11R,1.100000X1.250000*%
%ADD12C,0.250000*%
%ADD13R,0.600000X0.400000*%
%ADD14R,0.300000X0.400000*%
%ADD15C,0.152400*%
%ADD16C,0.304800*%
%ADD17C,1.422400*%
%ADD18C,0.711200*%
%ADD19C,0.609600*%


D10*
X238031Y77969D02*
X241169Y77969D01*
X241169Y75431D01*
X238031Y75431D01*
X238031Y77969D01*
X238031Y86569D02*
X241169Y86569D01*
X241169Y84031D01*
X238031Y84031D01*
X238031Y86569D01*
X262031Y93469D02*
X265169Y93469D01*
X265169Y90931D01*
X262031Y90931D01*
X262031Y93469D01*
X262031Y102069D02*
X265169Y102069D01*
X265169Y99531D01*
X262031Y99531D01*
X262031Y102069D01*
D11*
X211700Y50800D03*
X194700Y50800D03*
D12*
X206200Y83900D03*
X202200Y83900D03*
X202200Y79900D03*
X206200Y79900D03*
D13*
X263800Y84000D03*
X263800Y76000D03*
X239200Y94300D03*
X239200Y102300D03*
D14*
X38100Y60500D03*
X38100Y66500D03*
D15*
X263600Y84200D02*
X263800Y84000D01*
X263600Y84200D02*
X263600Y92200D01*
X262100Y102300D02*
X239200Y102300D01*
X262100Y102300D02*
X263600Y100800D01*
X239600Y76700D02*
X239000Y76700D01*
X209400Y76700D01*
X206200Y79900D01*
X239700Y76000D02*
X263800Y76000D01*
X239700Y76000D02*
X239000Y76700D01*
X206200Y83900D02*
X202200Y83900D01*
X38100Y71100D02*
X38100Y66500D01*
X201736Y83436D02*
X202200Y83900D01*
X45500Y78500D02*
X38100Y71100D01*
X45500Y78500D02*
X50436Y83436D01*
X206200Y83900D02*
X216600Y94300D01*
X239000Y94300D01*
X239200Y94300D01*
X239000Y85900D02*
X239600Y85300D01*
X239000Y85900D02*
X239000Y94300D01*
X201736Y87264D02*
X201736Y83436D01*
X201736Y87264D02*
X199000Y90000D01*
X57000Y90000D02*
X50436Y83436D01*
X57000Y90000D02*
X199000Y90000D01*
X202200Y79900D02*
X202200Y69800D01*
X211700Y60300D02*
X211700Y50800D01*
X211700Y60300D02*
X202200Y69800D01*
X38100Y60500D02*
X38100Y53900D01*
X41200Y50800D02*
X194700Y50800D01*
X41200Y50800D02*
X38100Y53900D01*
D16*
X325490Y184310D02*
X674740Y184310D01*
X674740Y104300D01*
X674740Y12860D02*
X325490Y12860D01*
X331586Y179484D02*
X668644Y179484D01*
X662548Y174658D02*
X337682Y174658D01*
X662548Y174658D02*
X662548Y104300D01*
X668644Y17686D02*
X331586Y17686D01*
X337682Y22512D02*
X662548Y22512D01*
X337682Y22512D02*
X337682Y95410D01*
X343778Y104300D02*
X343778Y169832D01*
X656452Y169832D01*
X650356Y165006D02*
X349874Y165006D01*
X650356Y165006D02*
X650356Y104300D01*
X644260Y160180D02*
X355970Y160180D01*
X343778Y27338D02*
X656452Y27338D01*
X650356Y32164D02*
X349874Y32164D01*
X355970Y36990D02*
X644260Y36990D01*
X337682Y109380D02*
X337682Y174658D01*
X349874Y165006D02*
X349874Y109380D01*
X331586Y89060D02*
X331586Y17686D01*
X343778Y27338D02*
X343778Y89060D01*
X325490Y78900D02*
X314060Y78900D01*
X325490Y78900D02*
X325490Y12860D01*
X325490Y119540D02*
X314060Y119540D01*
X325490Y119540D02*
X325490Y184310D01*
X668644Y179484D02*
X668644Y109380D01*
X656452Y109380D02*
X656452Y169832D01*
X662548Y89060D02*
X662548Y22512D01*
X674740Y12860D02*
X674740Y89060D01*
X650356Y89060D02*
X650356Y32164D01*
X644260Y109380D02*
X644260Y160180D01*
X331586Y179484D02*
X331586Y104300D01*
X337682Y95410D01*
X349874Y95410D02*
X349874Y32164D01*
X349874Y95410D02*
X343778Y104300D01*
X355970Y160180D02*
X355970Y36990D01*
X644260Y36990D02*
X644260Y95410D01*
X650356Y104300D01*
X656452Y95410D02*
X656452Y27338D01*
X656452Y95410D02*
X662548Y104300D01*
X668644Y95410D02*
X668644Y17686D01*
X668644Y95410D02*
X674740Y104300D01*
D17*
X314060Y119540D03*
X314060Y78900D03*
D18*
X331586Y89060D03*
X337682Y109380D03*
X349874Y109380D03*
X343778Y89060D03*
X644260Y109380D03*
X656452Y109380D03*
X668644Y109380D03*
X674740Y89060D03*
X662548Y89060D03*
X650356Y89060D03*
D19*
X314000Y120000D02*
X281000Y120000D01*
X263000Y102000D01*
X264000Y91000D02*
X302000Y91000D01*
X314000Y79000D01*
M02*
