G04 EAGLE Gerber X2 export*
%TF.Part,Single*%
%TF.FileFunction,Legend,Top,1*%
%TF.FilePolarity,Positive*%
%TF.GenerationSoftware,Autodesk,EAGLE,8.6.3*%
%TF.CreationDate,2019-05-07T10:44:22Z*%
G75*
%MOMM*%
%FSLAX34Y34*%
%LPD*%
%AMOC8*
5,1,8,0,0,1.08239X$1,22.5*%
G01*
%ADD10C,0.127000*%
%ADD11C,0.025400*%
%ADD12C,0.050800*%
%ADD13C,0.060000*%


D10*
X234800Y86000D02*
X234800Y76000D01*
X244400Y76000D02*
X244400Y86000D01*
D11*
X233427Y74317D02*
X233427Y73691D01*
X233426Y73691D02*
X233424Y73642D01*
X233418Y73593D01*
X233409Y73545D01*
X233395Y73498D01*
X233378Y73451D01*
X233358Y73407D01*
X233334Y73364D01*
X233306Y73323D01*
X233276Y73284D01*
X233243Y73248D01*
X233207Y73215D01*
X233168Y73185D01*
X233127Y73157D01*
X233084Y73133D01*
X233040Y73113D01*
X232993Y73096D01*
X232946Y73082D01*
X232898Y73073D01*
X232849Y73067D01*
X232800Y73065D01*
X231235Y73065D01*
X231186Y73067D01*
X231137Y73073D01*
X231089Y73082D01*
X231042Y73096D01*
X230995Y73113D01*
X230951Y73133D01*
X230908Y73157D01*
X230867Y73185D01*
X230828Y73215D01*
X230792Y73248D01*
X230759Y73284D01*
X230729Y73323D01*
X230701Y73364D01*
X230677Y73407D01*
X230657Y73451D01*
X230640Y73498D01*
X230626Y73545D01*
X230617Y73593D01*
X230611Y73642D01*
X230609Y73691D01*
X230609Y74317D01*
X231235Y75377D02*
X230609Y76160D01*
X233427Y76160D01*
X233427Y76942D02*
X233427Y75377D01*
D10*
X258800Y91500D02*
X258800Y101500D01*
X268400Y101500D02*
X268400Y91500D01*
D11*
X257427Y89817D02*
X257427Y89191D01*
X257426Y89191D02*
X257424Y89142D01*
X257418Y89093D01*
X257409Y89045D01*
X257395Y88998D01*
X257378Y88951D01*
X257358Y88907D01*
X257334Y88864D01*
X257306Y88823D01*
X257276Y88784D01*
X257243Y88748D01*
X257207Y88715D01*
X257168Y88685D01*
X257127Y88657D01*
X257084Y88633D01*
X257040Y88613D01*
X256993Y88596D01*
X256946Y88582D01*
X256898Y88573D01*
X256849Y88567D01*
X256800Y88565D01*
X255235Y88565D01*
X255186Y88567D01*
X255137Y88573D01*
X255089Y88582D01*
X255042Y88596D01*
X254995Y88613D01*
X254951Y88633D01*
X254908Y88657D01*
X254867Y88685D01*
X254828Y88715D01*
X254792Y88748D01*
X254759Y88784D01*
X254729Y88823D01*
X254701Y88864D01*
X254677Y88907D01*
X254657Y88951D01*
X254640Y88998D01*
X254626Y89045D01*
X254617Y89093D01*
X254611Y89142D01*
X254609Y89191D01*
X254609Y89817D01*
X254609Y91738D02*
X254611Y91791D01*
X254617Y91843D01*
X254627Y91895D01*
X254640Y91946D01*
X254658Y91995D01*
X254679Y92043D01*
X254703Y92090D01*
X254731Y92135D01*
X254763Y92177D01*
X254797Y92217D01*
X254834Y92254D01*
X254874Y92288D01*
X254916Y92320D01*
X254961Y92348D01*
X255008Y92372D01*
X255056Y92393D01*
X255105Y92411D01*
X255156Y92424D01*
X255208Y92434D01*
X255260Y92440D01*
X255313Y92442D01*
X254609Y91738D02*
X254611Y91681D01*
X254616Y91625D01*
X254625Y91568D01*
X254637Y91513D01*
X254653Y91458D01*
X254673Y91405D01*
X254695Y91352D01*
X254721Y91302D01*
X254750Y91253D01*
X254782Y91206D01*
X254817Y91161D01*
X254855Y91118D01*
X254895Y91078D01*
X254938Y91040D01*
X254983Y91005D01*
X255030Y90974D01*
X255079Y90945D01*
X255129Y90919D01*
X255182Y90896D01*
X255235Y90877D01*
X255860Y92207D02*
X255824Y92243D01*
X255785Y92276D01*
X255744Y92307D01*
X255702Y92334D01*
X255657Y92359D01*
X255611Y92381D01*
X255563Y92399D01*
X255515Y92415D01*
X255465Y92427D01*
X255415Y92435D01*
X255364Y92440D01*
X255313Y92442D01*
X255861Y92207D02*
X257427Y90877D01*
X257427Y92442D01*
D12*
X213352Y41178D02*
X213352Y36677D01*
X213352Y41178D02*
X214603Y41178D01*
X214672Y41176D01*
X214741Y41170D01*
X214809Y41161D01*
X214876Y41148D01*
X214943Y41131D01*
X215009Y41110D01*
X215073Y41086D01*
X215136Y41058D01*
X215198Y41027D01*
X215258Y40993D01*
X215315Y40955D01*
X215371Y40914D01*
X215424Y40871D01*
X215475Y40824D01*
X215523Y40775D01*
X215568Y40723D01*
X215610Y40668D01*
X215649Y40612D01*
X215686Y40553D01*
X215718Y40492D01*
X215748Y40430D01*
X215774Y40366D01*
X215796Y40301D01*
X215815Y40235D01*
X215830Y40168D01*
X215841Y40100D01*
X215849Y40031D01*
X215853Y39962D01*
X215853Y39894D01*
X215849Y39825D01*
X215841Y39756D01*
X215830Y39688D01*
X215815Y39621D01*
X215796Y39555D01*
X215774Y39490D01*
X215748Y39426D01*
X215718Y39364D01*
X215686Y39303D01*
X215649Y39244D01*
X215610Y39188D01*
X215568Y39133D01*
X215523Y39081D01*
X215475Y39032D01*
X215424Y38985D01*
X215371Y38942D01*
X215315Y38901D01*
X215258Y38863D01*
X215198Y38829D01*
X215136Y38798D01*
X215073Y38770D01*
X215009Y38746D01*
X214943Y38725D01*
X214876Y38708D01*
X214809Y38695D01*
X214741Y38686D01*
X214672Y38680D01*
X214603Y38678D01*
X213352Y38678D01*
X214853Y38678D02*
X215853Y36677D01*
X217828Y40178D02*
X219078Y41178D01*
X219078Y36677D01*
X217828Y36677D02*
X220329Y36677D01*
D10*
X209100Y84350D02*
X209100Y86800D01*
X206650Y86800D01*
X209100Y79450D02*
X209100Y77000D01*
X206650Y77000D01*
X201750Y77000D02*
X199300Y77000D01*
X199300Y79450D01*
X199300Y86800D02*
X201750Y86800D01*
X199300Y86800D02*
X199300Y84350D01*
D11*
X205979Y71867D02*
X205979Y69666D01*
X205981Y69609D01*
X205987Y69553D01*
X205996Y69497D01*
X206009Y69442D01*
X206026Y69388D01*
X206046Y69335D01*
X206070Y69284D01*
X206097Y69234D01*
X206128Y69187D01*
X206161Y69141D01*
X206198Y69098D01*
X206237Y69057D01*
X206279Y69019D01*
X206324Y68984D01*
X206370Y68952D01*
X206419Y68923D01*
X206469Y68898D01*
X206522Y68876D01*
X206575Y68857D01*
X206630Y68842D01*
X206685Y68831D01*
X206741Y68823D01*
X206798Y68819D01*
X206854Y68819D01*
X206911Y68823D01*
X206967Y68831D01*
X207022Y68842D01*
X207077Y68857D01*
X207130Y68876D01*
X207183Y68898D01*
X207233Y68923D01*
X207282Y68952D01*
X207328Y68984D01*
X207373Y69019D01*
X207415Y69057D01*
X207454Y69098D01*
X207491Y69141D01*
X207524Y69187D01*
X207555Y69234D01*
X207582Y69284D01*
X207606Y69335D01*
X207626Y69388D01*
X207643Y69442D01*
X207656Y69497D01*
X207665Y69553D01*
X207671Y69609D01*
X207673Y69666D01*
X207672Y69666D02*
X207672Y71867D01*
X209698Y71867D02*
X209698Y68819D01*
X209698Y70343D02*
X209275Y70597D01*
X209238Y70621D01*
X209204Y70648D01*
X209172Y70678D01*
X209143Y70711D01*
X209117Y70746D01*
X209094Y70783D01*
X209074Y70822D01*
X209058Y70863D01*
X209045Y70905D01*
X209036Y70947D01*
X209031Y70991D01*
X209029Y71035D01*
X209031Y71078D01*
X209037Y71122D01*
X209047Y71164D01*
X209060Y71206D01*
X209077Y71246D01*
X209097Y71285D01*
X209121Y71322D01*
X209148Y71356D01*
X209177Y71389D01*
X209209Y71418D01*
X209244Y71445D01*
X209281Y71468D01*
X209319Y71489D01*
X209360Y71506D01*
X209401Y71519D01*
X209444Y71529D01*
X209512Y71540D01*
X209581Y71547D01*
X209650Y71551D01*
X209719Y71551D01*
X209788Y71547D01*
X209857Y71540D01*
X209925Y71529D01*
X209993Y71515D01*
X210060Y71498D01*
X210125Y71477D01*
X210190Y71452D01*
X210253Y71425D01*
X210315Y71394D01*
X210375Y71360D01*
X209698Y70343D02*
X210121Y70089D01*
X210121Y70090D02*
X210158Y70066D01*
X210192Y70039D01*
X210224Y70009D01*
X210253Y69976D01*
X210279Y69941D01*
X210302Y69904D01*
X210322Y69865D01*
X210338Y69824D01*
X210351Y69782D01*
X210360Y69740D01*
X210365Y69696D01*
X210367Y69652D01*
X210365Y69609D01*
X210359Y69565D01*
X210349Y69523D01*
X210336Y69481D01*
X210319Y69441D01*
X210299Y69402D01*
X210275Y69365D01*
X210248Y69331D01*
X210219Y69298D01*
X210187Y69269D01*
X210152Y69242D01*
X210115Y69219D01*
X210077Y69198D01*
X210036Y69181D01*
X209995Y69168D01*
X209952Y69158D01*
X209884Y69147D01*
X209815Y69140D01*
X209746Y69136D01*
X209677Y69136D01*
X209608Y69140D01*
X209539Y69147D01*
X209471Y69158D01*
X209403Y69172D01*
X209337Y69189D01*
X209271Y69210D01*
X209206Y69235D01*
X209143Y69262D01*
X209081Y69293D01*
X209021Y69327D01*
X211625Y71190D02*
X212472Y71867D01*
X212472Y68819D01*
X213318Y68819D02*
X211625Y68819D01*
D13*
X210900Y79900D02*
X210902Y79934D01*
X210908Y79968D01*
X210917Y80001D01*
X210931Y80032D01*
X210948Y80062D01*
X210968Y80090D01*
X210991Y80115D01*
X211017Y80138D01*
X211045Y80157D01*
X211075Y80173D01*
X211107Y80185D01*
X211140Y80194D01*
X211174Y80199D01*
X211209Y80200D01*
X211243Y80197D01*
X211276Y80190D01*
X211309Y80180D01*
X211340Y80165D01*
X211369Y80148D01*
X211396Y80127D01*
X211421Y80103D01*
X211443Y80076D01*
X211461Y80048D01*
X211476Y80017D01*
X211488Y79985D01*
X211496Y79951D01*
X211500Y79917D01*
X211500Y79883D01*
X211496Y79849D01*
X211488Y79815D01*
X211476Y79783D01*
X211461Y79752D01*
X211443Y79724D01*
X211421Y79697D01*
X211396Y79673D01*
X211369Y79652D01*
X211340Y79635D01*
X211309Y79620D01*
X211276Y79610D01*
X211243Y79603D01*
X211209Y79600D01*
X211174Y79601D01*
X211140Y79606D01*
X211107Y79615D01*
X211075Y79627D01*
X211045Y79643D01*
X211017Y79662D01*
X210991Y79685D01*
X210968Y79710D01*
X210948Y79738D01*
X210931Y79768D01*
X210917Y79799D01*
X210908Y79832D01*
X210902Y79866D01*
X210900Y79900D01*
M02*
