G04 EAGLE Gerber X2 export*
%TF.Part,Single*%
%TF.FileFunction,Soldermask,Top,1*%
%TF.FilePolarity,Negative*%
%TF.GenerationSoftware,Autodesk,EAGLE,8.6.3*%
%TF.CreationDate,2019-05-07T10:44:22Z*%
G75*
%MOMM*%
%FSLAX34Y34*%
%LPD*%
%AMOC8*
5,1,8,0,0,1.08239X$1,22.5*%
G01*
%ADD10C,0.393894*%
%ADD11R,1.303200X1.453200*%
%ADD12C,0.453200*%
%ADD13R,0.600000X0.400000*%
%ADD14R,0.503200X0.603200*%
%ADD15C,1.625600*%
%ADD16C,0.914400*%


D10*
X237553Y78447D02*
X241647Y78447D01*
X241647Y74953D01*
X237553Y74953D01*
X237553Y78447D01*
X237553Y87047D02*
X241647Y87047D01*
X241647Y83553D01*
X237553Y83553D01*
X237553Y87047D01*
X261553Y93947D02*
X265647Y93947D01*
X265647Y90453D01*
X261553Y90453D01*
X261553Y93947D01*
X261553Y102547D02*
X265647Y102547D01*
X265647Y99053D01*
X261553Y99053D01*
X261553Y102547D01*
D11*
X211700Y50800D03*
X194700Y50800D03*
D12*
X206200Y83900D03*
X202200Y83900D03*
X202200Y79900D03*
X206200Y79900D03*
D13*
X263800Y84000D03*
X263800Y76000D03*
X239200Y94300D03*
X239200Y102300D03*
D14*
X38100Y60500D03*
X38100Y66500D03*
D15*
X314060Y119540D03*
X314060Y78900D03*
D16*
X331586Y89060D03*
X337682Y109380D03*
X349874Y109380D03*
X343778Y89060D03*
X644260Y109380D03*
X656452Y109380D03*
X668644Y109380D03*
X674740Y89060D03*
X662548Y89060D03*
X650356Y89060D03*
M02*
