G04 EAGLE Gerber X2 export*
%TF.Part,Single*%
%TF.FileFunction,Other,Silk screen CMP*%
%TF.FilePolarity,Positive*%
%TF.GenerationSoftware,Autodesk,EAGLE,8.6.3*%
%TF.CreationDate,2019-05-12T15:35:41Z*%
G75*
%MOMM*%
%FSLAX34Y34*%
%LPD*%
%AMOC8*
5,1,8,0,0,1.08239X$1,22.5*%
G01*
%ADD10C,0.000000*%
%ADD11C,0.050800*%
%ADD12C,0.152400*%
%ADD13C,0.203200*%
%ADD14C,0.127000*%
%ADD15C,0.025400*%
%ADD16C,0.254000*%


D10*
X-28000Y-1000D02*
X845000Y0D01*
X843000Y479000D01*
X-30000Y478000D01*
X-28000Y-1000D01*
D11*
X313352Y312677D02*
X313352Y317178D01*
X314603Y317178D01*
X314672Y317176D01*
X314741Y317170D01*
X314809Y317161D01*
X314876Y317148D01*
X314943Y317131D01*
X315009Y317110D01*
X315073Y317086D01*
X315136Y317058D01*
X315198Y317027D01*
X315258Y316993D01*
X315315Y316955D01*
X315371Y316914D01*
X315424Y316871D01*
X315475Y316824D01*
X315523Y316775D01*
X315568Y316723D01*
X315610Y316668D01*
X315649Y316612D01*
X315686Y316553D01*
X315718Y316492D01*
X315748Y316430D01*
X315774Y316366D01*
X315796Y316301D01*
X315815Y316235D01*
X315830Y316168D01*
X315841Y316100D01*
X315849Y316031D01*
X315853Y315962D01*
X315853Y315894D01*
X315849Y315825D01*
X315841Y315756D01*
X315830Y315688D01*
X315815Y315621D01*
X315796Y315555D01*
X315774Y315490D01*
X315748Y315426D01*
X315718Y315364D01*
X315686Y315303D01*
X315649Y315244D01*
X315610Y315188D01*
X315568Y315133D01*
X315523Y315081D01*
X315475Y315032D01*
X315424Y314985D01*
X315371Y314942D01*
X315315Y314901D01*
X315258Y314863D01*
X315198Y314829D01*
X315136Y314798D01*
X315073Y314770D01*
X315009Y314746D01*
X314943Y314725D01*
X314876Y314708D01*
X314809Y314695D01*
X314741Y314686D01*
X314672Y314680D01*
X314603Y314678D01*
X313352Y314678D01*
X314853Y314678D02*
X315853Y312677D01*
X317828Y316178D02*
X319078Y317178D01*
X319078Y312677D01*
X317828Y312677D02*
X320329Y312677D01*
D12*
X456458Y293472D02*
X493542Y293472D01*
X493542Y360528D01*
X456458Y360528D01*
X456458Y293472D01*
D13*
X427958Y368842D02*
X427958Y382433D01*
X427958Y368842D02*
X427960Y368699D01*
X427966Y368557D01*
X427976Y368414D01*
X427989Y368272D01*
X428007Y368130D01*
X428028Y367989D01*
X428053Y367849D01*
X428082Y367709D01*
X428115Y367570D01*
X428152Y367432D01*
X428192Y367295D01*
X428236Y367159D01*
X428284Y367024D01*
X428336Y366891D01*
X428391Y366760D01*
X428449Y366629D01*
X428512Y366501D01*
X428577Y366374D01*
X428646Y366249D01*
X428719Y366126D01*
X428795Y366005D01*
X428874Y365886D01*
X428956Y365770D01*
X429042Y365655D01*
X429130Y365543D01*
X429222Y365434D01*
X429317Y365327D01*
X429414Y365222D01*
X429514Y365121D01*
X429617Y365022D01*
X429723Y364926D01*
X429831Y364833D01*
X429942Y364743D01*
X430055Y364656D01*
X430171Y364572D01*
X430288Y364491D01*
X430408Y364413D01*
X430530Y364339D01*
X430654Y364268D01*
X430780Y364201D01*
X430908Y364137D01*
X431037Y364077D01*
X431168Y364020D01*
X431301Y363966D01*
X431435Y363917D01*
X431570Y363871D01*
X431706Y363829D01*
X431844Y363790D01*
X431982Y363755D01*
X432122Y363724D01*
X432262Y363697D01*
X432403Y363674D01*
X432544Y363654D01*
X432686Y363639D01*
X432828Y363627D01*
X432971Y363619D01*
X433114Y363615D01*
X433256Y363615D01*
X433399Y363619D01*
X433542Y363627D01*
X433684Y363639D01*
X433826Y363654D01*
X433967Y363674D01*
X434108Y363697D01*
X434248Y363724D01*
X434388Y363755D01*
X434526Y363790D01*
X434664Y363829D01*
X434800Y363871D01*
X434935Y363917D01*
X435069Y363966D01*
X435202Y364020D01*
X435333Y364077D01*
X435462Y364137D01*
X435590Y364201D01*
X435716Y364268D01*
X435840Y364339D01*
X435962Y364413D01*
X436082Y364491D01*
X436199Y364572D01*
X436315Y364656D01*
X436428Y364743D01*
X436539Y364833D01*
X436647Y364926D01*
X436753Y365022D01*
X436856Y365121D01*
X436956Y365222D01*
X437053Y365327D01*
X437148Y365434D01*
X437240Y365543D01*
X437328Y365655D01*
X437414Y365770D01*
X437496Y365886D01*
X437575Y366005D01*
X437651Y366126D01*
X437724Y366249D01*
X437793Y366374D01*
X437858Y366501D01*
X437921Y366629D01*
X437979Y366760D01*
X438034Y366891D01*
X438086Y367024D01*
X438134Y367159D01*
X438178Y367295D01*
X438218Y367432D01*
X438255Y367570D01*
X438288Y367709D01*
X438317Y367849D01*
X438342Y367989D01*
X438363Y368130D01*
X438381Y368272D01*
X438394Y368414D01*
X438404Y368557D01*
X438410Y368699D01*
X438412Y368842D01*
X438413Y368842D02*
X438413Y382433D01*
X446404Y378251D02*
X451631Y382433D01*
X451631Y363614D01*
X446404Y363614D02*
X456858Y363614D01*
D11*
X277294Y161636D02*
X276069Y161636D01*
X276000Y161638D01*
X275932Y161644D01*
X275864Y161653D01*
X275796Y161667D01*
X275730Y161684D01*
X275664Y161705D01*
X275600Y161729D01*
X275537Y161757D01*
X275476Y161789D01*
X275417Y161824D01*
X275360Y161862D01*
X275305Y161903D01*
X275253Y161948D01*
X275203Y161995D01*
X275156Y162045D01*
X275111Y162097D01*
X275070Y162152D01*
X275032Y162209D01*
X274997Y162268D01*
X274965Y162329D01*
X274937Y162392D01*
X274913Y162456D01*
X274892Y162522D01*
X274875Y162588D01*
X274861Y162656D01*
X274852Y162724D01*
X274846Y162792D01*
X274844Y162861D01*
X274844Y165924D01*
X274846Y165993D01*
X274852Y166061D01*
X274861Y166129D01*
X274875Y166197D01*
X274892Y166263D01*
X274913Y166329D01*
X274937Y166393D01*
X274965Y166455D01*
X274997Y166517D01*
X275032Y166576D01*
X275070Y166633D01*
X275111Y166688D01*
X275156Y166740D01*
X275203Y166790D01*
X275253Y166837D01*
X275305Y166882D01*
X275360Y166923D01*
X275417Y166961D01*
X275476Y166996D01*
X275537Y167028D01*
X275600Y167056D01*
X275664Y167080D01*
X275730Y167101D01*
X275796Y167118D01*
X275864Y167132D01*
X275932Y167141D01*
X276000Y167147D01*
X276069Y167149D01*
X277294Y167149D01*
X279376Y165924D02*
X280907Y167149D01*
X280907Y161636D01*
X279376Y161636D02*
X282439Y161636D01*
D14*
X290500Y156500D02*
X293500Y156500D01*
X293500Y147500D02*
X290500Y147500D01*
D11*
X275294Y277636D02*
X274069Y277636D01*
X274000Y277638D01*
X273932Y277644D01*
X273864Y277653D01*
X273796Y277667D01*
X273730Y277684D01*
X273664Y277705D01*
X273600Y277729D01*
X273537Y277757D01*
X273476Y277789D01*
X273417Y277824D01*
X273360Y277862D01*
X273305Y277903D01*
X273253Y277948D01*
X273203Y277995D01*
X273156Y278045D01*
X273111Y278097D01*
X273070Y278152D01*
X273032Y278209D01*
X272997Y278268D01*
X272965Y278329D01*
X272937Y278392D01*
X272913Y278456D01*
X272892Y278522D01*
X272875Y278588D01*
X272861Y278656D01*
X272852Y278724D01*
X272846Y278792D01*
X272844Y278861D01*
X272844Y281924D01*
X272846Y281993D01*
X272852Y282061D01*
X272861Y282129D01*
X272875Y282197D01*
X272892Y282263D01*
X272913Y282329D01*
X272937Y282393D01*
X272965Y282455D01*
X272997Y282517D01*
X273032Y282576D01*
X273070Y282633D01*
X273111Y282688D01*
X273156Y282740D01*
X273203Y282790D01*
X273253Y282837D01*
X273305Y282882D01*
X273360Y282923D01*
X273417Y282961D01*
X273476Y282996D01*
X273537Y283028D01*
X273600Y283056D01*
X273664Y283080D01*
X273730Y283101D01*
X273796Y283118D01*
X273864Y283132D01*
X273932Y283141D01*
X274000Y283147D01*
X274069Y283149D01*
X275294Y283149D01*
X279060Y283149D02*
X279132Y283147D01*
X279204Y283141D01*
X279276Y283132D01*
X279347Y283119D01*
X279417Y283102D01*
X279486Y283082D01*
X279554Y283057D01*
X279621Y283030D01*
X279686Y282999D01*
X279749Y282964D01*
X279811Y282927D01*
X279870Y282886D01*
X279927Y282842D01*
X279982Y282795D01*
X280034Y282745D01*
X280084Y282693D01*
X280131Y282638D01*
X280175Y282581D01*
X280216Y282521D01*
X280253Y282460D01*
X280288Y282397D01*
X280319Y282331D01*
X280346Y282265D01*
X280371Y282197D01*
X280391Y282128D01*
X280408Y282057D01*
X280421Y281987D01*
X280430Y281915D01*
X280436Y281843D01*
X280438Y281771D01*
X279060Y283148D02*
X278978Y283146D01*
X278895Y283140D01*
X278814Y283131D01*
X278732Y283117D01*
X278652Y283100D01*
X278572Y283079D01*
X278493Y283055D01*
X278416Y283027D01*
X278340Y282995D01*
X278265Y282959D01*
X278192Y282921D01*
X278121Y282879D01*
X278053Y282833D01*
X277986Y282785D01*
X277922Y282733D01*
X277860Y282679D01*
X277800Y282621D01*
X277744Y282561D01*
X277690Y282499D01*
X277639Y282434D01*
X277592Y282367D01*
X277547Y282297D01*
X277506Y282226D01*
X277468Y282152D01*
X277434Y282078D01*
X277403Y282001D01*
X277376Y281923D01*
X279979Y280699D02*
X280032Y280752D01*
X280082Y280808D01*
X280129Y280866D01*
X280173Y280926D01*
X280215Y280989D01*
X280252Y281054D01*
X280287Y281120D01*
X280318Y281188D01*
X280346Y281258D01*
X280370Y281328D01*
X280391Y281400D01*
X280408Y281473D01*
X280421Y281547D01*
X280430Y281621D01*
X280436Y281696D01*
X280438Y281771D01*
X279979Y280699D02*
X277376Y277636D01*
X280439Y277636D01*
D14*
X288500Y272500D02*
X291500Y272500D01*
X291500Y263500D02*
X288500Y263500D01*
D15*
X97181Y287434D02*
X94141Y287434D01*
X97181Y287434D02*
X97248Y287436D01*
X97314Y287442D01*
X97380Y287451D01*
X97446Y287464D01*
X97510Y287481D01*
X97574Y287502D01*
X97636Y287526D01*
X97697Y287554D01*
X97756Y287585D01*
X97813Y287620D01*
X97868Y287657D01*
X97921Y287698D01*
X97971Y287742D01*
X98019Y287788D01*
X98064Y287837D01*
X98107Y287889D01*
X98146Y287943D01*
X98182Y287999D01*
X98215Y288057D01*
X98244Y288117D01*
X98270Y288179D01*
X98293Y288242D01*
X98312Y288306D01*
X98327Y288371D01*
X98338Y288437D01*
X98346Y288503D01*
X98350Y288570D01*
X98350Y288636D01*
X98346Y288703D01*
X98338Y288769D01*
X98327Y288835D01*
X98312Y288900D01*
X98293Y288964D01*
X98270Y289027D01*
X98244Y289089D01*
X98215Y289149D01*
X98182Y289207D01*
X98146Y289263D01*
X98107Y289317D01*
X98064Y289369D01*
X98019Y289418D01*
X97971Y289464D01*
X97921Y289508D01*
X97868Y289549D01*
X97813Y289586D01*
X97756Y289621D01*
X97697Y289652D01*
X97636Y289680D01*
X97574Y289704D01*
X97510Y289725D01*
X97446Y289742D01*
X97380Y289755D01*
X97314Y289764D01*
X97248Y289770D01*
X97181Y289772D01*
X94141Y289772D01*
X94141Y292486D02*
X98350Y292486D01*
X96245Y292486D02*
X95894Y291901D01*
X95866Y291858D01*
X95835Y291818D01*
X95801Y291779D01*
X95765Y291743D01*
X95726Y291710D01*
X95684Y291680D01*
X95640Y291653D01*
X95595Y291630D01*
X95548Y291609D01*
X95499Y291593D01*
X95450Y291579D01*
X95400Y291570D01*
X95349Y291564D01*
X95297Y291562D01*
X95246Y291564D01*
X95195Y291569D01*
X95145Y291578D01*
X95095Y291591D01*
X95047Y291608D01*
X94999Y291628D01*
X94954Y291651D01*
X94910Y291678D01*
X94868Y291707D01*
X94829Y291740D01*
X94792Y291776D01*
X94758Y291814D01*
X94726Y291854D01*
X94698Y291897D01*
X94673Y291942D01*
X94651Y291988D01*
X94633Y292036D01*
X94618Y292085D01*
X94607Y292135D01*
X94608Y292135D02*
X94595Y292217D01*
X94586Y292300D01*
X94580Y292384D01*
X94578Y292467D01*
X94580Y292551D01*
X94585Y292634D01*
X94595Y292717D01*
X94608Y292799D01*
X94625Y292881D01*
X94645Y292962D01*
X94669Y293042D01*
X94697Y293121D01*
X94728Y293198D01*
X94763Y293274D01*
X94801Y293349D01*
X94842Y293421D01*
X96245Y292486D02*
X96596Y293071D01*
X96624Y293114D01*
X96655Y293154D01*
X96689Y293193D01*
X96725Y293229D01*
X96764Y293262D01*
X96806Y293292D01*
X96850Y293319D01*
X96895Y293342D01*
X96942Y293363D01*
X96991Y293379D01*
X97040Y293393D01*
X97090Y293402D01*
X97141Y293408D01*
X97193Y293410D01*
X97244Y293408D01*
X97295Y293403D01*
X97345Y293394D01*
X97395Y293381D01*
X97443Y293364D01*
X97491Y293344D01*
X97536Y293321D01*
X97580Y293294D01*
X97622Y293265D01*
X97661Y293232D01*
X97698Y293196D01*
X97732Y293158D01*
X97764Y293118D01*
X97792Y293075D01*
X97817Y293030D01*
X97839Y292984D01*
X97857Y292936D01*
X97872Y292887D01*
X97883Y292837D01*
X97896Y292755D01*
X97905Y292672D01*
X97911Y292588D01*
X97913Y292505D01*
X97911Y292421D01*
X97906Y292338D01*
X97896Y292255D01*
X97883Y292172D01*
X97866Y292091D01*
X97846Y292010D01*
X97822Y291930D01*
X97794Y291851D01*
X97763Y291773D01*
X97728Y291697D01*
X97690Y291623D01*
X97649Y291551D01*
X98350Y295066D02*
X98350Y296235D01*
X98348Y296302D01*
X98342Y296368D01*
X98333Y296434D01*
X98320Y296500D01*
X98303Y296564D01*
X98282Y296628D01*
X98258Y296690D01*
X98230Y296751D01*
X98199Y296810D01*
X98164Y296867D01*
X98127Y296922D01*
X98086Y296975D01*
X98042Y297025D01*
X97996Y297073D01*
X97947Y297118D01*
X97895Y297161D01*
X97841Y297200D01*
X97785Y297236D01*
X97727Y297269D01*
X97667Y297298D01*
X97605Y297324D01*
X97542Y297347D01*
X97478Y297366D01*
X97413Y297381D01*
X97347Y297392D01*
X97281Y297400D01*
X97214Y297404D01*
X97148Y297404D01*
X97081Y297400D01*
X97015Y297392D01*
X96949Y297381D01*
X96884Y297366D01*
X96820Y297347D01*
X96757Y297324D01*
X96695Y297298D01*
X96635Y297269D01*
X96577Y297236D01*
X96521Y297200D01*
X96467Y297161D01*
X96415Y297118D01*
X96366Y297073D01*
X96320Y297025D01*
X96276Y296975D01*
X96235Y296922D01*
X96198Y296867D01*
X96163Y296810D01*
X96132Y296751D01*
X96104Y296690D01*
X96080Y296628D01*
X96059Y296564D01*
X96042Y296500D01*
X96029Y296434D01*
X96020Y296368D01*
X96014Y296302D01*
X96012Y296235D01*
X94141Y296469D02*
X94141Y295066D01*
X94141Y296469D02*
X94143Y296529D01*
X94149Y296589D01*
X94158Y296648D01*
X94172Y296706D01*
X94189Y296764D01*
X94209Y296820D01*
X94234Y296875D01*
X94261Y296928D01*
X94292Y296979D01*
X94327Y297028D01*
X94364Y297075D01*
X94404Y297119D01*
X94447Y297161D01*
X94493Y297200D01*
X94541Y297236D01*
X94591Y297269D01*
X94644Y297298D01*
X94698Y297324D01*
X94753Y297346D01*
X94810Y297365D01*
X94868Y297381D01*
X94927Y297392D01*
X94986Y297400D01*
X95046Y297404D01*
X95106Y297404D01*
X95166Y297400D01*
X95225Y297392D01*
X95284Y297381D01*
X95342Y297365D01*
X95399Y297346D01*
X95454Y297324D01*
X95508Y297298D01*
X95561Y297269D01*
X95611Y297236D01*
X95659Y297200D01*
X95705Y297161D01*
X95748Y297119D01*
X95788Y297075D01*
X95825Y297028D01*
X95860Y296979D01*
X95891Y296928D01*
X95918Y296875D01*
X95943Y296820D01*
X95963Y296764D01*
X95980Y296706D01*
X95994Y296648D01*
X96003Y296589D01*
X96009Y296529D01*
X96011Y296469D01*
X96011Y295534D01*
D16*
X102000Y287000D03*
M02*
