G04 EAGLE Gerber X2 export*
%TF.Part,Single*%
%TF.FileFunction,Other,Component side*%
%TF.FilePolarity,Positive*%
%TF.GenerationSoftware,Autodesk,EAGLE,8.6.3*%
%TF.CreationDate,2019-05-29T11:14:48Z*%
G75*
%MOMM*%
%FSLAX34Y34*%
%LPD*%
%AMOC8*
5,1,8,0,0,1.08239X$1,22.5*%
G01*
%ADD10R,1.100000X1.250000*%
%ADD11R,1.000000X1.100000*%
%ADD12R,0.800000X1.200000*%
%ADD13R,0.800000X2.000000*%
%ADD14R,0.520000X0.520000*%
%ADD15R,0.100000X0.100000*%
%ADD16R,0.400000X0.600000*%
%ADD17C,0.254000*%
%ADD18C,2.540000*%

G36*
X827854Y225549D02*
X827854Y225549D01*
X827854Y225550D01*
X827854Y229450D01*
X827851Y229454D01*
X827850Y229454D01*
X826750Y229454D01*
X826748Y229453D01*
X826747Y229453D01*
X825247Y227903D01*
X825247Y227902D01*
X825246Y227901D01*
X825246Y227900D01*
X825246Y225550D01*
X825249Y225546D01*
X825250Y225546D01*
X827850Y225546D01*
X827854Y225549D01*
G37*
G36*
X819852Y233647D02*
X819852Y233647D01*
X819853Y233647D01*
X821353Y235197D01*
X821353Y235199D01*
X821354Y235200D01*
X821354Y237550D01*
X821351Y237554D01*
X821350Y237554D01*
X818750Y237554D01*
X818746Y237551D01*
X818746Y237550D01*
X818746Y233650D01*
X818749Y233646D01*
X818750Y233646D01*
X819850Y233646D01*
X819852Y233647D01*
G37*
G36*
X827854Y233649D02*
X827854Y233649D01*
X827854Y233650D01*
X827854Y237550D01*
X827851Y237554D01*
X827850Y237554D01*
X825250Y237554D01*
X825246Y237551D01*
X825246Y237550D01*
X825246Y235200D01*
X825247Y235199D01*
X825247Y235197D01*
X826747Y233647D01*
X826749Y233647D01*
X826750Y233646D01*
X827850Y233646D01*
X827854Y233649D01*
G37*
G36*
X821354Y225549D02*
X821354Y225549D01*
X821354Y225550D01*
X821354Y227900D01*
X821353Y227901D01*
X821353Y227903D01*
X819853Y229453D01*
X819851Y229453D01*
X819850Y229454D01*
X818750Y229454D01*
X818746Y229451D01*
X818746Y229450D01*
X818746Y225550D01*
X818749Y225546D01*
X818750Y225546D01*
X821350Y225546D01*
X821354Y225549D01*
G37*
D10*
X900950Y242150D03*
X917950Y242150D03*
D11*
X777550Y225000D03*
X777550Y242000D03*
D12*
X1062700Y246250D03*
D13*
X1062700Y267750D03*
D14*
G36*
X819624Y231550D02*
X823300Y235226D01*
X826976Y231550D01*
X823300Y227874D01*
X819624Y231550D01*
G37*
D15*
X826550Y227550D03*
X820050Y227550D03*
X826550Y235550D03*
X820050Y235550D03*
D16*
X768000Y209000D03*
X776000Y209000D03*
D17*
X820050Y220250D02*
X820050Y227550D01*
X826550Y227550D02*
X826550Y221500D01*
X825300Y220250D02*
X820050Y220250D01*
X825300Y220250D02*
X826550Y221500D01*
X820050Y220250D02*
X808800Y209000D01*
X777000Y209000D01*
X776000Y209000D01*
X777550Y209550D02*
X777550Y225000D01*
X777550Y209550D02*
X777000Y209000D01*
X820000Y235600D02*
X820050Y235550D01*
X820050Y238950D01*
X813000Y246000D01*
X831000Y264000D01*
X1058950Y264000D01*
X1062700Y267750D01*
X781550Y246000D02*
X777550Y242000D01*
X781550Y246000D02*
X813000Y246000D01*
X777550Y242000D02*
X682000Y242000D01*
D18*
X677000Y242000D01*
D17*
X917950Y242150D02*
X1058600Y242150D01*
X1062700Y246250D01*
X900950Y242150D02*
X833150Y242150D01*
X826550Y235550D01*
X768000Y209000D02*
X684000Y209000D01*
D18*
X676000Y209000D01*
M02*
