G04 EAGLE Gerber X2 export*
%TF.Part,Single*%
%TF.FileFunction,Other,Silk screen CMP*%
%TF.FilePolarity,Positive*%
%TF.GenerationSoftware,Autodesk,EAGLE,8.6.3*%
%TF.CreationDate,2019-05-29T11:14:49Z*%
G75*
%MOMM*%
%FSLAX34Y34*%
%LPD*%
%AMOC8*
5,1,8,0,0,1.08239X$1,22.5*%
G01*
%ADD10C,0.000000*%
%ADD11C,0.127000*%
%ADD12C,0.152400*%
%ADD13C,0.050800*%
%ADD14C,0.025400*%
%ADD15C,0.050000*%


D10*
X-160100Y-1000D02*
X1293200Y-1250D01*
X1293250Y656650D01*
X-160050Y656900D01*
X-160100Y-1000D01*
D11*
X892767Y307821D02*
X892767Y323315D01*
X892767Y307821D02*
X899653Y307821D01*
X905651Y307821D02*
X912537Y307821D01*
X905651Y307821D02*
X905651Y323315D01*
X912537Y323315D01*
X910815Y316429D02*
X905651Y316429D01*
X918507Y323315D02*
X918507Y307821D01*
X918507Y323315D02*
X922811Y323315D01*
X922941Y323313D01*
X923071Y323307D01*
X923201Y323297D01*
X923330Y323284D01*
X923459Y323266D01*
X923587Y323245D01*
X923714Y323219D01*
X923841Y323190D01*
X923967Y323157D01*
X924091Y323120D01*
X924215Y323080D01*
X924337Y323035D01*
X924458Y322987D01*
X924577Y322936D01*
X924695Y322881D01*
X924811Y322822D01*
X924925Y322760D01*
X925038Y322694D01*
X925148Y322625D01*
X925256Y322553D01*
X925362Y322478D01*
X925465Y322399D01*
X925566Y322317D01*
X925665Y322233D01*
X925761Y322145D01*
X925854Y322054D01*
X925945Y321961D01*
X926033Y321865D01*
X926117Y321766D01*
X926199Y321665D01*
X926278Y321562D01*
X926353Y321456D01*
X926425Y321348D01*
X926494Y321238D01*
X926560Y321125D01*
X926622Y321011D01*
X926681Y320895D01*
X926736Y320777D01*
X926787Y320658D01*
X926835Y320537D01*
X926880Y320415D01*
X926920Y320291D01*
X926957Y320167D01*
X926990Y320041D01*
X927019Y319914D01*
X927045Y319787D01*
X927066Y319659D01*
X927084Y319530D01*
X927097Y319401D01*
X927107Y319271D01*
X927113Y319141D01*
X927115Y319011D01*
X927115Y312125D01*
X927113Y311995D01*
X927107Y311865D01*
X927097Y311735D01*
X927084Y311606D01*
X927066Y311477D01*
X927045Y311349D01*
X927019Y311222D01*
X926990Y311095D01*
X926957Y310969D01*
X926920Y310845D01*
X926880Y310721D01*
X926835Y310599D01*
X926787Y310478D01*
X926736Y310359D01*
X926681Y310241D01*
X926622Y310125D01*
X926560Y310011D01*
X926494Y309898D01*
X926425Y309788D01*
X926353Y309680D01*
X926278Y309574D01*
X926199Y309471D01*
X926117Y309370D01*
X926033Y309271D01*
X925945Y309175D01*
X925854Y309082D01*
X925761Y308991D01*
X925665Y308903D01*
X925566Y308819D01*
X925465Y308737D01*
X925362Y308658D01*
X925256Y308583D01*
X925148Y308511D01*
X925038Y308442D01*
X924925Y308376D01*
X924811Y308314D01*
X924695Y308255D01*
X924577Y308200D01*
X924458Y308149D01*
X924337Y308101D01*
X924215Y308056D01*
X924091Y308016D01*
X923967Y307979D01*
X923841Y307946D01*
X923714Y307917D01*
X923587Y307891D01*
X923459Y307870D01*
X923330Y307852D01*
X923201Y307839D01*
X923071Y307829D01*
X922941Y307823D01*
X922811Y307821D01*
X918507Y307821D01*
D12*
X666168Y185768D02*
X666168Y169512D01*
X664362Y169512D02*
X667974Y169512D01*
X667974Y185768D02*
X664362Y185768D01*
X674679Y185768D02*
X674679Y169512D01*
X683710Y169512D02*
X674679Y185768D01*
X683710Y185768D02*
X683710Y169512D01*
X690970Y175834D02*
X701807Y175834D01*
X696389Y170415D02*
X696389Y181252D01*
X662793Y271493D02*
X660084Y271493D01*
X662793Y271493D02*
X662793Y262462D01*
X657374Y262462D01*
X657256Y262464D01*
X657138Y262470D01*
X657020Y262479D01*
X656903Y262493D01*
X656786Y262510D01*
X656669Y262531D01*
X656554Y262556D01*
X656439Y262585D01*
X656325Y262618D01*
X656213Y262654D01*
X656102Y262694D01*
X655992Y262737D01*
X655883Y262784D01*
X655776Y262834D01*
X655671Y262889D01*
X655568Y262946D01*
X655467Y263007D01*
X655367Y263071D01*
X655270Y263138D01*
X655175Y263208D01*
X655083Y263282D01*
X654992Y263358D01*
X654905Y263438D01*
X654820Y263520D01*
X654738Y263605D01*
X654658Y263692D01*
X654582Y263783D01*
X654508Y263875D01*
X654438Y263970D01*
X654371Y264067D01*
X654307Y264167D01*
X654246Y264268D01*
X654189Y264371D01*
X654134Y264476D01*
X654084Y264583D01*
X654037Y264692D01*
X653994Y264802D01*
X653954Y264913D01*
X653918Y265025D01*
X653885Y265139D01*
X653856Y265254D01*
X653831Y265369D01*
X653810Y265486D01*
X653793Y265603D01*
X653779Y265720D01*
X653770Y265838D01*
X653764Y265956D01*
X653762Y266074D01*
X653762Y275106D01*
X653764Y275224D01*
X653770Y275342D01*
X653779Y275460D01*
X653793Y275577D01*
X653810Y275694D01*
X653831Y275811D01*
X653856Y275926D01*
X653885Y276041D01*
X653918Y276155D01*
X653954Y276267D01*
X653994Y276378D01*
X654037Y276488D01*
X654084Y276597D01*
X654134Y276704D01*
X654188Y276809D01*
X654246Y276912D01*
X654307Y277013D01*
X654371Y277113D01*
X654438Y277210D01*
X654508Y277305D01*
X654582Y277397D01*
X654658Y277488D01*
X654738Y277575D01*
X654820Y277660D01*
X654905Y277742D01*
X654992Y277822D01*
X655083Y277898D01*
X655175Y277972D01*
X655270Y278042D01*
X655367Y278109D01*
X655467Y278173D01*
X655568Y278234D01*
X655671Y278291D01*
X655776Y278345D01*
X655883Y278396D01*
X655992Y278443D01*
X656102Y278486D01*
X656213Y278526D01*
X656325Y278562D01*
X656439Y278595D01*
X656554Y278624D01*
X656669Y278649D01*
X656786Y278670D01*
X656903Y278687D01*
X657020Y278701D01*
X657138Y278710D01*
X657256Y278716D01*
X657374Y278718D01*
X662793Y278718D01*
X670435Y278718D02*
X670435Y262462D01*
X679466Y262462D02*
X670435Y278718D01*
X679466Y278718D02*
X679466Y262462D01*
X687109Y262462D02*
X687109Y278718D01*
X691624Y278718D01*
X691755Y278716D01*
X691887Y278710D01*
X692018Y278701D01*
X692148Y278687D01*
X692279Y278670D01*
X692408Y278649D01*
X692537Y278625D01*
X692665Y278596D01*
X692793Y278564D01*
X692919Y278528D01*
X693044Y278489D01*
X693169Y278446D01*
X693291Y278399D01*
X693413Y278349D01*
X693533Y278295D01*
X693651Y278238D01*
X693767Y278177D01*
X693882Y278113D01*
X693995Y278046D01*
X694106Y277975D01*
X694214Y277901D01*
X694321Y277824D01*
X694425Y277744D01*
X694527Y277661D01*
X694626Y277576D01*
X694723Y277487D01*
X694817Y277395D01*
X694909Y277301D01*
X694998Y277204D01*
X695083Y277105D01*
X695166Y277003D01*
X695246Y276899D01*
X695323Y276792D01*
X695397Y276684D01*
X695468Y276573D01*
X695535Y276460D01*
X695599Y276345D01*
X695660Y276229D01*
X695717Y276111D01*
X695771Y275991D01*
X695821Y275869D01*
X695868Y275747D01*
X695911Y275622D01*
X695950Y275497D01*
X695986Y275371D01*
X696018Y275243D01*
X696047Y275115D01*
X696071Y274986D01*
X696092Y274857D01*
X696109Y274726D01*
X696123Y274596D01*
X696132Y274465D01*
X696138Y274333D01*
X696140Y274202D01*
X696140Y266978D01*
X696138Y266847D01*
X696132Y266715D01*
X696123Y266584D01*
X696109Y266454D01*
X696092Y266323D01*
X696071Y266194D01*
X696047Y266065D01*
X696018Y265937D01*
X695986Y265809D01*
X695950Y265683D01*
X695911Y265558D01*
X695868Y265433D01*
X695821Y265311D01*
X695771Y265189D01*
X695717Y265069D01*
X695660Y264951D01*
X695599Y264835D01*
X695535Y264720D01*
X695468Y264607D01*
X695397Y264496D01*
X695323Y264388D01*
X695246Y264281D01*
X695166Y264177D01*
X695083Y264075D01*
X694998Y263976D01*
X694909Y263879D01*
X694817Y263785D01*
X694723Y263693D01*
X694626Y263604D01*
X694527Y263519D01*
X694425Y263436D01*
X694321Y263356D01*
X694214Y263279D01*
X694106Y263205D01*
X693995Y263134D01*
X693882Y263067D01*
X693767Y263003D01*
X693651Y262942D01*
X693533Y262885D01*
X693413Y262831D01*
X693291Y262781D01*
X693169Y262734D01*
X693044Y262691D01*
X692919Y262652D01*
X692793Y262616D01*
X692665Y262584D01*
X692537Y262555D01*
X692408Y262531D01*
X692278Y262510D01*
X692148Y262493D01*
X692018Y262479D01*
X691887Y262470D01*
X691755Y262464D01*
X691624Y262462D01*
X687109Y262462D01*
D13*
X892321Y256273D02*
X892321Y251772D01*
X892321Y256273D02*
X893572Y256273D01*
X893641Y256271D01*
X893710Y256265D01*
X893778Y256256D01*
X893845Y256243D01*
X893912Y256226D01*
X893978Y256205D01*
X894042Y256181D01*
X894105Y256153D01*
X894167Y256122D01*
X894227Y256088D01*
X894284Y256050D01*
X894340Y256009D01*
X894393Y255966D01*
X894444Y255919D01*
X894492Y255870D01*
X894537Y255818D01*
X894579Y255763D01*
X894618Y255707D01*
X894655Y255648D01*
X894687Y255587D01*
X894717Y255525D01*
X894743Y255461D01*
X894765Y255396D01*
X894784Y255330D01*
X894799Y255263D01*
X894810Y255195D01*
X894818Y255126D01*
X894822Y255057D01*
X894822Y254989D01*
X894818Y254920D01*
X894810Y254851D01*
X894799Y254783D01*
X894784Y254716D01*
X894765Y254650D01*
X894743Y254585D01*
X894717Y254521D01*
X894687Y254459D01*
X894655Y254398D01*
X894618Y254339D01*
X894579Y254283D01*
X894537Y254228D01*
X894492Y254176D01*
X894444Y254127D01*
X894393Y254080D01*
X894340Y254037D01*
X894284Y253996D01*
X894227Y253958D01*
X894167Y253924D01*
X894105Y253893D01*
X894042Y253865D01*
X893978Y253841D01*
X893912Y253820D01*
X893845Y253803D01*
X893778Y253790D01*
X893710Y253781D01*
X893641Y253775D01*
X893572Y253773D01*
X893572Y253772D02*
X892321Y253772D01*
X893822Y253772D02*
X894822Y251772D01*
X896797Y255273D02*
X898047Y256273D01*
X898047Y251772D01*
X896797Y251772D02*
X899298Y251772D01*
X767914Y218794D02*
X767914Y217569D01*
X767912Y217500D01*
X767906Y217432D01*
X767897Y217364D01*
X767883Y217296D01*
X767866Y217230D01*
X767845Y217164D01*
X767821Y217100D01*
X767793Y217038D01*
X767761Y216976D01*
X767726Y216917D01*
X767688Y216860D01*
X767647Y216805D01*
X767602Y216753D01*
X767555Y216703D01*
X767505Y216656D01*
X767453Y216611D01*
X767398Y216570D01*
X767341Y216532D01*
X767282Y216497D01*
X767221Y216465D01*
X767158Y216437D01*
X767094Y216413D01*
X767028Y216392D01*
X766962Y216375D01*
X766894Y216361D01*
X766826Y216352D01*
X766758Y216346D01*
X766689Y216344D01*
X763626Y216344D01*
X763557Y216346D01*
X763489Y216352D01*
X763421Y216361D01*
X763353Y216375D01*
X763287Y216392D01*
X763221Y216413D01*
X763157Y216437D01*
X763095Y216465D01*
X763033Y216497D01*
X762974Y216532D01*
X762917Y216570D01*
X762862Y216611D01*
X762810Y216656D01*
X762760Y216703D01*
X762713Y216753D01*
X762668Y216805D01*
X762627Y216860D01*
X762589Y216917D01*
X762554Y216976D01*
X762522Y217037D01*
X762494Y217100D01*
X762470Y217164D01*
X762449Y217230D01*
X762432Y217296D01*
X762418Y217364D01*
X762409Y217432D01*
X762403Y217500D01*
X762401Y217569D01*
X762401Y218794D01*
X763626Y220876D02*
X762401Y222407D01*
X767914Y222407D01*
X767914Y220876D02*
X767914Y223939D01*
D11*
X773050Y232000D02*
X773050Y235000D01*
X782050Y235000D02*
X782050Y232000D01*
X1055700Y243950D02*
X1055700Y273950D01*
X1069700Y273950D02*
X1069700Y246250D01*
D14*
X1050073Y250377D02*
X1046263Y250377D01*
X1046263Y251435D01*
X1046265Y251499D01*
X1046271Y251563D01*
X1046280Y251626D01*
X1046294Y251688D01*
X1046311Y251750D01*
X1046332Y251810D01*
X1046356Y251869D01*
X1046384Y251927D01*
X1046416Y251982D01*
X1046450Y252036D01*
X1046488Y252087D01*
X1046529Y252137D01*
X1046573Y252183D01*
X1046619Y252227D01*
X1046669Y252268D01*
X1046720Y252306D01*
X1046774Y252340D01*
X1046829Y252372D01*
X1046887Y252400D01*
X1046946Y252424D01*
X1047006Y252445D01*
X1047068Y252462D01*
X1047130Y252476D01*
X1047194Y252485D01*
X1047257Y252491D01*
X1047321Y252493D01*
X1047321Y252494D02*
X1049015Y252494D01*
X1049015Y252493D02*
X1049079Y252491D01*
X1049143Y252485D01*
X1049206Y252476D01*
X1049268Y252462D01*
X1049330Y252445D01*
X1049390Y252424D01*
X1049449Y252400D01*
X1049507Y252372D01*
X1049562Y252340D01*
X1049616Y252306D01*
X1049667Y252268D01*
X1049717Y252227D01*
X1049763Y252183D01*
X1049807Y252137D01*
X1049848Y252087D01*
X1049886Y252036D01*
X1049920Y251982D01*
X1049952Y251927D01*
X1049980Y251869D01*
X1050004Y251810D01*
X1050025Y251750D01*
X1050042Y251688D01*
X1050056Y251626D01*
X1050065Y251563D01*
X1050071Y251499D01*
X1050073Y251435D01*
X1050073Y250377D01*
X1047110Y254157D02*
X1046263Y255215D01*
X1050073Y255215D01*
X1050073Y254157D02*
X1050073Y256273D01*
D11*
X1055700Y273950D02*
X1056900Y273950D01*
X1068400Y273950D02*
X1069700Y273950D01*
X1069700Y246150D02*
X1069700Y245350D01*
X1069600Y245250D02*
X1068700Y243950D01*
X1066400Y254050D02*
X1059200Y254050D01*
X1062900Y255850D02*
X1066400Y254050D01*
X1062900Y255850D02*
X1059200Y254050D01*
X1056800Y243950D02*
X1055700Y243950D01*
X1068400Y243950D02*
X1068500Y243950D01*
D15*
X829050Y237550D02*
X829052Y237581D01*
X829058Y237612D01*
X829068Y237642D01*
X829081Y237670D01*
X829098Y237697D01*
X829118Y237721D01*
X829141Y237743D01*
X829166Y237761D01*
X829194Y237776D01*
X829223Y237788D01*
X829253Y237796D01*
X829284Y237800D01*
X829316Y237800D01*
X829347Y237796D01*
X829377Y237788D01*
X829406Y237776D01*
X829434Y237761D01*
X829459Y237743D01*
X829482Y237721D01*
X829502Y237697D01*
X829519Y237670D01*
X829532Y237642D01*
X829542Y237612D01*
X829548Y237581D01*
X829550Y237550D01*
X829548Y237519D01*
X829542Y237488D01*
X829532Y237458D01*
X829519Y237430D01*
X829502Y237403D01*
X829482Y237379D01*
X829459Y237357D01*
X829434Y237339D01*
X829406Y237324D01*
X829377Y237312D01*
X829347Y237304D01*
X829316Y237300D01*
X829284Y237300D01*
X829253Y237304D01*
X829223Y237312D01*
X829194Y237324D01*
X829166Y237339D01*
X829141Y237357D01*
X829118Y237379D01*
X829098Y237403D01*
X829081Y237430D01*
X829068Y237458D01*
X829058Y237488D01*
X829052Y237519D01*
X829050Y237550D01*
D14*
X823428Y221819D02*
X823428Y219360D01*
X823430Y219299D01*
X823436Y219239D01*
X823445Y219179D01*
X823459Y219120D01*
X823476Y219062D01*
X823497Y219005D01*
X823522Y218950D01*
X823550Y218896D01*
X823581Y218844D01*
X823616Y218794D01*
X823654Y218747D01*
X823694Y218702D01*
X823738Y218660D01*
X823784Y218620D01*
X823833Y218584D01*
X823884Y218551D01*
X823936Y218521D01*
X823991Y218495D01*
X824047Y218472D01*
X824105Y218453D01*
X824163Y218438D01*
X824223Y218426D01*
X824283Y218418D01*
X824344Y218414D01*
X824404Y218414D01*
X824465Y218418D01*
X824525Y218426D01*
X824585Y218438D01*
X824643Y218453D01*
X824701Y218472D01*
X824757Y218495D01*
X824812Y218521D01*
X824864Y218551D01*
X824915Y218584D01*
X824964Y218620D01*
X825010Y218660D01*
X825054Y218702D01*
X825094Y218747D01*
X825132Y218794D01*
X825167Y218844D01*
X825198Y218896D01*
X825226Y218950D01*
X825251Y219005D01*
X825272Y219062D01*
X825289Y219120D01*
X825303Y219179D01*
X825312Y219239D01*
X825318Y219299D01*
X825320Y219360D01*
X825319Y219360D02*
X825319Y221819D01*
X827557Y221819D02*
X827557Y218414D01*
X827557Y220117D02*
X827084Y220400D01*
X827084Y220401D02*
X827045Y220426D01*
X827008Y220456D01*
X826973Y220488D01*
X826942Y220523D01*
X826913Y220560D01*
X826887Y220600D01*
X826865Y220641D01*
X826847Y220685D01*
X826832Y220729D01*
X826821Y220775D01*
X826814Y220822D01*
X826810Y220869D01*
X826811Y220916D01*
X826815Y220963D01*
X826824Y221009D01*
X826836Y221055D01*
X826852Y221099D01*
X826872Y221142D01*
X826895Y221183D01*
X826921Y221222D01*
X826951Y221259D01*
X826984Y221293D01*
X827019Y221324D01*
X827057Y221352D01*
X827097Y221377D01*
X827139Y221398D01*
X827182Y221416D01*
X827227Y221430D01*
X827273Y221441D01*
X827274Y221441D02*
X827345Y221452D01*
X827416Y221460D01*
X827488Y221464D01*
X827560Y221465D01*
X827632Y221462D01*
X827704Y221456D01*
X827775Y221447D01*
X827846Y221434D01*
X827916Y221418D01*
X827986Y221398D01*
X828054Y221375D01*
X828121Y221349D01*
X828187Y221320D01*
X828251Y221287D01*
X828314Y221251D01*
X827557Y220117D02*
X828030Y219833D01*
X828030Y219832D02*
X828069Y219807D01*
X828106Y219777D01*
X828141Y219745D01*
X828172Y219710D01*
X828201Y219673D01*
X828227Y219633D01*
X828249Y219592D01*
X828267Y219548D01*
X828282Y219504D01*
X828293Y219458D01*
X828300Y219411D01*
X828304Y219364D01*
X828303Y219317D01*
X828299Y219270D01*
X828290Y219224D01*
X828278Y219178D01*
X828262Y219134D01*
X828242Y219091D01*
X828219Y219050D01*
X828193Y219011D01*
X828163Y218974D01*
X828130Y218940D01*
X828095Y218909D01*
X828057Y218881D01*
X828017Y218856D01*
X827975Y218835D01*
X827931Y218817D01*
X827887Y218803D01*
X827841Y218792D01*
X827840Y218792D02*
X827769Y218781D01*
X827698Y218773D01*
X827626Y218769D01*
X827554Y218768D01*
X827482Y218771D01*
X827410Y218777D01*
X827338Y218786D01*
X827267Y218799D01*
X827197Y218815D01*
X827128Y218835D01*
X827060Y218858D01*
X826992Y218884D01*
X826927Y218914D01*
X826862Y218946D01*
X826800Y218982D01*
X829685Y218414D02*
X830630Y218414D01*
X830691Y218416D01*
X830751Y218422D01*
X830811Y218431D01*
X830870Y218445D01*
X830928Y218462D01*
X830985Y218483D01*
X831040Y218508D01*
X831094Y218536D01*
X831146Y218567D01*
X831196Y218602D01*
X831243Y218640D01*
X831288Y218680D01*
X831330Y218724D01*
X831370Y218770D01*
X831406Y218819D01*
X831439Y218870D01*
X831469Y218922D01*
X831495Y218977D01*
X831518Y219033D01*
X831537Y219091D01*
X831552Y219149D01*
X831564Y219209D01*
X831572Y219269D01*
X831576Y219330D01*
X831576Y219390D01*
X831572Y219451D01*
X831564Y219511D01*
X831552Y219571D01*
X831537Y219629D01*
X831518Y219687D01*
X831495Y219743D01*
X831469Y219798D01*
X831439Y219850D01*
X831406Y219901D01*
X831370Y219950D01*
X831330Y219996D01*
X831288Y220040D01*
X831243Y220080D01*
X831196Y220118D01*
X831146Y220153D01*
X831094Y220184D01*
X831040Y220212D01*
X830985Y220237D01*
X830928Y220258D01*
X830870Y220275D01*
X830811Y220289D01*
X830751Y220298D01*
X830691Y220304D01*
X830630Y220306D01*
X830820Y221819D02*
X829685Y221819D01*
X830820Y221820D02*
X830874Y221818D01*
X830928Y221812D01*
X830981Y221803D01*
X831033Y221789D01*
X831085Y221772D01*
X831134Y221752D01*
X831183Y221727D01*
X831229Y221700D01*
X831274Y221669D01*
X831316Y221635D01*
X831355Y221598D01*
X831392Y221559D01*
X831426Y221517D01*
X831457Y221472D01*
X831484Y221426D01*
X831509Y221377D01*
X831529Y221328D01*
X831546Y221276D01*
X831560Y221224D01*
X831569Y221171D01*
X831575Y221117D01*
X831577Y221063D01*
X831575Y221009D01*
X831569Y220955D01*
X831560Y220902D01*
X831546Y220850D01*
X831529Y220798D01*
X831509Y220749D01*
X831484Y220700D01*
X831457Y220654D01*
X831426Y220609D01*
X831392Y220567D01*
X831355Y220528D01*
X831316Y220491D01*
X831274Y220457D01*
X831229Y220426D01*
X831183Y220399D01*
X831134Y220374D01*
X831085Y220354D01*
X831033Y220337D01*
X830981Y220323D01*
X830928Y220314D01*
X830874Y220308D01*
X830820Y220306D01*
X830063Y220306D01*
M02*
