G04 EAGLE Gerber X2 export*
%TF.Part,Single*%
%TF.FileFunction,Other,Solder side*%
%TF.FilePolarity,Positive*%
%TF.GenerationSoftware,Autodesk,EAGLE,8.6.3*%
%TF.CreationDate,2019-05-14T12:41:01Z*%
G75*
%MOMM*%
%FSLAX34Y34*%
%LPD*%
%AMOC8*
5,1,8,0,0,1.08239X$1,22.5*%
G01*
%ADD10C,0.254000*%
%ADD11C,1.016000*%


D10*
X624840Y88900D02*
X624840Y241300D01*
X624840Y88900D02*
X701040Y12700D01*
X1069340Y12700D01*
X1145540Y88900D01*
X1145540Y444500D01*
X1069340Y520700D01*
X713740Y520700D01*
X637540Y444500D01*
X637540Y92710D01*
X704850Y25400D01*
X1064260Y25400D01*
X1132840Y93980D01*
X1132840Y440690D01*
X1065530Y508000D01*
X717550Y508000D01*
X650240Y440690D01*
X650240Y97790D01*
X709930Y38100D01*
X1059180Y38100D01*
X1120140Y99060D01*
X1120140Y436880D01*
X1061720Y495300D01*
X722630Y495300D01*
X662940Y435610D01*
X662940Y266700D01*
D11*
X624840Y241300D03*
D10*
X662940Y266700D02*
X662940Y101600D01*
X713740Y50800D01*
X1056640Y50800D01*
X1107440Y101600D01*
X1107440Y431800D01*
X1056640Y482600D01*
X726440Y482600D01*
X675640Y431800D01*
X675640Y104140D01*
X716280Y63500D01*
X1052830Y63500D01*
X1094740Y105410D01*
X1094740Y427990D01*
X1052830Y469900D01*
X730250Y469900D01*
X688340Y427990D01*
X688340Y109220D01*
X721360Y76200D01*
X1047750Y76200D01*
X1082040Y110490D01*
X1082040Y422910D01*
X1047750Y457200D01*
X736600Y457200D01*
X701040Y421640D01*
X701040Y292100D01*
D11*
X662940Y266700D03*
X701040Y292100D03*
X601980Y266700D03*
M02*
