G04 EAGLE Gerber X2 export*
%TF.Part,Single*%
%TF.FileFunction,Other,Silk screen CMP*%
%TF.FilePolarity,Positive*%
%TF.GenerationSoftware,Autodesk,EAGLE,8.6.3*%
%TF.CreationDate,2019-05-14T12:41:01Z*%
G75*
%MOMM*%
%FSLAX34Y34*%
%LPD*%
%AMOC8*
5,1,8,0,0,1.08239X$1,22.5*%
G01*
%ADD10C,0.203200*%
%ADD11C,0.279400*%
%ADD12C,0.152400*%
%ADD13C,0.000000*%
%ADD14C,0.025400*%
%ADD15R,0.406400X0.711200*%
%ADD16C,0.406400*%
%ADD17R,0.485100X0.495300*%
%ADD18C,0.050800*%
%ADD19C,0.127000*%
%ADD20C,0.254000*%

G36*
X964213Y271121D02*
X964213Y271121D01*
X964222Y271125D01*
X964234Y271123D01*
X965273Y271330D01*
X965281Y271335D01*
X965292Y271335D01*
X966289Y271693D01*
X966296Y271699D01*
X966307Y271700D01*
X967241Y272202D01*
X967248Y272211D01*
X967260Y272214D01*
X968397Y273121D01*
X968403Y273132D01*
X968416Y273139D01*
X969337Y274265D01*
X969349Y274308D01*
X969365Y274349D01*
X969363Y274354D01*
X969364Y274360D01*
X969343Y274398D01*
X969324Y274438D01*
X969318Y274441D01*
X969316Y274445D01*
X969287Y274453D01*
X969239Y274471D01*
X968359Y274471D01*
X968239Y274487D01*
X968136Y274531D01*
X967797Y274805D01*
X967548Y275166D01*
X967483Y275340D01*
X967425Y275879D01*
X967523Y276408D01*
X967772Y276896D01*
X968423Y277798D01*
X968777Y278210D01*
X969187Y278561D01*
X969645Y278844D01*
X970139Y279050D01*
X970439Y279109D01*
X970742Y279097D01*
X971261Y278940D01*
X971721Y278654D01*
X972091Y278259D01*
X972346Y277778D01*
X972485Y277288D01*
X972542Y276777D01*
X972542Y276174D01*
X972542Y276173D01*
X972551Y276152D01*
X972580Y276083D01*
X972672Y276048D01*
X972682Y276052D01*
X972757Y276086D01*
X972760Y276088D01*
X972761Y276089D01*
X972762Y276090D01*
X972782Y276111D01*
X972785Y276118D01*
X972793Y276122D01*
X973131Y276557D01*
X973135Y276572D01*
X973147Y276584D01*
X973368Y277088D01*
X973368Y277089D01*
X973520Y277445D01*
X973621Y277673D01*
X973622Y277684D01*
X973628Y277693D01*
X973848Y278571D01*
X973847Y278580D01*
X973851Y278590D01*
X973937Y279490D01*
X973933Y279500D01*
X973937Y279512D01*
X973871Y280380D01*
X973865Y280391D01*
X973866Y280404D01*
X973635Y281244D01*
X973627Y281254D01*
X973626Y281267D01*
X973238Y282047D01*
X973230Y282054D01*
X973227Y282065D01*
X972667Y282842D01*
X972660Y282846D01*
X972656Y282855D01*
X971998Y283551D01*
X971987Y283556D01*
X971979Y283567D01*
X971376Y283998D01*
X971361Y284001D01*
X971348Y284013D01*
X970656Y284280D01*
X970640Y284280D01*
X970625Y284288D01*
X969888Y284375D01*
X969873Y284370D01*
X969856Y284374D01*
X969121Y284275D01*
X969108Y284267D01*
X969091Y284267D01*
X968403Y283987D01*
X968394Y283978D01*
X968380Y283975D01*
X966622Y282788D01*
X966617Y282780D01*
X966606Y282776D01*
X965065Y281323D01*
X964630Y280953D01*
X964127Y280713D01*
X963579Y280611D01*
X963023Y280654D01*
X962498Y280840D01*
X962038Y281155D01*
X961673Y281580D01*
X961380Y282123D01*
X961182Y282709D01*
X961085Y283319D01*
X961120Y284030D01*
X961327Y284708D01*
X961692Y285314D01*
X962020Y285627D01*
X962424Y285833D01*
X962840Y285926D01*
X963268Y285926D01*
X963683Y285833D01*
X963821Y285761D01*
X963935Y285643D01*
X964534Y284819D01*
X964605Y284686D01*
X964633Y284548D01*
X964617Y284390D01*
X964631Y284347D01*
X964642Y284302D01*
X964646Y284300D01*
X964647Y284296D01*
X964688Y284276D01*
X964727Y284253D01*
X964731Y284254D01*
X964735Y284252D01*
X964778Y284267D01*
X964822Y284280D01*
X964824Y284283D01*
X964828Y284285D01*
X964847Y284322D01*
X964868Y284358D01*
X964944Y284841D01*
X964943Y284846D01*
X964945Y284851D01*
X965018Y285791D01*
X965015Y285800D01*
X965018Y285811D01*
X964945Y286751D01*
X964940Y286761D01*
X964941Y286773D01*
X964757Y287472D01*
X964749Y287482D01*
X964748Y287496D01*
X964427Y288144D01*
X964418Y288152D01*
X964414Y288166D01*
X963969Y288736D01*
X963958Y288742D01*
X963952Y288754D01*
X963402Y289224D01*
X963390Y289228D01*
X963381Y289239D01*
X962649Y289640D01*
X962636Y289641D01*
X962625Y289650D01*
X961826Y289890D01*
X961813Y289889D01*
X961800Y289895D01*
X960969Y289965D01*
X960963Y289963D01*
X960958Y289965D01*
X945794Y289965D01*
X945789Y289963D01*
X945785Y289965D01*
X945745Y289944D01*
X945703Y289927D01*
X945702Y289922D01*
X945697Y289920D01*
X945684Y289877D01*
X945668Y289835D01*
X945670Y289830D01*
X945668Y289826D01*
X945704Y289756D01*
X945709Y289746D01*
X945710Y289745D01*
X951192Y284873D01*
X951974Y284019D01*
X952563Y283029D01*
X952690Y282678D01*
X952755Y282310D01*
X952755Y280035D01*
X952757Y280030D01*
X952755Y280024D01*
X952879Y278660D01*
X952885Y278650D01*
X952883Y278638D01*
X953251Y277319D01*
X953259Y277311D01*
X953260Y277298D01*
X953860Y276068D01*
X953867Y276061D01*
X953870Y276050D01*
X954687Y274893D01*
X954695Y274888D01*
X954698Y274879D01*
X955670Y273848D01*
X955678Y273844D01*
X955683Y273836D01*
X956790Y272951D01*
X956800Y272949D01*
X956807Y272940D01*
X958488Y271993D01*
X958499Y271992D01*
X958509Y271984D01*
X960333Y271356D01*
X960344Y271357D01*
X960355Y271350D01*
X962262Y271062D01*
X962273Y271065D01*
X962285Y271061D01*
X964213Y271121D01*
G37*
G36*
X934450Y329477D02*
X934450Y329477D01*
X934462Y329474D01*
X936662Y329757D01*
X936672Y329762D01*
X936684Y329762D01*
X938797Y330436D01*
X938807Y330444D01*
X938820Y330446D01*
X939861Y331025D01*
X939869Y331036D01*
X939883Y331041D01*
X940773Y331833D01*
X940778Y331843D01*
X940788Y331849D01*
X941441Y332673D01*
X941443Y332681D01*
X941450Y332687D01*
X941991Y333589D01*
X941993Y333599D01*
X942001Y333608D01*
X942401Y334633D01*
X942401Y334645D01*
X942408Y334657D01*
X942591Y335742D01*
X942589Y335753D01*
X942593Y335765D01*
X942568Y337746D01*
X942563Y337757D01*
X942566Y337770D01*
X942464Y338252D01*
X942457Y338261D01*
X942457Y338273D01*
X941924Y339594D01*
X941917Y339601D01*
X941916Y339611D01*
X941683Y340005D01*
X941674Y340012D01*
X941669Y340024D01*
X941368Y340367D01*
X941362Y340370D01*
X941359Y340377D01*
X940622Y341055D01*
X940394Y341266D01*
X940393Y341266D01*
X940392Y341267D01*
X940243Y341401D01*
X942160Y341377D01*
X942175Y341383D01*
X942189Y341380D01*
X942218Y341400D01*
X942252Y341414D01*
X942257Y341428D01*
X942270Y341437D01*
X942277Y341478D01*
X942288Y341505D01*
X942284Y341515D01*
X942286Y341527D01*
X941550Y345413D01*
X941528Y345446D01*
X941511Y345482D01*
X941501Y345486D01*
X941495Y345494D01*
X941466Y345500D01*
X941426Y345515D01*
X920852Y345515D01*
X920846Y345513D01*
X920839Y345515D01*
X920782Y345486D01*
X920761Y345477D01*
X920760Y345475D01*
X920758Y345474D01*
X917024Y341334D01*
X917009Y341289D01*
X916992Y341245D01*
X916993Y341243D01*
X916992Y341241D01*
X917013Y341198D01*
X917033Y341156D01*
X917035Y341155D01*
X917036Y341153D01*
X917058Y341146D01*
X917118Y341123D01*
X928222Y341123D01*
X928220Y341122D01*
X927504Y340602D01*
X927497Y340591D01*
X927484Y340584D01*
X926894Y339924D01*
X926891Y339914D01*
X926889Y339913D01*
X926888Y339910D01*
X926879Y339902D01*
X926442Y339133D01*
X926440Y339120D01*
X926431Y339108D01*
X926167Y338264D01*
X926168Y338253D01*
X926162Y338242D01*
X926007Y337025D01*
X926009Y337016D01*
X926006Y337007D01*
X926023Y335780D01*
X926026Y335772D01*
X926024Y335762D01*
X926213Y334550D01*
X926218Y334541D01*
X926218Y334530D01*
X926512Y333611D01*
X926519Y333603D01*
X926521Y333591D01*
X926967Y332735D01*
X926975Y332729D01*
X926978Y332717D01*
X927563Y331949D01*
X927572Y331944D01*
X927577Y331933D01*
X928284Y331276D01*
X928286Y331275D01*
X928287Y331273D01*
X928295Y331270D01*
X928301Y331262D01*
X929486Y330490D01*
X929496Y330488D01*
X929505Y330480D01*
X930805Y329924D01*
X930816Y329924D01*
X930826Y329917D01*
X932202Y329594D01*
X932213Y329596D01*
X932224Y329591D01*
X934439Y329473D01*
X934450Y329477D01*
G37*
G36*
X938056Y171455D02*
X938056Y171455D01*
X938066Y171452D01*
X939162Y171621D01*
X939173Y171627D01*
X939187Y171627D01*
X940226Y172013D01*
X940235Y172022D01*
X940249Y172025D01*
X941188Y172613D01*
X941195Y172623D01*
X941201Y172625D01*
X941201Y172626D01*
X941209Y172629D01*
X941873Y173275D01*
X941878Y173287D01*
X941891Y173296D01*
X942398Y174070D01*
X942400Y174084D01*
X942411Y174095D01*
X942737Y174961D01*
X942737Y174972D01*
X942743Y174982D01*
X942992Y176242D01*
X942990Y176249D01*
X942994Y176256D01*
X943101Y177535D01*
X943098Y177545D01*
X943101Y177555D01*
X943040Y178449D01*
X943034Y178459D01*
X943036Y178473D01*
X942804Y179338D01*
X942797Y179348D01*
X942796Y179361D01*
X942402Y180166D01*
X942395Y180173D01*
X942392Y180185D01*
X941754Y181074D01*
X941746Y181078D01*
X941742Y181088D01*
X940983Y181876D01*
X940980Y181877D01*
X940979Y181880D01*
X940498Y182335D01*
X940456Y182377D01*
X941114Y182757D01*
X941121Y182767D01*
X941134Y182771D01*
X941803Y183353D01*
X941804Y183356D01*
X941806Y183357D01*
X941809Y183365D01*
X941820Y183371D01*
X942366Y184069D01*
X942369Y184081D01*
X942379Y184090D01*
X942782Y184880D01*
X942783Y184892D01*
X942792Y184903D01*
X943052Y185826D01*
X943051Y185838D01*
X943057Y185851D01*
X943126Y186808D01*
X943123Y186818D01*
X943126Y186829D01*
X942999Y188201D01*
X942995Y188208D01*
X942996Y188218D01*
X942742Y189310D01*
X942735Y189320D01*
X942734Y189333D01*
X942330Y190223D01*
X942318Y190233D01*
X942313Y190249D01*
X941701Y191011D01*
X941694Y191015D01*
X941691Y191023D01*
X940904Y191785D01*
X940897Y191787D01*
X940893Y191794D01*
X940497Y192096D01*
X940490Y192127D01*
X942543Y192127D01*
X942545Y192128D01*
X942547Y192127D01*
X942590Y192147D01*
X942634Y192165D01*
X942634Y192167D01*
X942636Y192168D01*
X942669Y192253D01*
X942669Y196240D01*
X942668Y196242D01*
X942669Y196244D01*
X942649Y196287D01*
X942631Y196331D01*
X942629Y196331D01*
X942628Y196333D01*
X942543Y196366D01*
X926490Y196366D01*
X926488Y196365D01*
X926486Y196366D01*
X926443Y196346D01*
X926399Y196328D01*
X926399Y196326D01*
X926397Y196325D01*
X926364Y196240D01*
X926364Y191922D01*
X926365Y191920D01*
X926364Y191918D01*
X926384Y191875D01*
X926402Y191831D01*
X926404Y191831D01*
X926405Y191829D01*
X926490Y191796D01*
X936295Y191796D01*
X936298Y191797D01*
X936301Y191796D01*
X936923Y191826D01*
X937514Y191695D01*
X938052Y191411D01*
X938996Y190592D01*
X939262Y190237D01*
X939440Y189833D01*
X939522Y189393D01*
X939572Y188545D01*
X939540Y188068D01*
X939404Y187618D01*
X939171Y187209D01*
X938853Y186862D01*
X938306Y186492D01*
X937687Y186261D01*
X937024Y186181D01*
X926465Y186181D01*
X926463Y186180D01*
X926461Y186181D01*
X926418Y186161D01*
X926374Y186143D01*
X926374Y186141D01*
X926372Y186140D01*
X926339Y186055D01*
X926339Y181737D01*
X926340Y181735D01*
X926339Y181733D01*
X926359Y181690D01*
X926377Y181646D01*
X926379Y181646D01*
X926380Y181644D01*
X926465Y181611D01*
X935986Y181611D01*
X937089Y181536D01*
X937728Y181387D01*
X938323Y181114D01*
X938851Y180729D01*
X939137Y180411D01*
X939347Y180039D01*
X939473Y179629D01*
X939565Y178726D01*
X939497Y177822D01*
X939369Y177374D01*
X939143Y176968D01*
X938830Y176625D01*
X938446Y176364D01*
X937624Y176052D01*
X936744Y175945D01*
X926465Y175945D01*
X926463Y175944D01*
X926461Y175945D01*
X926418Y175925D01*
X926374Y175907D01*
X926374Y175905D01*
X926372Y175904D01*
X926339Y175819D01*
X926339Y171577D01*
X926340Y171575D01*
X926339Y171573D01*
X926359Y171530D01*
X926377Y171486D01*
X926379Y171486D01*
X926380Y171484D01*
X926465Y171451D01*
X938047Y171451D01*
X938056Y171455D01*
G37*
G36*
X926512Y312810D02*
X926512Y312810D01*
X926534Y312810D01*
X926733Y312884D01*
X928028Y313233D01*
X929365Y313335D01*
X933703Y313310D01*
X933706Y313311D01*
X933708Y313310D01*
X933751Y313330D01*
X933784Y313343D01*
X933806Y313335D01*
X938632Y313335D01*
X938639Y313338D01*
X938648Y313336D01*
X939383Y313427D01*
X939396Y313434D01*
X939413Y313434D01*
X940104Y313701D01*
X940114Y313712D01*
X940131Y313716D01*
X940736Y314143D01*
X940744Y314156D01*
X940759Y314164D01*
X941242Y314726D01*
X941246Y314739D01*
X941257Y314749D01*
X941951Y316052D01*
X941952Y316064D01*
X941960Y316075D01*
X942385Y317489D01*
X942384Y317499D01*
X942389Y317508D01*
X942619Y319247D01*
X942617Y319255D01*
X942620Y319263D01*
X942628Y321017D01*
X942625Y321024D01*
X942628Y321033D01*
X942414Y322773D01*
X942410Y322781D01*
X942411Y322791D01*
X942077Y324020D01*
X942070Y324028D01*
X942070Y324039D01*
X941541Y325197D01*
X941532Y325205D01*
X941529Y325218D01*
X940955Y326035D01*
X940944Y326042D01*
X940938Y326055D01*
X940565Y326404D01*
X940295Y326656D01*
X940208Y326738D01*
X940196Y326742D01*
X940187Y326754D01*
X939334Y327273D01*
X939321Y327275D01*
X939310Y327285D01*
X938369Y327619D01*
X938356Y327618D01*
X938343Y327625D01*
X937452Y327747D01*
X937450Y327750D01*
X937450Y327751D01*
X937403Y327769D01*
X937358Y327786D01*
X937353Y327784D01*
X937275Y327751D01*
X937249Y327726D01*
X937231Y327686D01*
X937210Y327648D01*
X937212Y327642D01*
X937210Y327635D01*
X937227Y327595D01*
X937236Y327565D01*
X937236Y323418D01*
X937237Y323416D01*
X937236Y323414D01*
X937256Y323371D01*
X937274Y323327D01*
X937276Y323327D01*
X937277Y323325D01*
X937362Y323292D01*
X937405Y323292D01*
X937936Y323229D01*
X938431Y323045D01*
X938869Y322750D01*
X939225Y322360D01*
X939480Y321896D01*
X939645Y321335D01*
X939699Y320748D01*
X939649Y319393D01*
X939588Y319024D01*
X939460Y318678D01*
X939267Y318364D01*
X939033Y318111D01*
X938754Y317912D01*
X938440Y317773D01*
X937919Y317662D01*
X937388Y317662D01*
X936867Y317773D01*
X936770Y317815D01*
X936683Y317875D01*
X936422Y318159D01*
X936176Y318587D01*
X936011Y319056D01*
X935785Y320362D01*
X935557Y322568D01*
X935554Y322572D01*
X935555Y322577D01*
X935277Y324114D01*
X935273Y324122D01*
X935273Y324131D01*
X934789Y325616D01*
X934782Y325624D01*
X934781Y325636D01*
X934415Y326332D01*
X934405Y326340D01*
X934401Y326353D01*
X933903Y326963D01*
X933892Y326969D01*
X933885Y326981D01*
X933276Y327479D01*
X933263Y327483D01*
X933252Y327494D01*
X932390Y327923D01*
X932375Y327924D01*
X932361Y327933D01*
X931420Y328139D01*
X931407Y328137D01*
X931393Y328142D01*
X930332Y328145D01*
X930322Y328140D01*
X930309Y328143D01*
X929265Y327954D01*
X929256Y327948D01*
X929243Y327948D01*
X928250Y327575D01*
X928241Y327567D01*
X928229Y327565D01*
X927746Y327273D01*
X927739Y327264D01*
X927727Y327259D01*
X927307Y326882D01*
X927302Y326871D01*
X927291Y326864D01*
X926949Y326416D01*
X926945Y326403D01*
X926935Y326393D01*
X926329Y325124D01*
X926329Y325111D01*
X926320Y325098D01*
X926012Y323726D01*
X926014Y323714D01*
X926009Y323701D01*
X925971Y322066D01*
X925975Y322056D01*
X925972Y322045D01*
X926213Y320427D01*
X926219Y320418D01*
X926218Y320405D01*
X926571Y319370D01*
X926578Y319361D01*
X926580Y319349D01*
X927120Y318398D01*
X927129Y318391D01*
X927134Y318378D01*
X927837Y317551D01*
X927853Y317527D01*
X927854Y317518D01*
X927852Y317510D01*
X927846Y317504D01*
X927823Y317494D01*
X926794Y317267D01*
X926791Y317266D01*
X926788Y317266D01*
X926508Y317190D01*
X926494Y317179D01*
X926475Y317176D01*
X926439Y317154D01*
X926422Y317130D01*
X926393Y317103D01*
X926374Y317066D01*
X926372Y317036D01*
X926361Y316998D01*
X926364Y316962D01*
X926364Y312928D01*
X926373Y312905D01*
X926373Y312880D01*
X926392Y312862D01*
X926402Y312837D01*
X926425Y312828D01*
X926443Y312811D01*
X926472Y312810D01*
X926494Y312802D01*
X926512Y312810D01*
G37*
G36*
X926471Y283375D02*
X926471Y283375D01*
X926510Y283384D01*
X936405Y289981D01*
X941971Y284290D01*
X941972Y284289D01*
X941973Y284287D01*
X942018Y284270D01*
X942062Y284252D01*
X942063Y284252D01*
X942065Y284252D01*
X942108Y284272D01*
X942152Y284291D01*
X942153Y284292D01*
X942154Y284293D01*
X942187Y284378D01*
X942187Y289052D01*
X942186Y289055D01*
X942187Y289058D01*
X942150Y289141D01*
X936676Y294616D01*
X948106Y294616D01*
X948138Y294629D01*
X948172Y294634D01*
X948182Y294648D01*
X948197Y294654D01*
X948209Y294686D01*
X948229Y294715D01*
X948227Y294732D01*
X948232Y294746D01*
X948221Y294771D01*
X948216Y294805D01*
X945854Y298945D01*
X945837Y298957D01*
X945829Y298975D01*
X945797Y298988D01*
X945775Y299004D01*
X945760Y299002D01*
X945744Y299008D01*
X926414Y299008D01*
X926411Y299007D01*
X926408Y299008D01*
X926325Y298971D01*
X926274Y298920D01*
X926273Y298917D01*
X926270Y298916D01*
X926237Y298831D01*
X926237Y294691D01*
X926238Y294689D01*
X926237Y294687D01*
X926257Y294644D01*
X926275Y294600D01*
X926277Y294600D01*
X926278Y294598D01*
X926363Y294565D01*
X931771Y294565D01*
X933378Y292910D01*
X926400Y288677D01*
X926389Y288662D01*
X926372Y288654D01*
X926359Y288620D01*
X926342Y288597D01*
X926344Y288584D01*
X926339Y288570D01*
X926314Y283490D01*
X926329Y283454D01*
X926337Y283416D01*
X926347Y283410D01*
X926352Y283399D01*
X926388Y283385D01*
X926421Y283364D01*
X926433Y283367D01*
X926443Y283363D01*
X926471Y283375D01*
G37*
G36*
X942088Y257152D02*
X942088Y257152D01*
X942090Y257151D01*
X942133Y257171D01*
X942177Y257189D01*
X942177Y257191D01*
X942179Y257192D01*
X942212Y257277D01*
X942212Y261493D01*
X942211Y261495D01*
X942212Y261497D01*
X942192Y261540D01*
X942174Y261584D01*
X942172Y261584D01*
X942171Y261586D01*
X942086Y261619D01*
X933784Y261619D01*
X932554Y261695D01*
X931350Y261920D01*
X930800Y262129D01*
X930315Y262456D01*
X929918Y262887D01*
X929630Y263397D01*
X929418Y264088D01*
X929351Y264809D01*
X929431Y265528D01*
X929654Y266217D01*
X929879Y266612D01*
X930180Y266953D01*
X930542Y267225D01*
X931310Y267568D01*
X932140Y267717D01*
X942137Y267717D01*
X942139Y267718D01*
X942141Y267717D01*
X942184Y267737D01*
X942228Y267755D01*
X942228Y267757D01*
X942230Y267758D01*
X942263Y267843D01*
X942263Y271983D01*
X942262Y271985D01*
X942263Y271987D01*
X942243Y272030D01*
X942225Y272074D01*
X942223Y272074D01*
X942222Y272076D01*
X942137Y272109D01*
X931342Y272109D01*
X931337Y272107D01*
X931330Y272109D01*
X930231Y272008D01*
X930221Y272002D01*
X930208Y272004D01*
X929145Y271704D01*
X929136Y271697D01*
X929123Y271696D01*
X928133Y271208D01*
X928125Y271199D01*
X928113Y271196D01*
X927228Y270535D01*
X927221Y270525D01*
X927209Y270518D01*
X926981Y270264D01*
X926977Y270252D01*
X926966Y270244D01*
X926440Y269342D01*
X926439Y269330D01*
X926430Y269320D01*
X926087Y268334D01*
X926088Y268322D01*
X926081Y268310D01*
X925934Y267277D01*
X925937Y267267D01*
X925933Y267256D01*
X925946Y266616D01*
X925946Y266615D01*
X925948Y266489D01*
X925951Y266363D01*
X925954Y266237D01*
X925953Y266237D01*
X925954Y266237D01*
X925956Y266111D01*
X925956Y266110D01*
X925959Y265984D01*
X925961Y265858D01*
X925963Y265762D01*
X925966Y265755D01*
X925965Y265746D01*
X926188Y264268D01*
X926193Y264260D01*
X926192Y264250D01*
X926273Y263988D01*
X926279Y263980D01*
X926281Y263968D01*
X926403Y263723D01*
X926410Y263716D01*
X926413Y263706D01*
X927072Y262776D01*
X927080Y262771D01*
X927083Y262762D01*
X927868Y261935D01*
X927876Y261932D01*
X927881Y261923D01*
X928522Y261416D01*
X926465Y261416D01*
X926463Y261415D01*
X926461Y261416D01*
X926418Y261396D01*
X926374Y261378D01*
X926374Y261376D01*
X926372Y261375D01*
X926339Y261290D01*
X926339Y257277D01*
X926340Y257275D01*
X926339Y257273D01*
X926359Y257230D01*
X926377Y257186D01*
X926379Y257186D01*
X926380Y257184D01*
X926465Y257151D01*
X942086Y257151D01*
X942088Y257152D01*
G37*
G36*
X937036Y240008D02*
X937036Y240008D01*
X937041Y240006D01*
X938170Y240097D01*
X938178Y240100D01*
X938187Y240099D01*
X939294Y240339D01*
X939302Y240344D01*
X939312Y240344D01*
X940017Y240613D01*
X940025Y240621D01*
X940037Y240623D01*
X940686Y241007D01*
X940692Y241016D01*
X940704Y241020D01*
X941279Y241509D01*
X941284Y241520D01*
X941296Y241527D01*
X941914Y242312D01*
X941917Y242325D01*
X941929Y242336D01*
X942351Y243241D01*
X942352Y243255D01*
X942360Y243269D01*
X942566Y244246D01*
X942563Y244257D01*
X942568Y244269D01*
X942618Y246275D01*
X942614Y246285D01*
X942617Y246296D01*
X942462Y247348D01*
X942455Y247359D01*
X942455Y247374D01*
X942086Y248370D01*
X942077Y248380D01*
X942074Y248394D01*
X941507Y249292D01*
X941498Y249299D01*
X941494Y249310D01*
X941078Y249771D01*
X941070Y249774D01*
X941066Y249782D01*
X940593Y250184D01*
X940588Y250186D01*
X940586Y250190D01*
X940208Y250467D01*
X940072Y250581D01*
X940043Y250623D01*
X942111Y250623D01*
X942113Y250624D01*
X942115Y250623D01*
X942158Y250643D01*
X942202Y250661D01*
X942202Y250663D01*
X942204Y250664D01*
X942237Y250749D01*
X942237Y254787D01*
X942236Y254789D01*
X942237Y254791D01*
X942217Y254834D01*
X942199Y254878D01*
X942197Y254878D01*
X942196Y254880D01*
X942111Y254913D01*
X926389Y254913D01*
X926387Y254912D01*
X926385Y254913D01*
X926342Y254893D01*
X926298Y254875D01*
X926298Y254873D01*
X926296Y254872D01*
X926263Y254787D01*
X926263Y250571D01*
X926264Y250569D01*
X926263Y250567D01*
X926283Y250524D01*
X926301Y250480D01*
X926303Y250480D01*
X926304Y250478D01*
X926389Y250445D01*
X935755Y250445D01*
X936538Y250365D01*
X937288Y250148D01*
X937967Y249785D01*
X938536Y249268D01*
X938850Y248811D01*
X939054Y248295D01*
X939141Y247739D01*
X939191Y246634D01*
X939174Y246318D01*
X939097Y246018D01*
X938880Y245583D01*
X938571Y245209D01*
X938184Y244913D01*
X937542Y244603D01*
X936854Y244412D01*
X936136Y244347D01*
X926490Y244347D01*
X926488Y244346D01*
X926486Y244347D01*
X926443Y244327D01*
X926399Y244309D01*
X926399Y244307D01*
X926397Y244306D01*
X926364Y244221D01*
X926364Y240132D01*
X926365Y240130D01*
X926364Y240128D01*
X926384Y240085D01*
X926402Y240041D01*
X926404Y240041D01*
X926405Y240039D01*
X926490Y240006D01*
X937031Y240006D01*
X937036Y240008D01*
G37*
G36*
X934999Y197948D02*
X934999Y197948D01*
X935015Y197944D01*
X937200Y198224D01*
X937215Y198233D01*
X937235Y198234D01*
X939572Y199275D01*
X939584Y199288D01*
X939603Y199294D01*
X940873Y200386D01*
X940880Y200400D01*
X940895Y200410D01*
X942266Y202391D01*
X942269Y202407D01*
X942281Y202422D01*
X942840Y204048D01*
X942840Y204061D01*
X942846Y204073D01*
X943100Y206080D01*
X943098Y206089D01*
X943101Y206098D01*
X943085Y206135D01*
X943074Y206175D01*
X943065Y206179D01*
X943061Y206188D01*
X943012Y206208D01*
X942987Y206222D01*
X942982Y206220D01*
X942977Y206222D01*
X940005Y206272D01*
X940002Y206271D01*
X939999Y206272D01*
X939957Y206253D01*
X939914Y206235D01*
X939913Y206232D01*
X939910Y206231D01*
X939877Y206146D01*
X939877Y206050D01*
X939778Y204863D01*
X939265Y203910D01*
X939195Y203838D01*
X938950Y203586D01*
X938705Y203333D01*
X938583Y203207D01*
X938456Y203076D01*
X936844Y202332D01*
X934915Y202081D01*
X933490Y202081D01*
X931942Y202456D01*
X930732Y202999D01*
X929751Y204078D01*
X929159Y205829D01*
X929381Y207577D01*
X930389Y209225D01*
X931416Y209763D01*
X932565Y210138D01*
X933813Y210313D01*
X935672Y210262D01*
X937146Y209988D01*
X938035Y209592D01*
X939119Y208804D01*
X939754Y207656D01*
X939904Y206561D01*
X939926Y206524D01*
X939944Y206485D01*
X939951Y206482D01*
X939954Y206476D01*
X939984Y206469D01*
X940029Y206452D01*
X942950Y206452D01*
X942977Y206463D01*
X943006Y206465D01*
X943022Y206482D01*
X943041Y206490D01*
X943049Y206512D01*
X943067Y206532D01*
X943117Y206659D01*
X943117Y206681D01*
X943126Y206705D01*
X943126Y206756D01*
X943123Y206763D01*
X943125Y206771D01*
X942948Y208244D01*
X942938Y208262D01*
X942936Y208285D01*
X941259Y211663D01*
X941240Y211680D01*
X941224Y211706D01*
X938506Y213840D01*
X938482Y213847D01*
X938456Y213864D01*
X934900Y214677D01*
X934878Y214673D01*
X934852Y214679D01*
X930966Y214069D01*
X930946Y214056D01*
X930918Y214050D01*
X928429Y212450D01*
X928414Y212429D01*
X928413Y212428D01*
X928401Y212423D01*
X928399Y212417D01*
X928390Y212411D01*
X926612Y209566D01*
X926608Y209542D01*
X926594Y209516D01*
X926188Y206519D01*
X926192Y206505D01*
X926187Y206489D01*
X926441Y203974D01*
X926448Y203962D01*
X926448Y203946D01*
X927083Y202092D01*
X927094Y202079D01*
X927099Y202060D01*
X927886Y200943D01*
X927894Y200938D01*
X927898Y200929D01*
X929041Y199735D01*
X929055Y199729D01*
X929065Y199715D01*
X930360Y198902D01*
X930377Y198899D01*
X930393Y198887D01*
X932857Y198201D01*
X932867Y198203D01*
X932876Y198198D01*
X934984Y197944D01*
X934999Y197948D01*
G37*
G36*
X931316Y347349D02*
X931316Y347349D01*
X931327Y347346D01*
X932382Y347440D01*
X932395Y347447D01*
X932411Y347447D01*
X933414Y347784D01*
X933425Y347794D01*
X933440Y347796D01*
X933852Y348048D01*
X933859Y348058D01*
X933873Y348064D01*
X934223Y348396D01*
X934227Y348407D01*
X934238Y348413D01*
X934746Y349105D01*
X934748Y349113D01*
X934756Y349120D01*
X935161Y349876D01*
X935162Y349885D01*
X935168Y349892D01*
X935778Y351548D01*
X935778Y351556D01*
X935783Y351564D01*
X936164Y353287D01*
X936164Y353288D01*
X936165Y353289D01*
X936569Y355312D01*
X936841Y356064D01*
X937257Y356739D01*
X937550Y357022D01*
X937911Y357206D01*
X938280Y357271D01*
X938652Y357223D01*
X938994Y357068D01*
X939262Y356835D01*
X939457Y356534D01*
X939614Y356110D01*
X939699Y355661D01*
X939743Y354813D01*
X939699Y353965D01*
X939601Y353469D01*
X939412Y353002D01*
X939141Y352580D01*
X938877Y352304D01*
X938564Y352086D01*
X938212Y351936D01*
X937969Y351881D01*
X937709Y351865D01*
X937667Y351844D01*
X937624Y351824D01*
X937623Y351822D01*
X937621Y351821D01*
X937615Y351802D01*
X937591Y351739D01*
X937591Y347853D01*
X937594Y347844D01*
X937592Y347836D01*
X937613Y347800D01*
X937629Y347762D01*
X937638Y347759D01*
X937643Y347751D01*
X937694Y347737D01*
X937721Y347727D01*
X937725Y347729D01*
X937730Y347727D01*
X938441Y347803D01*
X938451Y347809D01*
X938462Y347807D01*
X938468Y347812D01*
X938475Y347812D01*
X938488Y347804D01*
X938514Y347811D01*
X938548Y347810D01*
X939106Y348013D01*
X939110Y348017D01*
X939115Y348017D01*
X939903Y348373D01*
X939909Y348380D01*
X939920Y348382D01*
X940362Y348668D01*
X940367Y348676D01*
X940377Y348680D01*
X940773Y349028D01*
X940777Y349038D01*
X940788Y349045D01*
X941545Y350004D01*
X941549Y350017D01*
X941559Y350027D01*
X942097Y351124D01*
X942098Y351136D01*
X942106Y351147D01*
X942474Y352498D01*
X942473Y352508D01*
X942478Y352518D01*
X942618Y353911D01*
X942616Y353918D01*
X942618Y353924D01*
X942618Y355727D01*
X942616Y355733D01*
X942618Y355741D01*
X942463Y357170D01*
X942457Y357180D01*
X942458Y357193D01*
X942047Y358571D01*
X942040Y358580D01*
X942039Y358592D01*
X941385Y359873D01*
X941376Y359881D01*
X941373Y359893D01*
X941004Y360369D01*
X940993Y360375D01*
X940987Y360387D01*
X940532Y360781D01*
X940521Y360785D01*
X940512Y360796D01*
X939990Y361095D01*
X939977Y361096D01*
X939967Y361105D01*
X938883Y361463D01*
X938871Y361462D01*
X938858Y361468D01*
X937724Y361597D01*
X937712Y361594D01*
X937698Y361597D01*
X936562Y361492D01*
X936551Y361486D01*
X936537Y361487D01*
X936048Y361335D01*
X936038Y361327D01*
X936024Y361325D01*
X935577Y361076D01*
X935569Y361065D01*
X935555Y361061D01*
X935170Y360724D01*
X935165Y360714D01*
X935154Y360708D01*
X934617Y360031D01*
X934614Y360022D01*
X934606Y360015D01*
X934179Y359264D01*
X934178Y359255D01*
X934171Y359247D01*
X933865Y358439D01*
X933865Y358431D01*
X933860Y358423D01*
X932997Y354791D01*
X932691Y353618D01*
X932221Y352511D01*
X931990Y352175D01*
X931686Y351910D01*
X931324Y351729D01*
X930929Y351644D01*
X930525Y351661D01*
X930140Y351778D01*
X929795Y351987D01*
X929511Y352274D01*
X929199Y352787D01*
X929002Y353354D01*
X928928Y353957D01*
X928928Y355287D01*
X929001Y355849D01*
X929218Y356436D01*
X929555Y356963D01*
X929998Y357405D01*
X930412Y357661D01*
X930874Y357807D01*
X931371Y357836D01*
X931418Y357836D01*
X931420Y357837D01*
X931422Y357836D01*
X931465Y357856D01*
X931509Y357874D01*
X931509Y357876D01*
X931511Y357877D01*
X931544Y357962D01*
X931544Y361823D01*
X931542Y361829D01*
X931544Y361836D01*
X931537Y361848D01*
X931538Y361862D01*
X931537Y361864D01*
X931537Y361865D01*
X931517Y361887D01*
X931506Y361914D01*
X931499Y361916D01*
X931496Y361922D01*
X931482Y361927D01*
X931473Y361937D01*
X931472Y361937D01*
X931470Y361938D01*
X931443Y361939D01*
X931436Y361941D01*
X931414Y361949D01*
X931412Y361948D01*
X931409Y361949D01*
X931053Y361924D01*
X931047Y361921D01*
X931040Y361922D01*
X930456Y361820D01*
X930448Y361815D01*
X930437Y361816D01*
X929167Y361384D01*
X929160Y361377D01*
X929150Y361376D01*
X928554Y361067D01*
X928547Y361057D01*
X928534Y361053D01*
X928010Y360633D01*
X928005Y360622D01*
X927993Y360616D01*
X927562Y360101D01*
X927560Y360093D01*
X927553Y360088D01*
X926791Y358894D01*
X926789Y358886D01*
X926782Y358879D01*
X926385Y358022D01*
X926384Y358009D01*
X926376Y357997D01*
X926164Y357076D01*
X926166Y357067D01*
X926161Y357057D01*
X925983Y354491D01*
X925985Y354484D01*
X925983Y354478D01*
X925985Y354412D01*
X925990Y354286D01*
X925990Y354285D01*
X925994Y354159D01*
X925999Y354033D01*
X926003Y353907D01*
X926007Y353781D01*
X926007Y353780D01*
X926012Y353654D01*
X926016Y353528D01*
X926021Y353402D01*
X926025Y353276D01*
X926025Y353275D01*
X926030Y353151D01*
X926030Y353150D01*
X926030Y353149D01*
X926032Y353144D01*
X926031Y353138D01*
X926213Y351824D01*
X926217Y351816D01*
X926217Y351807D01*
X926499Y350807D01*
X926506Y350798D01*
X926507Y350786D01*
X926958Y349851D01*
X926966Y349844D01*
X926969Y349832D01*
X927575Y348988D01*
X927585Y348983D01*
X927590Y348972D01*
X928333Y348246D01*
X928343Y348242D01*
X928351Y348231D01*
X928915Y347852D01*
X928926Y347850D01*
X928936Y347841D01*
X929561Y347575D01*
X929573Y347575D01*
X929584Y347568D01*
X930248Y347425D01*
X930257Y347426D01*
X930266Y347422D01*
X931307Y347346D01*
X931316Y347349D01*
G37*
G36*
X932461Y215750D02*
X932461Y215750D01*
X932463Y215749D01*
X932506Y215769D01*
X932550Y215787D01*
X932550Y215789D01*
X932552Y215790D01*
X932585Y215875D01*
X932585Y219939D01*
X932569Y219978D01*
X932557Y220018D01*
X932550Y220023D01*
X932547Y220030D01*
X932518Y220041D01*
X932478Y220064D01*
X931802Y220168D01*
X931165Y220383D01*
X930575Y220704D01*
X930143Y221062D01*
X929798Y221505D01*
X929530Y222035D01*
X929357Y222604D01*
X929284Y223195D01*
X929325Y223995D01*
X929506Y224774D01*
X929836Y225482D01*
X930325Y226090D01*
X930944Y226565D01*
X931661Y226880D01*
X933185Y227226D01*
X934745Y227355D01*
X935886Y227262D01*
X936989Y226957D01*
X938014Y226452D01*
X938925Y225765D01*
X939215Y225418D01*
X939401Y225004D01*
X939582Y224183D01*
X939648Y223343D01*
X939565Y222511D01*
X939304Y221719D01*
X939006Y221226D01*
X938799Y221013D01*
X938605Y220813D01*
X938120Y220502D01*
X937578Y220309D01*
X936999Y220242D01*
X936981Y220242D01*
X936979Y220241D01*
X936977Y220242D01*
X936934Y220222D01*
X936890Y220204D01*
X936890Y220202D01*
X936888Y220201D01*
X936855Y220116D01*
X936855Y215925D01*
X936861Y215911D01*
X936858Y215897D01*
X936879Y215868D01*
X936893Y215834D01*
X936907Y215829D01*
X936916Y215817D01*
X936957Y215810D01*
X936985Y215799D01*
X936994Y215803D01*
X937005Y215801D01*
X938213Y216038D01*
X938221Y216043D01*
X938232Y216043D01*
X939387Y216468D01*
X939395Y216476D01*
X939408Y216478D01*
X940475Y217118D01*
X940482Y217129D01*
X940496Y217135D01*
X941399Y217990D01*
X941405Y218003D01*
X941417Y218011D01*
X942114Y219042D01*
X942117Y219055D01*
X942127Y219066D01*
X942584Y220223D01*
X942584Y220232D01*
X942590Y220241D01*
X942909Y221652D01*
X942908Y221658D01*
X942911Y221663D01*
X943100Y223098D01*
X943098Y223106D01*
X943101Y223116D01*
X943078Y224658D01*
X943073Y224669D01*
X943075Y224683D01*
X942742Y226189D01*
X942735Y226199D01*
X942735Y226213D01*
X942123Y227604D01*
X942115Y227612D01*
X942111Y227625D01*
X941246Y228874D01*
X941236Y228881D01*
X941230Y228893D01*
X940142Y229954D01*
X940131Y229958D01*
X940124Y229969D01*
X938853Y230803D01*
X938842Y230805D01*
X938832Y230814D01*
X937426Y231391D01*
X937414Y231391D01*
X937403Y231398D01*
X935913Y231696D01*
X935903Y231694D01*
X935892Y231698D01*
X933403Y231774D01*
X933394Y231771D01*
X933384Y231773D01*
X932168Y231628D01*
X932160Y231623D01*
X932149Y231624D01*
X930971Y231290D01*
X930963Y231284D01*
X930953Y231283D01*
X929842Y230769D01*
X929835Y230761D01*
X929824Y230759D01*
X928808Y230077D01*
X928802Y230068D01*
X928792Y230064D01*
X927969Y229294D01*
X927965Y229284D01*
X927955Y229278D01*
X927271Y228382D01*
X927268Y228372D01*
X927259Y228364D01*
X926733Y227367D01*
X926732Y227357D01*
X926725Y227348D01*
X926370Y226278D01*
X926371Y226269D01*
X926366Y226260D01*
X926084Y224697D01*
X926085Y224689D01*
X926082Y224682D01*
X925983Y223096D01*
X925986Y223087D01*
X925983Y223078D01*
X926079Y221895D01*
X926083Y221886D01*
X926082Y221875D01*
X926364Y220722D01*
X926370Y220714D01*
X926370Y220703D01*
X926832Y219610D01*
X926840Y219602D01*
X926843Y219590D01*
X927663Y218343D01*
X927674Y218335D01*
X927680Y218322D01*
X928738Y217269D01*
X928750Y217265D01*
X928758Y217253D01*
X930009Y216438D01*
X930022Y216436D01*
X930032Y216426D01*
X931423Y215884D01*
X931434Y215885D01*
X931444Y215878D01*
X931909Y215783D01*
X931918Y215785D01*
X931926Y215781D01*
X932401Y215749D01*
X932405Y215750D01*
X932409Y215749D01*
X932459Y215749D01*
X932461Y215750D01*
G37*
G36*
X947981Y273052D02*
X947981Y273052D01*
X947983Y273051D01*
X948026Y273071D01*
X948070Y273089D01*
X948070Y273091D01*
X948072Y273092D01*
X948105Y273177D01*
X948105Y273199D01*
X948181Y274516D01*
X948180Y274519D01*
X948181Y274523D01*
X948181Y276073D01*
X948178Y276080D01*
X948180Y276085D01*
X948178Y276088D01*
X948179Y276094D01*
X948005Y277107D01*
X947998Y277117D01*
X947998Y277131D01*
X947629Y278089D01*
X947621Y278098D01*
X947618Y278111D01*
X947068Y278979D01*
X947058Y278986D01*
X947053Y278998D01*
X946343Y279741D01*
X946333Y279746D01*
X946325Y279757D01*
X945848Y280097D01*
X945837Y280099D01*
X945828Y280109D01*
X945297Y280357D01*
X945286Y280357D01*
X945276Y280365D01*
X944709Y280513D01*
X944698Y280512D01*
X944687Y280517D01*
X942553Y280694D01*
X942548Y280692D01*
X942543Y280694D01*
X942212Y280694D01*
X942212Y281940D01*
X942211Y281943D01*
X942212Y281946D01*
X942175Y282029D01*
X939508Y284696D01*
X939508Y284697D01*
X939507Y284697D01*
X939462Y284715D01*
X939417Y284733D01*
X939416Y284733D01*
X939371Y284713D01*
X939327Y284693D01*
X939326Y284692D01*
X939293Y284608D01*
X939269Y280745D01*
X926389Y280745D01*
X926387Y280744D01*
X926385Y280745D01*
X926342Y280725D01*
X926298Y280707D01*
X926298Y280705D01*
X926296Y280704D01*
X926263Y280619D01*
X926263Y276454D01*
X926264Y276452D01*
X926263Y276450D01*
X926283Y276407D01*
X926301Y276363D01*
X926303Y276363D01*
X926304Y276361D01*
X926389Y276328D01*
X939293Y276328D01*
X939293Y273456D01*
X939294Y273454D01*
X939293Y273452D01*
X939313Y273409D01*
X939331Y273365D01*
X939333Y273365D01*
X939334Y273363D01*
X939419Y273330D01*
X942086Y273330D01*
X942088Y273331D01*
X942090Y273330D01*
X942133Y273350D01*
X942177Y273368D01*
X942177Y273370D01*
X942179Y273371D01*
X942212Y273456D01*
X942212Y276302D01*
X943474Y276302D01*
X943936Y276239D01*
X944359Y276064D01*
X944591Y275882D01*
X944761Y275642D01*
X944858Y275360D01*
X944941Y274460D01*
X944856Y273545D01*
X944830Y273265D01*
X944832Y273259D01*
X944830Y273253D01*
X944830Y273177D01*
X944831Y273175D01*
X944830Y273173D01*
X944850Y273130D01*
X944868Y273086D01*
X944870Y273086D01*
X944871Y273084D01*
X944956Y273051D01*
X947979Y273051D01*
X947981Y273052D01*
G37*
G36*
X942435Y300653D02*
X942435Y300653D01*
X942480Y300671D01*
X942480Y300673D01*
X942482Y300673D01*
X942488Y300690D01*
X942517Y300754D01*
X942593Y302126D01*
X942589Y302136D01*
X942592Y302148D01*
X942508Y302849D01*
X942502Y302859D01*
X942503Y302873D01*
X942280Y303543D01*
X942271Y303552D01*
X942269Y303566D01*
X941916Y304177D01*
X941913Y304179D01*
X941912Y304183D01*
X941327Y305072D01*
X941324Y305075D01*
X941322Y305080D01*
X941020Y305474D01*
X941008Y305481D01*
X941000Y305495D01*
X940617Y305811D01*
X940611Y305813D01*
X940606Y305819D01*
X939564Y306505D01*
X939296Y306684D01*
X939281Y306731D01*
X942061Y306731D01*
X942074Y306736D01*
X942087Y306733D01*
X942117Y306755D01*
X942152Y306769D01*
X942157Y306782D01*
X942168Y306790D01*
X942176Y306833D01*
X942187Y306861D01*
X942183Y306869D01*
X942185Y306879D01*
X941499Y310740D01*
X941477Y310774D01*
X941460Y310811D01*
X941451Y310815D01*
X941446Y310823D01*
X941416Y310828D01*
X941375Y310844D01*
X926490Y310870D01*
X926488Y310869D01*
X926486Y310870D01*
X926443Y310850D01*
X926399Y310832D01*
X926399Y310830D01*
X926397Y310829D01*
X926364Y310744D01*
X926364Y306578D01*
X926365Y306576D01*
X926364Y306574D01*
X926384Y306531D01*
X926402Y306487D01*
X926404Y306487D01*
X926405Y306485D01*
X926490Y306452D01*
X934309Y306452D01*
X935155Y306379D01*
X935974Y306179D01*
X936767Y305818D01*
X937459Y305293D01*
X938019Y304626D01*
X938283Y304147D01*
X938464Y303629D01*
X938556Y303087D01*
X938556Y301562D01*
X938431Y300965D01*
X938432Y300962D01*
X938430Y300960D01*
X938405Y300808D01*
X938408Y300798D01*
X938404Y300787D01*
X938404Y300761D01*
X938405Y300759D01*
X938404Y300757D01*
X938424Y300714D01*
X938442Y300670D01*
X938444Y300670D01*
X938445Y300668D01*
X938530Y300635D01*
X942391Y300635D01*
X942435Y300653D01*
G37*
%LPC*%
G36*
X931704Y334158D02*
X931704Y334158D01*
X930943Y334447D01*
X930285Y334919D01*
X929769Y335545D01*
X929431Y336284D01*
X929252Y337175D01*
X929258Y338086D01*
X929410Y338808D01*
X929700Y339485D01*
X930063Y339994D01*
X930532Y340406D01*
X931096Y340706D01*
X931100Y340711D01*
X931107Y340712D01*
X931183Y340763D01*
X931184Y340764D01*
X931185Y340764D01*
X931245Y340806D01*
X931304Y340818D01*
X931342Y340818D01*
X931343Y340818D01*
X931344Y340818D01*
X931388Y340837D01*
X931433Y340856D01*
X931433Y340857D01*
X931434Y340858D01*
X931451Y340903D01*
X931459Y340925D01*
X931464Y340925D01*
X931499Y340916D01*
X931536Y340921D01*
X931547Y340927D01*
X931560Y340926D01*
X932235Y341151D01*
X933004Y341275D01*
X935550Y341301D01*
X936365Y341191D01*
X937139Y340924D01*
X937846Y340511D01*
X938526Y339914D01*
X939082Y339201D01*
X939244Y338863D01*
X939318Y338491D01*
X939369Y337416D01*
X939323Y336849D01*
X939167Y336307D01*
X938907Y335807D01*
X938277Y335048D01*
X937491Y334451D01*
X936592Y334048D01*
X935622Y333857D01*
X933651Y333854D01*
X931704Y334158D01*
G37*
%LPD*%
%LPC*%
G36*
X933704Y317651D02*
X933704Y317651D01*
X932870Y317651D01*
X931781Y317721D01*
X930711Y317928D01*
X930546Y317975D01*
X930297Y318082D01*
X930078Y318232D01*
X929359Y318976D01*
X929174Y319267D01*
X929052Y319589D01*
X928903Y320631D01*
X928953Y322159D01*
X929050Y322620D01*
X929253Y323041D01*
X929550Y323403D01*
X929800Y323594D01*
X930085Y323729D01*
X930393Y323800D01*
X930978Y323811D01*
X931553Y323704D01*
X932095Y323484D01*
X932393Y323280D01*
X932637Y323012D01*
X932921Y322538D01*
X933118Y322020D01*
X933223Y321470D01*
X933375Y320027D01*
X933377Y320023D01*
X933377Y320019D01*
X933546Y319027D01*
X933550Y319021D01*
X933549Y319012D01*
X933837Y318048D01*
X933844Y318039D01*
X933846Y318026D01*
X933953Y317819D01*
X933965Y317809D01*
X933971Y317793D01*
X934098Y317651D01*
X933806Y317651D01*
X933804Y317650D01*
X933802Y317651D01*
X933759Y317631D01*
X933757Y317631D01*
X933704Y317651D01*
G37*
%LPD*%
D10*
X1155700Y0D02*
X1181100Y25400D01*
X1181100Y508000D01*
X1155700Y533400D01*
D11*
X805066Y326343D02*
X800066Y331343D01*
X805066Y326343D02*
X790067Y326343D01*
X790067Y321344D02*
X790067Y331343D01*
X802566Y314971D02*
X805066Y312472D01*
X805066Y307472D01*
X802566Y304972D01*
X800066Y304972D01*
X797566Y307472D01*
X797566Y309972D01*
X797566Y307472D02*
X795067Y304972D01*
X792567Y304972D01*
X790067Y307472D01*
X790067Y312472D01*
X792567Y314971D01*
X792567Y298600D02*
X790067Y298600D01*
X792567Y298600D02*
X792567Y296100D01*
X790067Y296100D01*
X790067Y298600D01*
X805066Y290414D02*
X805066Y280415D01*
X805066Y290414D02*
X797566Y290414D01*
X800066Y285415D01*
X800066Y282915D01*
X797566Y280415D01*
X792567Y280415D01*
X790067Y282915D01*
X790067Y287914D01*
X792567Y290414D01*
X802566Y269043D02*
X805066Y264043D01*
X802566Y269043D02*
X797566Y274043D01*
X792567Y274043D01*
X790067Y271543D01*
X790067Y266543D01*
X792567Y264043D01*
X795067Y264043D01*
X797566Y266543D01*
X797566Y274043D01*
X790067Y241299D02*
X805066Y241299D01*
X800066Y236300D01*
X805066Y231300D01*
X790067Y231300D01*
X790067Y224928D02*
X805066Y224928D01*
X797566Y224928D02*
X797566Y214929D01*
X790067Y214929D02*
X805066Y214929D01*
X800066Y208556D02*
X800066Y198557D01*
X790067Y208556D01*
X790067Y198557D01*
X823087Y328803D02*
X838086Y328803D01*
X838086Y321304D01*
X835586Y318804D01*
X830586Y318804D01*
X828087Y321304D01*
X828087Y328803D01*
X828087Y323803D02*
X823087Y318804D01*
X823087Y312431D02*
X838086Y312431D01*
X838086Y302432D01*
X830586Y307432D02*
X830586Y312431D01*
X823087Y296060D02*
X823087Y291060D01*
X823087Y293560D02*
X838086Y293560D01*
X838086Y296060D02*
X838086Y291060D01*
X838086Y285146D02*
X823087Y285146D01*
X823087Y277646D01*
X825587Y275146D01*
X835586Y275146D01*
X838086Y277646D01*
X838086Y285146D01*
X838086Y252402D02*
X838086Y242403D01*
X838086Y252402D02*
X823087Y252402D01*
X823087Y242403D01*
X830586Y247403D02*
X830586Y252402D01*
X833086Y236031D02*
X823087Y231031D01*
X833086Y226032D01*
X833086Y217159D02*
X833086Y212160D01*
X830586Y209660D01*
X823087Y209660D01*
X823087Y217159D01*
X825587Y219659D01*
X828087Y217159D01*
X828087Y209660D01*
X838086Y203288D02*
X838086Y200788D01*
X823087Y200788D01*
X823087Y203288D02*
X823087Y198288D01*
D12*
X550425Y491998D02*
X541782Y491998D01*
X550425Y491998D02*
X550425Y487676D01*
X548985Y486236D01*
X546104Y486236D01*
X544663Y487676D01*
X544663Y491998D01*
X544663Y489117D02*
X541782Y486236D01*
X541782Y476881D02*
X550425Y482643D01*
X550425Y476881D02*
X541782Y482643D01*
X541782Y55118D02*
X547544Y55118D01*
X550425Y52237D01*
X547544Y49356D01*
X541782Y49356D01*
X546104Y49356D02*
X546104Y55118D01*
X550425Y45763D02*
X550425Y40001D01*
X550425Y45763D02*
X546104Y45763D01*
X547544Y42882D01*
X547544Y41441D01*
X546104Y40001D01*
X543223Y40001D01*
X541782Y41441D01*
X541782Y44322D01*
X543223Y45763D01*
D13*
X862330Y266700D02*
X862335Y267105D01*
X862350Y267510D01*
X862375Y267915D01*
X862410Y268318D01*
X862454Y268721D01*
X862509Y269123D01*
X862573Y269523D01*
X862647Y269921D01*
X862731Y270317D01*
X862825Y270712D01*
X862928Y271103D01*
X863041Y271493D01*
X863163Y271879D01*
X863295Y272262D01*
X863436Y272642D01*
X863587Y273018D01*
X863746Y273391D01*
X863915Y273759D01*
X864093Y274123D01*
X864279Y274483D01*
X864475Y274838D01*
X864679Y275188D01*
X864891Y275533D01*
X865112Y275872D01*
X865342Y276207D01*
X865579Y276535D01*
X865824Y276857D01*
X866078Y277174D01*
X866338Y277484D01*
X866607Y277787D01*
X866883Y278084D01*
X867166Y278374D01*
X867456Y278657D01*
X867753Y278933D01*
X868056Y279202D01*
X868366Y279462D01*
X868683Y279716D01*
X869005Y279961D01*
X869333Y280198D01*
X869668Y280428D01*
X870007Y280649D01*
X870352Y280861D01*
X870702Y281065D01*
X871057Y281261D01*
X871417Y281447D01*
X871781Y281625D01*
X872149Y281794D01*
X872522Y281953D01*
X872898Y282104D01*
X873278Y282245D01*
X873661Y282377D01*
X874047Y282499D01*
X874437Y282612D01*
X874828Y282715D01*
X875223Y282809D01*
X875619Y282893D01*
X876017Y282967D01*
X876417Y283031D01*
X876819Y283086D01*
X877222Y283130D01*
X877625Y283165D01*
X878030Y283190D01*
X878435Y283205D01*
X878840Y283210D01*
X879245Y283205D01*
X879650Y283190D01*
X880055Y283165D01*
X880458Y283130D01*
X880861Y283086D01*
X881263Y283031D01*
X881663Y282967D01*
X882061Y282893D01*
X882457Y282809D01*
X882852Y282715D01*
X883243Y282612D01*
X883633Y282499D01*
X884019Y282377D01*
X884402Y282245D01*
X884782Y282104D01*
X885158Y281953D01*
X885531Y281794D01*
X885899Y281625D01*
X886263Y281447D01*
X886623Y281261D01*
X886978Y281065D01*
X887328Y280861D01*
X887673Y280649D01*
X888012Y280428D01*
X888347Y280198D01*
X888675Y279961D01*
X888997Y279716D01*
X889314Y279462D01*
X889624Y279202D01*
X889927Y278933D01*
X890224Y278657D01*
X890514Y278374D01*
X890797Y278084D01*
X891073Y277787D01*
X891342Y277484D01*
X891602Y277174D01*
X891856Y276857D01*
X892101Y276535D01*
X892338Y276207D01*
X892568Y275872D01*
X892789Y275533D01*
X893001Y275188D01*
X893205Y274838D01*
X893401Y274483D01*
X893587Y274123D01*
X893765Y273759D01*
X893934Y273391D01*
X894093Y273018D01*
X894244Y272642D01*
X894385Y272262D01*
X894517Y271879D01*
X894639Y271493D01*
X894752Y271103D01*
X894855Y270712D01*
X894949Y270317D01*
X895033Y269921D01*
X895107Y269523D01*
X895171Y269123D01*
X895226Y268721D01*
X895270Y268318D01*
X895305Y267915D01*
X895330Y267510D01*
X895345Y267105D01*
X895350Y266700D01*
X895345Y266295D01*
X895330Y265890D01*
X895305Y265485D01*
X895270Y265082D01*
X895226Y264679D01*
X895171Y264277D01*
X895107Y263877D01*
X895033Y263479D01*
X894949Y263083D01*
X894855Y262688D01*
X894752Y262297D01*
X894639Y261907D01*
X894517Y261521D01*
X894385Y261138D01*
X894244Y260758D01*
X894093Y260382D01*
X893934Y260009D01*
X893765Y259641D01*
X893587Y259277D01*
X893401Y258917D01*
X893205Y258562D01*
X893001Y258212D01*
X892789Y257867D01*
X892568Y257528D01*
X892338Y257193D01*
X892101Y256865D01*
X891856Y256543D01*
X891602Y256226D01*
X891342Y255916D01*
X891073Y255613D01*
X890797Y255316D01*
X890514Y255026D01*
X890224Y254743D01*
X889927Y254467D01*
X889624Y254198D01*
X889314Y253938D01*
X888997Y253684D01*
X888675Y253439D01*
X888347Y253202D01*
X888012Y252972D01*
X887673Y252751D01*
X887328Y252539D01*
X886978Y252335D01*
X886623Y252139D01*
X886263Y251953D01*
X885899Y251775D01*
X885531Y251606D01*
X885158Y251447D01*
X884782Y251296D01*
X884402Y251155D01*
X884019Y251023D01*
X883633Y250901D01*
X883243Y250788D01*
X882852Y250685D01*
X882457Y250591D01*
X882061Y250507D01*
X881663Y250433D01*
X881263Y250369D01*
X880861Y250314D01*
X880458Y250270D01*
X880055Y250235D01*
X879650Y250210D01*
X879245Y250195D01*
X878840Y250190D01*
X878435Y250195D01*
X878030Y250210D01*
X877625Y250235D01*
X877222Y250270D01*
X876819Y250314D01*
X876417Y250369D01*
X876017Y250433D01*
X875619Y250507D01*
X875223Y250591D01*
X874828Y250685D01*
X874437Y250788D01*
X874047Y250901D01*
X873661Y251023D01*
X873278Y251155D01*
X872898Y251296D01*
X872522Y251447D01*
X872149Y251606D01*
X871781Y251775D01*
X871417Y251953D01*
X871057Y252139D01*
X870702Y252335D01*
X870352Y252539D01*
X870007Y252751D01*
X869668Y252972D01*
X869333Y253202D01*
X869005Y253439D01*
X868683Y253684D01*
X868366Y253938D01*
X868056Y254198D01*
X867753Y254467D01*
X867456Y254743D01*
X867166Y255026D01*
X866883Y255316D01*
X866607Y255613D01*
X866338Y255916D01*
X866078Y256226D01*
X865824Y256543D01*
X865579Y256865D01*
X865342Y257193D01*
X865112Y257528D01*
X864891Y257867D01*
X864679Y258212D01*
X864475Y258562D01*
X864279Y258917D01*
X864093Y259277D01*
X863915Y259641D01*
X863746Y260009D01*
X863587Y260382D01*
X863436Y260758D01*
X863295Y261138D01*
X863163Y261521D01*
X863041Y261907D01*
X862928Y262297D01*
X862825Y262688D01*
X862731Y263083D01*
X862647Y263479D01*
X862573Y263877D01*
X862509Y264277D01*
X862454Y264679D01*
X862410Y265082D01*
X862375Y265485D01*
X862350Y265890D01*
X862335Y266295D01*
X862330Y266700D01*
D14*
X598433Y234191D02*
X598433Y230378D01*
X598433Y234191D02*
X600339Y234191D01*
X600975Y233556D01*
X600975Y232285D01*
X600339Y231649D01*
X598433Y231649D01*
X599704Y231649D02*
X600975Y230378D01*
X602175Y233556D02*
X602810Y234191D01*
X604082Y234191D01*
X604717Y233556D01*
X604717Y232920D01*
X604082Y232285D01*
X604717Y231649D01*
X604717Y231014D01*
X604082Y230378D01*
X602810Y230378D01*
X602175Y231014D01*
X602175Y231649D01*
X602810Y232285D01*
X602175Y232920D01*
X602175Y233556D01*
X602810Y232285D02*
X604082Y232285D01*
D15*
X596900Y241300D03*
D14*
X598433Y281178D02*
X598433Y284991D01*
X600339Y284991D01*
X600975Y284356D01*
X600975Y283085D01*
X600339Y282449D01*
X598433Y282449D01*
X599704Y282449D02*
X600975Y281178D01*
X602175Y281814D02*
X602810Y281178D01*
X604082Y281178D01*
X604717Y281814D01*
X604717Y284356D01*
X604082Y284991D01*
X602810Y284991D01*
X602175Y284356D01*
X602175Y283720D01*
X602810Y283085D01*
X604717Y283085D01*
D15*
X596900Y292100D03*
D16*
X596900Y254305D02*
X596900Y253695D01*
D14*
X590679Y264290D02*
X590044Y264925D01*
X588773Y264925D01*
X588137Y264290D01*
X588137Y261748D01*
X588773Y261112D01*
X590044Y261112D01*
X590679Y261748D01*
X591879Y264290D02*
X592515Y264925D01*
X593786Y264925D01*
X594421Y264290D01*
X594421Y263654D01*
X593786Y263019D01*
X593150Y263019D01*
X593786Y263019D02*
X594421Y262383D01*
X594421Y261748D01*
X593786Y261112D01*
X592515Y261112D01*
X591879Y261748D01*
D16*
X596900Y279095D02*
X596900Y279705D01*
D14*
X590679Y289690D02*
X590044Y290325D01*
X588773Y290325D01*
X588137Y289690D01*
X588137Y287148D01*
X588773Y286512D01*
X590044Y286512D01*
X590679Y287148D01*
X593786Y286512D02*
X593786Y290325D01*
X591879Y288419D01*
X594421Y288419D01*
D16*
X572770Y254305D02*
X572770Y253695D01*
D14*
X566549Y264290D02*
X565914Y264925D01*
X564643Y264925D01*
X564007Y264290D01*
X564007Y261748D01*
X564643Y261112D01*
X565914Y261112D01*
X566549Y261748D01*
X567749Y264925D02*
X570291Y264925D01*
X567749Y264925D02*
X567749Y263019D01*
X569020Y263654D01*
X569656Y263654D01*
X570291Y263019D01*
X570291Y261748D01*
X569656Y261112D01*
X568385Y261112D01*
X567749Y261748D01*
D16*
X572770Y291795D02*
X572770Y292405D01*
D14*
X566549Y302390D02*
X565914Y303025D01*
X564643Y303025D01*
X564007Y302390D01*
X564007Y299848D01*
X564643Y299212D01*
X565914Y299212D01*
X566549Y299848D01*
X569020Y302390D02*
X570291Y303025D01*
X569020Y302390D02*
X567749Y301119D01*
X567749Y299848D01*
X568385Y299212D01*
X569656Y299212D01*
X570291Y299848D01*
X570291Y300483D01*
X569656Y301119D01*
X567749Y301119D01*
D13*
X1126490Y508000D02*
X1126495Y508405D01*
X1126510Y508810D01*
X1126535Y509215D01*
X1126570Y509618D01*
X1126614Y510021D01*
X1126669Y510423D01*
X1126733Y510823D01*
X1126807Y511221D01*
X1126891Y511617D01*
X1126985Y512012D01*
X1127088Y512403D01*
X1127201Y512793D01*
X1127323Y513179D01*
X1127455Y513562D01*
X1127596Y513942D01*
X1127747Y514318D01*
X1127906Y514691D01*
X1128075Y515059D01*
X1128253Y515423D01*
X1128439Y515783D01*
X1128635Y516138D01*
X1128839Y516488D01*
X1129051Y516833D01*
X1129272Y517172D01*
X1129502Y517507D01*
X1129739Y517835D01*
X1129984Y518157D01*
X1130238Y518474D01*
X1130498Y518784D01*
X1130767Y519087D01*
X1131043Y519384D01*
X1131326Y519674D01*
X1131616Y519957D01*
X1131913Y520233D01*
X1132216Y520502D01*
X1132526Y520762D01*
X1132843Y521016D01*
X1133165Y521261D01*
X1133493Y521498D01*
X1133828Y521728D01*
X1134167Y521949D01*
X1134512Y522161D01*
X1134862Y522365D01*
X1135217Y522561D01*
X1135577Y522747D01*
X1135941Y522925D01*
X1136309Y523094D01*
X1136682Y523253D01*
X1137058Y523404D01*
X1137438Y523545D01*
X1137821Y523677D01*
X1138207Y523799D01*
X1138597Y523912D01*
X1138988Y524015D01*
X1139383Y524109D01*
X1139779Y524193D01*
X1140177Y524267D01*
X1140577Y524331D01*
X1140979Y524386D01*
X1141382Y524430D01*
X1141785Y524465D01*
X1142190Y524490D01*
X1142595Y524505D01*
X1143000Y524510D01*
X1143405Y524505D01*
X1143810Y524490D01*
X1144215Y524465D01*
X1144618Y524430D01*
X1145021Y524386D01*
X1145423Y524331D01*
X1145823Y524267D01*
X1146221Y524193D01*
X1146617Y524109D01*
X1147012Y524015D01*
X1147403Y523912D01*
X1147793Y523799D01*
X1148179Y523677D01*
X1148562Y523545D01*
X1148942Y523404D01*
X1149318Y523253D01*
X1149691Y523094D01*
X1150059Y522925D01*
X1150423Y522747D01*
X1150783Y522561D01*
X1151138Y522365D01*
X1151488Y522161D01*
X1151833Y521949D01*
X1152172Y521728D01*
X1152507Y521498D01*
X1152835Y521261D01*
X1153157Y521016D01*
X1153474Y520762D01*
X1153784Y520502D01*
X1154087Y520233D01*
X1154384Y519957D01*
X1154674Y519674D01*
X1154957Y519384D01*
X1155233Y519087D01*
X1155502Y518784D01*
X1155762Y518474D01*
X1156016Y518157D01*
X1156261Y517835D01*
X1156498Y517507D01*
X1156728Y517172D01*
X1156949Y516833D01*
X1157161Y516488D01*
X1157365Y516138D01*
X1157561Y515783D01*
X1157747Y515423D01*
X1157925Y515059D01*
X1158094Y514691D01*
X1158253Y514318D01*
X1158404Y513942D01*
X1158545Y513562D01*
X1158677Y513179D01*
X1158799Y512793D01*
X1158912Y512403D01*
X1159015Y512012D01*
X1159109Y511617D01*
X1159193Y511221D01*
X1159267Y510823D01*
X1159331Y510423D01*
X1159386Y510021D01*
X1159430Y509618D01*
X1159465Y509215D01*
X1159490Y508810D01*
X1159505Y508405D01*
X1159510Y508000D01*
X1159505Y507595D01*
X1159490Y507190D01*
X1159465Y506785D01*
X1159430Y506382D01*
X1159386Y505979D01*
X1159331Y505577D01*
X1159267Y505177D01*
X1159193Y504779D01*
X1159109Y504383D01*
X1159015Y503988D01*
X1158912Y503597D01*
X1158799Y503207D01*
X1158677Y502821D01*
X1158545Y502438D01*
X1158404Y502058D01*
X1158253Y501682D01*
X1158094Y501309D01*
X1157925Y500941D01*
X1157747Y500577D01*
X1157561Y500217D01*
X1157365Y499862D01*
X1157161Y499512D01*
X1156949Y499167D01*
X1156728Y498828D01*
X1156498Y498493D01*
X1156261Y498165D01*
X1156016Y497843D01*
X1155762Y497526D01*
X1155502Y497216D01*
X1155233Y496913D01*
X1154957Y496616D01*
X1154674Y496326D01*
X1154384Y496043D01*
X1154087Y495767D01*
X1153784Y495498D01*
X1153474Y495238D01*
X1153157Y494984D01*
X1152835Y494739D01*
X1152507Y494502D01*
X1152172Y494272D01*
X1151833Y494051D01*
X1151488Y493839D01*
X1151138Y493635D01*
X1150783Y493439D01*
X1150423Y493253D01*
X1150059Y493075D01*
X1149691Y492906D01*
X1149318Y492747D01*
X1148942Y492596D01*
X1148562Y492455D01*
X1148179Y492323D01*
X1147793Y492201D01*
X1147403Y492088D01*
X1147012Y491985D01*
X1146617Y491891D01*
X1146221Y491807D01*
X1145823Y491733D01*
X1145423Y491669D01*
X1145021Y491614D01*
X1144618Y491570D01*
X1144215Y491535D01*
X1143810Y491510D01*
X1143405Y491495D01*
X1143000Y491490D01*
X1142595Y491495D01*
X1142190Y491510D01*
X1141785Y491535D01*
X1141382Y491570D01*
X1140979Y491614D01*
X1140577Y491669D01*
X1140177Y491733D01*
X1139779Y491807D01*
X1139383Y491891D01*
X1138988Y491985D01*
X1138597Y492088D01*
X1138207Y492201D01*
X1137821Y492323D01*
X1137438Y492455D01*
X1137058Y492596D01*
X1136682Y492747D01*
X1136309Y492906D01*
X1135941Y493075D01*
X1135577Y493253D01*
X1135217Y493439D01*
X1134862Y493635D01*
X1134512Y493839D01*
X1134167Y494051D01*
X1133828Y494272D01*
X1133493Y494502D01*
X1133165Y494739D01*
X1132843Y494984D01*
X1132526Y495238D01*
X1132216Y495498D01*
X1131913Y495767D01*
X1131616Y496043D01*
X1131326Y496326D01*
X1131043Y496616D01*
X1130767Y496913D01*
X1130498Y497216D01*
X1130238Y497526D01*
X1129984Y497843D01*
X1129739Y498165D01*
X1129502Y498493D01*
X1129272Y498828D01*
X1129051Y499167D01*
X1128839Y499512D01*
X1128635Y499862D01*
X1128439Y500217D01*
X1128253Y500577D01*
X1128075Y500941D01*
X1127906Y501309D01*
X1127747Y501682D01*
X1127596Y502058D01*
X1127455Y502438D01*
X1127323Y502821D01*
X1127201Y503207D01*
X1127088Y503597D01*
X1126985Y503988D01*
X1126891Y504383D01*
X1126807Y504779D01*
X1126733Y505177D01*
X1126669Y505577D01*
X1126614Y505979D01*
X1126570Y506382D01*
X1126535Y506785D01*
X1126510Y507190D01*
X1126495Y507595D01*
X1126490Y508000D01*
X1126490Y25400D02*
X1126495Y25805D01*
X1126510Y26210D01*
X1126535Y26615D01*
X1126570Y27018D01*
X1126614Y27421D01*
X1126669Y27823D01*
X1126733Y28223D01*
X1126807Y28621D01*
X1126891Y29017D01*
X1126985Y29412D01*
X1127088Y29803D01*
X1127201Y30193D01*
X1127323Y30579D01*
X1127455Y30962D01*
X1127596Y31342D01*
X1127747Y31718D01*
X1127906Y32091D01*
X1128075Y32459D01*
X1128253Y32823D01*
X1128439Y33183D01*
X1128635Y33538D01*
X1128839Y33888D01*
X1129051Y34233D01*
X1129272Y34572D01*
X1129502Y34907D01*
X1129739Y35235D01*
X1129984Y35557D01*
X1130238Y35874D01*
X1130498Y36184D01*
X1130767Y36487D01*
X1131043Y36784D01*
X1131326Y37074D01*
X1131616Y37357D01*
X1131913Y37633D01*
X1132216Y37902D01*
X1132526Y38162D01*
X1132843Y38416D01*
X1133165Y38661D01*
X1133493Y38898D01*
X1133828Y39128D01*
X1134167Y39349D01*
X1134512Y39561D01*
X1134862Y39765D01*
X1135217Y39961D01*
X1135577Y40147D01*
X1135941Y40325D01*
X1136309Y40494D01*
X1136682Y40653D01*
X1137058Y40804D01*
X1137438Y40945D01*
X1137821Y41077D01*
X1138207Y41199D01*
X1138597Y41312D01*
X1138988Y41415D01*
X1139383Y41509D01*
X1139779Y41593D01*
X1140177Y41667D01*
X1140577Y41731D01*
X1140979Y41786D01*
X1141382Y41830D01*
X1141785Y41865D01*
X1142190Y41890D01*
X1142595Y41905D01*
X1143000Y41910D01*
X1143405Y41905D01*
X1143810Y41890D01*
X1144215Y41865D01*
X1144618Y41830D01*
X1145021Y41786D01*
X1145423Y41731D01*
X1145823Y41667D01*
X1146221Y41593D01*
X1146617Y41509D01*
X1147012Y41415D01*
X1147403Y41312D01*
X1147793Y41199D01*
X1148179Y41077D01*
X1148562Y40945D01*
X1148942Y40804D01*
X1149318Y40653D01*
X1149691Y40494D01*
X1150059Y40325D01*
X1150423Y40147D01*
X1150783Y39961D01*
X1151138Y39765D01*
X1151488Y39561D01*
X1151833Y39349D01*
X1152172Y39128D01*
X1152507Y38898D01*
X1152835Y38661D01*
X1153157Y38416D01*
X1153474Y38162D01*
X1153784Y37902D01*
X1154087Y37633D01*
X1154384Y37357D01*
X1154674Y37074D01*
X1154957Y36784D01*
X1155233Y36487D01*
X1155502Y36184D01*
X1155762Y35874D01*
X1156016Y35557D01*
X1156261Y35235D01*
X1156498Y34907D01*
X1156728Y34572D01*
X1156949Y34233D01*
X1157161Y33888D01*
X1157365Y33538D01*
X1157561Y33183D01*
X1157747Y32823D01*
X1157925Y32459D01*
X1158094Y32091D01*
X1158253Y31718D01*
X1158404Y31342D01*
X1158545Y30962D01*
X1158677Y30579D01*
X1158799Y30193D01*
X1158912Y29803D01*
X1159015Y29412D01*
X1159109Y29017D01*
X1159193Y28621D01*
X1159267Y28223D01*
X1159331Y27823D01*
X1159386Y27421D01*
X1159430Y27018D01*
X1159465Y26615D01*
X1159490Y26210D01*
X1159505Y25805D01*
X1159510Y25400D01*
X1159505Y24995D01*
X1159490Y24590D01*
X1159465Y24185D01*
X1159430Y23782D01*
X1159386Y23379D01*
X1159331Y22977D01*
X1159267Y22577D01*
X1159193Y22179D01*
X1159109Y21783D01*
X1159015Y21388D01*
X1158912Y20997D01*
X1158799Y20607D01*
X1158677Y20221D01*
X1158545Y19838D01*
X1158404Y19458D01*
X1158253Y19082D01*
X1158094Y18709D01*
X1157925Y18341D01*
X1157747Y17977D01*
X1157561Y17617D01*
X1157365Y17262D01*
X1157161Y16912D01*
X1156949Y16567D01*
X1156728Y16228D01*
X1156498Y15893D01*
X1156261Y15565D01*
X1156016Y15243D01*
X1155762Y14926D01*
X1155502Y14616D01*
X1155233Y14313D01*
X1154957Y14016D01*
X1154674Y13726D01*
X1154384Y13443D01*
X1154087Y13167D01*
X1153784Y12898D01*
X1153474Y12638D01*
X1153157Y12384D01*
X1152835Y12139D01*
X1152507Y11902D01*
X1152172Y11672D01*
X1151833Y11451D01*
X1151488Y11239D01*
X1151138Y11035D01*
X1150783Y10839D01*
X1150423Y10653D01*
X1150059Y10475D01*
X1149691Y10306D01*
X1149318Y10147D01*
X1148942Y9996D01*
X1148562Y9855D01*
X1148179Y9723D01*
X1147793Y9601D01*
X1147403Y9488D01*
X1147012Y9385D01*
X1146617Y9291D01*
X1146221Y9207D01*
X1145823Y9133D01*
X1145423Y9069D01*
X1145021Y9014D01*
X1144618Y8970D01*
X1144215Y8935D01*
X1143810Y8910D01*
X1143405Y8895D01*
X1143000Y8890D01*
X1142595Y8895D01*
X1142190Y8910D01*
X1141785Y8935D01*
X1141382Y8970D01*
X1140979Y9014D01*
X1140577Y9069D01*
X1140177Y9133D01*
X1139779Y9207D01*
X1139383Y9291D01*
X1138988Y9385D01*
X1138597Y9488D01*
X1138207Y9601D01*
X1137821Y9723D01*
X1137438Y9855D01*
X1137058Y9996D01*
X1136682Y10147D01*
X1136309Y10306D01*
X1135941Y10475D01*
X1135577Y10653D01*
X1135217Y10839D01*
X1134862Y11035D01*
X1134512Y11239D01*
X1134167Y11451D01*
X1133828Y11672D01*
X1133493Y11902D01*
X1133165Y12139D01*
X1132843Y12384D01*
X1132526Y12638D01*
X1132216Y12898D01*
X1131913Y13167D01*
X1131616Y13443D01*
X1131326Y13726D01*
X1131043Y14016D01*
X1130767Y14313D01*
X1130498Y14616D01*
X1130238Y14926D01*
X1129984Y15243D01*
X1129739Y15565D01*
X1129502Y15893D01*
X1129272Y16228D01*
X1129051Y16567D01*
X1128839Y16912D01*
X1128635Y17262D01*
X1128439Y17617D01*
X1128253Y17977D01*
X1128075Y18341D01*
X1127906Y18709D01*
X1127747Y19082D01*
X1127596Y19458D01*
X1127455Y19838D01*
X1127323Y20221D01*
X1127201Y20607D01*
X1127088Y20997D01*
X1126985Y21388D01*
X1126891Y21783D01*
X1126807Y22179D01*
X1126733Y22577D01*
X1126669Y22977D01*
X1126614Y23379D01*
X1126570Y23782D01*
X1126535Y24185D01*
X1126510Y24590D01*
X1126495Y24995D01*
X1126490Y25400D01*
D14*
X942111Y254787D02*
X926389Y254787D01*
X942111Y254787D02*
X942111Y250749D01*
X939902Y250749D01*
X939902Y250673D01*
X939904Y250645D01*
X939908Y250617D01*
X939917Y250590D01*
X939928Y250564D01*
X939942Y250539D01*
X939959Y250516D01*
X939978Y250495D01*
X940027Y250451D01*
X940078Y250408D01*
X940130Y250368D01*
X940511Y250088D01*
X940609Y250013D01*
X940706Y249935D01*
X940801Y249854D01*
X940893Y249771D01*
X940984Y249686D01*
X941072Y249598D01*
X941157Y249508D01*
X941241Y249416D01*
X941321Y249322D01*
X941400Y249225D01*
X941400Y249226D02*
X941485Y249115D01*
X941566Y249003D01*
X941645Y248888D01*
X941720Y248771D01*
X941792Y248653D01*
X941861Y248532D01*
X941926Y248410D01*
X941989Y248285D01*
X942047Y248159D01*
X942103Y248032D01*
X942154Y247903D01*
X942203Y247773D01*
X942247Y247641D01*
X942288Y247509D01*
X942326Y247375D01*
X942360Y247240D01*
X942390Y247105D01*
X942416Y246968D01*
X942439Y246831D01*
X942458Y246694D01*
X942473Y246555D01*
X942485Y246417D01*
X942492Y246278D01*
X942502Y245943D01*
X942505Y245609D01*
X942500Y245274D01*
X942488Y244940D01*
X942469Y244606D01*
X942442Y244272D01*
X942428Y244142D01*
X942410Y244012D01*
X942388Y243884D01*
X942363Y243756D01*
X942333Y243629D01*
X942300Y243502D01*
X942263Y243377D01*
X942222Y243253D01*
X942178Y243130D01*
X942130Y243009D01*
X942078Y242889D01*
X942023Y242771D01*
X941964Y242654D01*
X941902Y242540D01*
X941837Y242427D01*
X941768Y242316D01*
X941695Y242207D01*
X941620Y242101D01*
X941541Y241997D01*
X941460Y241895D01*
X941375Y241796D01*
X941287Y241699D01*
X941197Y241605D01*
X941107Y241517D01*
X941014Y241431D01*
X940920Y241348D01*
X940823Y241268D01*
X940723Y241191D01*
X940622Y241116D01*
X940518Y241044D01*
X940413Y240976D01*
X940305Y240910D01*
X940196Y240847D01*
X940085Y240788D01*
X939972Y240731D01*
X939858Y240678D01*
X939742Y240628D01*
X939625Y240582D01*
X939507Y240538D01*
X939387Y240499D01*
X939267Y240462D01*
X939068Y240407D01*
X938868Y240358D01*
X938667Y240313D01*
X938465Y240273D01*
X938262Y240238D01*
X938058Y240208D01*
X937853Y240183D01*
X937648Y240162D01*
X937443Y240147D01*
X937237Y240137D01*
X937031Y240132D01*
X926490Y240132D01*
X926490Y244221D01*
X936142Y244221D01*
X936265Y244223D01*
X936388Y244228D01*
X936511Y244238D01*
X936634Y244250D01*
X936755Y244267D01*
X936877Y244287D01*
X936998Y244311D01*
X937118Y244339D01*
X937237Y244370D01*
X937355Y244404D01*
X937472Y244442D01*
X937588Y244484D01*
X937702Y244529D01*
X937815Y244578D01*
X937927Y244630D01*
X938037Y244685D01*
X938145Y244743D01*
X938251Y244805D01*
X938328Y244853D01*
X938403Y244905D01*
X938476Y244959D01*
X938546Y245016D01*
X938615Y245076D01*
X938681Y245139D01*
X938744Y245204D01*
X938805Y245272D01*
X938862Y245342D01*
X938917Y245414D01*
X938969Y245489D01*
X939019Y245565D01*
X939064Y245644D01*
X939107Y245724D01*
X939147Y245806D01*
X939183Y245889D01*
X939216Y245974D01*
X939240Y246045D01*
X939261Y246116D01*
X939279Y246189D01*
X939293Y246262D01*
X939305Y246336D01*
X939313Y246410D01*
X939318Y246485D01*
X939319Y246559D01*
X939317Y246634D01*
X939318Y246634D02*
X939268Y247752D01*
X939267Y247752D02*
X939260Y247849D01*
X939251Y247946D01*
X939238Y248042D01*
X939221Y248138D01*
X939200Y248234D01*
X939177Y248328D01*
X939149Y248422D01*
X939118Y248514D01*
X939084Y248605D01*
X939046Y248695D01*
X939006Y248783D01*
X938961Y248870D01*
X938914Y248955D01*
X938863Y249039D01*
X938810Y249120D01*
X938753Y249199D01*
X938694Y249277D01*
X938632Y249351D01*
X938631Y249352D02*
X938560Y249431D01*
X938487Y249509D01*
X938410Y249584D01*
X938332Y249656D01*
X938251Y249726D01*
X938168Y249793D01*
X938083Y249857D01*
X937996Y249919D01*
X937906Y249977D01*
X937815Y250033D01*
X937722Y250086D01*
X937628Y250136D01*
X937532Y250182D01*
X937434Y250226D01*
X937335Y250266D01*
X937336Y250266D02*
X937220Y250309D01*
X937102Y250349D01*
X936984Y250386D01*
X936864Y250419D01*
X936744Y250449D01*
X936623Y250476D01*
X936501Y250500D01*
X936379Y250520D01*
X936256Y250537D01*
X936133Y250551D01*
X936009Y250561D01*
X935885Y250567D01*
X935761Y250571D01*
X935419Y250573D01*
X935077Y250571D01*
X935076Y250571D02*
X926389Y250571D01*
X926389Y254787D01*
X939851Y206451D02*
X943077Y206451D01*
X939851Y206451D02*
X939851Y206680D01*
X939849Y206790D01*
X939843Y206900D01*
X939834Y207010D01*
X939820Y207120D01*
X939803Y207229D01*
X939782Y207337D01*
X939757Y207445D01*
X939728Y207551D01*
X939696Y207657D01*
X939659Y207761D01*
X939620Y207864D01*
X939577Y207965D01*
X939530Y208065D01*
X939479Y208164D01*
X939426Y208260D01*
X939369Y208355D01*
X939308Y208447D01*
X939245Y208537D01*
X939178Y208625D01*
X939109Y208711D01*
X939036Y208794D01*
X938961Y208874D01*
X938882Y208952D01*
X938801Y209027D01*
X938718Y209100D01*
X938632Y209169D01*
X938520Y209254D01*
X938405Y209335D01*
X938289Y209414D01*
X938170Y209489D01*
X938050Y209562D01*
X937927Y209631D01*
X937803Y209696D01*
X937677Y209759D01*
X937550Y209818D01*
X937421Y209873D01*
X937290Y209925D01*
X937158Y209974D01*
X937025Y210019D01*
X936891Y210060D01*
X936756Y210098D01*
X936619Y210133D01*
X936482Y210163D01*
X936344Y210190D01*
X936206Y210213D01*
X936066Y210233D01*
X935927Y210249D01*
X935787Y210261D01*
X935435Y210283D01*
X935083Y210296D01*
X934731Y210301D01*
X934378Y210297D01*
X934026Y210285D01*
X933674Y210265D01*
X933323Y210236D01*
X933174Y210220D01*
X933025Y210200D01*
X932876Y210177D01*
X932729Y210150D01*
X932582Y210120D01*
X932435Y210086D01*
X932290Y210048D01*
X932146Y210006D01*
X932003Y209961D01*
X931860Y209913D01*
X931720Y209861D01*
X931580Y209806D01*
X931442Y209747D01*
X931305Y209684D01*
X931170Y209619D01*
X931037Y209550D01*
X930937Y209494D01*
X930839Y209435D01*
X930744Y209373D01*
X930650Y209307D01*
X930559Y209238D01*
X930470Y209166D01*
X930384Y209091D01*
X930300Y209013D01*
X930220Y208932D01*
X930142Y208849D01*
X930067Y208762D01*
X929995Y208674D01*
X929926Y208582D01*
X929861Y208489D01*
X929799Y208393D01*
X929740Y208295D01*
X929685Y208195D01*
X929633Y208093D01*
X929585Y207989D01*
X929540Y207884D01*
X929499Y207778D01*
X929462Y207670D01*
X929423Y207544D01*
X929387Y207416D01*
X929356Y207288D01*
X929328Y207159D01*
X929303Y207029D01*
X929283Y206898D01*
X929266Y206767D01*
X929253Y206635D01*
X929244Y206503D01*
X929239Y206371D01*
X929237Y206239D01*
X929239Y206107D01*
X929245Y205975D01*
X929255Y205843D01*
X929269Y205711D01*
X929286Y205580D01*
X929308Y205450D01*
X929333Y205320D01*
X929361Y205191D01*
X929394Y205063D01*
X929430Y204935D01*
X929470Y204809D01*
X929513Y204684D01*
X929560Y204561D01*
X929611Y204439D01*
X929665Y204318D01*
X929711Y204222D01*
X929761Y204128D01*
X929814Y204035D01*
X929871Y203944D01*
X929930Y203855D01*
X929992Y203768D01*
X930057Y203684D01*
X930125Y203601D01*
X930196Y203521D01*
X930270Y203444D01*
X930346Y203369D01*
X930424Y203296D01*
X930505Y203227D01*
X930589Y203160D01*
X930674Y203096D01*
X930762Y203035D01*
X930852Y202977D01*
X930943Y202922D01*
X931037Y202870D01*
X931181Y202796D01*
X931326Y202726D01*
X931473Y202658D01*
X931621Y202595D01*
X931771Y202535D01*
X931922Y202479D01*
X932075Y202426D01*
X932228Y202377D01*
X932383Y202331D01*
X932539Y202290D01*
X932696Y202252D01*
X932854Y202218D01*
X933012Y202187D01*
X933172Y202161D01*
X933331Y202138D01*
X933492Y202119D01*
X933652Y202104D01*
X933814Y202093D01*
X933975Y202086D01*
X934136Y202082D01*
X934390Y202083D01*
X934643Y202090D01*
X934897Y202103D01*
X935149Y202122D01*
X935402Y202147D01*
X935653Y202178D01*
X935904Y202215D01*
X936154Y202258D01*
X936403Y202307D01*
X936650Y202362D01*
X936780Y202394D01*
X936910Y202431D01*
X937039Y202470D01*
X937166Y202513D01*
X937293Y202559D01*
X937418Y202609D01*
X937541Y202662D01*
X937664Y202718D01*
X937784Y202777D01*
X937903Y202840D01*
X938021Y202906D01*
X938136Y202975D01*
X938250Y203047D01*
X938362Y203122D01*
X938472Y203200D01*
X938579Y203281D01*
X938684Y203364D01*
X938788Y203451D01*
X938888Y203540D01*
X938987Y203632D01*
X939055Y203700D01*
X939121Y203770D01*
X939183Y203842D01*
X939243Y203917D01*
X939300Y203994D01*
X939355Y204073D01*
X939406Y204153D01*
X939454Y204236D01*
X939500Y204321D01*
X939542Y204407D01*
X939581Y204494D01*
X939616Y204583D01*
X939648Y204673D01*
X939648Y204674D02*
X939689Y204801D01*
X939726Y204929D01*
X939760Y205058D01*
X939790Y205188D01*
X939817Y205319D01*
X939840Y205450D01*
X939860Y205583D01*
X939875Y205715D01*
X939888Y205848D01*
X939896Y205981D01*
X939901Y206115D01*
X939902Y206248D01*
X943077Y206248D01*
X943077Y206096D01*
X943075Y205891D01*
X943068Y205685D01*
X943056Y205480D01*
X943040Y205276D01*
X943019Y205071D01*
X942993Y204867D01*
X942963Y204664D01*
X942929Y204462D01*
X942889Y204260D01*
X942845Y204060D01*
X942797Y203860D01*
X942750Y203684D01*
X942699Y203509D01*
X942644Y203335D01*
X942584Y203163D01*
X942521Y202992D01*
X942454Y202823D01*
X942383Y202655D01*
X942308Y202489D01*
X942229Y202324D01*
X942146Y202162D01*
X942060Y202002D01*
X941970Y201843D01*
X941876Y201687D01*
X941779Y201533D01*
X941677Y201381D01*
X941573Y201232D01*
X941465Y201085D01*
X941354Y200941D01*
X941239Y200799D01*
X941121Y200660D01*
X941120Y200660D02*
X940993Y200517D01*
X940862Y200377D01*
X940728Y200240D01*
X940590Y200107D01*
X940450Y199977D01*
X940306Y199850D01*
X940160Y199727D01*
X940010Y199607D01*
X939858Y199491D01*
X939702Y199379D01*
X939545Y199270D01*
X939384Y199165D01*
X939221Y199064D01*
X939056Y198967D01*
X938889Y198874D01*
X938719Y198785D01*
X938547Y198700D01*
X938374Y198620D01*
X938198Y198543D01*
X938020Y198471D01*
X937841Y198403D01*
X937661Y198339D01*
X937478Y198280D01*
X937295Y198225D01*
X937110Y198175D01*
X936924Y198129D01*
X936737Y198087D01*
X936549Y198050D01*
X936360Y198017D01*
X936171Y197989D01*
X935981Y197966D01*
X935790Y197947D01*
X935599Y197933D01*
X935408Y197923D01*
X935216Y197918D01*
X935025Y197917D01*
X934724Y197923D01*
X934422Y197937D01*
X934121Y197958D01*
X933820Y197987D01*
X933520Y198023D01*
X933222Y198066D01*
X932924Y198117D01*
X932628Y198174D01*
X932333Y198240D01*
X932040Y198312D01*
X931748Y198391D01*
X931459Y198478D01*
X931172Y198571D01*
X930887Y198672D01*
X930605Y198780D01*
X930605Y198779D02*
X930454Y198841D01*
X930304Y198907D01*
X930156Y198976D01*
X930010Y199049D01*
X929865Y199125D01*
X929723Y199205D01*
X929582Y199288D01*
X929443Y199375D01*
X929307Y199465D01*
X929173Y199558D01*
X929041Y199654D01*
X928911Y199754D01*
X928784Y199857D01*
X928660Y199963D01*
X928538Y200071D01*
X928419Y200183D01*
X928302Y200298D01*
X928189Y200415D01*
X928078Y200535D01*
X927970Y200658D01*
X927865Y200783D01*
X927764Y200911D01*
X927665Y201042D01*
X927570Y201174D01*
X927478Y201309D01*
X927389Y201447D01*
X927304Y201586D01*
X927222Y201727D01*
X927143Y201870D01*
X927068Y202016D01*
X926996Y202162D01*
X926929Y202311D01*
X926864Y202461D01*
X926804Y202613D01*
X926747Y202766D01*
X926694Y202921D01*
X926615Y203171D01*
X926541Y203422D01*
X926474Y203675D01*
X926412Y203930D01*
X926357Y204185D01*
X926308Y204443D01*
X926265Y204701D01*
X926228Y204960D01*
X926197Y205220D01*
X926172Y205481D01*
X926153Y205742D01*
X926141Y206004D01*
X926135Y206265D01*
X926135Y206527D01*
X926140Y206740D01*
X926150Y206953D01*
X926165Y207166D01*
X926186Y207379D01*
X926211Y207591D01*
X926242Y207802D01*
X926278Y208013D01*
X926318Y208222D01*
X926364Y208431D01*
X926415Y208638D01*
X926471Y208844D01*
X926532Y209049D01*
X926598Y209252D01*
X926668Y209454D01*
X926744Y209653D01*
X926824Y209851D01*
X926909Y210047D01*
X926998Y210241D01*
X927093Y210433D01*
X927192Y210622D01*
X927295Y210809D01*
X927403Y210993D01*
X927515Y211174D01*
X927632Y211353D01*
X927753Y211529D01*
X927878Y211702D01*
X928007Y211872D01*
X928141Y212039D01*
X928232Y212148D01*
X928327Y212254D01*
X928423Y212359D01*
X928522Y212460D01*
X928624Y212560D01*
X928728Y212657D01*
X928835Y212751D01*
X928943Y212843D01*
X929054Y212932D01*
X929167Y213018D01*
X929283Y213101D01*
X929400Y213182D01*
X929519Y213260D01*
X929640Y213335D01*
X929641Y213335D02*
X929812Y213435D01*
X929987Y213532D01*
X930163Y213624D01*
X930341Y213712D01*
X930522Y213796D01*
X930704Y213876D01*
X930889Y213951D01*
X931075Y214022D01*
X931262Y214088D01*
X931452Y214150D01*
X931642Y214208D01*
X931834Y214261D01*
X932027Y214309D01*
X932221Y214353D01*
X932417Y214392D01*
X932613Y214427D01*
X932612Y214427D02*
X932885Y214468D01*
X933158Y214503D01*
X933431Y214531D01*
X933706Y214552D01*
X933981Y214567D01*
X934256Y214575D01*
X934531Y214577D01*
X934806Y214572D01*
X935081Y214560D01*
X935356Y214541D01*
X935630Y214516D01*
X935903Y214484D01*
X936176Y214446D01*
X936447Y214401D01*
X936631Y214366D01*
X936815Y214326D01*
X936997Y214282D01*
X937179Y214234D01*
X937359Y214182D01*
X937538Y214125D01*
X937715Y214064D01*
X937891Y213998D01*
X938066Y213929D01*
X938238Y213855D01*
X938409Y213777D01*
X938578Y213695D01*
X938745Y213610D01*
X938910Y213520D01*
X939073Y213426D01*
X939233Y213329D01*
X939391Y213227D01*
X939547Y213122D01*
X939700Y213013D01*
X939850Y212901D01*
X939998Y212785D01*
X940142Y212666D01*
X940284Y212543D01*
X940423Y212416D01*
X940559Y212287D01*
X940692Y212154D01*
X940822Y212018D01*
X940948Y211879D01*
X941071Y211737D01*
X941190Y211593D01*
X941306Y211445D01*
X941419Y211295D01*
X941528Y211142D01*
X941633Y210986D01*
X941734Y210828D01*
X941832Y210668D01*
X941938Y210484D01*
X942039Y210299D01*
X942136Y210111D01*
X942228Y209920D01*
X942316Y209728D01*
X942400Y209534D01*
X942479Y209337D01*
X942553Y209139D01*
X942622Y208939D01*
X942687Y208738D01*
X942747Y208535D01*
X942802Y208331D01*
X942852Y208125D01*
X942897Y207919D01*
X942938Y207711D01*
X942973Y207503D01*
X943004Y207293D01*
X943030Y207083D01*
X943051Y206873D01*
X943066Y206662D01*
X943077Y206451D01*
D17*
X928815Y235217D03*
D13*
X621030Y508000D02*
X621035Y508405D01*
X621050Y508810D01*
X621075Y509215D01*
X621110Y509618D01*
X621154Y510021D01*
X621209Y510423D01*
X621273Y510823D01*
X621347Y511221D01*
X621431Y511617D01*
X621525Y512012D01*
X621628Y512403D01*
X621741Y512793D01*
X621863Y513179D01*
X621995Y513562D01*
X622136Y513942D01*
X622287Y514318D01*
X622446Y514691D01*
X622615Y515059D01*
X622793Y515423D01*
X622979Y515783D01*
X623175Y516138D01*
X623379Y516488D01*
X623591Y516833D01*
X623812Y517172D01*
X624042Y517507D01*
X624279Y517835D01*
X624524Y518157D01*
X624778Y518474D01*
X625038Y518784D01*
X625307Y519087D01*
X625583Y519384D01*
X625866Y519674D01*
X626156Y519957D01*
X626453Y520233D01*
X626756Y520502D01*
X627066Y520762D01*
X627383Y521016D01*
X627705Y521261D01*
X628033Y521498D01*
X628368Y521728D01*
X628707Y521949D01*
X629052Y522161D01*
X629402Y522365D01*
X629757Y522561D01*
X630117Y522747D01*
X630481Y522925D01*
X630849Y523094D01*
X631222Y523253D01*
X631598Y523404D01*
X631978Y523545D01*
X632361Y523677D01*
X632747Y523799D01*
X633137Y523912D01*
X633528Y524015D01*
X633923Y524109D01*
X634319Y524193D01*
X634717Y524267D01*
X635117Y524331D01*
X635519Y524386D01*
X635922Y524430D01*
X636325Y524465D01*
X636730Y524490D01*
X637135Y524505D01*
X637540Y524510D01*
X637945Y524505D01*
X638350Y524490D01*
X638755Y524465D01*
X639158Y524430D01*
X639561Y524386D01*
X639963Y524331D01*
X640363Y524267D01*
X640761Y524193D01*
X641157Y524109D01*
X641552Y524015D01*
X641943Y523912D01*
X642333Y523799D01*
X642719Y523677D01*
X643102Y523545D01*
X643482Y523404D01*
X643858Y523253D01*
X644231Y523094D01*
X644599Y522925D01*
X644963Y522747D01*
X645323Y522561D01*
X645678Y522365D01*
X646028Y522161D01*
X646373Y521949D01*
X646712Y521728D01*
X647047Y521498D01*
X647375Y521261D01*
X647697Y521016D01*
X648014Y520762D01*
X648324Y520502D01*
X648627Y520233D01*
X648924Y519957D01*
X649214Y519674D01*
X649497Y519384D01*
X649773Y519087D01*
X650042Y518784D01*
X650302Y518474D01*
X650556Y518157D01*
X650801Y517835D01*
X651038Y517507D01*
X651268Y517172D01*
X651489Y516833D01*
X651701Y516488D01*
X651905Y516138D01*
X652101Y515783D01*
X652287Y515423D01*
X652465Y515059D01*
X652634Y514691D01*
X652793Y514318D01*
X652944Y513942D01*
X653085Y513562D01*
X653217Y513179D01*
X653339Y512793D01*
X653452Y512403D01*
X653555Y512012D01*
X653649Y511617D01*
X653733Y511221D01*
X653807Y510823D01*
X653871Y510423D01*
X653926Y510021D01*
X653970Y509618D01*
X654005Y509215D01*
X654030Y508810D01*
X654045Y508405D01*
X654050Y508000D01*
X654045Y507595D01*
X654030Y507190D01*
X654005Y506785D01*
X653970Y506382D01*
X653926Y505979D01*
X653871Y505577D01*
X653807Y505177D01*
X653733Y504779D01*
X653649Y504383D01*
X653555Y503988D01*
X653452Y503597D01*
X653339Y503207D01*
X653217Y502821D01*
X653085Y502438D01*
X652944Y502058D01*
X652793Y501682D01*
X652634Y501309D01*
X652465Y500941D01*
X652287Y500577D01*
X652101Y500217D01*
X651905Y499862D01*
X651701Y499512D01*
X651489Y499167D01*
X651268Y498828D01*
X651038Y498493D01*
X650801Y498165D01*
X650556Y497843D01*
X650302Y497526D01*
X650042Y497216D01*
X649773Y496913D01*
X649497Y496616D01*
X649214Y496326D01*
X648924Y496043D01*
X648627Y495767D01*
X648324Y495498D01*
X648014Y495238D01*
X647697Y494984D01*
X647375Y494739D01*
X647047Y494502D01*
X646712Y494272D01*
X646373Y494051D01*
X646028Y493839D01*
X645678Y493635D01*
X645323Y493439D01*
X644963Y493253D01*
X644599Y493075D01*
X644231Y492906D01*
X643858Y492747D01*
X643482Y492596D01*
X643102Y492455D01*
X642719Y492323D01*
X642333Y492201D01*
X641943Y492088D01*
X641552Y491985D01*
X641157Y491891D01*
X640761Y491807D01*
X640363Y491733D01*
X639963Y491669D01*
X639561Y491614D01*
X639158Y491570D01*
X638755Y491535D01*
X638350Y491510D01*
X637945Y491495D01*
X637540Y491490D01*
X637135Y491495D01*
X636730Y491510D01*
X636325Y491535D01*
X635922Y491570D01*
X635519Y491614D01*
X635117Y491669D01*
X634717Y491733D01*
X634319Y491807D01*
X633923Y491891D01*
X633528Y491985D01*
X633137Y492088D01*
X632747Y492201D01*
X632361Y492323D01*
X631978Y492455D01*
X631598Y492596D01*
X631222Y492747D01*
X630849Y492906D01*
X630481Y493075D01*
X630117Y493253D01*
X629757Y493439D01*
X629402Y493635D01*
X629052Y493839D01*
X628707Y494051D01*
X628368Y494272D01*
X628033Y494502D01*
X627705Y494739D01*
X627383Y494984D01*
X627066Y495238D01*
X626756Y495498D01*
X626453Y495767D01*
X626156Y496043D01*
X625866Y496326D01*
X625583Y496616D01*
X625307Y496913D01*
X625038Y497216D01*
X624778Y497526D01*
X624524Y497843D01*
X624279Y498165D01*
X624042Y498493D01*
X623812Y498828D01*
X623591Y499167D01*
X623379Y499512D01*
X623175Y499862D01*
X622979Y500217D01*
X622793Y500577D01*
X622615Y500941D01*
X622446Y501309D01*
X622287Y501682D01*
X622136Y502058D01*
X621995Y502438D01*
X621863Y502821D01*
X621741Y503207D01*
X621628Y503597D01*
X621525Y503988D01*
X621431Y504383D01*
X621347Y504779D01*
X621273Y505177D01*
X621209Y505577D01*
X621154Y505979D01*
X621110Y506382D01*
X621075Y506785D01*
X621050Y507190D01*
X621035Y507595D01*
X621030Y508000D01*
X621030Y25400D02*
X621035Y25805D01*
X621050Y26210D01*
X621075Y26615D01*
X621110Y27018D01*
X621154Y27421D01*
X621209Y27823D01*
X621273Y28223D01*
X621347Y28621D01*
X621431Y29017D01*
X621525Y29412D01*
X621628Y29803D01*
X621741Y30193D01*
X621863Y30579D01*
X621995Y30962D01*
X622136Y31342D01*
X622287Y31718D01*
X622446Y32091D01*
X622615Y32459D01*
X622793Y32823D01*
X622979Y33183D01*
X623175Y33538D01*
X623379Y33888D01*
X623591Y34233D01*
X623812Y34572D01*
X624042Y34907D01*
X624279Y35235D01*
X624524Y35557D01*
X624778Y35874D01*
X625038Y36184D01*
X625307Y36487D01*
X625583Y36784D01*
X625866Y37074D01*
X626156Y37357D01*
X626453Y37633D01*
X626756Y37902D01*
X627066Y38162D01*
X627383Y38416D01*
X627705Y38661D01*
X628033Y38898D01*
X628368Y39128D01*
X628707Y39349D01*
X629052Y39561D01*
X629402Y39765D01*
X629757Y39961D01*
X630117Y40147D01*
X630481Y40325D01*
X630849Y40494D01*
X631222Y40653D01*
X631598Y40804D01*
X631978Y40945D01*
X632361Y41077D01*
X632747Y41199D01*
X633137Y41312D01*
X633528Y41415D01*
X633923Y41509D01*
X634319Y41593D01*
X634717Y41667D01*
X635117Y41731D01*
X635519Y41786D01*
X635922Y41830D01*
X636325Y41865D01*
X636730Y41890D01*
X637135Y41905D01*
X637540Y41910D01*
X637945Y41905D01*
X638350Y41890D01*
X638755Y41865D01*
X639158Y41830D01*
X639561Y41786D01*
X639963Y41731D01*
X640363Y41667D01*
X640761Y41593D01*
X641157Y41509D01*
X641552Y41415D01*
X641943Y41312D01*
X642333Y41199D01*
X642719Y41077D01*
X643102Y40945D01*
X643482Y40804D01*
X643858Y40653D01*
X644231Y40494D01*
X644599Y40325D01*
X644963Y40147D01*
X645323Y39961D01*
X645678Y39765D01*
X646028Y39561D01*
X646373Y39349D01*
X646712Y39128D01*
X647047Y38898D01*
X647375Y38661D01*
X647697Y38416D01*
X648014Y38162D01*
X648324Y37902D01*
X648627Y37633D01*
X648924Y37357D01*
X649214Y37074D01*
X649497Y36784D01*
X649773Y36487D01*
X650042Y36184D01*
X650302Y35874D01*
X650556Y35557D01*
X650801Y35235D01*
X651038Y34907D01*
X651268Y34572D01*
X651489Y34233D01*
X651701Y33888D01*
X651905Y33538D01*
X652101Y33183D01*
X652287Y32823D01*
X652465Y32459D01*
X652634Y32091D01*
X652793Y31718D01*
X652944Y31342D01*
X653085Y30962D01*
X653217Y30579D01*
X653339Y30193D01*
X653452Y29803D01*
X653555Y29412D01*
X653649Y29017D01*
X653733Y28621D01*
X653807Y28223D01*
X653871Y27823D01*
X653926Y27421D01*
X653970Y27018D01*
X654005Y26615D01*
X654030Y26210D01*
X654045Y25805D01*
X654050Y25400D01*
X654045Y24995D01*
X654030Y24590D01*
X654005Y24185D01*
X653970Y23782D01*
X653926Y23379D01*
X653871Y22977D01*
X653807Y22577D01*
X653733Y22179D01*
X653649Y21783D01*
X653555Y21388D01*
X653452Y20997D01*
X653339Y20607D01*
X653217Y20221D01*
X653085Y19838D01*
X652944Y19458D01*
X652793Y19082D01*
X652634Y18709D01*
X652465Y18341D01*
X652287Y17977D01*
X652101Y17617D01*
X651905Y17262D01*
X651701Y16912D01*
X651489Y16567D01*
X651268Y16228D01*
X651038Y15893D01*
X650801Y15565D01*
X650556Y15243D01*
X650302Y14926D01*
X650042Y14616D01*
X649773Y14313D01*
X649497Y14016D01*
X649214Y13726D01*
X648924Y13443D01*
X648627Y13167D01*
X648324Y12898D01*
X648014Y12638D01*
X647697Y12384D01*
X647375Y12139D01*
X647047Y11902D01*
X646712Y11672D01*
X646373Y11451D01*
X646028Y11239D01*
X645678Y11035D01*
X645323Y10839D01*
X644963Y10653D01*
X644599Y10475D01*
X644231Y10306D01*
X643858Y10147D01*
X643482Y9996D01*
X643102Y9855D01*
X642719Y9723D01*
X642333Y9601D01*
X641943Y9488D01*
X641552Y9385D01*
X641157Y9291D01*
X640761Y9207D01*
X640363Y9133D01*
X639963Y9069D01*
X639561Y9014D01*
X639158Y8970D01*
X638755Y8935D01*
X638350Y8910D01*
X637945Y8895D01*
X637540Y8890D01*
X637135Y8895D01*
X636730Y8910D01*
X636325Y8935D01*
X635922Y8970D01*
X635519Y9014D01*
X635117Y9069D01*
X634717Y9133D01*
X634319Y9207D01*
X633923Y9291D01*
X633528Y9385D01*
X633137Y9488D01*
X632747Y9601D01*
X632361Y9723D01*
X631978Y9855D01*
X631598Y9996D01*
X631222Y10147D01*
X630849Y10306D01*
X630481Y10475D01*
X630117Y10653D01*
X629757Y10839D01*
X629402Y11035D01*
X629052Y11239D01*
X628707Y11451D01*
X628368Y11672D01*
X628033Y11902D01*
X627705Y12139D01*
X627383Y12384D01*
X627066Y12638D01*
X626756Y12898D01*
X626453Y13167D01*
X626156Y13443D01*
X625866Y13726D01*
X625583Y14016D01*
X625307Y14313D01*
X625038Y14616D01*
X624778Y14926D01*
X624524Y15243D01*
X624279Y15565D01*
X624042Y15893D01*
X623812Y16228D01*
X623591Y16567D01*
X623379Y16912D01*
X623175Y17262D01*
X622979Y17617D01*
X622793Y17977D01*
X622615Y18341D01*
X622446Y18709D01*
X622287Y19082D01*
X622136Y19458D01*
X621995Y19838D01*
X621863Y20221D01*
X621741Y20607D01*
X621628Y20997D01*
X621525Y21388D01*
X621431Y21783D01*
X621347Y22179D01*
X621273Y22577D01*
X621209Y22977D01*
X621154Y23379D01*
X621110Y23782D01*
X621075Y24185D01*
X621050Y24590D01*
X621035Y24995D01*
X621030Y25400D01*
D16*
X572770Y279095D02*
X572770Y279705D01*
D14*
X576209Y272291D02*
X576845Y271656D01*
X576209Y272291D02*
X574938Y272291D01*
X574303Y271656D01*
X574303Y269114D01*
X574938Y268478D01*
X576209Y268478D01*
X576845Y269114D01*
X578045Y268478D02*
X580587Y268478D01*
X578045Y268478D02*
X580587Y271020D01*
X580587Y271656D01*
X579952Y272291D01*
X578680Y272291D01*
X578045Y271656D01*
D16*
X572770Y241605D02*
X572770Y240995D01*
D14*
X576209Y234191D02*
X576845Y233556D01*
X576209Y234191D02*
X574938Y234191D01*
X574303Y233556D01*
X574303Y231014D01*
X574938Y230378D01*
X576209Y230378D01*
X576845Y231014D01*
X578045Y234191D02*
X580587Y234191D01*
X580587Y233556D01*
X578045Y231014D01*
X578045Y230378D01*
D18*
X229871Y287122D02*
X229871Y291627D01*
X232124Y291627D01*
X232875Y290876D01*
X232875Y289374D01*
X232124Y288623D01*
X229871Y288623D01*
X231373Y288623D02*
X232875Y287122D01*
X234484Y290125D02*
X235986Y291627D01*
X235986Y287122D01*
X237487Y287122D02*
X234484Y287122D01*
D12*
X167642Y311428D02*
X130558Y311428D01*
X130558Y244372D01*
X167642Y244372D01*
X167642Y311428D01*
D10*
X196142Y238147D02*
X196142Y222451D01*
X196142Y238147D02*
X193003Y241286D01*
X186725Y241286D01*
X183586Y238147D01*
X183586Y222451D01*
X176943Y228729D02*
X170665Y222451D01*
X170665Y241286D01*
X176943Y241286D02*
X164387Y241286D01*
D18*
X474646Y283003D02*
X475566Y283923D01*
X474646Y283003D02*
X474646Y281164D01*
X475566Y280244D01*
X479244Y280244D01*
X480164Y281164D01*
X480164Y283003D01*
X479244Y283923D01*
X476486Y285788D02*
X474646Y287627D01*
X480164Y287627D01*
X480164Y285788D02*
X480164Y289466D01*
D19*
X485300Y295900D02*
X485300Y298900D01*
X494300Y298900D02*
X494300Y295900D01*
D18*
X371654Y240449D02*
X370735Y241369D01*
X368896Y241369D01*
X367976Y240449D01*
X367976Y236771D01*
X368896Y235851D01*
X370735Y235851D01*
X371654Y236771D01*
X373520Y240449D02*
X374439Y241369D01*
X376279Y241369D01*
X377198Y240449D01*
X377198Y239529D01*
X376279Y238610D01*
X377198Y237690D01*
X377198Y236771D01*
X376279Y235851D01*
X374439Y235851D01*
X373520Y236771D01*
X373520Y237690D01*
X374439Y238610D01*
X373520Y239529D01*
X373520Y240449D01*
X374439Y238610D02*
X376279Y238610D01*
D19*
X362900Y246500D02*
X359900Y246500D01*
X359900Y255500D02*
X362900Y255500D01*
D14*
X302791Y267143D02*
X302791Y270653D01*
X302791Y267143D02*
X303493Y266441D01*
X304898Y266441D01*
X305600Y267143D01*
X305600Y270653D01*
X306901Y267143D02*
X307603Y266441D01*
X309007Y266441D01*
X309710Y267143D01*
X309710Y267845D01*
X309007Y268547D01*
X307603Y268547D01*
X306901Y269249D01*
X306901Y269951D01*
X307603Y270653D01*
X309007Y270653D01*
X309710Y269951D01*
X308305Y271356D02*
X308305Y265738D01*
X311011Y269951D02*
X311713Y270653D01*
X313117Y270653D01*
X313819Y269951D01*
X313819Y269249D01*
X313117Y268547D01*
X312415Y268547D01*
X313117Y268547D02*
X313819Y267845D01*
X313819Y267143D01*
X313117Y266441D01*
X311713Y266441D01*
X311011Y267143D01*
D20*
X315300Y274300D03*
M02*
