G04 EAGLE Gerber X2 export*
%TF.Part,Single*%
%TF.FileFunction,Other,Component side*%
%TF.FilePolarity,Positive*%
%TF.GenerationSoftware,Autodesk,EAGLE,8.6.3*%
%TF.CreationDate,2019-05-14T12:41:01Z*%
G75*
%MOMM*%
%FSLAX34Y34*%
%LPD*%
%AMOC8*
5,1,8,0,0,1.08239X$1,22.5*%
G01*
%ADD10R,0.700000X0.900000*%
%ADD11C,1.000000*%
%ADD12R,1.100000X1.250000*%
%ADD13R,1.625600X0.889000*%
%ADD14R,1.625600X3.175000*%
%ADD15R,2.500000X1.700000*%
%ADD16R,1.000000X1.100000*%
%ADD17R,1.100000X1.000000*%
%ADD18R,0.800000X0.800000*%
%ADD19C,0.406400*%
%ADD20C,0.254000*%
%ADD21C,1.016000*%
%ADD22C,0.381000*%
%ADD23C,0.304800*%


D10*
X603400Y241300D03*
X590400Y241300D03*
X603400Y292100D03*
X590400Y292100D03*
X590400Y254000D03*
X603400Y254000D03*
X590400Y279400D03*
X603400Y279400D03*
X566270Y254000D03*
X579270Y254000D03*
X566270Y292100D03*
X579270Y292100D03*
D11*
X1226820Y-38100D03*
D10*
X579270Y279400D03*
X566270Y279400D03*
X579270Y241300D03*
X566270Y241300D03*
D12*
X238500Y277500D03*
X255500Y277500D03*
D13*
X181104Y254786D03*
X181104Y277900D03*
X181104Y301014D03*
D14*
X117096Y277900D03*
D15*
X489816Y253851D03*
X449816Y253851D03*
X361085Y304949D03*
X401084Y304949D03*
D16*
X489800Y288900D03*
X489800Y305900D03*
D17*
X369900Y251000D03*
X352900Y251000D03*
D18*
X305800Y278300D03*
X290800Y278300D03*
D19*
X489816Y288885D02*
X489816Y253851D01*
X489816Y288885D02*
X489800Y288900D01*
X489816Y253851D02*
X566121Y253851D01*
X566270Y254000D01*
X529100Y305900D02*
X489800Y305900D01*
X529100Y305900D02*
X545000Y290000D01*
X564170Y290000D01*
X566270Y292100D01*
X488849Y304949D02*
X401084Y304949D01*
X488849Y304949D02*
X489800Y305900D01*
D20*
X603400Y241300D02*
X624840Y241300D01*
D21*
X624840Y241300D03*
D22*
X590400Y241300D02*
X590400Y254000D01*
X579270Y254000D01*
X579270Y241300D02*
X590400Y241300D01*
X590400Y279400D02*
X590400Y292100D01*
X579270Y292100D01*
X579270Y279400D02*
X590400Y279400D01*
D20*
X645000Y266700D02*
X662940Y266700D01*
X645000Y266700D02*
X601980Y266700D01*
X596900Y266700D01*
X620000Y292100D02*
X701040Y292100D01*
D21*
X662940Y266700D03*
X701040Y292100D03*
X601980Y266700D03*
D20*
X603250Y292100D02*
X620000Y292100D01*
D19*
X340000Y254786D02*
X181104Y254786D01*
X343786Y251000D02*
X352900Y251000D01*
X343786Y251000D02*
X340000Y254786D01*
X340000Y283865D02*
X361085Y304949D01*
X340000Y283865D02*
X340000Y280000D01*
X340000Y254786D01*
X558300Y266700D02*
X601980Y266700D01*
X558300Y266700D02*
X555000Y270000D01*
X555000Y280000D01*
X565670Y280000D01*
X566270Y279400D01*
X338300Y278300D02*
X305800Y278300D01*
X338300Y278300D02*
X340000Y280000D01*
D20*
X567100Y345000D02*
X620000Y292100D01*
X380000Y345000D02*
X360000Y325000D01*
X380000Y345000D02*
X567100Y345000D01*
X361085Y304949D02*
X360000Y306034D01*
X360000Y325000D01*
X564970Y240000D02*
X566270Y241300D01*
X564970Y240000D02*
X555000Y240000D01*
X545000Y230000D01*
X545000Y215000D02*
X555000Y205000D01*
X620000Y205000D02*
X645000Y230000D01*
X645000Y266700D01*
X545000Y230000D02*
X545000Y215000D01*
X555000Y205000D02*
X620000Y205000D01*
D19*
X446965Y251000D02*
X369900Y251000D01*
X446965Y251000D02*
X449816Y253851D01*
D23*
X369900Y251000D02*
X369900Y219900D01*
X340000Y190000D01*
X130000Y190000D01*
X95000Y225000D01*
X95000Y305000D01*
X125000Y335000D01*
X181104Y323896D02*
X181104Y301014D01*
X170000Y335000D02*
X125000Y335000D01*
X170000Y335000D02*
X181104Y323896D01*
D19*
X181104Y277900D02*
X238100Y277900D01*
X238500Y277500D01*
X255500Y277500D02*
X290000Y277500D01*
X290800Y278300D01*
M02*
