G04 EAGLE Gerber X2 export*
%TF.Part,Single*%
%TF.FileFunction,Other,Silk screen CMP*%
%TF.FilePolarity,Positive*%
%TF.GenerationSoftware,Autodesk,EAGLE,8.6.3*%
%TF.CreationDate,2019-06-06T21:14:15Z*%
G75*
%MOMM*%
%FSLAX34Y34*%
%LPD*%
%AMOC8*
5,1,8,0,0,1.08239X$1,22.5*%
G01*
%ADD10C,0.000000*%
%ADD11C,0.152400*%
%ADD12C,0.130000*%
%ADD13C,0.050800*%
%ADD14C,0.127000*%
%ADD15C,0.025400*%
%ADD16C,0.050000*%


D10*
X0Y0D02*
X1000000Y0D01*
X1000000Y426100D01*
X5000Y428100D01*
X0Y0D01*
D11*
X511000Y189000D02*
X911000Y189000D01*
D12*
X911000Y82500D01*
X511000Y82500D02*
X511000Y189000D01*
X511650Y102000D02*
X910350Y102000D01*
X885000Y105192D01*
X885000Y98808D01*
X910350Y102000D01*
X885000Y103300D01*
X885000Y100700D02*
X910350Y102000D01*
X885000Y104600D01*
X885000Y99400D02*
X910350Y102000D01*
X537000Y105192D02*
X511650Y102000D01*
X537000Y105192D02*
X537000Y98808D01*
X511650Y102000D01*
X537000Y103300D01*
X537000Y100700D02*
X511650Y102000D01*
X537000Y104600D01*
X537000Y99400D02*
X511650Y102000D01*
D11*
X679852Y112119D02*
X683464Y124763D01*
X679852Y112119D02*
X688883Y112119D01*
X686174Y115732D02*
X686174Y108507D01*
X695483Y116635D02*
X695487Y116955D01*
X695498Y117274D01*
X695517Y117594D01*
X695544Y117912D01*
X695578Y118230D01*
X695620Y118547D01*
X695670Y118863D01*
X695727Y119178D01*
X695791Y119491D01*
X695863Y119803D01*
X695942Y120113D01*
X696029Y120420D01*
X696123Y120726D01*
X696224Y121029D01*
X696333Y121330D01*
X696448Y121628D01*
X696571Y121924D01*
X696701Y122216D01*
X696838Y122505D01*
X696838Y122506D02*
X696877Y122614D01*
X696920Y122721D01*
X696966Y122826D01*
X697017Y122930D01*
X697070Y123032D01*
X697127Y123132D01*
X697188Y123230D01*
X697252Y123325D01*
X697319Y123419D01*
X697390Y123510D01*
X697463Y123599D01*
X697540Y123685D01*
X697619Y123768D01*
X697701Y123849D01*
X697786Y123927D01*
X697874Y124001D01*
X697964Y124073D01*
X698056Y124141D01*
X698151Y124207D01*
X698248Y124269D01*
X698347Y124327D01*
X698449Y124383D01*
X698551Y124434D01*
X698656Y124482D01*
X698762Y124527D01*
X698870Y124568D01*
X698979Y124605D01*
X699089Y124638D01*
X699201Y124667D01*
X699313Y124693D01*
X699426Y124715D01*
X699540Y124732D01*
X699654Y124746D01*
X699769Y124756D01*
X699884Y124762D01*
X699999Y124764D01*
X699999Y124763D02*
X700114Y124761D01*
X700229Y124755D01*
X700344Y124745D01*
X700458Y124731D01*
X700572Y124714D01*
X700685Y124692D01*
X700797Y124666D01*
X700909Y124637D01*
X701019Y124604D01*
X701128Y124567D01*
X701236Y124526D01*
X701342Y124481D01*
X701447Y124433D01*
X701549Y124382D01*
X701650Y124326D01*
X701750Y124268D01*
X701847Y124206D01*
X701941Y124141D01*
X702034Y124072D01*
X702124Y124000D01*
X702212Y123926D01*
X702297Y123848D01*
X702379Y123767D01*
X702458Y123684D01*
X702535Y123598D01*
X702608Y123509D01*
X702679Y123418D01*
X702746Y123324D01*
X702810Y123229D01*
X702871Y123131D01*
X702928Y123031D01*
X702981Y122929D01*
X703032Y122825D01*
X703078Y122720D01*
X703121Y122613D01*
X703160Y122505D01*
X703159Y122505D02*
X703296Y122216D01*
X703426Y121924D01*
X703549Y121628D01*
X703664Y121330D01*
X703773Y121029D01*
X703874Y120726D01*
X703968Y120420D01*
X704055Y120113D01*
X704134Y119803D01*
X704206Y119491D01*
X704270Y119178D01*
X704327Y118863D01*
X704377Y118547D01*
X704419Y118230D01*
X704453Y117912D01*
X704480Y117594D01*
X704499Y117274D01*
X704510Y116955D01*
X704514Y116635D01*
X695484Y116635D02*
X695488Y116315D01*
X695499Y115996D01*
X695518Y115676D01*
X695545Y115358D01*
X695579Y115040D01*
X695621Y114723D01*
X695671Y114407D01*
X695728Y114092D01*
X695792Y113779D01*
X695864Y113467D01*
X695943Y113157D01*
X696030Y112850D01*
X696124Y112544D01*
X696225Y112241D01*
X696334Y111940D01*
X696449Y111642D01*
X696572Y111346D01*
X696702Y111054D01*
X696839Y110765D01*
X696838Y110765D02*
X696877Y110657D01*
X696920Y110550D01*
X696966Y110445D01*
X697017Y110341D01*
X697070Y110239D01*
X697127Y110139D01*
X697188Y110041D01*
X697252Y109946D01*
X697319Y109852D01*
X697390Y109761D01*
X697463Y109672D01*
X697540Y109586D01*
X697619Y109503D01*
X697701Y109422D01*
X697786Y109344D01*
X697874Y109270D01*
X697964Y109198D01*
X698057Y109129D01*
X698151Y109064D01*
X698248Y109002D01*
X698348Y108944D01*
X698449Y108888D01*
X698551Y108837D01*
X698656Y108789D01*
X698762Y108744D01*
X698870Y108703D01*
X698979Y108666D01*
X699089Y108633D01*
X699201Y108604D01*
X699313Y108578D01*
X699426Y108556D01*
X699540Y108539D01*
X699654Y108525D01*
X699769Y108515D01*
X699884Y108509D01*
X699999Y108507D01*
X703159Y110765D02*
X703296Y111054D01*
X703426Y111346D01*
X703549Y111642D01*
X703664Y111940D01*
X703773Y112241D01*
X703874Y112544D01*
X703968Y112850D01*
X704055Y113157D01*
X704134Y113467D01*
X704206Y113779D01*
X704270Y114092D01*
X704327Y114407D01*
X704377Y114723D01*
X704419Y115040D01*
X704453Y115358D01*
X704480Y115676D01*
X704499Y115996D01*
X704510Y116315D01*
X704514Y116635D01*
X703160Y110765D02*
X703121Y110657D01*
X703078Y110550D01*
X703032Y110445D01*
X702981Y110341D01*
X702928Y110239D01*
X702871Y110139D01*
X702810Y110041D01*
X702746Y109946D01*
X702679Y109852D01*
X702608Y109761D01*
X702535Y109672D01*
X702458Y109586D01*
X702379Y109503D01*
X702297Y109422D01*
X702212Y109344D01*
X702124Y109270D01*
X702034Y109198D01*
X701941Y109129D01*
X701847Y109064D01*
X701750Y109002D01*
X701650Y108944D01*
X701549Y108888D01*
X701446Y108837D01*
X701342Y108789D01*
X701236Y108744D01*
X701128Y108703D01*
X701019Y108666D01*
X700909Y108633D01*
X700797Y108604D01*
X700685Y108578D01*
X700572Y108556D01*
X700458Y108539D01*
X700344Y108525D01*
X700229Y108515D01*
X700114Y108509D01*
X699999Y108507D01*
X696386Y112119D02*
X703611Y121151D01*
X710489Y109410D02*
X710489Y108507D01*
X710489Y109410D02*
X711392Y109410D01*
X711392Y108507D01*
X710489Y108507D01*
X717367Y116635D02*
X717371Y116955D01*
X717382Y117274D01*
X717401Y117594D01*
X717428Y117912D01*
X717462Y118230D01*
X717504Y118547D01*
X717554Y118863D01*
X717611Y119178D01*
X717675Y119491D01*
X717747Y119803D01*
X717826Y120113D01*
X717913Y120420D01*
X718007Y120726D01*
X718108Y121029D01*
X718217Y121330D01*
X718332Y121628D01*
X718455Y121924D01*
X718585Y122216D01*
X718722Y122505D01*
X718721Y122506D02*
X718760Y122614D01*
X718803Y122721D01*
X718849Y122826D01*
X718900Y122930D01*
X718953Y123032D01*
X719010Y123132D01*
X719071Y123230D01*
X719135Y123325D01*
X719202Y123419D01*
X719273Y123510D01*
X719346Y123599D01*
X719423Y123685D01*
X719502Y123768D01*
X719584Y123849D01*
X719669Y123927D01*
X719757Y124001D01*
X719847Y124073D01*
X719939Y124141D01*
X720034Y124207D01*
X720131Y124269D01*
X720230Y124327D01*
X720332Y124383D01*
X720434Y124434D01*
X720539Y124482D01*
X720645Y124527D01*
X720753Y124568D01*
X720862Y124605D01*
X720972Y124638D01*
X721084Y124667D01*
X721196Y124693D01*
X721309Y124715D01*
X721423Y124732D01*
X721537Y124746D01*
X721652Y124756D01*
X721767Y124762D01*
X721882Y124764D01*
X721882Y124763D02*
X721997Y124761D01*
X722112Y124755D01*
X722227Y124745D01*
X722341Y124731D01*
X722455Y124714D01*
X722568Y124692D01*
X722680Y124666D01*
X722792Y124637D01*
X722902Y124604D01*
X723011Y124567D01*
X723119Y124526D01*
X723225Y124481D01*
X723330Y124433D01*
X723432Y124382D01*
X723533Y124326D01*
X723633Y124268D01*
X723730Y124206D01*
X723824Y124141D01*
X723917Y124072D01*
X724007Y124000D01*
X724095Y123926D01*
X724180Y123848D01*
X724262Y123767D01*
X724341Y123684D01*
X724418Y123598D01*
X724491Y123509D01*
X724562Y123418D01*
X724629Y123324D01*
X724693Y123229D01*
X724754Y123131D01*
X724811Y123031D01*
X724864Y122929D01*
X724915Y122825D01*
X724961Y122720D01*
X725004Y122613D01*
X725043Y122505D01*
X725180Y122216D01*
X725310Y121924D01*
X725433Y121628D01*
X725548Y121330D01*
X725657Y121029D01*
X725758Y120726D01*
X725852Y120420D01*
X725939Y120113D01*
X726018Y119803D01*
X726090Y119491D01*
X726154Y119178D01*
X726211Y118863D01*
X726261Y118547D01*
X726303Y118230D01*
X726337Y117912D01*
X726364Y117594D01*
X726383Y117274D01*
X726394Y116955D01*
X726398Y116635D01*
X717367Y116635D02*
X717371Y116315D01*
X717382Y115996D01*
X717401Y115676D01*
X717428Y115358D01*
X717462Y115040D01*
X717504Y114723D01*
X717554Y114407D01*
X717611Y114092D01*
X717675Y113779D01*
X717747Y113467D01*
X717826Y113157D01*
X717913Y112850D01*
X718007Y112544D01*
X718108Y112241D01*
X718217Y111940D01*
X718332Y111642D01*
X718455Y111346D01*
X718585Y111054D01*
X718722Y110765D01*
X718721Y110765D02*
X718760Y110657D01*
X718803Y110550D01*
X718849Y110445D01*
X718900Y110341D01*
X718953Y110239D01*
X719010Y110139D01*
X719071Y110041D01*
X719135Y109946D01*
X719202Y109852D01*
X719273Y109761D01*
X719346Y109672D01*
X719423Y109586D01*
X719502Y109503D01*
X719584Y109422D01*
X719669Y109344D01*
X719757Y109270D01*
X719847Y109198D01*
X719940Y109129D01*
X720034Y109064D01*
X720131Y109002D01*
X720231Y108944D01*
X720332Y108888D01*
X720434Y108837D01*
X720539Y108789D01*
X720645Y108744D01*
X720753Y108703D01*
X720862Y108666D01*
X720972Y108633D01*
X721084Y108604D01*
X721196Y108578D01*
X721309Y108556D01*
X721423Y108539D01*
X721537Y108525D01*
X721652Y108515D01*
X721767Y108509D01*
X721882Y108507D01*
X725043Y110765D02*
X725180Y111054D01*
X725310Y111346D01*
X725433Y111642D01*
X725548Y111940D01*
X725657Y112241D01*
X725758Y112544D01*
X725852Y112850D01*
X725939Y113157D01*
X726018Y113467D01*
X726090Y113779D01*
X726154Y114092D01*
X726211Y114407D01*
X726261Y114723D01*
X726303Y115040D01*
X726337Y115358D01*
X726364Y115676D01*
X726383Y115996D01*
X726394Y116315D01*
X726398Y116635D01*
X725043Y110765D02*
X725004Y110657D01*
X724961Y110550D01*
X724915Y110445D01*
X724864Y110341D01*
X724811Y110239D01*
X724754Y110139D01*
X724693Y110041D01*
X724629Y109946D01*
X724562Y109852D01*
X724491Y109761D01*
X724418Y109672D01*
X724341Y109586D01*
X724262Y109503D01*
X724180Y109422D01*
X724095Y109344D01*
X724007Y109270D01*
X723917Y109198D01*
X723824Y109129D01*
X723730Y109064D01*
X723633Y109002D01*
X723533Y108944D01*
X723432Y108888D01*
X723329Y108837D01*
X723225Y108789D01*
X723119Y108744D01*
X723011Y108703D01*
X722902Y108666D01*
X722792Y108633D01*
X722680Y108604D01*
X722568Y108578D01*
X722455Y108556D01*
X722341Y108539D01*
X722227Y108525D01*
X722112Y108515D01*
X721997Y108509D01*
X721882Y108507D01*
X718270Y112119D02*
X725495Y121151D01*
X732998Y116635D02*
X733002Y116955D01*
X733013Y117274D01*
X733032Y117594D01*
X733059Y117912D01*
X733093Y118230D01*
X733135Y118547D01*
X733185Y118863D01*
X733242Y119178D01*
X733306Y119491D01*
X733378Y119803D01*
X733457Y120113D01*
X733544Y120420D01*
X733638Y120726D01*
X733739Y121029D01*
X733848Y121330D01*
X733963Y121628D01*
X734086Y121924D01*
X734216Y122216D01*
X734353Y122505D01*
X734353Y122506D02*
X734392Y122614D01*
X734435Y122721D01*
X734481Y122826D01*
X734532Y122930D01*
X734585Y123032D01*
X734642Y123132D01*
X734703Y123230D01*
X734767Y123325D01*
X734834Y123419D01*
X734905Y123510D01*
X734978Y123599D01*
X735055Y123685D01*
X735134Y123768D01*
X735216Y123849D01*
X735301Y123927D01*
X735389Y124001D01*
X735479Y124073D01*
X735571Y124141D01*
X735666Y124207D01*
X735763Y124269D01*
X735862Y124327D01*
X735964Y124383D01*
X736066Y124434D01*
X736171Y124482D01*
X736277Y124527D01*
X736385Y124568D01*
X736494Y124605D01*
X736604Y124638D01*
X736716Y124667D01*
X736828Y124693D01*
X736941Y124715D01*
X737055Y124732D01*
X737169Y124746D01*
X737284Y124756D01*
X737399Y124762D01*
X737514Y124764D01*
X737514Y124763D02*
X737629Y124761D01*
X737744Y124755D01*
X737859Y124745D01*
X737973Y124731D01*
X738087Y124714D01*
X738200Y124692D01*
X738312Y124666D01*
X738424Y124637D01*
X738534Y124604D01*
X738643Y124567D01*
X738751Y124526D01*
X738857Y124481D01*
X738962Y124433D01*
X739064Y124382D01*
X739165Y124326D01*
X739265Y124268D01*
X739362Y124206D01*
X739456Y124141D01*
X739549Y124072D01*
X739639Y124000D01*
X739727Y123926D01*
X739812Y123848D01*
X739894Y123767D01*
X739973Y123684D01*
X740050Y123598D01*
X740123Y123509D01*
X740194Y123418D01*
X740261Y123324D01*
X740325Y123229D01*
X740386Y123131D01*
X740443Y123031D01*
X740496Y122929D01*
X740547Y122825D01*
X740593Y122720D01*
X740636Y122613D01*
X740675Y122505D01*
X740674Y122505D02*
X740811Y122216D01*
X740941Y121924D01*
X741064Y121628D01*
X741179Y121330D01*
X741288Y121029D01*
X741389Y120726D01*
X741483Y120420D01*
X741570Y120113D01*
X741649Y119803D01*
X741721Y119491D01*
X741785Y119178D01*
X741842Y118863D01*
X741892Y118547D01*
X741934Y118230D01*
X741968Y117912D01*
X741995Y117594D01*
X742014Y117274D01*
X742025Y116955D01*
X742029Y116635D01*
X732998Y116635D02*
X733002Y116315D01*
X733013Y115996D01*
X733032Y115676D01*
X733059Y115358D01*
X733093Y115040D01*
X733135Y114723D01*
X733185Y114407D01*
X733242Y114092D01*
X733306Y113779D01*
X733378Y113467D01*
X733457Y113157D01*
X733544Y112850D01*
X733638Y112544D01*
X733739Y112241D01*
X733848Y111940D01*
X733963Y111642D01*
X734086Y111346D01*
X734216Y111054D01*
X734353Y110765D01*
X734392Y110657D01*
X734435Y110550D01*
X734481Y110445D01*
X734532Y110341D01*
X734585Y110239D01*
X734642Y110139D01*
X734703Y110041D01*
X734767Y109946D01*
X734834Y109852D01*
X734905Y109761D01*
X734978Y109672D01*
X735055Y109586D01*
X735134Y109503D01*
X735216Y109422D01*
X735301Y109344D01*
X735389Y109270D01*
X735479Y109198D01*
X735572Y109129D01*
X735666Y109064D01*
X735763Y109002D01*
X735863Y108944D01*
X735964Y108888D01*
X736066Y108837D01*
X736171Y108789D01*
X736277Y108744D01*
X736385Y108703D01*
X736494Y108666D01*
X736604Y108633D01*
X736716Y108604D01*
X736828Y108578D01*
X736941Y108556D01*
X737055Y108539D01*
X737169Y108525D01*
X737284Y108515D01*
X737399Y108509D01*
X737514Y108507D01*
X740674Y110765D02*
X740811Y111054D01*
X740941Y111346D01*
X741064Y111642D01*
X741179Y111940D01*
X741288Y112241D01*
X741389Y112544D01*
X741483Y112850D01*
X741570Y113157D01*
X741649Y113467D01*
X741721Y113779D01*
X741785Y114092D01*
X741842Y114407D01*
X741892Y114723D01*
X741934Y115040D01*
X741968Y115358D01*
X741995Y115676D01*
X742014Y115996D01*
X742025Y116315D01*
X742029Y116635D01*
X740675Y110765D02*
X740636Y110657D01*
X740593Y110550D01*
X740547Y110445D01*
X740496Y110341D01*
X740443Y110239D01*
X740386Y110139D01*
X740325Y110041D01*
X740261Y109946D01*
X740194Y109852D01*
X740123Y109761D01*
X740050Y109672D01*
X739973Y109586D01*
X739894Y109503D01*
X739812Y109422D01*
X739727Y109344D01*
X739639Y109270D01*
X739549Y109198D01*
X739456Y109129D01*
X739362Y109064D01*
X739265Y109002D01*
X739165Y108944D01*
X739064Y108888D01*
X738961Y108837D01*
X738857Y108789D01*
X738751Y108744D01*
X738643Y108703D01*
X738534Y108666D01*
X738424Y108633D01*
X738312Y108604D01*
X738200Y108578D01*
X738087Y108556D01*
X737973Y108539D01*
X737859Y108525D01*
X737744Y108515D01*
X737629Y108509D01*
X737514Y108507D01*
X733901Y112119D02*
X741126Y121151D01*
D13*
X409364Y232869D02*
X409364Y234094D01*
X409364Y232869D02*
X409362Y232800D01*
X409356Y232732D01*
X409347Y232664D01*
X409333Y232596D01*
X409316Y232530D01*
X409295Y232464D01*
X409271Y232400D01*
X409243Y232338D01*
X409211Y232276D01*
X409176Y232217D01*
X409138Y232160D01*
X409097Y232105D01*
X409052Y232053D01*
X409005Y232003D01*
X408955Y231956D01*
X408903Y231911D01*
X408848Y231870D01*
X408791Y231832D01*
X408732Y231797D01*
X408671Y231765D01*
X408608Y231737D01*
X408544Y231713D01*
X408478Y231692D01*
X408412Y231675D01*
X408344Y231661D01*
X408276Y231652D01*
X408208Y231646D01*
X408139Y231644D01*
X405076Y231644D01*
X405007Y231646D01*
X404939Y231652D01*
X404871Y231661D01*
X404803Y231675D01*
X404737Y231692D01*
X404671Y231713D01*
X404607Y231737D01*
X404545Y231765D01*
X404483Y231797D01*
X404424Y231832D01*
X404367Y231870D01*
X404312Y231911D01*
X404260Y231956D01*
X404210Y232003D01*
X404163Y232053D01*
X404118Y232105D01*
X404077Y232160D01*
X404039Y232217D01*
X404004Y232276D01*
X403972Y232337D01*
X403944Y232400D01*
X403920Y232464D01*
X403899Y232530D01*
X403882Y232596D01*
X403868Y232664D01*
X403859Y232732D01*
X403853Y232800D01*
X403851Y232869D01*
X403851Y234094D01*
X405076Y236176D02*
X403851Y237707D01*
X409364Y237707D01*
X409364Y236176D02*
X409364Y239239D01*
D14*
X414500Y247300D02*
X414500Y250300D01*
X423500Y250300D02*
X423500Y247300D01*
X912600Y240000D02*
X912600Y270000D01*
X926600Y270000D02*
X926600Y242300D01*
D15*
X906973Y246427D02*
X903163Y246427D01*
X903163Y247485D01*
X903165Y247549D01*
X903171Y247613D01*
X903180Y247676D01*
X903194Y247738D01*
X903211Y247800D01*
X903232Y247860D01*
X903256Y247919D01*
X903284Y247977D01*
X903316Y248032D01*
X903350Y248086D01*
X903388Y248137D01*
X903429Y248187D01*
X903473Y248233D01*
X903519Y248277D01*
X903569Y248318D01*
X903620Y248356D01*
X903674Y248390D01*
X903729Y248422D01*
X903787Y248450D01*
X903846Y248474D01*
X903906Y248495D01*
X903968Y248512D01*
X904030Y248526D01*
X904094Y248535D01*
X904157Y248541D01*
X904221Y248543D01*
X904221Y248544D02*
X905915Y248544D01*
X905915Y248543D02*
X905979Y248541D01*
X906043Y248535D01*
X906106Y248526D01*
X906168Y248512D01*
X906230Y248495D01*
X906290Y248474D01*
X906349Y248450D01*
X906407Y248422D01*
X906462Y248390D01*
X906516Y248356D01*
X906567Y248318D01*
X906617Y248277D01*
X906663Y248233D01*
X906707Y248187D01*
X906748Y248137D01*
X906786Y248086D01*
X906820Y248032D01*
X906852Y247977D01*
X906880Y247919D01*
X906904Y247860D01*
X906925Y247800D01*
X906942Y247738D01*
X906956Y247676D01*
X906965Y247613D01*
X906971Y247549D01*
X906973Y247485D01*
X906973Y246427D01*
X904010Y250207D02*
X903163Y251265D01*
X906973Y251265D01*
X906973Y250207D02*
X906973Y252323D01*
D14*
X912600Y270000D02*
X913800Y270000D01*
X925300Y270000D02*
X926600Y270000D01*
X926600Y242200D02*
X926600Y241400D01*
X926500Y241300D02*
X925600Y240000D01*
X923300Y250100D02*
X916100Y250100D01*
X919800Y251900D02*
X923300Y250100D01*
X919800Y251900D02*
X916100Y250100D01*
X913700Y240000D02*
X912600Y240000D01*
X925300Y240000D02*
X925400Y240000D01*
D13*
X476471Y248922D02*
X476471Y253423D01*
X477722Y253423D01*
X477791Y253421D01*
X477860Y253415D01*
X477928Y253406D01*
X477995Y253393D01*
X478062Y253376D01*
X478128Y253355D01*
X478192Y253331D01*
X478255Y253303D01*
X478317Y253272D01*
X478377Y253238D01*
X478434Y253200D01*
X478490Y253159D01*
X478543Y253116D01*
X478594Y253069D01*
X478642Y253020D01*
X478687Y252968D01*
X478729Y252913D01*
X478768Y252857D01*
X478805Y252798D01*
X478837Y252737D01*
X478867Y252675D01*
X478893Y252611D01*
X478915Y252546D01*
X478934Y252480D01*
X478949Y252413D01*
X478960Y252345D01*
X478968Y252276D01*
X478972Y252207D01*
X478972Y252139D01*
X478968Y252070D01*
X478960Y252001D01*
X478949Y251933D01*
X478934Y251866D01*
X478915Y251800D01*
X478893Y251735D01*
X478867Y251671D01*
X478837Y251609D01*
X478805Y251548D01*
X478768Y251489D01*
X478729Y251433D01*
X478687Y251378D01*
X478642Y251326D01*
X478594Y251277D01*
X478543Y251230D01*
X478490Y251187D01*
X478434Y251146D01*
X478377Y251108D01*
X478317Y251074D01*
X478255Y251043D01*
X478192Y251015D01*
X478128Y250991D01*
X478062Y250970D01*
X477995Y250953D01*
X477928Y250940D01*
X477860Y250931D01*
X477791Y250925D01*
X477722Y250923D01*
X477722Y250922D02*
X476471Y250922D01*
X477972Y250922D02*
X478972Y248922D01*
X480947Y252423D02*
X482197Y253423D01*
X482197Y248922D01*
X480947Y248922D02*
X483448Y248922D01*
D16*
X459350Y242000D02*
X459352Y242031D01*
X459358Y242062D01*
X459368Y242092D01*
X459381Y242120D01*
X459398Y242147D01*
X459418Y242171D01*
X459441Y242193D01*
X459466Y242211D01*
X459494Y242226D01*
X459523Y242238D01*
X459553Y242246D01*
X459584Y242250D01*
X459616Y242250D01*
X459647Y242246D01*
X459677Y242238D01*
X459706Y242226D01*
X459734Y242211D01*
X459759Y242193D01*
X459782Y242171D01*
X459802Y242147D01*
X459819Y242120D01*
X459832Y242092D01*
X459842Y242062D01*
X459848Y242031D01*
X459850Y242000D01*
X459848Y241969D01*
X459842Y241938D01*
X459832Y241908D01*
X459819Y241880D01*
X459802Y241853D01*
X459782Y241829D01*
X459759Y241807D01*
X459734Y241789D01*
X459706Y241774D01*
X459677Y241762D01*
X459647Y241754D01*
X459616Y241750D01*
X459584Y241750D01*
X459553Y241754D01*
X459523Y241762D01*
X459494Y241774D01*
X459466Y241789D01*
X459441Y241807D01*
X459418Y241829D01*
X459398Y241853D01*
X459381Y241880D01*
X459368Y241908D01*
X459358Y241938D01*
X459352Y241969D01*
X459350Y242000D01*
D15*
X442923Y239724D02*
X440464Y239724D01*
X442923Y239724D02*
X442984Y239726D01*
X443044Y239732D01*
X443104Y239741D01*
X443163Y239755D01*
X443221Y239772D01*
X443278Y239793D01*
X443333Y239818D01*
X443387Y239846D01*
X443439Y239877D01*
X443489Y239912D01*
X443536Y239950D01*
X443581Y239990D01*
X443623Y240034D01*
X443663Y240080D01*
X443699Y240129D01*
X443732Y240180D01*
X443762Y240232D01*
X443788Y240287D01*
X443811Y240343D01*
X443830Y240401D01*
X443845Y240459D01*
X443857Y240519D01*
X443865Y240579D01*
X443869Y240640D01*
X443869Y240700D01*
X443865Y240761D01*
X443857Y240821D01*
X443845Y240881D01*
X443830Y240939D01*
X443811Y240997D01*
X443788Y241053D01*
X443762Y241108D01*
X443732Y241160D01*
X443699Y241211D01*
X443663Y241260D01*
X443623Y241306D01*
X443581Y241350D01*
X443536Y241390D01*
X443489Y241428D01*
X443439Y241463D01*
X443387Y241494D01*
X443333Y241522D01*
X443278Y241547D01*
X443221Y241568D01*
X443163Y241585D01*
X443104Y241599D01*
X443044Y241608D01*
X442984Y241614D01*
X442923Y241616D01*
X442923Y241615D02*
X440464Y241615D01*
X440464Y243853D02*
X443869Y243853D01*
X442167Y243853D02*
X441883Y243380D01*
X441882Y243380D02*
X441857Y243341D01*
X441827Y243304D01*
X441795Y243269D01*
X441760Y243238D01*
X441723Y243209D01*
X441683Y243183D01*
X441642Y243161D01*
X441598Y243143D01*
X441554Y243128D01*
X441508Y243117D01*
X441461Y243110D01*
X441414Y243106D01*
X441367Y243107D01*
X441320Y243111D01*
X441274Y243120D01*
X441228Y243132D01*
X441184Y243148D01*
X441141Y243168D01*
X441100Y243191D01*
X441061Y243217D01*
X441024Y243247D01*
X440990Y243280D01*
X440959Y243315D01*
X440931Y243353D01*
X440906Y243393D01*
X440885Y243435D01*
X440867Y243478D01*
X440853Y243523D01*
X440842Y243569D01*
X440843Y243570D02*
X440832Y243641D01*
X440824Y243712D01*
X440820Y243784D01*
X440819Y243856D01*
X440822Y243928D01*
X440828Y244000D01*
X440837Y244071D01*
X440850Y244142D01*
X440866Y244212D01*
X440886Y244282D01*
X440909Y244350D01*
X440935Y244417D01*
X440964Y244483D01*
X440997Y244547D01*
X441033Y244610D01*
X442167Y243853D02*
X442451Y244326D01*
X442476Y244365D01*
X442506Y244402D01*
X442538Y244437D01*
X442573Y244468D01*
X442610Y244497D01*
X442650Y244523D01*
X442691Y244545D01*
X442735Y244563D01*
X442779Y244578D01*
X442825Y244589D01*
X442872Y244596D01*
X442919Y244600D01*
X442966Y244599D01*
X443013Y244595D01*
X443059Y244586D01*
X443105Y244574D01*
X443149Y244558D01*
X443192Y244538D01*
X443233Y244515D01*
X443272Y244489D01*
X443309Y244459D01*
X443343Y244426D01*
X443374Y244391D01*
X443402Y244353D01*
X443427Y244313D01*
X443448Y244271D01*
X443466Y244227D01*
X443480Y244183D01*
X443491Y244137D01*
X443492Y244136D02*
X443503Y244065D01*
X443511Y243994D01*
X443515Y243922D01*
X443516Y243850D01*
X443513Y243778D01*
X443507Y243706D01*
X443498Y243634D01*
X443485Y243563D01*
X443469Y243493D01*
X443449Y243424D01*
X443426Y243356D01*
X443400Y243288D01*
X443370Y243223D01*
X443338Y243158D01*
X443302Y243096D01*
X443869Y245981D02*
X443869Y246927D01*
X443867Y246988D01*
X443861Y247048D01*
X443852Y247108D01*
X443838Y247167D01*
X443821Y247225D01*
X443800Y247282D01*
X443775Y247337D01*
X443747Y247391D01*
X443716Y247443D01*
X443681Y247493D01*
X443643Y247540D01*
X443603Y247585D01*
X443559Y247627D01*
X443513Y247667D01*
X443464Y247703D01*
X443413Y247736D01*
X443361Y247766D01*
X443306Y247792D01*
X443250Y247815D01*
X443192Y247834D01*
X443134Y247849D01*
X443074Y247861D01*
X443014Y247869D01*
X442953Y247873D01*
X442893Y247873D01*
X442832Y247869D01*
X442772Y247861D01*
X442712Y247849D01*
X442654Y247834D01*
X442596Y247815D01*
X442540Y247792D01*
X442485Y247766D01*
X442433Y247736D01*
X442382Y247703D01*
X442333Y247667D01*
X442287Y247627D01*
X442243Y247585D01*
X442203Y247540D01*
X442165Y247493D01*
X442130Y247443D01*
X442099Y247391D01*
X442071Y247337D01*
X442046Y247282D01*
X442025Y247225D01*
X442008Y247167D01*
X441994Y247108D01*
X441985Y247048D01*
X441979Y246988D01*
X441977Y246927D01*
X440464Y247116D02*
X440464Y245981D01*
X440464Y247116D02*
X440466Y247170D01*
X440472Y247224D01*
X440481Y247277D01*
X440495Y247329D01*
X440512Y247381D01*
X440532Y247430D01*
X440557Y247479D01*
X440584Y247525D01*
X440615Y247570D01*
X440649Y247612D01*
X440686Y247651D01*
X440725Y247688D01*
X440767Y247722D01*
X440812Y247753D01*
X440858Y247780D01*
X440907Y247805D01*
X440956Y247825D01*
X441008Y247842D01*
X441060Y247856D01*
X441113Y247865D01*
X441167Y247871D01*
X441221Y247873D01*
X441275Y247871D01*
X441329Y247865D01*
X441382Y247856D01*
X441434Y247842D01*
X441486Y247825D01*
X441535Y247805D01*
X441584Y247780D01*
X441630Y247753D01*
X441675Y247722D01*
X441717Y247688D01*
X441756Y247651D01*
X441793Y247612D01*
X441827Y247570D01*
X441858Y247525D01*
X441885Y247479D01*
X441910Y247430D01*
X441930Y247381D01*
X441947Y247329D01*
X441961Y247277D01*
X441970Y247224D01*
X441976Y247170D01*
X441978Y247116D01*
X441978Y246359D01*
M02*
