G04 EAGLE Gerber X2 export*
%TF.Part,Single*%
%TF.FileFunction,Other,Solder stop mask CMP*%
%TF.FilePolarity,Positive*%
%TF.GenerationSoftware,Autodesk,EAGLE,8.6.3*%
%TF.CreationDate,2019-06-06T21:14:15Z*%
G75*
%MOMM*%
%FSLAX34Y34*%
%LPD*%
%AMOC8*
5,1,8,0,0,1.08239X$1,22.5*%
G01*
%ADD10R,1.203200X1.303200*%
%ADD11R,1.003200X1.403200*%
%ADD12R,1.003200X2.203200*%
%ADD13R,1.303200X1.453200*%
%ADD14R,0.400000X0.600000*%
%ADD15R,0.668747X0.668747*%
%ADD16C,1.009600*%

G36*
X452104Y242749D02*
X452104Y242749D01*
X452104Y242750D01*
X452104Y244500D01*
X452103Y244502D01*
X452103Y244503D01*
X449728Y246753D01*
X449726Y246753D01*
X449726Y246754D01*
X449725Y246754D01*
X447100Y246754D01*
X447096Y246751D01*
X447096Y246750D01*
X447096Y242750D01*
X447099Y242746D01*
X447100Y242746D01*
X452100Y242746D01*
X452104Y242749D01*
G37*
G36*
X460104Y242749D02*
X460104Y242749D01*
X460104Y242750D01*
X460104Y246750D01*
X460101Y246754D01*
X460100Y246754D01*
X457475Y246754D01*
X457474Y246753D01*
X457472Y246753D01*
X455097Y244503D01*
X455097Y244502D01*
X455097Y244501D01*
X455096Y244500D01*
X455096Y242750D01*
X455099Y242746D01*
X455100Y242746D01*
X460100Y242746D01*
X460104Y242749D01*
G37*
G36*
X449726Y249247D02*
X449726Y249247D01*
X449728Y249247D01*
X452103Y251497D01*
X452103Y251499D01*
X452104Y251500D01*
X452104Y253250D01*
X452101Y253254D01*
X452100Y253254D01*
X447100Y253254D01*
X447096Y253251D01*
X447096Y253250D01*
X447096Y249250D01*
X447099Y249246D01*
X447100Y249246D01*
X449725Y249246D01*
X449726Y249247D01*
G37*
G36*
X460104Y249249D02*
X460104Y249249D01*
X460104Y249250D01*
X460104Y253250D01*
X460101Y253254D01*
X460100Y253254D01*
X455100Y253254D01*
X455096Y253251D01*
X455096Y253250D01*
X455096Y251500D01*
X455097Y251498D01*
X455097Y251497D01*
X457472Y249247D01*
X457474Y249247D01*
X457475Y249246D01*
X460100Y249246D01*
X460104Y249249D01*
G37*
D10*
X419000Y240300D03*
X419000Y257300D03*
D11*
X919600Y242300D03*
D12*
X919600Y263800D03*
D13*
X485100Y239300D03*
X502100Y239300D03*
D14*
X391900Y239900D03*
X399900Y239900D03*
D15*
G36*
X453944Y252383D02*
X458671Y247656D01*
X453944Y242929D01*
X449217Y247656D01*
X453944Y252383D01*
G37*
D16*
X337750Y249000D03*
X347250Y249000D03*
X367000Y263000D03*
M02*
