G04 EAGLE Gerber X2 export*
%TF.Part,Single*%
%TF.FileFunction,Other,Solder stop mask CMP*%
%TF.FilePolarity,Positive*%
%TF.GenerationSoftware,Autodesk,EAGLE,8.6.3*%
%TF.CreationDate,2019-05-29T11:14:49Z*%
G75*
%MOMM*%
%FSLAX34Y34*%
%LPD*%
%AMOC8*
5,1,8,0,0,1.08239X$1,22.5*%
G01*
%ADD10R,1.303200X1.453200*%
%ADD11R,1.203200X1.303200*%
%ADD12R,1.003200X1.403200*%
%ADD13R,1.003200X2.203200*%
%ADD14R,0.668747X0.668747*%
%ADD15R,0.400000X0.600000*%

G36*
X828554Y233049D02*
X828554Y233049D01*
X828554Y233050D01*
X828554Y238050D01*
X828551Y238054D01*
X828550Y238054D01*
X824550Y238054D01*
X824546Y238051D01*
X824546Y238050D01*
X824546Y235425D01*
X824547Y235424D01*
X824547Y235422D01*
X826797Y233047D01*
X826799Y233047D01*
X826800Y233046D01*
X828550Y233046D01*
X828554Y233049D01*
G37*
G36*
X822054Y225049D02*
X822054Y225049D01*
X822054Y225050D01*
X822054Y227675D01*
X822053Y227676D01*
X822053Y227678D01*
X819803Y230053D01*
X819801Y230053D01*
X819800Y230054D01*
X818050Y230054D01*
X818046Y230051D01*
X818046Y230050D01*
X818046Y225050D01*
X818049Y225046D01*
X818050Y225046D01*
X822050Y225046D01*
X822054Y225049D01*
G37*
G36*
X819802Y233047D02*
X819802Y233047D01*
X819803Y233047D01*
X822053Y235422D01*
X822053Y235424D01*
X822054Y235425D01*
X822054Y238050D01*
X822051Y238054D01*
X822050Y238054D01*
X818050Y238054D01*
X818046Y238051D01*
X818046Y238050D01*
X818046Y233050D01*
X818049Y233046D01*
X818050Y233046D01*
X819800Y233046D01*
X819802Y233047D01*
G37*
G36*
X828554Y225049D02*
X828554Y225049D01*
X828554Y225050D01*
X828554Y230050D01*
X828551Y230054D01*
X828550Y230054D01*
X826800Y230054D01*
X826798Y230053D01*
X826797Y230053D01*
X824547Y227678D01*
X824547Y227676D01*
X824546Y227675D01*
X824546Y225050D01*
X824549Y225046D01*
X824550Y225046D01*
X828550Y225046D01*
X828554Y225049D01*
G37*
D10*
X900950Y242150D03*
X917950Y242150D03*
D11*
X777550Y225000D03*
X777550Y242000D03*
D12*
X1062700Y246250D03*
D13*
X1062700Y267750D03*
D14*
G36*
X818917Y231894D02*
X823644Y236621D01*
X828371Y231894D01*
X823644Y227167D01*
X818917Y231894D01*
G37*
D15*
X768000Y209000D03*
X776000Y209000D03*
M02*
