G04 EAGLE Gerber X2 export*
%TF.Part,Single*%
%TF.FileFunction,Other,Component side*%
%TF.FilePolarity,Positive*%
%TF.GenerationSoftware,Autodesk,EAGLE,8.6.3*%
%TF.CreationDate,2019-06-06T21:14:15Z*%
G75*
%MOMM*%
%FSLAX34Y34*%
%LPD*%
%AMOC8*
5,1,8,0,0,1.08239X$1,22.5*%
G01*
%ADD10R,1.000000X1.100000*%
%ADD11R,0.800000X1.200000*%
%ADD12R,0.800000X2.000000*%
%ADD13R,1.100000X1.250000*%
%ADD14R,0.400000X0.600000*%
%ADD15R,0.520000X0.520000*%
%ADD16R,0.100000X0.100000*%
%ADD17C,0.152400*%
%ADD18C,0.254000*%
%ADD19C,0.304800*%
%ADD20C,0.806400*%
%ADD21C,0.050000*%

G36*
X449951Y249947D02*
X449951Y249947D01*
X449953Y249947D01*
X451503Y251447D01*
X451503Y251449D01*
X451504Y251450D01*
X451504Y252550D01*
X451501Y252554D01*
X451500Y252554D01*
X447600Y252554D01*
X447596Y252551D01*
X447596Y252550D01*
X447596Y249950D01*
X447599Y249946D01*
X447600Y249946D01*
X449950Y249946D01*
X449951Y249947D01*
G37*
G36*
X459604Y243449D02*
X459604Y243449D01*
X459604Y243450D01*
X459604Y246050D01*
X459601Y246054D01*
X459600Y246054D01*
X457250Y246054D01*
X457249Y246053D01*
X457247Y246053D01*
X455697Y244553D01*
X455697Y244552D01*
X455697Y244551D01*
X455696Y244550D01*
X455696Y243450D01*
X455699Y243446D01*
X455700Y243446D01*
X459600Y243446D01*
X459604Y243449D01*
G37*
G36*
X459604Y249949D02*
X459604Y249949D01*
X459604Y249950D01*
X459604Y252550D01*
X459601Y252554D01*
X459600Y252554D01*
X455700Y252554D01*
X455696Y252551D01*
X455696Y252550D01*
X455696Y251450D01*
X455697Y251448D01*
X455697Y251447D01*
X457247Y249947D01*
X457249Y249947D01*
X457250Y249946D01*
X459600Y249946D01*
X459604Y249949D01*
G37*
G36*
X451504Y243449D02*
X451504Y243449D01*
X451504Y243450D01*
X451504Y244550D01*
X451503Y244552D01*
X451503Y244553D01*
X449953Y246053D01*
X449951Y246053D01*
X449950Y246054D01*
X447600Y246054D01*
X447596Y246051D01*
X447596Y246050D01*
X447596Y243450D01*
X447599Y243446D01*
X447600Y243446D01*
X451500Y243446D01*
X451504Y243449D01*
G37*
D10*
X419000Y240300D03*
X419000Y257300D03*
D11*
X919600Y242300D03*
D12*
X919600Y263800D03*
D13*
X485100Y239300D03*
X502100Y239300D03*
D14*
X391900Y239900D03*
X399900Y239900D03*
D15*
G36*
X453600Y251676D02*
X457276Y248000D01*
X453600Y244324D01*
X449924Y248000D01*
X453600Y251676D01*
G37*
D16*
X449600Y244750D03*
X449600Y251250D03*
X457600Y244750D03*
X457600Y251250D03*
D17*
X419000Y240300D02*
X418600Y239900D01*
D18*
X438750Y244750D02*
X449600Y244750D01*
X433900Y239900D02*
X418600Y239900D01*
X433900Y239900D02*
X438750Y244750D01*
X439250Y251250D02*
X449600Y251250D01*
X438750Y250750D02*
X438750Y244750D01*
X438750Y250750D02*
X439250Y251250D01*
X418600Y239900D02*
X399900Y239900D01*
D19*
X419000Y269000D02*
X421000Y271000D01*
X470000Y271000D01*
X505000Y271000D01*
X517000Y259000D01*
X919600Y263800D02*
X920000Y264200D01*
X419000Y269000D02*
X419000Y257300D01*
X914800Y259000D02*
X919600Y263800D01*
X914800Y259000D02*
X517000Y259000D01*
D17*
X464250Y251250D02*
X457600Y251250D01*
X470000Y257000D02*
X470000Y271000D01*
X470000Y257000D02*
X464250Y251250D01*
D19*
X419000Y269000D02*
X402000Y269000D01*
X397000Y264000D01*
X383000Y264000D01*
X502100Y239300D02*
X916600Y239300D01*
X919600Y242300D01*
D18*
X469250Y244750D02*
X457600Y244750D01*
X469250Y244750D02*
X475000Y239000D01*
X484800Y239000D01*
X485100Y239300D01*
D19*
X391900Y239900D02*
X379398Y239900D01*
X379298Y240000D01*
D20*
X337750Y249000D03*
D21*
X340000Y249000D01*
X338547Y267776D01*
X334174Y286097D01*
X326988Y303513D01*
X317163Y319593D01*
X304941Y333941D01*
X290622Y346203D01*
X274558Y356077D01*
X257144Y363317D01*
X238807Y367745D01*
X220000Y369250D01*
X201185Y367794D01*
X182825Y363412D01*
X165374Y356210D01*
X149260Y346365D01*
X134882Y334118D01*
X122594Y319769D01*
X112701Y303672D01*
X105445Y286221D01*
X101008Y267846D01*
X99500Y249000D01*
X100959Y230146D01*
X105350Y211748D01*
X112567Y194260D01*
X122433Y178113D01*
X134705Y163705D01*
X149084Y151392D01*
X165215Y141478D01*
X182702Y134207D01*
X201114Y129761D01*
X220000Y128250D01*
X238893Y129712D01*
X257329Y134112D01*
X274853Y141344D01*
X291034Y151230D01*
X305472Y163528D01*
X317810Y177937D01*
X327745Y194101D01*
X335030Y211624D01*
X339486Y230075D01*
X341000Y249000D01*
X339535Y267932D01*
X335125Y286407D01*
X327879Y303967D01*
X317972Y320181D01*
X305648Y334648D01*
X291210Y347012D01*
X275012Y356968D01*
X257453Y364268D01*
X238964Y368733D01*
X220000Y370250D01*
X201028Y368782D01*
X182516Y364363D01*
X164920Y357101D01*
X148672Y347174D01*
X134175Y334825D01*
X121785Y320357D01*
X111810Y304126D01*
X104494Y286530D01*
X100021Y268003D01*
X98500Y249000D01*
X99971Y229989D01*
X104399Y211439D01*
X111676Y193806D01*
X121624Y177525D01*
X133998Y162998D01*
X148496Y150583D01*
X164761Y140587D01*
X182393Y133256D01*
X200958Y128774D01*
X220000Y127250D01*
X239050Y128724D01*
X257638Y133161D01*
X275307Y140453D01*
X291622Y150421D01*
X306179Y162821D01*
X318619Y177349D01*
X328636Y193647D01*
X335981Y211315D01*
X340473Y229919D01*
X342000Y249000D01*
X340523Y268089D01*
X336076Y286716D01*
X328770Y304421D01*
X318781Y320769D01*
X306355Y335355D01*
X291798Y347821D01*
X275466Y357859D01*
X257762Y365219D01*
X239120Y369720D01*
X220000Y371250D01*
X200872Y369770D01*
X182207Y365314D01*
X164466Y357992D01*
X148084Y347983D01*
X133468Y335532D01*
X120976Y320945D01*
X110919Y304580D01*
X103543Y286839D01*
X99033Y268159D01*
X97500Y249000D01*
X98983Y229833D01*
X103448Y211130D01*
X110785Y193352D01*
X120815Y176938D01*
X133291Y162291D01*
X147908Y149774D01*
X164307Y139696D01*
X182084Y132305D01*
X200802Y127786D01*
X220000Y126250D01*
X239206Y127737D01*
X257947Y132210D01*
X275761Y139562D01*
X292209Y149612D01*
X306886Y162114D01*
X319428Y176761D01*
X329527Y193193D01*
X336932Y211006D01*
X341461Y229762D01*
X343000Y249000D01*
X341510Y268245D01*
X337028Y287025D01*
X329661Y304875D01*
X319590Y321356D01*
X307063Y336063D01*
X292386Y348630D01*
X275920Y358750D01*
X258071Y366170D01*
X239277Y370708D01*
X220000Y372250D01*
X200716Y370757D01*
X181898Y366265D01*
X164012Y358883D01*
X147497Y348792D01*
X132761Y336239D01*
X120167Y321533D01*
X110028Y305034D01*
X102592Y287148D01*
X98045Y268316D01*
X96500Y249000D01*
X97996Y229676D01*
X102497Y210821D01*
X109894Y192898D01*
X120005Y176350D01*
X132584Y161584D01*
X147320Y148965D01*
X163853Y138805D01*
X181775Y131354D01*
X200645Y126798D01*
X220000Y125250D01*
X239363Y126749D01*
X258256Y131259D01*
X276215Y138671D01*
X292797Y148803D01*
X307593Y161407D01*
X320237Y176173D01*
X330418Y192739D01*
X337883Y210697D01*
X342449Y229606D01*
X344000Y249000D01*
X342498Y268402D01*
X337979Y287334D01*
X330552Y305329D01*
X320399Y321944D01*
X307770Y336770D01*
X292974Y349439D01*
X276374Y359641D01*
X258380Y367121D01*
X239433Y371696D01*
X220000Y373250D01*
X200559Y371745D01*
X181589Y367216D01*
X163558Y359774D01*
X146909Y349601D01*
X132054Y336946D01*
X119358Y322120D01*
X109137Y305488D01*
X101641Y287457D01*
X97057Y268472D01*
X95500Y249000D01*
X97008Y229520D01*
X101546Y210512D01*
X109003Y192444D01*
X119196Y175762D01*
X131877Y160877D01*
X146733Y148156D01*
X163399Y137914D01*
X181466Y130403D01*
X200489Y125811D01*
X220000Y124250D01*
X239519Y125761D01*
X258565Y130308D01*
X276669Y137780D01*
X293385Y147994D01*
X308300Y160700D01*
X321046Y175586D01*
X331309Y192285D01*
X338835Y210388D01*
X343436Y229450D01*
X345000Y249000D01*
X347250Y249000D01*
D20*
X347250Y249000D03*
D21*
X375500Y239500D02*
X376000Y239000D01*
D20*
X367000Y263000D03*
D19*
X347250Y249000D02*
X356750Y239500D01*
X374726Y239500D01*
M02*
