G04 EAGLE Gerber X2 export*
%TF.Part,Single*%
%TF.FileFunction,Other,Component side*%
%TF.FilePolarity,Positive*%
%TF.GenerationSoftware,Autodesk,EAGLE,8.6.3*%
%TF.CreationDate,2019-06-11T09:18:05Z*%
G75*
%MOMM*%
%FSLAX34Y34*%
%LPD*%
%AMOC8*
5,1,8,0,0,1.08239X$1,22.5*%
G01*
%ADD10R,1.000000X1.100000*%
%ADD11R,0.800000X1.200000*%
%ADD12R,0.800000X2.000000*%
%ADD13R,1.100000X1.250000*%
%ADD14R,0.400000X0.600000*%
%ADD15R,0.520000X0.520000*%
%ADD16R,0.100000X0.100000*%
%ADD17C,0.152400*%
%ADD18C,0.254000*%
%ADD19C,0.304800*%
%ADD20C,0.500000*%
%ADD21C,2.000000*%
%ADD22C,0.806400*%

G36*
X444951Y160947D02*
X444951Y160947D01*
X444953Y160947D01*
X446503Y162447D01*
X446503Y162449D01*
X446504Y162450D01*
X446504Y163550D01*
X446501Y163554D01*
X446500Y163554D01*
X442600Y163554D01*
X442596Y163551D01*
X442596Y163550D01*
X442596Y160950D01*
X442599Y160946D01*
X442600Y160946D01*
X444950Y160946D01*
X444951Y160947D01*
G37*
G36*
X454604Y154449D02*
X454604Y154449D01*
X454604Y154450D01*
X454604Y157050D01*
X454601Y157054D01*
X454600Y157054D01*
X452250Y157054D01*
X452249Y157053D01*
X452247Y157053D01*
X450697Y155553D01*
X450697Y155552D01*
X450697Y155551D01*
X450696Y155550D01*
X450696Y154450D01*
X450699Y154446D01*
X450700Y154446D01*
X454600Y154446D01*
X454604Y154449D01*
G37*
G36*
X454604Y160949D02*
X454604Y160949D01*
X454604Y160950D01*
X454604Y163550D01*
X454601Y163554D01*
X454600Y163554D01*
X450700Y163554D01*
X450696Y163551D01*
X450696Y163550D01*
X450696Y162450D01*
X450697Y162448D01*
X450697Y162447D01*
X452247Y160947D01*
X452249Y160947D01*
X452250Y160946D01*
X454600Y160946D01*
X454604Y160949D01*
G37*
G36*
X446504Y154449D02*
X446504Y154449D01*
X446504Y154450D01*
X446504Y155550D01*
X446503Y155552D01*
X446503Y155553D01*
X444953Y157053D01*
X444951Y157053D01*
X444950Y157054D01*
X442600Y157054D01*
X442596Y157051D01*
X442596Y157050D01*
X442596Y154450D01*
X442599Y154446D01*
X442600Y154446D01*
X446500Y154446D01*
X446504Y154449D01*
G37*
D10*
X414000Y151300D03*
X414000Y168300D03*
D11*
X914600Y153300D03*
D12*
X914600Y174800D03*
D13*
X480100Y150300D03*
X497100Y150300D03*
D14*
X386900Y150900D03*
X394900Y150900D03*
D15*
G36*
X448600Y162676D02*
X452276Y159000D01*
X448600Y155324D01*
X444924Y159000D01*
X448600Y162676D01*
G37*
D16*
X444600Y155750D03*
X444600Y162250D03*
X452600Y155750D03*
X452600Y162250D03*
D17*
X414000Y151300D02*
X413600Y150900D01*
D18*
X433750Y155750D02*
X444600Y155750D01*
X428900Y150900D02*
X413600Y150900D01*
X428900Y150900D02*
X433750Y155750D01*
X434250Y162250D02*
X444600Y162250D01*
X433750Y161750D02*
X433750Y155750D01*
X433750Y161750D02*
X434250Y162250D01*
X413600Y150900D02*
X394900Y150900D01*
D19*
X414000Y180000D02*
X416000Y182000D01*
X465000Y182000D01*
X500000Y182000D01*
X512000Y170000D01*
X914600Y174800D02*
X915000Y175200D01*
X414000Y180000D02*
X414000Y168300D01*
X909800Y170000D02*
X914600Y174800D01*
X909800Y170000D02*
X512000Y170000D01*
D17*
X459250Y162250D02*
X452600Y162250D01*
X465000Y168000D02*
X465000Y182000D01*
X465000Y168000D02*
X459250Y162250D01*
D19*
X414000Y180000D02*
X397000Y180000D01*
X392000Y175000D01*
X378000Y175000D01*
D20*
X353000Y175000D01*
X330000Y198000D01*
X294000Y198000D01*
D21*
X291000Y198000D01*
D20*
X353000Y175000D02*
X353000Y169000D01*
D19*
X497100Y150300D02*
X911600Y150300D01*
X914600Y153300D01*
D18*
X464250Y155750D02*
X452600Y155750D01*
X464250Y155750D02*
X470000Y150000D01*
X479800Y150000D01*
X480100Y150300D01*
D20*
X386900Y150900D02*
X375374Y150900D01*
X375274Y151000D01*
D22*
X235000Y169000D03*
D20*
X234508Y178425D01*
X232539Y187696D01*
X229129Y196580D01*
X224350Y204855D01*
X218310Y212310D01*
X211149Y218755D01*
X203034Y224020D01*
X194159Y227966D01*
X184738Y230484D01*
X175000Y231500D01*
X165184Y230977D01*
X155532Y228917D01*
X146285Y225356D01*
X137676Y220373D01*
X129922Y214078D01*
X123223Y206618D01*
X117753Y198169D01*
X113657Y188932D01*
X111047Y179129D01*
X110000Y169000D01*
X110553Y158793D01*
X112706Y148759D01*
X116416Y139150D01*
X121605Y130206D01*
X128154Y122154D01*
X135912Y115200D01*
X144696Y109525D01*
X154296Y105279D01*
X164480Y102578D01*
X175000Y101500D01*
X185598Y102084D01*
X196013Y104328D01*
X205985Y108189D01*
X215263Y113582D01*
X223614Y120386D01*
X230822Y128443D01*
X236702Y137561D01*
X241098Y147523D01*
X243891Y158089D01*
X245000Y169000D01*
X244385Y179990D01*
X242049Y190786D01*
X238039Y201120D01*
X232440Y210733D01*
X225381Y219381D01*
X217027Y226845D01*
X207574Y232930D01*
X197249Y237476D01*
X186302Y240360D01*
X175000Y241500D01*
X163619Y240854D01*
X152442Y238427D01*
X141745Y234266D01*
X131798Y228463D01*
X122851Y221149D01*
X115133Y212496D01*
X108843Y202709D01*
X104146Y192022D01*
X101170Y180693D01*
X100000Y169000D01*
X100676Y157228D01*
X103195Y145669D01*
X107506Y134610D01*
X113515Y124328D01*
X121083Y115083D01*
X130034Y107110D01*
X140156Y100615D01*
X151206Y95769D01*
X162915Y92701D01*
X175000Y91500D01*
X187163Y92207D01*
X199103Y94818D01*
X210525Y99279D01*
X221141Y105492D01*
X230685Y113315D01*
X238912Y122565D01*
X245612Y133021D01*
X250609Y144433D01*
X253768Y156524D01*
X255000Y169000D01*
X254262Y181554D01*
X251560Y193876D01*
X246949Y205660D01*
X240530Y216611D01*
X232452Y226452D01*
X222904Y234935D01*
X212114Y241840D01*
X200339Y246987D01*
X187867Y250237D01*
X175000Y251500D01*
X162055Y250731D01*
X149352Y247938D01*
X137205Y243176D01*
X125920Y236553D01*
X115780Y228220D01*
X107043Y218374D01*
X99933Y207249D01*
X94636Y195112D01*
X91293Y182258D01*
X90000Y169000D01*
X90800Y155664D01*
X93685Y142579D01*
X98596Y130070D01*
X105425Y118450D01*
X114012Y108012D01*
X124157Y99020D01*
X135616Y91705D01*
X148116Y86258D01*
X161351Y82824D01*
X175000Y81500D01*
X188727Y82330D01*
X202193Y85307D01*
X215065Y90369D01*
X227019Y97402D01*
X237756Y106244D01*
X247003Y116687D01*
X254522Y128481D01*
X260120Y141343D01*
X263645Y154960D01*
X265000Y169000D01*
X264139Y183118D01*
X261071Y196966D01*
X255859Y210200D01*
X248621Y222488D01*
X239523Y233523D01*
X228782Y243025D01*
X216654Y250750D01*
X203430Y256497D01*
X189431Y260114D01*
X175000Y261500D01*
X160491Y260608D01*
X146261Y257448D01*
X132665Y252086D01*
X120042Y244643D01*
X108709Y235291D01*
X98952Y224252D01*
X91023Y211789D01*
X85125Y198202D01*
X81417Y183822D01*
X80000Y169000D01*
X80923Y154100D01*
X84174Y139489D01*
X89686Y125530D01*
X97334Y112573D01*
X106941Y100941D01*
X118279Y90930D01*
X131076Y82795D01*
X145025Y76748D01*
X159787Y72947D01*
X175000Y71500D01*
X190291Y72453D01*
X205284Y75796D01*
X219605Y81459D01*
X232897Y89312D01*
X244827Y99173D01*
X255093Y110809D01*
X263432Y123941D01*
X269630Y138253D01*
X273522Y153396D01*
X275000Y169000D01*
X274016Y184683D01*
X270581Y200056D01*
X264769Y214740D01*
X256711Y228366D01*
X246595Y240595D01*
X234660Y251115D01*
X221194Y259660D01*
X206520Y266008D01*
X190995Y269991D01*
X175000Y271500D01*
X158926Y270485D01*
X143171Y266959D01*
X128125Y260996D01*
X114164Y252733D01*
X101638Y242362D01*
X90862Y230130D01*
X82113Y216329D01*
X75615Y201292D01*
X71540Y185387D01*
X70000Y169000D01*
X71046Y152535D01*
X74664Y136399D01*
X80776Y120991D01*
X89244Y106695D01*
X99870Y93870D01*
X112401Y82840D01*
X126537Y73885D01*
X141935Y67237D01*
X158222Y63070D01*
X175000Y61500D01*
X191856Y62577D01*
X208374Y66286D01*
X224144Y72549D01*
X238775Y81222D01*
X251898Y92102D01*
X263183Y104931D01*
X272342Y119402D01*
X279141Y135163D01*
X285399Y160831D01*
X286000Y179000D01*
D22*
X286000Y179000D03*
D20*
X310000Y179000D01*
X339000Y150000D01*
X235000Y169000D02*
X196000Y169000D01*
D21*
X195000Y169000D01*
D20*
X339000Y150000D02*
X353000Y150000D01*
X368750Y150000D01*
X353000Y150000D02*
X353000Y156000D01*
M02*
