G04 EAGLE Gerber X2 export*
%TF.Part,Single*%
%TF.FileFunction,Other,Silk screen CMP*%
%TF.FilePolarity,Positive*%
%TF.GenerationSoftware,Autodesk,EAGLE,8.6.3*%
%TF.CreationDate,2019-06-07T22:25:58Z*%
G75*
%MOMM*%
%FSLAX34Y34*%
%LPD*%
%AMOC8*
5,1,8,0,0,1.08239X$1,22.5*%
G01*
%ADD10C,0.000000*%
%ADD11C,0.152400*%
%ADD12C,0.130000*%
%ADD13C,0.050800*%
%ADD14C,0.127000*%
%ADD15C,0.025400*%
%ADD16C,0.050000*%


D10*
X0Y0D02*
X1000000Y0D01*
X1000000Y318100D01*
X0Y318100D01*
X0Y0D01*
D11*
X506000Y100000D02*
X906000Y100000D01*
D12*
X906000Y-6500D01*
X506000Y-6500D02*
X506000Y100000D01*
X506650Y13000D02*
X905350Y13000D01*
X880000Y16192D01*
X880000Y9808D01*
X905350Y13000D01*
X880000Y14300D01*
X880000Y11700D02*
X905350Y13000D01*
X880000Y15600D01*
X880000Y10400D02*
X905350Y13000D01*
X532000Y16192D02*
X506650Y13000D01*
X532000Y16192D02*
X532000Y9808D01*
X506650Y13000D01*
X532000Y14300D01*
X532000Y11700D02*
X506650Y13000D01*
X532000Y15600D01*
X532000Y10400D02*
X506650Y13000D01*
D11*
X674852Y23119D02*
X678464Y35763D01*
X674852Y23119D02*
X683883Y23119D01*
X681174Y26732D02*
X681174Y19507D01*
X690483Y27635D02*
X690487Y27955D01*
X690498Y28274D01*
X690517Y28594D01*
X690544Y28912D01*
X690578Y29230D01*
X690620Y29547D01*
X690670Y29863D01*
X690727Y30178D01*
X690791Y30491D01*
X690863Y30803D01*
X690942Y31113D01*
X691029Y31420D01*
X691123Y31726D01*
X691224Y32029D01*
X691333Y32330D01*
X691448Y32628D01*
X691571Y32924D01*
X691701Y33216D01*
X691838Y33505D01*
X691838Y33506D02*
X691877Y33614D01*
X691920Y33721D01*
X691966Y33826D01*
X692017Y33930D01*
X692070Y34032D01*
X692127Y34132D01*
X692188Y34230D01*
X692252Y34325D01*
X692319Y34419D01*
X692390Y34510D01*
X692463Y34599D01*
X692540Y34685D01*
X692619Y34768D01*
X692701Y34849D01*
X692786Y34927D01*
X692874Y35001D01*
X692964Y35073D01*
X693056Y35141D01*
X693151Y35207D01*
X693248Y35269D01*
X693347Y35327D01*
X693449Y35383D01*
X693551Y35434D01*
X693656Y35482D01*
X693762Y35527D01*
X693870Y35568D01*
X693979Y35605D01*
X694089Y35638D01*
X694201Y35667D01*
X694313Y35693D01*
X694426Y35715D01*
X694540Y35732D01*
X694654Y35746D01*
X694769Y35756D01*
X694884Y35762D01*
X694999Y35764D01*
X694999Y35763D02*
X695114Y35761D01*
X695229Y35755D01*
X695344Y35745D01*
X695458Y35731D01*
X695572Y35714D01*
X695685Y35692D01*
X695797Y35666D01*
X695909Y35637D01*
X696019Y35604D01*
X696128Y35567D01*
X696236Y35526D01*
X696342Y35481D01*
X696447Y35433D01*
X696549Y35382D01*
X696650Y35326D01*
X696750Y35268D01*
X696847Y35206D01*
X696941Y35141D01*
X697034Y35072D01*
X697124Y35000D01*
X697212Y34926D01*
X697297Y34848D01*
X697379Y34767D01*
X697458Y34684D01*
X697535Y34598D01*
X697608Y34509D01*
X697679Y34418D01*
X697746Y34324D01*
X697810Y34229D01*
X697871Y34131D01*
X697928Y34031D01*
X697981Y33929D01*
X698032Y33825D01*
X698078Y33720D01*
X698121Y33613D01*
X698160Y33505D01*
X698159Y33505D02*
X698296Y33216D01*
X698426Y32924D01*
X698549Y32628D01*
X698664Y32330D01*
X698773Y32029D01*
X698874Y31726D01*
X698968Y31420D01*
X699055Y31113D01*
X699134Y30803D01*
X699206Y30491D01*
X699270Y30178D01*
X699327Y29863D01*
X699377Y29547D01*
X699419Y29230D01*
X699453Y28912D01*
X699480Y28594D01*
X699499Y28274D01*
X699510Y27955D01*
X699514Y27635D01*
X690484Y27635D02*
X690488Y27315D01*
X690499Y26996D01*
X690518Y26676D01*
X690545Y26358D01*
X690579Y26040D01*
X690621Y25723D01*
X690671Y25407D01*
X690728Y25092D01*
X690792Y24779D01*
X690864Y24467D01*
X690943Y24157D01*
X691030Y23850D01*
X691124Y23544D01*
X691225Y23241D01*
X691334Y22940D01*
X691449Y22642D01*
X691572Y22346D01*
X691702Y22054D01*
X691839Y21765D01*
X691838Y21765D02*
X691877Y21657D01*
X691920Y21550D01*
X691966Y21445D01*
X692017Y21341D01*
X692070Y21239D01*
X692127Y21139D01*
X692188Y21041D01*
X692252Y20946D01*
X692319Y20852D01*
X692390Y20761D01*
X692463Y20672D01*
X692540Y20586D01*
X692619Y20503D01*
X692701Y20422D01*
X692786Y20344D01*
X692874Y20270D01*
X692964Y20198D01*
X693057Y20129D01*
X693151Y20064D01*
X693248Y20002D01*
X693348Y19944D01*
X693449Y19888D01*
X693551Y19837D01*
X693656Y19789D01*
X693762Y19744D01*
X693870Y19703D01*
X693979Y19666D01*
X694089Y19633D01*
X694201Y19604D01*
X694313Y19578D01*
X694426Y19556D01*
X694540Y19539D01*
X694654Y19525D01*
X694769Y19515D01*
X694884Y19509D01*
X694999Y19507D01*
X698159Y21765D02*
X698296Y22054D01*
X698426Y22346D01*
X698549Y22642D01*
X698664Y22940D01*
X698773Y23241D01*
X698874Y23544D01*
X698968Y23850D01*
X699055Y24157D01*
X699134Y24467D01*
X699206Y24779D01*
X699270Y25092D01*
X699327Y25407D01*
X699377Y25723D01*
X699419Y26040D01*
X699453Y26358D01*
X699480Y26676D01*
X699499Y26996D01*
X699510Y27315D01*
X699514Y27635D01*
X698160Y21765D02*
X698121Y21657D01*
X698078Y21550D01*
X698032Y21445D01*
X697981Y21341D01*
X697928Y21239D01*
X697871Y21139D01*
X697810Y21041D01*
X697746Y20946D01*
X697679Y20852D01*
X697608Y20761D01*
X697535Y20672D01*
X697458Y20586D01*
X697379Y20503D01*
X697297Y20422D01*
X697212Y20344D01*
X697124Y20270D01*
X697034Y20198D01*
X696941Y20129D01*
X696847Y20064D01*
X696750Y20002D01*
X696650Y19944D01*
X696549Y19888D01*
X696446Y19837D01*
X696342Y19789D01*
X696236Y19744D01*
X696128Y19703D01*
X696019Y19666D01*
X695909Y19633D01*
X695797Y19604D01*
X695685Y19578D01*
X695572Y19556D01*
X695458Y19539D01*
X695344Y19525D01*
X695229Y19515D01*
X695114Y19509D01*
X694999Y19507D01*
X691386Y23119D02*
X698611Y32151D01*
X705489Y20410D02*
X705489Y19507D01*
X705489Y20410D02*
X706392Y20410D01*
X706392Y19507D01*
X705489Y19507D01*
X712367Y27635D02*
X712371Y27955D01*
X712382Y28274D01*
X712401Y28594D01*
X712428Y28912D01*
X712462Y29230D01*
X712504Y29547D01*
X712554Y29863D01*
X712611Y30178D01*
X712675Y30491D01*
X712747Y30803D01*
X712826Y31113D01*
X712913Y31420D01*
X713007Y31726D01*
X713108Y32029D01*
X713217Y32330D01*
X713332Y32628D01*
X713455Y32924D01*
X713585Y33216D01*
X713722Y33505D01*
X713721Y33506D02*
X713760Y33614D01*
X713803Y33721D01*
X713849Y33826D01*
X713900Y33930D01*
X713953Y34032D01*
X714010Y34132D01*
X714071Y34230D01*
X714135Y34325D01*
X714202Y34419D01*
X714273Y34510D01*
X714346Y34599D01*
X714423Y34685D01*
X714502Y34768D01*
X714584Y34849D01*
X714669Y34927D01*
X714757Y35001D01*
X714847Y35073D01*
X714939Y35141D01*
X715034Y35207D01*
X715131Y35269D01*
X715230Y35327D01*
X715332Y35383D01*
X715434Y35434D01*
X715539Y35482D01*
X715645Y35527D01*
X715753Y35568D01*
X715862Y35605D01*
X715972Y35638D01*
X716084Y35667D01*
X716196Y35693D01*
X716309Y35715D01*
X716423Y35732D01*
X716537Y35746D01*
X716652Y35756D01*
X716767Y35762D01*
X716882Y35764D01*
X716882Y35763D02*
X716997Y35761D01*
X717112Y35755D01*
X717227Y35745D01*
X717341Y35731D01*
X717455Y35714D01*
X717568Y35692D01*
X717680Y35666D01*
X717792Y35637D01*
X717902Y35604D01*
X718011Y35567D01*
X718119Y35526D01*
X718225Y35481D01*
X718330Y35433D01*
X718432Y35382D01*
X718533Y35326D01*
X718633Y35268D01*
X718730Y35206D01*
X718824Y35141D01*
X718917Y35072D01*
X719007Y35000D01*
X719095Y34926D01*
X719180Y34848D01*
X719262Y34767D01*
X719341Y34684D01*
X719418Y34598D01*
X719491Y34509D01*
X719562Y34418D01*
X719629Y34324D01*
X719693Y34229D01*
X719754Y34131D01*
X719811Y34031D01*
X719864Y33929D01*
X719915Y33825D01*
X719961Y33720D01*
X720004Y33613D01*
X720043Y33505D01*
X720180Y33216D01*
X720310Y32924D01*
X720433Y32628D01*
X720548Y32330D01*
X720657Y32029D01*
X720758Y31726D01*
X720852Y31420D01*
X720939Y31113D01*
X721018Y30803D01*
X721090Y30491D01*
X721154Y30178D01*
X721211Y29863D01*
X721261Y29547D01*
X721303Y29230D01*
X721337Y28912D01*
X721364Y28594D01*
X721383Y28274D01*
X721394Y27955D01*
X721398Y27635D01*
X712367Y27635D02*
X712371Y27315D01*
X712382Y26996D01*
X712401Y26676D01*
X712428Y26358D01*
X712462Y26040D01*
X712504Y25723D01*
X712554Y25407D01*
X712611Y25092D01*
X712675Y24779D01*
X712747Y24467D01*
X712826Y24157D01*
X712913Y23850D01*
X713007Y23544D01*
X713108Y23241D01*
X713217Y22940D01*
X713332Y22642D01*
X713455Y22346D01*
X713585Y22054D01*
X713722Y21765D01*
X713721Y21765D02*
X713760Y21657D01*
X713803Y21550D01*
X713849Y21445D01*
X713900Y21341D01*
X713953Y21239D01*
X714010Y21139D01*
X714071Y21041D01*
X714135Y20946D01*
X714202Y20852D01*
X714273Y20761D01*
X714346Y20672D01*
X714423Y20586D01*
X714502Y20503D01*
X714584Y20422D01*
X714669Y20344D01*
X714757Y20270D01*
X714847Y20198D01*
X714940Y20129D01*
X715034Y20064D01*
X715131Y20002D01*
X715231Y19944D01*
X715332Y19888D01*
X715434Y19837D01*
X715539Y19789D01*
X715645Y19744D01*
X715753Y19703D01*
X715862Y19666D01*
X715972Y19633D01*
X716084Y19604D01*
X716196Y19578D01*
X716309Y19556D01*
X716423Y19539D01*
X716537Y19525D01*
X716652Y19515D01*
X716767Y19509D01*
X716882Y19507D01*
X720043Y21765D02*
X720180Y22054D01*
X720310Y22346D01*
X720433Y22642D01*
X720548Y22940D01*
X720657Y23241D01*
X720758Y23544D01*
X720852Y23850D01*
X720939Y24157D01*
X721018Y24467D01*
X721090Y24779D01*
X721154Y25092D01*
X721211Y25407D01*
X721261Y25723D01*
X721303Y26040D01*
X721337Y26358D01*
X721364Y26676D01*
X721383Y26996D01*
X721394Y27315D01*
X721398Y27635D01*
X720043Y21765D02*
X720004Y21657D01*
X719961Y21550D01*
X719915Y21445D01*
X719864Y21341D01*
X719811Y21239D01*
X719754Y21139D01*
X719693Y21041D01*
X719629Y20946D01*
X719562Y20852D01*
X719491Y20761D01*
X719418Y20672D01*
X719341Y20586D01*
X719262Y20503D01*
X719180Y20422D01*
X719095Y20344D01*
X719007Y20270D01*
X718917Y20198D01*
X718824Y20129D01*
X718730Y20064D01*
X718633Y20002D01*
X718533Y19944D01*
X718432Y19888D01*
X718329Y19837D01*
X718225Y19789D01*
X718119Y19744D01*
X718011Y19703D01*
X717902Y19666D01*
X717792Y19633D01*
X717680Y19604D01*
X717568Y19578D01*
X717455Y19556D01*
X717341Y19539D01*
X717227Y19525D01*
X717112Y19515D01*
X716997Y19509D01*
X716882Y19507D01*
X713270Y23119D02*
X720495Y32151D01*
X727998Y27635D02*
X728002Y27955D01*
X728013Y28274D01*
X728032Y28594D01*
X728059Y28912D01*
X728093Y29230D01*
X728135Y29547D01*
X728185Y29863D01*
X728242Y30178D01*
X728306Y30491D01*
X728378Y30803D01*
X728457Y31113D01*
X728544Y31420D01*
X728638Y31726D01*
X728739Y32029D01*
X728848Y32330D01*
X728963Y32628D01*
X729086Y32924D01*
X729216Y33216D01*
X729353Y33505D01*
X729353Y33506D02*
X729392Y33614D01*
X729435Y33721D01*
X729481Y33826D01*
X729532Y33930D01*
X729585Y34032D01*
X729642Y34132D01*
X729703Y34230D01*
X729767Y34325D01*
X729834Y34419D01*
X729905Y34510D01*
X729978Y34599D01*
X730055Y34685D01*
X730134Y34768D01*
X730216Y34849D01*
X730301Y34927D01*
X730389Y35001D01*
X730479Y35073D01*
X730571Y35141D01*
X730666Y35207D01*
X730763Y35269D01*
X730862Y35327D01*
X730964Y35383D01*
X731066Y35434D01*
X731171Y35482D01*
X731277Y35527D01*
X731385Y35568D01*
X731494Y35605D01*
X731604Y35638D01*
X731716Y35667D01*
X731828Y35693D01*
X731941Y35715D01*
X732055Y35732D01*
X732169Y35746D01*
X732284Y35756D01*
X732399Y35762D01*
X732514Y35764D01*
X732514Y35763D02*
X732629Y35761D01*
X732744Y35755D01*
X732859Y35745D01*
X732973Y35731D01*
X733087Y35714D01*
X733200Y35692D01*
X733312Y35666D01*
X733424Y35637D01*
X733534Y35604D01*
X733643Y35567D01*
X733751Y35526D01*
X733857Y35481D01*
X733962Y35433D01*
X734064Y35382D01*
X734165Y35326D01*
X734265Y35268D01*
X734362Y35206D01*
X734456Y35141D01*
X734549Y35072D01*
X734639Y35000D01*
X734727Y34926D01*
X734812Y34848D01*
X734894Y34767D01*
X734973Y34684D01*
X735050Y34598D01*
X735123Y34509D01*
X735194Y34418D01*
X735261Y34324D01*
X735325Y34229D01*
X735386Y34131D01*
X735443Y34031D01*
X735496Y33929D01*
X735547Y33825D01*
X735593Y33720D01*
X735636Y33613D01*
X735675Y33505D01*
X735674Y33505D02*
X735811Y33216D01*
X735941Y32924D01*
X736064Y32628D01*
X736179Y32330D01*
X736288Y32029D01*
X736389Y31726D01*
X736483Y31420D01*
X736570Y31113D01*
X736649Y30803D01*
X736721Y30491D01*
X736785Y30178D01*
X736842Y29863D01*
X736892Y29547D01*
X736934Y29230D01*
X736968Y28912D01*
X736995Y28594D01*
X737014Y28274D01*
X737025Y27955D01*
X737029Y27635D01*
X727998Y27635D02*
X728002Y27315D01*
X728013Y26996D01*
X728032Y26676D01*
X728059Y26358D01*
X728093Y26040D01*
X728135Y25723D01*
X728185Y25407D01*
X728242Y25092D01*
X728306Y24779D01*
X728378Y24467D01*
X728457Y24157D01*
X728544Y23850D01*
X728638Y23544D01*
X728739Y23241D01*
X728848Y22940D01*
X728963Y22642D01*
X729086Y22346D01*
X729216Y22054D01*
X729353Y21765D01*
X729392Y21657D01*
X729435Y21550D01*
X729481Y21445D01*
X729532Y21341D01*
X729585Y21239D01*
X729642Y21139D01*
X729703Y21041D01*
X729767Y20946D01*
X729834Y20852D01*
X729905Y20761D01*
X729978Y20672D01*
X730055Y20586D01*
X730134Y20503D01*
X730216Y20422D01*
X730301Y20344D01*
X730389Y20270D01*
X730479Y20198D01*
X730572Y20129D01*
X730666Y20064D01*
X730763Y20002D01*
X730863Y19944D01*
X730964Y19888D01*
X731066Y19837D01*
X731171Y19789D01*
X731277Y19744D01*
X731385Y19703D01*
X731494Y19666D01*
X731604Y19633D01*
X731716Y19604D01*
X731828Y19578D01*
X731941Y19556D01*
X732055Y19539D01*
X732169Y19525D01*
X732284Y19515D01*
X732399Y19509D01*
X732514Y19507D01*
X735674Y21765D02*
X735811Y22054D01*
X735941Y22346D01*
X736064Y22642D01*
X736179Y22940D01*
X736288Y23241D01*
X736389Y23544D01*
X736483Y23850D01*
X736570Y24157D01*
X736649Y24467D01*
X736721Y24779D01*
X736785Y25092D01*
X736842Y25407D01*
X736892Y25723D01*
X736934Y26040D01*
X736968Y26358D01*
X736995Y26676D01*
X737014Y26996D01*
X737025Y27315D01*
X737029Y27635D01*
X735675Y21765D02*
X735636Y21657D01*
X735593Y21550D01*
X735547Y21445D01*
X735496Y21341D01*
X735443Y21239D01*
X735386Y21139D01*
X735325Y21041D01*
X735261Y20946D01*
X735194Y20852D01*
X735123Y20761D01*
X735050Y20672D01*
X734973Y20586D01*
X734894Y20503D01*
X734812Y20422D01*
X734727Y20344D01*
X734639Y20270D01*
X734549Y20198D01*
X734456Y20129D01*
X734362Y20064D01*
X734265Y20002D01*
X734165Y19944D01*
X734064Y19888D01*
X733961Y19837D01*
X733857Y19789D01*
X733751Y19744D01*
X733643Y19703D01*
X733534Y19666D01*
X733424Y19633D01*
X733312Y19604D01*
X733200Y19578D01*
X733087Y19556D01*
X732973Y19539D01*
X732859Y19525D01*
X732744Y19515D01*
X732629Y19509D01*
X732514Y19507D01*
X728901Y23119D02*
X736126Y32151D01*
D13*
X404364Y143869D02*
X404364Y145094D01*
X404364Y143869D02*
X404362Y143800D01*
X404356Y143732D01*
X404347Y143664D01*
X404333Y143596D01*
X404316Y143530D01*
X404295Y143464D01*
X404271Y143400D01*
X404243Y143338D01*
X404211Y143276D01*
X404176Y143217D01*
X404138Y143160D01*
X404097Y143105D01*
X404052Y143053D01*
X404005Y143003D01*
X403955Y142956D01*
X403903Y142911D01*
X403848Y142870D01*
X403791Y142832D01*
X403732Y142797D01*
X403671Y142765D01*
X403608Y142737D01*
X403544Y142713D01*
X403478Y142692D01*
X403412Y142675D01*
X403344Y142661D01*
X403276Y142652D01*
X403208Y142646D01*
X403139Y142644D01*
X400076Y142644D01*
X400007Y142646D01*
X399939Y142652D01*
X399871Y142661D01*
X399803Y142675D01*
X399737Y142692D01*
X399671Y142713D01*
X399607Y142737D01*
X399545Y142765D01*
X399483Y142797D01*
X399424Y142832D01*
X399367Y142870D01*
X399312Y142911D01*
X399260Y142956D01*
X399210Y143003D01*
X399163Y143053D01*
X399118Y143105D01*
X399077Y143160D01*
X399039Y143217D01*
X399004Y143276D01*
X398972Y143337D01*
X398944Y143400D01*
X398920Y143464D01*
X398899Y143530D01*
X398882Y143596D01*
X398868Y143664D01*
X398859Y143732D01*
X398853Y143800D01*
X398851Y143869D01*
X398851Y145094D01*
X400076Y147176D02*
X398851Y148707D01*
X404364Y148707D01*
X404364Y147176D02*
X404364Y150239D01*
D14*
X409500Y158300D02*
X409500Y161300D01*
X418500Y161300D02*
X418500Y158300D01*
X907600Y151000D02*
X907600Y181000D01*
X921600Y181000D02*
X921600Y153300D01*
D15*
X901973Y157427D02*
X898163Y157427D01*
X898163Y158485D01*
X898165Y158549D01*
X898171Y158613D01*
X898180Y158676D01*
X898194Y158738D01*
X898211Y158800D01*
X898232Y158860D01*
X898256Y158919D01*
X898284Y158977D01*
X898316Y159032D01*
X898350Y159086D01*
X898388Y159137D01*
X898429Y159187D01*
X898473Y159233D01*
X898519Y159277D01*
X898569Y159318D01*
X898620Y159356D01*
X898674Y159390D01*
X898729Y159422D01*
X898787Y159450D01*
X898846Y159474D01*
X898906Y159495D01*
X898968Y159512D01*
X899030Y159526D01*
X899094Y159535D01*
X899157Y159541D01*
X899221Y159543D01*
X899221Y159544D02*
X900915Y159544D01*
X900915Y159543D02*
X900979Y159541D01*
X901043Y159535D01*
X901106Y159526D01*
X901168Y159512D01*
X901230Y159495D01*
X901290Y159474D01*
X901349Y159450D01*
X901407Y159422D01*
X901462Y159390D01*
X901516Y159356D01*
X901567Y159318D01*
X901617Y159277D01*
X901663Y159233D01*
X901707Y159187D01*
X901748Y159137D01*
X901786Y159086D01*
X901820Y159032D01*
X901852Y158977D01*
X901880Y158919D01*
X901904Y158860D01*
X901925Y158800D01*
X901942Y158738D01*
X901956Y158676D01*
X901965Y158613D01*
X901971Y158549D01*
X901973Y158485D01*
X901973Y157427D01*
X899010Y161207D02*
X898163Y162265D01*
X901973Y162265D01*
X901973Y161207D02*
X901973Y163323D01*
D14*
X907600Y181000D02*
X908800Y181000D01*
X920300Y181000D02*
X921600Y181000D01*
X921600Y153200D02*
X921600Y152400D01*
X921500Y152300D02*
X920600Y151000D01*
X918300Y161100D02*
X911100Y161100D01*
X914800Y162900D02*
X918300Y161100D01*
X914800Y162900D02*
X911100Y161100D01*
X908700Y151000D02*
X907600Y151000D01*
X920300Y151000D02*
X920400Y151000D01*
D13*
X471471Y159922D02*
X471471Y164423D01*
X472722Y164423D01*
X472791Y164421D01*
X472860Y164415D01*
X472928Y164406D01*
X472995Y164393D01*
X473062Y164376D01*
X473128Y164355D01*
X473192Y164331D01*
X473255Y164303D01*
X473317Y164272D01*
X473377Y164238D01*
X473434Y164200D01*
X473490Y164159D01*
X473543Y164116D01*
X473594Y164069D01*
X473642Y164020D01*
X473687Y163968D01*
X473729Y163913D01*
X473768Y163857D01*
X473805Y163798D01*
X473837Y163737D01*
X473867Y163675D01*
X473893Y163611D01*
X473915Y163546D01*
X473934Y163480D01*
X473949Y163413D01*
X473960Y163345D01*
X473968Y163276D01*
X473972Y163207D01*
X473972Y163139D01*
X473968Y163070D01*
X473960Y163001D01*
X473949Y162933D01*
X473934Y162866D01*
X473915Y162800D01*
X473893Y162735D01*
X473867Y162671D01*
X473837Y162609D01*
X473805Y162548D01*
X473768Y162489D01*
X473729Y162433D01*
X473687Y162378D01*
X473642Y162326D01*
X473594Y162277D01*
X473543Y162230D01*
X473490Y162187D01*
X473434Y162146D01*
X473377Y162108D01*
X473317Y162074D01*
X473255Y162043D01*
X473192Y162015D01*
X473128Y161991D01*
X473062Y161970D01*
X472995Y161953D01*
X472928Y161940D01*
X472860Y161931D01*
X472791Y161925D01*
X472722Y161923D01*
X472722Y161922D02*
X471471Y161922D01*
X472972Y161922D02*
X473972Y159922D01*
X475947Y163423D02*
X477197Y164423D01*
X477197Y159922D01*
X475947Y159922D02*
X478448Y159922D01*
D16*
X454350Y153000D02*
X454352Y153031D01*
X454358Y153062D01*
X454368Y153092D01*
X454381Y153120D01*
X454398Y153147D01*
X454418Y153171D01*
X454441Y153193D01*
X454466Y153211D01*
X454494Y153226D01*
X454523Y153238D01*
X454553Y153246D01*
X454584Y153250D01*
X454616Y153250D01*
X454647Y153246D01*
X454677Y153238D01*
X454706Y153226D01*
X454734Y153211D01*
X454759Y153193D01*
X454782Y153171D01*
X454802Y153147D01*
X454819Y153120D01*
X454832Y153092D01*
X454842Y153062D01*
X454848Y153031D01*
X454850Y153000D01*
X454848Y152969D01*
X454842Y152938D01*
X454832Y152908D01*
X454819Y152880D01*
X454802Y152853D01*
X454782Y152829D01*
X454759Y152807D01*
X454734Y152789D01*
X454706Y152774D01*
X454677Y152762D01*
X454647Y152754D01*
X454616Y152750D01*
X454584Y152750D01*
X454553Y152754D01*
X454523Y152762D01*
X454494Y152774D01*
X454466Y152789D01*
X454441Y152807D01*
X454418Y152829D01*
X454398Y152853D01*
X454381Y152880D01*
X454368Y152908D01*
X454358Y152938D01*
X454352Y152969D01*
X454350Y153000D01*
D15*
X437923Y150724D02*
X435464Y150724D01*
X437923Y150724D02*
X437984Y150726D01*
X438044Y150732D01*
X438104Y150741D01*
X438163Y150755D01*
X438221Y150772D01*
X438278Y150793D01*
X438333Y150818D01*
X438387Y150846D01*
X438439Y150877D01*
X438489Y150912D01*
X438536Y150950D01*
X438581Y150990D01*
X438623Y151034D01*
X438663Y151080D01*
X438699Y151129D01*
X438732Y151180D01*
X438762Y151232D01*
X438788Y151287D01*
X438811Y151343D01*
X438830Y151401D01*
X438845Y151459D01*
X438857Y151519D01*
X438865Y151579D01*
X438869Y151640D01*
X438869Y151700D01*
X438865Y151761D01*
X438857Y151821D01*
X438845Y151881D01*
X438830Y151939D01*
X438811Y151997D01*
X438788Y152053D01*
X438762Y152108D01*
X438732Y152160D01*
X438699Y152211D01*
X438663Y152260D01*
X438623Y152306D01*
X438581Y152350D01*
X438536Y152390D01*
X438489Y152428D01*
X438439Y152463D01*
X438387Y152494D01*
X438333Y152522D01*
X438278Y152547D01*
X438221Y152568D01*
X438163Y152585D01*
X438104Y152599D01*
X438044Y152608D01*
X437984Y152614D01*
X437923Y152616D01*
X437923Y152615D02*
X435464Y152615D01*
X435464Y154853D02*
X438869Y154853D01*
X437167Y154853D02*
X436883Y154380D01*
X436882Y154380D02*
X436857Y154341D01*
X436827Y154304D01*
X436795Y154269D01*
X436760Y154238D01*
X436723Y154209D01*
X436683Y154183D01*
X436642Y154161D01*
X436598Y154143D01*
X436554Y154128D01*
X436508Y154117D01*
X436461Y154110D01*
X436414Y154106D01*
X436367Y154107D01*
X436320Y154111D01*
X436274Y154120D01*
X436228Y154132D01*
X436184Y154148D01*
X436141Y154168D01*
X436100Y154191D01*
X436061Y154217D01*
X436024Y154247D01*
X435990Y154280D01*
X435959Y154315D01*
X435931Y154353D01*
X435906Y154393D01*
X435885Y154435D01*
X435867Y154478D01*
X435853Y154523D01*
X435842Y154569D01*
X435843Y154570D02*
X435832Y154641D01*
X435824Y154712D01*
X435820Y154784D01*
X435819Y154856D01*
X435822Y154928D01*
X435828Y155000D01*
X435837Y155071D01*
X435850Y155142D01*
X435866Y155212D01*
X435886Y155282D01*
X435909Y155350D01*
X435935Y155417D01*
X435964Y155483D01*
X435997Y155547D01*
X436033Y155610D01*
X437167Y154853D02*
X437451Y155326D01*
X437476Y155365D01*
X437506Y155402D01*
X437538Y155437D01*
X437573Y155468D01*
X437610Y155497D01*
X437650Y155523D01*
X437691Y155545D01*
X437735Y155563D01*
X437779Y155578D01*
X437825Y155589D01*
X437872Y155596D01*
X437919Y155600D01*
X437966Y155599D01*
X438013Y155595D01*
X438059Y155586D01*
X438105Y155574D01*
X438149Y155558D01*
X438192Y155538D01*
X438233Y155515D01*
X438272Y155489D01*
X438309Y155459D01*
X438343Y155426D01*
X438374Y155391D01*
X438402Y155353D01*
X438427Y155313D01*
X438448Y155271D01*
X438466Y155227D01*
X438480Y155183D01*
X438491Y155137D01*
X438492Y155136D02*
X438503Y155065D01*
X438511Y154994D01*
X438515Y154922D01*
X438516Y154850D01*
X438513Y154778D01*
X438507Y154706D01*
X438498Y154634D01*
X438485Y154563D01*
X438469Y154493D01*
X438449Y154424D01*
X438426Y154356D01*
X438400Y154288D01*
X438370Y154223D01*
X438338Y154158D01*
X438302Y154096D01*
X438869Y156981D02*
X438869Y157927D01*
X438867Y157988D01*
X438861Y158048D01*
X438852Y158108D01*
X438838Y158167D01*
X438821Y158225D01*
X438800Y158282D01*
X438775Y158337D01*
X438747Y158391D01*
X438716Y158443D01*
X438681Y158493D01*
X438643Y158540D01*
X438603Y158585D01*
X438559Y158627D01*
X438513Y158667D01*
X438464Y158703D01*
X438413Y158736D01*
X438361Y158766D01*
X438306Y158792D01*
X438250Y158815D01*
X438192Y158834D01*
X438134Y158849D01*
X438074Y158861D01*
X438014Y158869D01*
X437953Y158873D01*
X437893Y158873D01*
X437832Y158869D01*
X437772Y158861D01*
X437712Y158849D01*
X437654Y158834D01*
X437596Y158815D01*
X437540Y158792D01*
X437485Y158766D01*
X437433Y158736D01*
X437382Y158703D01*
X437333Y158667D01*
X437287Y158627D01*
X437243Y158585D01*
X437203Y158540D01*
X437165Y158493D01*
X437130Y158443D01*
X437099Y158391D01*
X437071Y158337D01*
X437046Y158282D01*
X437025Y158225D01*
X437008Y158167D01*
X436994Y158108D01*
X436985Y158048D01*
X436979Y157988D01*
X436977Y157927D01*
X435464Y158116D02*
X435464Y156981D01*
X435464Y158116D02*
X435466Y158170D01*
X435472Y158224D01*
X435481Y158277D01*
X435495Y158329D01*
X435512Y158381D01*
X435532Y158430D01*
X435557Y158479D01*
X435584Y158525D01*
X435615Y158570D01*
X435649Y158612D01*
X435686Y158651D01*
X435725Y158688D01*
X435767Y158722D01*
X435812Y158753D01*
X435858Y158780D01*
X435907Y158805D01*
X435956Y158825D01*
X436008Y158842D01*
X436060Y158856D01*
X436113Y158865D01*
X436167Y158871D01*
X436221Y158873D01*
X436275Y158871D01*
X436329Y158865D01*
X436382Y158856D01*
X436434Y158842D01*
X436486Y158825D01*
X436535Y158805D01*
X436584Y158780D01*
X436630Y158753D01*
X436675Y158722D01*
X436717Y158688D01*
X436756Y158651D01*
X436793Y158612D01*
X436827Y158570D01*
X436858Y158525D01*
X436885Y158479D01*
X436910Y158430D01*
X436930Y158381D01*
X436947Y158329D01*
X436961Y158277D01*
X436970Y158224D01*
X436976Y158170D01*
X436978Y158116D01*
X436978Y157359D01*
M02*
