G04 EAGLE Gerber X2 export*
%TF.Part,Single*%
%TF.FileFunction,Copper,L1,Top,Mixed*%
%TF.FilePolarity,Positive*%
%TF.GenerationSoftware,Autodesk,EAGLE,8.6.3*%
%TF.CreationDate,2019-05-08T22:38:58Z*%
G75*
%MOMM*%
%FSLAX34Y34*%
%LPD*%
%AMOC8*
5,1,8,0,0,1.08239X$1,22.5*%
G01*
%ADD10C,0.152400*%
%ADD11C,0.076200*%
%ADD12C,0.286200*%
%ADD13R,1.100000X1.250000*%
%ADD14R,0.600000X0.400000*%
%ADD15R,0.300000X0.400000*%
%ADD16R,0.889000X1.625600*%
%ADD17R,3.175000X1.625600*%
%ADD18C,0.406400*%
%ADD19C,2.540000*%


D10*
X430568Y50018D02*
X430568Y33762D01*
X428762Y33762D02*
X432374Y33762D01*
X432374Y50018D02*
X428762Y50018D01*
X439079Y50018D02*
X439079Y33762D01*
X448110Y33762D02*
X439079Y50018D01*
X448110Y50018D02*
X448110Y33762D01*
X463707Y40084D02*
X474544Y40084D01*
X469125Y45502D02*
X469125Y34665D01*
X133568Y35762D02*
X133568Y52018D01*
X131762Y35762D02*
X135374Y35762D01*
X135374Y52018D02*
X131762Y52018D01*
X142079Y52018D02*
X142079Y35762D01*
X151110Y35762D02*
X142079Y52018D01*
X151110Y52018D02*
X151110Y35762D01*
X166707Y42084D02*
X177544Y42084D01*
D11*
X72602Y122602D02*
X71036Y122602D01*
X72602Y122602D02*
X72602Y117381D01*
X69469Y117381D01*
X69380Y117383D01*
X69292Y117389D01*
X69204Y117398D01*
X69116Y117411D01*
X69029Y117428D01*
X68943Y117448D01*
X68858Y117473D01*
X68773Y117500D01*
X68690Y117532D01*
X68609Y117566D01*
X68529Y117605D01*
X68451Y117646D01*
X68374Y117691D01*
X68300Y117739D01*
X68227Y117790D01*
X68157Y117844D01*
X68090Y117902D01*
X68024Y117962D01*
X67962Y118024D01*
X67902Y118090D01*
X67844Y118157D01*
X67790Y118227D01*
X67739Y118300D01*
X67691Y118374D01*
X67646Y118451D01*
X67605Y118529D01*
X67566Y118609D01*
X67532Y118690D01*
X67500Y118773D01*
X67473Y118858D01*
X67448Y118943D01*
X67428Y119029D01*
X67411Y119116D01*
X67398Y119204D01*
X67389Y119292D01*
X67383Y119380D01*
X67381Y119469D01*
X67381Y124691D01*
X67383Y124782D01*
X67389Y124873D01*
X67399Y124964D01*
X67413Y125054D01*
X67430Y125143D01*
X67452Y125231D01*
X67478Y125319D01*
X67507Y125405D01*
X67540Y125490D01*
X67577Y125573D01*
X67617Y125655D01*
X67661Y125735D01*
X67708Y125813D01*
X67759Y125889D01*
X67812Y125962D01*
X67869Y126033D01*
X67930Y126102D01*
X67993Y126167D01*
X68058Y126230D01*
X68127Y126290D01*
X68198Y126348D01*
X68271Y126401D01*
X68347Y126452D01*
X68425Y126499D01*
X68505Y126543D01*
X68587Y126583D01*
X68670Y126620D01*
X68755Y126653D01*
X68841Y126682D01*
X68929Y126708D01*
X69017Y126730D01*
X69106Y126747D01*
X69196Y126761D01*
X69287Y126771D01*
X69378Y126777D01*
X69469Y126779D01*
X72602Y126779D01*
X77135Y126779D02*
X77135Y117381D01*
X82356Y117381D02*
X77135Y126779D01*
X82356Y126779D02*
X82356Y117381D01*
X86888Y117381D02*
X86888Y126779D01*
X89499Y126779D01*
X89599Y126777D01*
X89699Y126771D01*
X89798Y126762D01*
X89898Y126748D01*
X89996Y126731D01*
X90094Y126710D01*
X90191Y126686D01*
X90287Y126657D01*
X90382Y126625D01*
X90475Y126590D01*
X90567Y126551D01*
X90658Y126508D01*
X90746Y126462D01*
X90833Y126412D01*
X90918Y126360D01*
X91001Y126304D01*
X91082Y126245D01*
X91160Y126182D01*
X91236Y126117D01*
X91310Y126049D01*
X91380Y125979D01*
X91448Y125905D01*
X91513Y125829D01*
X91576Y125751D01*
X91635Y125670D01*
X91691Y125587D01*
X91743Y125502D01*
X91793Y125415D01*
X91839Y125327D01*
X91882Y125236D01*
X91921Y125144D01*
X91956Y125051D01*
X91988Y124956D01*
X92017Y124860D01*
X92041Y124763D01*
X92062Y124665D01*
X92079Y124567D01*
X92093Y124467D01*
X92102Y124368D01*
X92108Y124268D01*
X92110Y124168D01*
X92109Y124168D02*
X92109Y119992D01*
X92110Y119992D02*
X92108Y119892D01*
X92102Y119792D01*
X92093Y119693D01*
X92079Y119593D01*
X92062Y119495D01*
X92041Y119397D01*
X92017Y119300D01*
X91988Y119204D01*
X91956Y119109D01*
X91921Y119016D01*
X91882Y118924D01*
X91839Y118833D01*
X91793Y118745D01*
X91743Y118658D01*
X91691Y118573D01*
X91635Y118490D01*
X91576Y118409D01*
X91513Y118331D01*
X91448Y118255D01*
X91380Y118181D01*
X91310Y118111D01*
X91236Y118043D01*
X91160Y117978D01*
X91082Y117915D01*
X91001Y117856D01*
X90918Y117800D01*
X90833Y117748D01*
X90746Y117698D01*
X90658Y117652D01*
X90567Y117609D01*
X90475Y117570D01*
X90382Y117535D01*
X90287Y117503D01*
X90191Y117474D01*
X90094Y117450D01*
X89996Y117429D01*
X89898Y117412D01*
X89798Y117398D01*
X89699Y117389D01*
X89599Y117383D01*
X89499Y117381D01*
X86888Y117381D01*
X63381Y168381D02*
X63381Y177779D01*
X63381Y168381D02*
X67558Y168381D01*
X71306Y168381D02*
X75483Y168381D01*
X71306Y168381D02*
X71306Y177779D01*
X75483Y177779D01*
X74438Y173602D02*
X71306Y173602D01*
X79213Y177779D02*
X79213Y168381D01*
X79213Y177779D02*
X81824Y177779D01*
X81924Y177777D01*
X82024Y177771D01*
X82123Y177762D01*
X82223Y177748D01*
X82321Y177731D01*
X82419Y177710D01*
X82516Y177686D01*
X82612Y177657D01*
X82707Y177625D01*
X82800Y177590D01*
X82892Y177551D01*
X82983Y177508D01*
X83071Y177462D01*
X83158Y177412D01*
X83243Y177360D01*
X83326Y177304D01*
X83407Y177245D01*
X83485Y177182D01*
X83561Y177117D01*
X83635Y177049D01*
X83705Y176979D01*
X83773Y176905D01*
X83838Y176829D01*
X83901Y176751D01*
X83960Y176670D01*
X84016Y176587D01*
X84068Y176502D01*
X84118Y176415D01*
X84164Y176327D01*
X84207Y176236D01*
X84246Y176144D01*
X84281Y176051D01*
X84313Y175956D01*
X84342Y175860D01*
X84366Y175763D01*
X84387Y175665D01*
X84404Y175567D01*
X84418Y175467D01*
X84427Y175368D01*
X84433Y175268D01*
X84435Y175168D01*
X84434Y175168D02*
X84434Y170992D01*
X84435Y170992D02*
X84433Y170892D01*
X84427Y170792D01*
X84418Y170693D01*
X84404Y170593D01*
X84387Y170495D01*
X84366Y170397D01*
X84342Y170300D01*
X84313Y170204D01*
X84281Y170109D01*
X84246Y170016D01*
X84207Y169924D01*
X84164Y169833D01*
X84118Y169745D01*
X84068Y169658D01*
X84016Y169573D01*
X83960Y169490D01*
X83901Y169409D01*
X83838Y169331D01*
X83773Y169255D01*
X83705Y169181D01*
X83635Y169111D01*
X83561Y169043D01*
X83485Y168978D01*
X83407Y168915D01*
X83326Y168856D01*
X83243Y168800D01*
X83158Y168748D01*
X83071Y168698D01*
X82983Y168652D01*
X82892Y168609D01*
X82800Y168570D01*
X82707Y168535D01*
X82612Y168503D01*
X82516Y168474D01*
X82419Y168450D01*
X82321Y168429D01*
X82223Y168412D01*
X82123Y168398D01*
X82024Y168389D01*
X81924Y168383D01*
X81824Y168381D01*
X79213Y168381D01*
X93626Y172036D02*
X99891Y172036D01*
X96759Y175168D02*
X96759Y168903D01*
D12*
X315031Y113169D02*
X315031Y110031D01*
X315031Y113169D02*
X317569Y113169D01*
X317569Y110031D01*
X315031Y110031D01*
X315031Y112892D02*
X317569Y112892D01*
X306431Y113169D02*
X306431Y110031D01*
X306431Y113169D02*
X308969Y113169D01*
X308969Y110031D01*
X306431Y110031D01*
X306431Y112892D02*
X308969Y112892D01*
X316531Y89169D02*
X316531Y86031D01*
X316531Y89169D02*
X319069Y89169D01*
X319069Y86031D01*
X316531Y86031D01*
X316531Y88892D02*
X319069Y88892D01*
X307931Y89169D02*
X307931Y86031D01*
X307931Y89169D02*
X310469Y89169D01*
X310469Y86031D01*
X307931Y86031D01*
X307931Y88892D02*
X310469Y88892D01*
D13*
X222700Y210800D03*
X205700Y210800D03*
D14*
X353200Y96000D03*
X353200Y104000D03*
X268800Y121700D03*
X268800Y113700D03*
D15*
X100900Y151500D03*
X100900Y145500D03*
D16*
X270886Y147996D03*
X294000Y147996D03*
X317114Y147996D03*
D17*
X294000Y212004D03*
D18*
X317800Y87600D02*
X344800Y87600D01*
X353200Y96000D01*
X344800Y87600D02*
X344800Y54200D01*
X345000Y54000D01*
D19*
X344800Y54200D02*
X344800Y38000D01*
X344800Y23060D01*
X345000Y22860D01*
X392000Y22860D01*
X392000Y56000D01*
X346600Y56000D01*
X344800Y54200D01*
X344800Y38000D02*
X378000Y38000D01*
D18*
X309200Y87600D02*
X282400Y87600D01*
X268800Y101200D02*
X268800Y113700D01*
X268800Y101200D02*
X282400Y87600D01*
X284000Y86000D01*
X284000Y55000D01*
D19*
X284000Y22860D01*
X268000Y22860D01*
X268000Y37000D01*
X269000Y38000D01*
X284000Y55000D02*
X225000Y55000D01*
X225000Y22860D01*
X268000Y22860D01*
X268000Y37000D02*
X268000Y40000D01*
X239000Y40000D01*
D18*
X316300Y111600D02*
X316300Y147182D01*
X317114Y147996D01*
X345600Y111600D02*
X353200Y104000D01*
X345600Y111600D02*
X316300Y111600D01*
X307700Y111600D02*
X297600Y121700D01*
X271000Y121700D01*
X268800Y121700D01*
X270886Y121814D02*
X270886Y147996D01*
X270886Y121814D02*
X271000Y121700D01*
X100900Y134100D02*
X100900Y145500D01*
X113300Y121700D02*
X268800Y121700D01*
X113300Y121700D02*
X100900Y134100D01*
X100000Y135000D01*
X79000Y135000D01*
X100900Y151500D02*
X100900Y158900D01*
X152800Y210800D02*
X205700Y210800D01*
X103000Y161000D02*
X100900Y158900D01*
X103000Y161000D02*
X152800Y210800D01*
X103000Y161000D02*
X79000Y161000D01*
X222700Y210800D02*
X255000Y210800D01*
X255000Y176000D01*
X294000Y176000D01*
X294000Y147996D01*
M02*
