G04 EAGLE Gerber X2 export*
%TF.Part,Single*%
%TF.FileFunction,Paste,Top*%
%TF.FilePolarity,Positive*%
%TF.GenerationSoftware,Autodesk,EAGLE,8.6.3*%
%TF.CreationDate,2019-05-08T22:38:58Z*%
G75*
%MOMM*%
%FSLAX34Y34*%
%LPD*%
%AMOC8*
5,1,8,0,0,1.08239X$1,22.5*%
G01*
%ADD10C,0.286200*%
%ADD11R,1.100000X1.250000*%
%ADD12R,0.600000X0.400000*%
%ADD13R,0.300000X0.400000*%
%ADD14R,0.889000X1.625600*%
%ADD15R,3.175000X1.625600*%


D10*
X315031Y110031D02*
X315031Y113169D01*
X317569Y113169D01*
X317569Y110031D01*
X315031Y110031D01*
X315031Y112892D02*
X317569Y112892D01*
X306431Y113169D02*
X306431Y110031D01*
X306431Y113169D02*
X308969Y113169D01*
X308969Y110031D01*
X306431Y110031D01*
X306431Y112892D02*
X308969Y112892D01*
X316531Y89169D02*
X316531Y86031D01*
X316531Y89169D02*
X319069Y89169D01*
X319069Y86031D01*
X316531Y86031D01*
X316531Y88892D02*
X319069Y88892D01*
X307931Y89169D02*
X307931Y86031D01*
X307931Y89169D02*
X310469Y89169D01*
X310469Y86031D01*
X307931Y86031D01*
X307931Y88892D02*
X310469Y88892D01*
D11*
X222700Y210800D03*
X205700Y210800D03*
D12*
X353200Y96000D03*
X353200Y104000D03*
X268800Y121700D03*
X268800Y113700D03*
D13*
X100900Y151500D03*
X100900Y145500D03*
D14*
X270886Y147996D03*
X294000Y147996D03*
X317114Y147996D03*
D15*
X294000Y212004D03*
M02*
