G04 EAGLE Gerber X2 export*
%TF.Part,Single*%
%TF.FileFunction,Soldermask,Top,1*%
%TF.FilePolarity,Negative*%
%TF.GenerationSoftware,Autodesk,EAGLE,8.6.3*%
%TF.CreationDate,2019-05-08T22:38:58Z*%
G75*
%MOMM*%
%FSLAX34Y34*%
%LPD*%
%AMOC8*
5,1,8,0,0,1.08239X$1,22.5*%
G01*
%ADD10C,0.393894*%
%ADD11R,1.303200X1.453200*%
%ADD12R,0.600000X0.400000*%
%ADD13R,0.503200X0.603200*%
%ADD14R,1.092200X1.828800*%
%ADD15R,3.378200X1.828800*%


D10*
X314553Y109553D02*
X314553Y113647D01*
X318047Y113647D01*
X318047Y109553D01*
X314553Y109553D01*
X314553Y113491D02*
X318047Y113491D01*
X305953Y113647D02*
X305953Y109553D01*
X305953Y113647D02*
X309447Y113647D01*
X309447Y109553D01*
X305953Y109553D01*
X305953Y113491D02*
X309447Y113491D01*
X316053Y89647D02*
X316053Y85553D01*
X316053Y89647D02*
X319547Y89647D01*
X319547Y85553D01*
X316053Y85553D01*
X316053Y89491D02*
X319547Y89491D01*
X307453Y89647D02*
X307453Y85553D01*
X307453Y89647D02*
X310947Y89647D01*
X310947Y85553D01*
X307453Y85553D01*
X307453Y89491D02*
X310947Y89491D01*
D11*
X222700Y210800D03*
X205700Y210800D03*
D12*
X353200Y96000D03*
X353200Y104000D03*
X268800Y121700D03*
X268800Y113700D03*
D13*
X100900Y151500D03*
X100900Y145500D03*
D14*
X270886Y147996D03*
X294000Y147996D03*
X317114Y147996D03*
D15*
X294000Y212004D03*
M02*
