G04 EAGLE Gerber X2 export*
%TF.Part,Single*%
%TF.FileFunction,Other,Silk screen CMP*%
%TF.FilePolarity,Positive*%
%TF.GenerationSoftware,Autodesk,EAGLE,8.6.3*%
%TF.CreationDate,2019-06-16T17:30:36Z*%
G75*
%MOMM*%
%FSLAX34Y34*%
%LPD*%
%AMOC8*
5,1,8,0,0,1.08239X$1,22.5*%
G01*
%ADD10C,0.000000*%
%ADD11C,0.050800*%
%ADD12C,0.127000*%
%ADD13C,0.025400*%
%ADD14C,0.101600*%
%ADD15C,0.200000*%


D10*
X-38200Y-1500D02*
X886100Y-2300D01*
X886650Y579650D01*
X-37650Y580450D01*
X-38200Y-1500D01*
D11*
X725522Y320452D02*
X730023Y320452D01*
X725522Y320452D02*
X725522Y321703D01*
X725524Y321772D01*
X725530Y321841D01*
X725539Y321909D01*
X725552Y321976D01*
X725569Y322043D01*
X725590Y322109D01*
X725614Y322173D01*
X725642Y322236D01*
X725673Y322298D01*
X725707Y322358D01*
X725745Y322415D01*
X725786Y322471D01*
X725829Y322524D01*
X725876Y322575D01*
X725925Y322623D01*
X725977Y322668D01*
X726032Y322710D01*
X726088Y322749D01*
X726147Y322786D01*
X726208Y322818D01*
X726270Y322848D01*
X726334Y322874D01*
X726399Y322896D01*
X726465Y322915D01*
X726532Y322930D01*
X726600Y322941D01*
X726669Y322949D01*
X726738Y322953D01*
X726806Y322953D01*
X726875Y322949D01*
X726944Y322941D01*
X727012Y322930D01*
X727079Y322915D01*
X727145Y322896D01*
X727210Y322874D01*
X727274Y322848D01*
X727336Y322818D01*
X727397Y322786D01*
X727456Y322749D01*
X727512Y322710D01*
X727567Y322668D01*
X727619Y322623D01*
X727668Y322575D01*
X727715Y322524D01*
X727758Y322471D01*
X727799Y322415D01*
X727837Y322358D01*
X727871Y322298D01*
X727902Y322236D01*
X727930Y322173D01*
X727954Y322109D01*
X727975Y322043D01*
X727992Y321976D01*
X728005Y321909D01*
X728014Y321841D01*
X728020Y321772D01*
X728022Y321703D01*
X728022Y320452D01*
X728022Y321953D02*
X730023Y322953D01*
X726522Y324928D02*
X725522Y326178D01*
X730023Y326178D01*
X730023Y324928D02*
X730023Y327429D01*
X614114Y295744D02*
X614114Y294519D01*
X614112Y294450D01*
X614106Y294382D01*
X614097Y294314D01*
X614083Y294246D01*
X614066Y294180D01*
X614045Y294114D01*
X614021Y294050D01*
X613993Y293988D01*
X613961Y293926D01*
X613926Y293867D01*
X613888Y293810D01*
X613847Y293755D01*
X613802Y293703D01*
X613755Y293653D01*
X613705Y293606D01*
X613653Y293561D01*
X613598Y293520D01*
X613541Y293482D01*
X613482Y293447D01*
X613421Y293415D01*
X613358Y293387D01*
X613294Y293363D01*
X613228Y293342D01*
X613162Y293325D01*
X613094Y293311D01*
X613026Y293302D01*
X612958Y293296D01*
X612889Y293294D01*
X609826Y293294D01*
X609757Y293296D01*
X609689Y293302D01*
X609621Y293311D01*
X609553Y293325D01*
X609487Y293342D01*
X609421Y293363D01*
X609357Y293387D01*
X609295Y293415D01*
X609233Y293447D01*
X609174Y293482D01*
X609117Y293520D01*
X609062Y293561D01*
X609010Y293606D01*
X608960Y293653D01*
X608913Y293703D01*
X608868Y293755D01*
X608827Y293810D01*
X608789Y293867D01*
X608754Y293926D01*
X608722Y293987D01*
X608694Y294050D01*
X608670Y294114D01*
X608649Y294180D01*
X608632Y294246D01*
X608618Y294314D01*
X608609Y294382D01*
X608603Y294450D01*
X608601Y294519D01*
X608601Y295744D01*
X609826Y297826D02*
X608601Y299357D01*
X614114Y299357D01*
X614114Y297826D02*
X614114Y300889D01*
D12*
X619250Y308950D02*
X619250Y311950D01*
X628250Y311950D02*
X628250Y308950D01*
X796650Y309150D02*
X826650Y309150D01*
X826650Y295150D02*
X798950Y295150D01*
D13*
X803077Y314777D02*
X803077Y318587D01*
X804135Y318587D01*
X804199Y318585D01*
X804263Y318579D01*
X804326Y318570D01*
X804388Y318556D01*
X804450Y318539D01*
X804510Y318518D01*
X804569Y318494D01*
X804627Y318466D01*
X804682Y318434D01*
X804736Y318400D01*
X804787Y318362D01*
X804837Y318321D01*
X804883Y318277D01*
X804927Y318231D01*
X804968Y318181D01*
X805006Y318130D01*
X805040Y318076D01*
X805072Y318021D01*
X805100Y317963D01*
X805124Y317904D01*
X805145Y317844D01*
X805162Y317782D01*
X805176Y317720D01*
X805185Y317657D01*
X805191Y317593D01*
X805193Y317529D01*
X805194Y317529D02*
X805194Y315835D01*
X805193Y315835D02*
X805191Y315771D01*
X805185Y315707D01*
X805176Y315644D01*
X805162Y315582D01*
X805145Y315520D01*
X805124Y315460D01*
X805100Y315401D01*
X805072Y315343D01*
X805040Y315288D01*
X805006Y315234D01*
X804968Y315183D01*
X804927Y315133D01*
X804883Y315087D01*
X804837Y315043D01*
X804787Y315002D01*
X804736Y314964D01*
X804682Y314930D01*
X804627Y314898D01*
X804569Y314870D01*
X804510Y314846D01*
X804450Y314825D01*
X804388Y314808D01*
X804326Y314794D01*
X804263Y314785D01*
X804199Y314779D01*
X804135Y314777D01*
X803077Y314777D01*
X806857Y317740D02*
X807915Y318587D01*
X807915Y314777D01*
X806857Y314777D02*
X808973Y314777D01*
D12*
X826650Y309150D02*
X826650Y307950D01*
X826650Y296450D02*
X826650Y295150D01*
X798850Y295150D02*
X798050Y295150D01*
X797950Y295250D02*
X796650Y296150D01*
X806750Y298450D02*
X806750Y305650D01*
X808550Y301950D02*
X806750Y298450D01*
X808550Y301950D02*
X806750Y305650D01*
X796650Y308050D02*
X796650Y309150D01*
X796650Y296450D02*
X796650Y296350D01*
D14*
X660116Y333558D02*
X660116Y340175D01*
X660116Y333558D02*
X660118Y333458D01*
X660124Y333358D01*
X660134Y333259D01*
X660147Y333160D01*
X660165Y333061D01*
X660186Y332964D01*
X660212Y332867D01*
X660241Y332772D01*
X660273Y332677D01*
X660310Y332584D01*
X660350Y332493D01*
X660393Y332403D01*
X660440Y332314D01*
X660491Y332228D01*
X660545Y332144D01*
X660602Y332062D01*
X660662Y331982D01*
X660726Y331905D01*
X660792Y331830D01*
X660861Y331758D01*
X660933Y331689D01*
X661008Y331623D01*
X661085Y331559D01*
X661165Y331499D01*
X661247Y331442D01*
X661331Y331388D01*
X661417Y331337D01*
X661506Y331290D01*
X661596Y331247D01*
X661687Y331207D01*
X661780Y331170D01*
X661875Y331138D01*
X661970Y331109D01*
X662067Y331083D01*
X662164Y331062D01*
X662263Y331044D01*
X662362Y331031D01*
X662461Y331021D01*
X662561Y331015D01*
X662661Y331013D01*
X662761Y331015D01*
X662861Y331021D01*
X662960Y331031D01*
X663059Y331044D01*
X663158Y331062D01*
X663255Y331083D01*
X663352Y331109D01*
X663447Y331138D01*
X663542Y331170D01*
X663635Y331207D01*
X663726Y331247D01*
X663816Y331290D01*
X663905Y331337D01*
X663991Y331388D01*
X664075Y331442D01*
X664157Y331499D01*
X664237Y331559D01*
X664314Y331623D01*
X664389Y331689D01*
X664461Y331758D01*
X664530Y331830D01*
X664596Y331905D01*
X664660Y331982D01*
X664720Y332062D01*
X664777Y332144D01*
X664831Y332228D01*
X664882Y332314D01*
X664929Y332403D01*
X664972Y332493D01*
X665012Y332584D01*
X665049Y332677D01*
X665081Y332772D01*
X665110Y332867D01*
X665136Y332964D01*
X665157Y333061D01*
X665175Y333160D01*
X665188Y333259D01*
X665198Y333358D01*
X665204Y333458D01*
X665206Y333558D01*
X665206Y340175D01*
X671515Y340175D02*
X671515Y331014D01*
X671515Y335594D02*
X670243Y336358D01*
X670178Y336399D01*
X670116Y336443D01*
X670055Y336490D01*
X669998Y336541D01*
X669943Y336594D01*
X669890Y336650D01*
X669841Y336708D01*
X669794Y336769D01*
X669751Y336832D01*
X669711Y336898D01*
X669674Y336965D01*
X669640Y337034D01*
X669611Y337104D01*
X669584Y337176D01*
X669562Y337250D01*
X669543Y337324D01*
X669528Y337399D01*
X669516Y337475D01*
X669509Y337551D01*
X669505Y337628D01*
X669506Y337704D01*
X669510Y337781D01*
X669518Y337857D01*
X669530Y337933D01*
X669545Y338008D01*
X669564Y338082D01*
X669588Y338155D01*
X669614Y338227D01*
X669645Y338297D01*
X669678Y338366D01*
X669716Y338433D01*
X669756Y338498D01*
X669800Y338561D01*
X669847Y338622D01*
X669897Y338680D01*
X669950Y338735D01*
X670005Y338788D01*
X670063Y338838D01*
X670124Y338885D01*
X670187Y338929D01*
X670252Y338970D01*
X670319Y339007D01*
X670387Y339041D01*
X670458Y339071D01*
X670530Y339098D01*
X670603Y339121D01*
X670677Y339141D01*
X670752Y339156D01*
X670877Y339177D01*
X671002Y339194D01*
X671128Y339207D01*
X671254Y339216D01*
X671380Y339221D01*
X671507Y339222D01*
X671633Y339219D01*
X671759Y339212D01*
X671885Y339201D01*
X672011Y339186D01*
X672136Y339168D01*
X672260Y339145D01*
X672384Y339119D01*
X672507Y339088D01*
X672628Y339054D01*
X672749Y339016D01*
X672868Y338974D01*
X672986Y338929D01*
X673103Y338880D01*
X673218Y338827D01*
X673331Y338771D01*
X673442Y338711D01*
X673551Y338647D01*
X671515Y335594D02*
X672788Y334831D01*
X672788Y334830D02*
X672853Y334789D01*
X672915Y334745D01*
X672976Y334698D01*
X673033Y334647D01*
X673088Y334594D01*
X673141Y334538D01*
X673190Y334480D01*
X673237Y334419D01*
X673280Y334356D01*
X673320Y334290D01*
X673357Y334223D01*
X673391Y334154D01*
X673420Y334083D01*
X673447Y334011D01*
X673469Y333938D01*
X673488Y333864D01*
X673503Y333789D01*
X673515Y333713D01*
X673522Y333637D01*
X673526Y333560D01*
X673525Y333484D01*
X673521Y333407D01*
X673513Y333331D01*
X673501Y333255D01*
X673486Y333180D01*
X673467Y333106D01*
X673443Y333033D01*
X673417Y332961D01*
X673386Y332891D01*
X673353Y332822D01*
X673315Y332755D01*
X673275Y332690D01*
X673231Y332627D01*
X673184Y332566D01*
X673134Y332508D01*
X673081Y332453D01*
X673026Y332400D01*
X672968Y332350D01*
X672907Y332303D01*
X672844Y332259D01*
X672779Y332218D01*
X672712Y332181D01*
X672644Y332147D01*
X672573Y332117D01*
X672501Y332090D01*
X672428Y332067D01*
X672354Y332047D01*
X672279Y332032D01*
X672154Y332011D01*
X672029Y331994D01*
X671903Y331981D01*
X671777Y331972D01*
X671651Y331967D01*
X671524Y331966D01*
X671398Y331969D01*
X671272Y331976D01*
X671146Y331987D01*
X671020Y332002D01*
X670895Y332020D01*
X670771Y332043D01*
X670647Y332069D01*
X670524Y332100D01*
X670403Y332134D01*
X670282Y332172D01*
X670163Y332214D01*
X670045Y332259D01*
X669928Y332308D01*
X669813Y332361D01*
X669700Y332417D01*
X669589Y332477D01*
X669479Y332541D01*
X680319Y340174D02*
X680414Y340172D01*
X680508Y340166D01*
X680602Y340156D01*
X680696Y340143D01*
X680789Y340125D01*
X680881Y340104D01*
X680972Y340079D01*
X681063Y340050D01*
X681151Y340017D01*
X681239Y339981D01*
X681325Y339941D01*
X681409Y339898D01*
X681491Y339851D01*
X681572Y339801D01*
X681650Y339748D01*
X681726Y339691D01*
X681799Y339631D01*
X681870Y339569D01*
X681938Y339503D01*
X682004Y339435D01*
X682066Y339364D01*
X682126Y339291D01*
X682183Y339215D01*
X682236Y339137D01*
X682286Y339056D01*
X682333Y338974D01*
X682376Y338890D01*
X682416Y338804D01*
X682452Y338716D01*
X682485Y338628D01*
X682514Y338537D01*
X682539Y338446D01*
X682560Y338354D01*
X682578Y338261D01*
X682591Y338167D01*
X682601Y338073D01*
X682607Y337979D01*
X682609Y337884D01*
X680319Y340174D02*
X680213Y340172D01*
X680108Y340166D01*
X680002Y340157D01*
X679898Y340144D01*
X679793Y340127D01*
X679690Y340106D01*
X679587Y340081D01*
X679485Y340053D01*
X679384Y340022D01*
X679284Y339986D01*
X679186Y339947D01*
X679089Y339905D01*
X678994Y339859D01*
X678901Y339810D01*
X678809Y339757D01*
X678719Y339701D01*
X678632Y339642D01*
X678546Y339580D01*
X678463Y339515D01*
X678382Y339446D01*
X678304Y339375D01*
X678228Y339302D01*
X678155Y339225D01*
X678085Y339146D01*
X678018Y339065D01*
X677953Y338981D01*
X677892Y338895D01*
X677834Y338806D01*
X677779Y338716D01*
X677727Y338624D01*
X677679Y338530D01*
X677634Y338434D01*
X677592Y338337D01*
X677554Y338238D01*
X677520Y338138D01*
X681846Y336103D02*
X681913Y336169D01*
X681978Y336239D01*
X682040Y336310D01*
X682099Y336384D01*
X682155Y336461D01*
X682209Y336539D01*
X682259Y336620D01*
X682306Y336702D01*
X682350Y336786D01*
X682391Y336872D01*
X682428Y336959D01*
X682462Y337047D01*
X682493Y337137D01*
X682520Y337228D01*
X682543Y337320D01*
X682563Y337413D01*
X682580Y337506D01*
X682593Y337600D01*
X682602Y337694D01*
X682607Y337789D01*
X682609Y337884D01*
X681846Y336103D02*
X677520Y331014D01*
X682609Y331014D01*
D12*
X687350Y324250D02*
X672350Y324250D01*
X672350Y294250D02*
X687350Y294250D01*
D15*
X655200Y318750D02*
X655202Y318813D01*
X655208Y318875D01*
X655218Y318937D01*
X655231Y318999D01*
X655249Y319059D01*
X655270Y319118D01*
X655295Y319176D01*
X655324Y319232D01*
X655356Y319286D01*
X655391Y319338D01*
X655429Y319387D01*
X655471Y319435D01*
X655515Y319479D01*
X655563Y319521D01*
X655612Y319559D01*
X655664Y319594D01*
X655718Y319626D01*
X655774Y319655D01*
X655832Y319680D01*
X655891Y319701D01*
X655951Y319719D01*
X656013Y319732D01*
X656075Y319742D01*
X656137Y319748D01*
X656200Y319750D01*
X656263Y319748D01*
X656325Y319742D01*
X656387Y319732D01*
X656449Y319719D01*
X656509Y319701D01*
X656568Y319680D01*
X656626Y319655D01*
X656682Y319626D01*
X656736Y319594D01*
X656788Y319559D01*
X656837Y319521D01*
X656885Y319479D01*
X656929Y319435D01*
X656971Y319387D01*
X657009Y319338D01*
X657044Y319286D01*
X657076Y319232D01*
X657105Y319176D01*
X657130Y319118D01*
X657151Y319059D01*
X657169Y318999D01*
X657182Y318937D01*
X657192Y318875D01*
X657198Y318813D01*
X657200Y318750D01*
X657198Y318687D01*
X657192Y318625D01*
X657182Y318563D01*
X657169Y318501D01*
X657151Y318441D01*
X657130Y318382D01*
X657105Y318324D01*
X657076Y318268D01*
X657044Y318214D01*
X657009Y318162D01*
X656971Y318113D01*
X656929Y318065D01*
X656885Y318021D01*
X656837Y317979D01*
X656788Y317941D01*
X656736Y317906D01*
X656682Y317874D01*
X656626Y317845D01*
X656568Y317820D01*
X656509Y317799D01*
X656449Y317781D01*
X656387Y317768D01*
X656325Y317758D01*
X656263Y317752D01*
X656200Y317750D01*
X656137Y317752D01*
X656075Y317758D01*
X656013Y317768D01*
X655951Y317781D01*
X655891Y317799D01*
X655832Y317820D01*
X655774Y317845D01*
X655718Y317874D01*
X655664Y317906D01*
X655612Y317941D01*
X655563Y317979D01*
X655515Y318021D01*
X655471Y318065D01*
X655429Y318113D01*
X655391Y318162D01*
X655356Y318214D01*
X655324Y318268D01*
X655295Y318324D01*
X655270Y318382D01*
X655249Y318441D01*
X655231Y318501D01*
X655218Y318563D01*
X655208Y318625D01*
X655202Y318687D01*
X655200Y318750D01*
M02*
