G04 EAGLE Gerber X2 export*
%TF.Part,Single*%
%TF.FileFunction,Other,Component side*%
%TF.FilePolarity,Positive*%
%TF.GenerationSoftware,Autodesk,EAGLE,8.6.3*%
%TF.CreationDate,2019-06-16T17:30:36Z*%
G75*
%MOMM*%
%FSLAX34Y34*%
%LPD*%
%AMOC8*
5,1,8,0,0,1.08239X$1,22.5*%
G01*
%ADD10R,1.250000X1.100000*%
%ADD11R,2.500000X1.700000*%
%ADD12R,1.000000X1.100000*%
%ADD13R,1.200000X0.800000*%
%ADD14R,2.000000X0.800000*%
%ADD15R,1.420000X0.580000*%
%ADD16C,0.254000*%
%ADD17C,1.270000*%


D10*
X715900Y318800D03*
X715900Y301800D03*
D11*
X580635Y282899D03*
X620634Y282899D03*
D12*
X623750Y301950D03*
X623750Y318950D03*
D13*
X798950Y302150D03*
D14*
X820450Y302150D03*
D15*
X668400Y318750D03*
X668400Y309250D03*
X668400Y299750D03*
X691300Y299750D03*
X691300Y318750D03*
D16*
X680200Y318750D02*
X668400Y318750D01*
X680200Y318750D02*
X680200Y299900D01*
X669100Y299900D01*
X668400Y299900D01*
X668400Y299750D01*
X623750Y301950D02*
X623750Y286015D01*
X620634Y282899D01*
X625800Y299900D02*
X623750Y301950D01*
X625800Y299900D02*
X668400Y299900D01*
X634150Y318950D02*
X623750Y318950D01*
X634150Y318950D02*
X635250Y318950D01*
X644950Y309250D02*
X668400Y309250D01*
X644950Y309250D02*
X635250Y318950D01*
X820450Y309750D02*
X820450Y302150D01*
X820450Y309750D02*
X812500Y317700D01*
X745050Y317700D01*
X647000Y331800D02*
X634150Y318950D01*
X730950Y331800D02*
X745050Y317700D01*
X730950Y331800D02*
X647000Y331800D01*
X623750Y318950D02*
X622000Y320700D01*
X606250Y320700D01*
D17*
X600400Y320700D01*
X600200Y320500D01*
D16*
X716250Y302150D02*
X798950Y302150D01*
X716250Y302150D02*
X715900Y301800D01*
X563910Y458650D02*
X487710Y534850D01*
X119410Y534850D01*
X43210Y458650D01*
X43210Y103050D01*
X119410Y26850D01*
X475010Y26850D01*
X551210Y103050D01*
X551210Y454840D01*
X483900Y522150D01*
X124490Y522150D01*
X55910Y453570D01*
X55910Y106860D01*
X123220Y39550D01*
X471200Y39550D01*
X538510Y106860D01*
X538510Y449760D01*
X478820Y509450D01*
X129570Y509450D01*
X68610Y448490D01*
X68610Y110670D01*
X127030Y52250D01*
X466120Y52250D01*
X525810Y111940D01*
X525810Y280850D01*
X580635Y282899D02*
X580635Y290976D01*
X563910Y307700D01*
X563910Y458650D01*
X691300Y318750D02*
X715850Y318750D01*
X715900Y318800D01*
X525810Y280850D02*
X525810Y445950D01*
X475010Y496750D01*
X132110Y496750D01*
X81310Y445950D01*
X81310Y115750D01*
X132110Y64950D01*
X462310Y64950D01*
X513110Y115750D01*
X513110Y443410D01*
X472470Y484050D01*
X135920Y484050D01*
X94010Y442140D01*
X94010Y119560D01*
X135920Y77650D01*
X458500Y77650D01*
X500410Y119560D01*
X500410Y438330D01*
X467390Y471350D01*
X141000Y471350D01*
X106710Y437060D01*
X106710Y124640D01*
X141000Y90350D01*
X452150Y90350D01*
X487710Y125910D01*
X487710Y255450D01*
D17*
X488000Y253800D02*
X480100Y253800D01*
X480000Y253700D01*
X472000Y253700D01*
X472000Y261700D01*
X488000Y261700D01*
X488000Y253800D01*
X488310Y253800D01*
M02*
