G04 EAGLE Gerber X2 export*
%TF.Part,Single*%
%TF.FileFunction,Copper,L1,Top,Mixed*%
%TF.FilePolarity,Positive*%
%TF.GenerationSoftware,Autodesk,EAGLE,8.6.3*%
%TF.CreationDate,2019-05-11T16:29:51Z*%
G75*
%MOMM*%
%FSLAX34Y34*%
%LPD*%
%AMOC8*
5,1,8,0,0,1.08239X$1,22.5*%
G01*
%ADD10C,0.152400*%
%ADD11C,0.076200*%
%ADD12C,0.286200*%
%ADD13R,1.100000X1.250000*%
%ADD14R,0.400000X0.600000*%
%ADD15R,0.300000X0.400000*%
%ADD16R,1.625600X0.889000*%
%ADD17R,1.625600X3.175000*%
%ADD18C,0.406400*%
%ADD19C,0.609600*%
%ADD20C,2.540000*%
%ADD21C,0.508000*%
%ADD22C,0.812800*%


D10*
X430568Y50018D02*
X430568Y33762D01*
X428762Y33762D02*
X432374Y33762D01*
X432374Y50018D02*
X428762Y50018D01*
X439079Y50018D02*
X439079Y33762D01*
X448110Y33762D02*
X439079Y50018D01*
X448110Y50018D02*
X448110Y33762D01*
X463707Y40084D02*
X474544Y40084D01*
X469125Y45502D02*
X469125Y34665D01*
X133568Y35762D02*
X133568Y52018D01*
X131762Y35762D02*
X135374Y35762D01*
X135374Y52018D02*
X131762Y52018D01*
X142079Y52018D02*
X142079Y35762D01*
X151110Y35762D02*
X142079Y52018D01*
X151110Y52018D02*
X151110Y35762D01*
X166707Y42084D02*
X177544Y42084D01*
D11*
X72602Y76602D02*
X71036Y76602D01*
X72602Y76602D02*
X72602Y71381D01*
X69469Y71381D01*
X69380Y71383D01*
X69292Y71389D01*
X69204Y71398D01*
X69116Y71411D01*
X69029Y71428D01*
X68943Y71448D01*
X68858Y71473D01*
X68773Y71500D01*
X68690Y71532D01*
X68609Y71566D01*
X68529Y71605D01*
X68451Y71646D01*
X68374Y71691D01*
X68300Y71739D01*
X68227Y71790D01*
X68157Y71844D01*
X68090Y71902D01*
X68024Y71962D01*
X67962Y72024D01*
X67902Y72090D01*
X67844Y72157D01*
X67790Y72227D01*
X67739Y72300D01*
X67691Y72374D01*
X67646Y72451D01*
X67605Y72529D01*
X67566Y72609D01*
X67532Y72690D01*
X67500Y72773D01*
X67473Y72858D01*
X67448Y72943D01*
X67428Y73029D01*
X67411Y73116D01*
X67398Y73204D01*
X67389Y73292D01*
X67383Y73380D01*
X67381Y73469D01*
X67381Y78691D01*
X67383Y78782D01*
X67389Y78873D01*
X67399Y78964D01*
X67413Y79054D01*
X67430Y79143D01*
X67452Y79231D01*
X67478Y79319D01*
X67507Y79405D01*
X67540Y79490D01*
X67577Y79573D01*
X67617Y79655D01*
X67661Y79735D01*
X67708Y79813D01*
X67759Y79889D01*
X67812Y79962D01*
X67869Y80033D01*
X67930Y80102D01*
X67993Y80167D01*
X68058Y80230D01*
X68127Y80290D01*
X68198Y80348D01*
X68271Y80401D01*
X68347Y80452D01*
X68425Y80499D01*
X68505Y80543D01*
X68587Y80583D01*
X68670Y80620D01*
X68755Y80653D01*
X68841Y80682D01*
X68929Y80708D01*
X69017Y80730D01*
X69106Y80747D01*
X69196Y80761D01*
X69287Y80771D01*
X69378Y80777D01*
X69469Y80779D01*
X72602Y80779D01*
X77135Y80779D02*
X77135Y71381D01*
X82356Y71381D02*
X77135Y80779D01*
X82356Y80779D02*
X82356Y71381D01*
X86888Y71381D02*
X86888Y80779D01*
X89499Y80779D01*
X89599Y80777D01*
X89699Y80771D01*
X89798Y80762D01*
X89898Y80748D01*
X89996Y80731D01*
X90094Y80710D01*
X90191Y80686D01*
X90287Y80657D01*
X90382Y80625D01*
X90475Y80590D01*
X90567Y80551D01*
X90658Y80508D01*
X90746Y80462D01*
X90833Y80412D01*
X90918Y80360D01*
X91001Y80304D01*
X91082Y80245D01*
X91160Y80182D01*
X91236Y80117D01*
X91310Y80049D01*
X91380Y79979D01*
X91448Y79905D01*
X91513Y79829D01*
X91576Y79751D01*
X91635Y79670D01*
X91691Y79587D01*
X91743Y79502D01*
X91793Y79415D01*
X91839Y79327D01*
X91882Y79236D01*
X91921Y79144D01*
X91956Y79051D01*
X91988Y78956D01*
X92017Y78860D01*
X92041Y78763D01*
X92062Y78665D01*
X92079Y78567D01*
X92093Y78467D01*
X92102Y78368D01*
X92108Y78268D01*
X92110Y78168D01*
X92109Y78168D02*
X92109Y73992D01*
X92110Y73992D02*
X92108Y73892D01*
X92102Y73792D01*
X92093Y73693D01*
X92079Y73593D01*
X92062Y73495D01*
X92041Y73397D01*
X92017Y73300D01*
X91988Y73204D01*
X91956Y73109D01*
X91921Y73016D01*
X91882Y72924D01*
X91839Y72833D01*
X91793Y72745D01*
X91743Y72658D01*
X91691Y72573D01*
X91635Y72490D01*
X91576Y72409D01*
X91513Y72331D01*
X91448Y72255D01*
X91380Y72181D01*
X91310Y72111D01*
X91236Y72043D01*
X91160Y71978D01*
X91082Y71915D01*
X91001Y71856D01*
X90918Y71800D01*
X90833Y71748D01*
X90746Y71698D01*
X90658Y71652D01*
X90567Y71609D01*
X90475Y71570D01*
X90382Y71535D01*
X90287Y71503D01*
X90191Y71474D01*
X90094Y71450D01*
X89996Y71429D01*
X89898Y71412D01*
X89798Y71398D01*
X89699Y71389D01*
X89599Y71383D01*
X89499Y71381D01*
X86888Y71381D01*
X64381Y205381D02*
X64381Y214779D01*
X64381Y205381D02*
X68558Y205381D01*
X72306Y205381D02*
X76483Y205381D01*
X72306Y205381D02*
X72306Y214779D01*
X76483Y214779D01*
X75438Y210602D02*
X72306Y210602D01*
X80213Y214779D02*
X80213Y205381D01*
X80213Y214779D02*
X82824Y214779D01*
X82924Y214777D01*
X83024Y214771D01*
X83123Y214762D01*
X83223Y214748D01*
X83321Y214731D01*
X83419Y214710D01*
X83516Y214686D01*
X83612Y214657D01*
X83707Y214625D01*
X83800Y214590D01*
X83892Y214551D01*
X83983Y214508D01*
X84071Y214462D01*
X84158Y214412D01*
X84243Y214360D01*
X84326Y214304D01*
X84407Y214245D01*
X84485Y214182D01*
X84561Y214117D01*
X84635Y214049D01*
X84705Y213979D01*
X84773Y213905D01*
X84838Y213829D01*
X84901Y213751D01*
X84960Y213670D01*
X85016Y213587D01*
X85068Y213502D01*
X85118Y213415D01*
X85164Y213327D01*
X85207Y213236D01*
X85246Y213144D01*
X85281Y213051D01*
X85313Y212956D01*
X85342Y212860D01*
X85366Y212763D01*
X85387Y212665D01*
X85404Y212567D01*
X85418Y212467D01*
X85427Y212368D01*
X85433Y212268D01*
X85435Y212168D01*
X85434Y212168D02*
X85434Y207992D01*
X85435Y207992D02*
X85433Y207892D01*
X85427Y207792D01*
X85418Y207693D01*
X85404Y207593D01*
X85387Y207495D01*
X85366Y207397D01*
X85342Y207300D01*
X85313Y207204D01*
X85281Y207109D01*
X85246Y207016D01*
X85207Y206924D01*
X85164Y206833D01*
X85118Y206745D01*
X85068Y206658D01*
X85016Y206573D01*
X84960Y206490D01*
X84901Y206409D01*
X84838Y206331D01*
X84773Y206255D01*
X84705Y206181D01*
X84635Y206111D01*
X84561Y206043D01*
X84485Y205978D01*
X84407Y205915D01*
X84326Y205856D01*
X84243Y205800D01*
X84158Y205748D01*
X84071Y205698D01*
X83983Y205652D01*
X83892Y205609D01*
X83800Y205570D01*
X83707Y205535D01*
X83612Y205503D01*
X83516Y205474D01*
X83419Y205450D01*
X83321Y205429D01*
X83223Y205412D01*
X83123Y205398D01*
X83024Y205389D01*
X82924Y205383D01*
X82824Y205381D01*
X80213Y205381D01*
X94626Y209036D02*
X100891Y209036D01*
X97759Y212168D02*
X97759Y205903D01*
D12*
X287031Y139169D02*
X287031Y136031D01*
X287031Y139169D02*
X289569Y139169D01*
X289569Y136031D01*
X287031Y136031D01*
X287031Y138892D02*
X289569Y138892D01*
X278431Y139169D02*
X278431Y136031D01*
X278431Y139169D02*
X280969Y139169D01*
X280969Y136031D01*
X278431Y136031D01*
X278431Y138892D02*
X280969Y138892D01*
X321531Y109169D02*
X321531Y106031D01*
X321531Y109169D02*
X324069Y109169D01*
X324069Y106031D01*
X321531Y106031D01*
X321531Y108892D02*
X324069Y108892D01*
X312931Y109169D02*
X312931Y106031D01*
X312931Y109169D02*
X315469Y109169D01*
X315469Y106031D01*
X312931Y106031D01*
X312931Y108892D02*
X315469Y108892D01*
D13*
X289700Y177800D03*
X272700Y177800D03*
D14*
X322000Y137200D03*
X314000Y137200D03*
X280300Y107800D03*
X288300Y107800D03*
D15*
X100900Y151500D03*
X100900Y145500D03*
D16*
X425996Y209114D03*
X425996Y186000D03*
X425996Y162886D03*
D17*
X490004Y186000D03*
D18*
X334000Y107600D02*
X332000Y107600D01*
D19*
X334000Y137200D02*
X322000Y137200D01*
X334000Y137200D02*
X334000Y107600D01*
X332000Y107600D02*
X322800Y107600D01*
X332000Y107600D02*
X332000Y46000D01*
X358000Y46000D01*
D20*
X395000Y46000D01*
X395000Y71000D02*
X335000Y71000D01*
X335000Y31000D01*
X398000Y31000D02*
X398000Y54000D01*
X398000Y71000D01*
X398000Y54000D02*
X346000Y54000D01*
X395000Y46000D02*
X395000Y71000D01*
X398000Y31000D02*
X335000Y31000D01*
D18*
X295000Y107800D02*
X288300Y107800D01*
X295000Y107800D02*
X314200Y107800D01*
X314200Y107600D01*
D21*
X295000Y107800D02*
X295000Y87000D01*
X199000Y87000D02*
X199000Y80000D01*
X199000Y42000D02*
X199000Y26000D01*
D20*
X199000Y42000D02*
X199000Y45000D01*
X199000Y42000D02*
X199000Y33000D01*
X280000Y33000D01*
X280000Y80000D01*
X199000Y80000D01*
X199000Y45000D01*
X199000Y42000D02*
X263000Y42000D01*
X263000Y60000D02*
X215000Y60000D01*
D21*
X199000Y87000D02*
X295000Y87000D01*
D20*
X263000Y60000D02*
X263000Y42000D01*
D18*
X288300Y137600D02*
X304000Y137600D01*
X314000Y137600D01*
X314000Y137200D01*
X304000Y162886D02*
X425996Y162886D01*
X304000Y162886D02*
X304000Y137600D01*
X280300Y137600D02*
X280300Y107800D01*
X280300Y137600D02*
X279700Y137600D01*
X100900Y137600D01*
X100900Y145500D01*
X100900Y137600D02*
X62000Y137600D01*
X62000Y117000D02*
X84000Y117000D01*
X84000Y136000D02*
X66000Y136000D01*
X66000Y132000D01*
X66000Y119000D01*
X66000Y132000D02*
X80000Y132000D01*
X81000Y132000D01*
X80000Y132000D02*
X80000Y120000D01*
X69000Y120000D01*
X69000Y128000D01*
X69000Y129000D01*
X69000Y128000D02*
X78000Y128000D01*
X78000Y123000D02*
X72000Y123000D01*
X72000Y125000D01*
X75000Y125000D01*
X62000Y117000D02*
X62000Y137600D01*
X84000Y136000D02*
X84000Y117000D01*
X78000Y123000D02*
X78000Y128000D01*
D22*
X149000Y209114D02*
X425996Y209114D01*
X149000Y209114D02*
X149000Y232000D01*
X72000Y125000D02*
X36000Y125000D01*
X36000Y232000D02*
X149000Y232000D01*
X36000Y232000D02*
X36000Y125000D01*
D18*
X100900Y151500D02*
X100900Y159000D01*
X272700Y159000D02*
X272700Y177800D01*
X272700Y159000D02*
X100900Y159000D01*
X83000Y159000D01*
X82000Y159000D02*
X61000Y159000D01*
X61000Y175000D02*
X82000Y175000D01*
X82000Y159000D01*
X83000Y159000D01*
X82000Y159000D02*
X65000Y159000D01*
X65000Y172000D01*
X79000Y172000D01*
X79000Y169000D01*
X79000Y162000D01*
X68000Y162000D01*
X67000Y162000D01*
X68000Y162000D02*
X68000Y169000D01*
X77000Y169000D01*
X79000Y169000D01*
X77000Y169000D02*
X77000Y165000D01*
X71000Y165000D01*
X61000Y159000D02*
X61000Y175000D01*
D22*
X297900Y186000D02*
X425996Y186000D01*
X297900Y186000D02*
X289700Y177800D01*
M02*
