G04 EAGLE Gerber X2 export*
%TF.Part,Single*%
%TF.FileFunction,Legend,Top,1*%
%TF.FilePolarity,Positive*%
%TF.GenerationSoftware,Autodesk,EAGLE,8.6.3*%
%TF.CreationDate,2019-05-08T19:44:22Z*%
G75*
%MOMM*%
%FSLAX34Y34*%
%LPD*%
%AMOC8*
5,1,8,0,0,1.08239X$1,22.5*%
G01*
%ADD10C,0.127000*%
%ADD11C,0.025400*%
%ADD12C,0.050800*%
%ADD13C,0.152400*%
%ADD14C,0.203200*%


D10*
X307000Y106800D02*
X317000Y106800D01*
X317000Y116400D02*
X307000Y116400D01*
D11*
X316684Y102609D02*
X317310Y102609D01*
X316684Y102609D02*
X316635Y102611D01*
X316586Y102617D01*
X316538Y102626D01*
X316491Y102640D01*
X316444Y102657D01*
X316400Y102677D01*
X316357Y102701D01*
X316316Y102729D01*
X316277Y102759D01*
X316241Y102792D01*
X316208Y102828D01*
X316178Y102867D01*
X316150Y102908D01*
X316126Y102951D01*
X316106Y102995D01*
X316089Y103042D01*
X316075Y103089D01*
X316066Y103137D01*
X316060Y103186D01*
X316058Y103235D01*
X316058Y104800D01*
X316060Y104849D01*
X316066Y104898D01*
X316075Y104946D01*
X316089Y104993D01*
X316106Y105040D01*
X316126Y105084D01*
X316150Y105127D01*
X316178Y105168D01*
X316208Y105207D01*
X316241Y105243D01*
X316277Y105276D01*
X316316Y105306D01*
X316357Y105334D01*
X316400Y105358D01*
X316444Y105378D01*
X316491Y105395D01*
X316538Y105409D01*
X316586Y105418D01*
X316635Y105424D01*
X316684Y105426D01*
X316684Y105427D02*
X317310Y105427D01*
X318370Y104800D02*
X319152Y105427D01*
X319152Y102609D01*
X318370Y102609D02*
X319935Y102609D01*
D10*
X318500Y82800D02*
X308500Y82800D01*
X308500Y92400D02*
X318500Y92400D01*
D11*
X318810Y78609D02*
X318184Y78609D01*
X318135Y78611D01*
X318086Y78617D01*
X318038Y78626D01*
X317991Y78640D01*
X317944Y78657D01*
X317900Y78677D01*
X317857Y78701D01*
X317816Y78729D01*
X317777Y78759D01*
X317741Y78792D01*
X317708Y78828D01*
X317678Y78867D01*
X317650Y78908D01*
X317626Y78951D01*
X317606Y78995D01*
X317589Y79042D01*
X317575Y79089D01*
X317566Y79137D01*
X317560Y79186D01*
X317558Y79235D01*
X317558Y80800D01*
X317560Y80849D01*
X317566Y80898D01*
X317575Y80946D01*
X317589Y80993D01*
X317606Y81040D01*
X317626Y81084D01*
X317650Y81127D01*
X317678Y81168D01*
X317708Y81207D01*
X317741Y81243D01*
X317777Y81276D01*
X317816Y81306D01*
X317857Y81334D01*
X317900Y81358D01*
X317944Y81378D01*
X317991Y81395D01*
X318038Y81409D01*
X318086Y81418D01*
X318135Y81424D01*
X318184Y81426D01*
X318184Y81427D02*
X318810Y81427D01*
X320731Y81426D02*
X320781Y81424D01*
X320831Y81419D01*
X320881Y81410D01*
X320929Y81397D01*
X320977Y81382D01*
X321023Y81362D01*
X321068Y81340D01*
X321112Y81314D01*
X321153Y81286D01*
X321192Y81254D01*
X321229Y81220D01*
X321263Y81183D01*
X321295Y81144D01*
X321323Y81103D01*
X321349Y81059D01*
X321371Y81014D01*
X321391Y80968D01*
X321406Y80920D01*
X321419Y80872D01*
X321428Y80822D01*
X321433Y80772D01*
X321435Y80722D01*
X320731Y81427D02*
X320674Y81425D01*
X320617Y81420D01*
X320561Y81411D01*
X320506Y81399D01*
X320451Y81383D01*
X320398Y81363D01*
X320345Y81341D01*
X320295Y81315D01*
X320246Y81286D01*
X320199Y81254D01*
X320154Y81219D01*
X320111Y81181D01*
X320071Y81141D01*
X320033Y81098D01*
X319998Y81053D01*
X319967Y81006D01*
X319938Y80957D01*
X319912Y80907D01*
X319889Y80854D01*
X319870Y80801D01*
X321200Y80174D02*
X321236Y80210D01*
X321269Y80249D01*
X321300Y80290D01*
X321327Y80333D01*
X321352Y80378D01*
X321374Y80424D01*
X321392Y80471D01*
X321408Y80520D01*
X321420Y80570D01*
X321428Y80620D01*
X321433Y80671D01*
X321435Y80722D01*
X321200Y80174D02*
X319870Y78609D01*
X321435Y78609D01*
D12*
X224352Y196677D02*
X224352Y201178D01*
X225603Y201178D01*
X225672Y201176D01*
X225741Y201170D01*
X225809Y201161D01*
X225876Y201148D01*
X225943Y201131D01*
X226009Y201110D01*
X226073Y201086D01*
X226136Y201058D01*
X226198Y201027D01*
X226258Y200993D01*
X226315Y200955D01*
X226371Y200914D01*
X226424Y200871D01*
X226475Y200824D01*
X226523Y200775D01*
X226568Y200723D01*
X226610Y200668D01*
X226649Y200612D01*
X226686Y200553D01*
X226718Y200492D01*
X226748Y200430D01*
X226774Y200366D01*
X226796Y200301D01*
X226815Y200235D01*
X226830Y200168D01*
X226841Y200100D01*
X226849Y200031D01*
X226853Y199962D01*
X226853Y199894D01*
X226849Y199825D01*
X226841Y199756D01*
X226830Y199688D01*
X226815Y199621D01*
X226796Y199555D01*
X226774Y199490D01*
X226748Y199426D01*
X226718Y199364D01*
X226686Y199303D01*
X226649Y199244D01*
X226610Y199188D01*
X226568Y199133D01*
X226523Y199081D01*
X226475Y199032D01*
X226424Y198985D01*
X226371Y198942D01*
X226315Y198901D01*
X226258Y198863D01*
X226198Y198829D01*
X226136Y198798D01*
X226073Y198770D01*
X226009Y198746D01*
X225943Y198725D01*
X225876Y198708D01*
X225809Y198695D01*
X225741Y198686D01*
X225672Y198680D01*
X225603Y198678D01*
X224352Y198678D01*
X225853Y198678D02*
X226853Y196677D01*
X228828Y200178D02*
X230078Y201178D01*
X230078Y196677D01*
X228828Y196677D02*
X231329Y196677D01*
D13*
X327528Y198542D02*
X327528Y161458D01*
X327528Y198542D02*
X260472Y198542D01*
X260472Y161458D01*
X327528Y161458D01*
D14*
X252158Y132958D02*
X238567Y132958D01*
X252158Y132958D02*
X252301Y132960D01*
X252443Y132966D01*
X252586Y132976D01*
X252728Y132989D01*
X252870Y133007D01*
X253011Y133028D01*
X253151Y133053D01*
X253291Y133082D01*
X253430Y133115D01*
X253568Y133152D01*
X253705Y133192D01*
X253841Y133236D01*
X253976Y133284D01*
X254109Y133336D01*
X254240Y133391D01*
X254371Y133449D01*
X254499Y133512D01*
X254626Y133577D01*
X254751Y133646D01*
X254874Y133719D01*
X254995Y133795D01*
X255114Y133874D01*
X255230Y133956D01*
X255345Y134042D01*
X255457Y134130D01*
X255566Y134222D01*
X255673Y134317D01*
X255778Y134414D01*
X255879Y134514D01*
X255978Y134617D01*
X256074Y134723D01*
X256167Y134831D01*
X256257Y134942D01*
X256344Y135055D01*
X256428Y135171D01*
X256509Y135288D01*
X256587Y135408D01*
X256661Y135530D01*
X256732Y135654D01*
X256799Y135780D01*
X256863Y135908D01*
X256923Y136037D01*
X256980Y136168D01*
X257034Y136301D01*
X257083Y136435D01*
X257129Y136570D01*
X257171Y136706D01*
X257210Y136844D01*
X257245Y136982D01*
X257276Y137122D01*
X257303Y137262D01*
X257326Y137403D01*
X257346Y137544D01*
X257361Y137686D01*
X257373Y137828D01*
X257381Y137971D01*
X257385Y138114D01*
X257385Y138256D01*
X257381Y138399D01*
X257373Y138542D01*
X257361Y138684D01*
X257346Y138826D01*
X257326Y138967D01*
X257303Y139108D01*
X257276Y139248D01*
X257245Y139388D01*
X257210Y139526D01*
X257171Y139664D01*
X257129Y139800D01*
X257083Y139935D01*
X257034Y140069D01*
X256980Y140202D01*
X256923Y140333D01*
X256863Y140462D01*
X256799Y140590D01*
X256732Y140716D01*
X256661Y140840D01*
X256587Y140962D01*
X256509Y141082D01*
X256428Y141199D01*
X256344Y141315D01*
X256257Y141428D01*
X256167Y141539D01*
X256074Y141647D01*
X255978Y141753D01*
X255879Y141856D01*
X255778Y141956D01*
X255673Y142053D01*
X255566Y142148D01*
X255457Y142240D01*
X255345Y142328D01*
X255230Y142414D01*
X255114Y142496D01*
X254995Y142575D01*
X254874Y142651D01*
X254751Y142724D01*
X254626Y142793D01*
X254499Y142858D01*
X254371Y142921D01*
X254240Y142979D01*
X254109Y143034D01*
X253976Y143086D01*
X253841Y143134D01*
X253705Y143178D01*
X253568Y143218D01*
X253430Y143255D01*
X253291Y143288D01*
X253151Y143317D01*
X253011Y143342D01*
X252870Y143363D01*
X252728Y143381D01*
X252586Y143394D01*
X252443Y143404D01*
X252301Y143410D01*
X252158Y143412D01*
X252158Y143413D02*
X238567Y143413D01*
X242749Y151404D02*
X238567Y156631D01*
X257386Y156631D01*
X257386Y151404D02*
X257386Y161858D01*
M02*
