G04 EAGLE Gerber X2 export*
%TF.Part,Single*%
%TF.FileFunction,Paste,Top*%
%TF.FilePolarity,Positive*%
%TF.GenerationSoftware,Autodesk,EAGLE,8.6.3*%
%TF.CreationDate,2019-05-11T16:29:51Z*%
G75*
%MOMM*%
%FSLAX34Y34*%
%LPD*%
%AMOC8*
5,1,8,0,0,1.08239X$1,22.5*%
G01*
%ADD10C,0.286200*%
%ADD11R,1.100000X1.250000*%
%ADD12R,0.400000X0.600000*%
%ADD13R,0.300000X0.400000*%
%ADD14R,1.625600X0.889000*%
%ADD15R,1.625600X3.175000*%


D10*
X287031Y136031D02*
X287031Y139169D01*
X289569Y139169D01*
X289569Y136031D01*
X287031Y136031D01*
X287031Y138892D02*
X289569Y138892D01*
X278431Y139169D02*
X278431Y136031D01*
X278431Y139169D02*
X280969Y139169D01*
X280969Y136031D01*
X278431Y136031D01*
X278431Y138892D02*
X280969Y138892D01*
X321531Y109169D02*
X321531Y106031D01*
X321531Y109169D02*
X324069Y109169D01*
X324069Y106031D01*
X321531Y106031D01*
X321531Y108892D02*
X324069Y108892D01*
X312931Y109169D02*
X312931Y106031D01*
X312931Y109169D02*
X315469Y109169D01*
X315469Y106031D01*
X312931Y106031D01*
X312931Y108892D02*
X315469Y108892D01*
D11*
X289700Y177800D03*
X272700Y177800D03*
D12*
X322000Y137200D03*
X314000Y137200D03*
X280300Y107800D03*
X288300Y107800D03*
D13*
X100900Y151500D03*
X100900Y145500D03*
D14*
X425996Y209114D03*
X425996Y186000D03*
X425996Y162886D03*
D15*
X490004Y186000D03*
M02*
