G04 EAGLE Gerber X2 export*
%TF.Part,Single*%
%TF.FileFunction,Other,Component side*%
%TF.FilePolarity,Positive*%
%TF.GenerationSoftware,Autodesk,EAGLE,8.6.3*%
%TF.CreationDate,2019-05-15T08:36:59Z*%
G75*
%MOMM*%
%FSLAX34Y34*%
%LPD*%
%AMOC8*
5,1,8,0,0,1.08239X$1,22.5*%
G01*
%ADD10C,0.304800*%
%ADD11R,1.000000X1.100000*%
%ADD12R,1.100000X1.000000*%
%ADD13R,2.400000X2.600000*%
%ADD14R,1.100000X1.250000*%
%ADD15R,2.500000X1.700000*%
%ADD16R,0.800000X0.800000*%
%ADD17R,1.625600X0.889000*%
%ADD18R,1.625600X3.175000*%
%ADD19C,0.406400*%

G36*
X485018Y32971D02*
X485018Y32971D01*
X485036Y32969D01*
X485218Y32990D01*
X485401Y33009D01*
X485418Y33014D01*
X485435Y33016D01*
X485610Y33073D01*
X485786Y33127D01*
X485801Y33135D01*
X485818Y33141D01*
X485978Y33231D01*
X486140Y33319D01*
X486153Y33330D01*
X486169Y33339D01*
X486308Y33459D01*
X486449Y33576D01*
X486460Y33590D01*
X486474Y33602D01*
X486586Y33747D01*
X486701Y33890D01*
X486709Y33906D01*
X486720Y33920D01*
X486802Y34085D01*
X486887Y34247D01*
X486892Y34264D01*
X486900Y34281D01*
X486947Y34459D01*
X486998Y34634D01*
X487000Y34652D01*
X487004Y34669D01*
X487031Y35000D01*
X487031Y140000D01*
X487029Y140018D01*
X487031Y140036D01*
X487010Y140218D01*
X486991Y140401D01*
X486986Y140418D01*
X486984Y140435D01*
X486927Y140610D01*
X486873Y140786D01*
X486865Y140801D01*
X486859Y140818D01*
X486769Y140978D01*
X486681Y141140D01*
X486670Y141153D01*
X486661Y141169D01*
X486541Y141308D01*
X486424Y141449D01*
X486410Y141460D01*
X486398Y141474D01*
X486253Y141586D01*
X486110Y141701D01*
X486094Y141709D01*
X486080Y141720D01*
X485915Y141802D01*
X485753Y141887D01*
X485736Y141892D01*
X485720Y141900D01*
X485541Y141947D01*
X485366Y141998D01*
X485348Y142000D01*
X485331Y142004D01*
X485000Y142031D01*
X315000Y142031D01*
X314982Y142029D01*
X314964Y142031D01*
X314782Y142010D01*
X314599Y141991D01*
X314582Y141986D01*
X314565Y141984D01*
X314390Y141927D01*
X314214Y141873D01*
X314199Y141865D01*
X314182Y141859D01*
X314022Y141769D01*
X313860Y141681D01*
X313847Y141670D01*
X313831Y141661D01*
X313692Y141541D01*
X313551Y141424D01*
X313540Y141410D01*
X313527Y141398D01*
X313414Y141253D01*
X313299Y141110D01*
X313291Y141094D01*
X313280Y141080D01*
X313198Y140915D01*
X313113Y140753D01*
X313108Y140736D01*
X313100Y140720D01*
X313053Y140541D01*
X313002Y140366D01*
X313000Y140348D01*
X312996Y140331D01*
X312969Y140000D01*
X312969Y35000D01*
X312971Y34982D01*
X312969Y34964D01*
X312990Y34782D01*
X313009Y34599D01*
X313014Y34582D01*
X313016Y34565D01*
X313073Y34390D01*
X313127Y34214D01*
X313135Y34199D01*
X313141Y34182D01*
X313231Y34022D01*
X313319Y33860D01*
X313330Y33847D01*
X313339Y33831D01*
X313459Y33692D01*
X313576Y33551D01*
X313590Y33540D01*
X313602Y33527D01*
X313747Y33414D01*
X313890Y33299D01*
X313906Y33291D01*
X313920Y33280D01*
X314085Y33198D01*
X314247Y33113D01*
X314264Y33108D01*
X314281Y33100D01*
X314459Y33053D01*
X314634Y33002D01*
X314652Y33000D01*
X314669Y32996D01*
X315000Y32969D01*
X485000Y32969D01*
X485018Y32971D01*
G37*
G36*
X155018Y242971D02*
X155018Y242971D01*
X155036Y242969D01*
X155218Y242990D01*
X155401Y243009D01*
X155418Y243014D01*
X155435Y243016D01*
X155610Y243073D01*
X155786Y243127D01*
X155801Y243135D01*
X155818Y243141D01*
X155978Y243231D01*
X156140Y243319D01*
X156153Y243330D01*
X156169Y243339D01*
X156308Y243459D01*
X156449Y243576D01*
X156460Y243590D01*
X156474Y243602D01*
X156586Y243747D01*
X156701Y243890D01*
X156709Y243906D01*
X156720Y243920D01*
X156802Y244085D01*
X156887Y244247D01*
X156892Y244264D01*
X156900Y244281D01*
X156947Y244459D01*
X156998Y244634D01*
X157000Y244652D01*
X157004Y244669D01*
X157031Y245000D01*
X157031Y365000D01*
X157029Y365018D01*
X157031Y365036D01*
X157010Y365218D01*
X156991Y365401D01*
X156986Y365418D01*
X156984Y365435D01*
X156927Y365610D01*
X156873Y365786D01*
X156865Y365801D01*
X156859Y365818D01*
X156769Y365978D01*
X156681Y366140D01*
X156670Y366153D01*
X156661Y366169D01*
X156541Y366308D01*
X156424Y366449D01*
X156410Y366460D01*
X156398Y366474D01*
X156253Y366586D01*
X156110Y366701D01*
X156094Y366709D01*
X156080Y366720D01*
X155915Y366802D01*
X155753Y366887D01*
X155736Y366892D01*
X155720Y366900D01*
X155541Y366947D01*
X155366Y366998D01*
X155348Y367000D01*
X155331Y367004D01*
X155000Y367031D01*
X30000Y367031D01*
X29982Y367029D01*
X29964Y367031D01*
X29782Y367010D01*
X29599Y366991D01*
X29582Y366986D01*
X29565Y366984D01*
X29390Y366927D01*
X29214Y366873D01*
X29199Y366865D01*
X29182Y366859D01*
X29022Y366769D01*
X28860Y366681D01*
X28847Y366670D01*
X28831Y366661D01*
X28692Y366541D01*
X28551Y366424D01*
X28540Y366410D01*
X28527Y366398D01*
X28414Y366253D01*
X28299Y366110D01*
X28291Y366094D01*
X28280Y366080D01*
X28198Y365915D01*
X28113Y365753D01*
X28108Y365736D01*
X28100Y365720D01*
X28053Y365541D01*
X28002Y365366D01*
X28000Y365348D01*
X27996Y365331D01*
X27969Y365000D01*
X27969Y245000D01*
X27971Y244982D01*
X27969Y244964D01*
X27990Y244782D01*
X28009Y244599D01*
X28014Y244582D01*
X28016Y244565D01*
X28073Y244390D01*
X28127Y244214D01*
X28135Y244199D01*
X28141Y244182D01*
X28231Y244022D01*
X28319Y243860D01*
X28330Y243847D01*
X28339Y243831D01*
X28459Y243692D01*
X28576Y243551D01*
X28590Y243540D01*
X28602Y243527D01*
X28747Y243414D01*
X28890Y243299D01*
X28906Y243291D01*
X28920Y243280D01*
X29085Y243198D01*
X29247Y243113D01*
X29264Y243108D01*
X29281Y243100D01*
X29459Y243053D01*
X29634Y243002D01*
X29652Y243000D01*
X29669Y242996D01*
X30000Y242969D01*
X155000Y242969D01*
X155018Y242971D01*
G37*
D10*
X520419Y96576D02*
X520419Y61524D01*
X524313Y61524D02*
X516524Y61524D01*
X516524Y96576D02*
X524313Y96576D01*
X534495Y96576D02*
X534495Y61524D01*
X553968Y61524D02*
X534495Y96576D01*
X553968Y96576D02*
X553968Y61524D01*
X563980Y75155D02*
X587348Y75155D01*
X575664Y63471D02*
X575664Y86839D01*
X60997Y400997D02*
X55155Y400997D01*
X60997Y400997D02*
X60997Y381524D01*
X49313Y381524D01*
X49125Y381526D01*
X48937Y381533D01*
X48749Y381544D01*
X48561Y381560D01*
X48374Y381581D01*
X48188Y381606D01*
X48002Y381635D01*
X47817Y381669D01*
X47632Y381708D01*
X47449Y381750D01*
X47267Y381798D01*
X47086Y381849D01*
X46906Y381905D01*
X46728Y381966D01*
X46551Y382030D01*
X46376Y382099D01*
X46202Y382172D01*
X46031Y382249D01*
X45861Y382331D01*
X45693Y382416D01*
X45528Y382506D01*
X45364Y382599D01*
X45203Y382696D01*
X45045Y382798D01*
X44888Y382903D01*
X44735Y383012D01*
X44584Y383124D01*
X44436Y383240D01*
X44290Y383360D01*
X44148Y383483D01*
X44009Y383609D01*
X43872Y383739D01*
X43739Y383872D01*
X43609Y384009D01*
X43483Y384148D01*
X43360Y384290D01*
X43240Y384436D01*
X43124Y384584D01*
X43012Y384735D01*
X42903Y384888D01*
X42798Y385045D01*
X42696Y385203D01*
X42599Y385364D01*
X42506Y385528D01*
X42416Y385693D01*
X42331Y385861D01*
X42249Y386031D01*
X42172Y386202D01*
X42099Y386376D01*
X42030Y386551D01*
X41966Y386728D01*
X41905Y386906D01*
X41849Y387086D01*
X41798Y387267D01*
X41750Y387449D01*
X41708Y387632D01*
X41669Y387817D01*
X41635Y388002D01*
X41606Y388188D01*
X41581Y388374D01*
X41560Y388561D01*
X41544Y388749D01*
X41533Y388937D01*
X41526Y389125D01*
X41524Y389313D01*
X41524Y408787D01*
X41526Y408978D01*
X41533Y409169D01*
X41545Y409360D01*
X41562Y409550D01*
X41583Y409740D01*
X41608Y409930D01*
X41639Y410119D01*
X41674Y410307D01*
X41713Y410494D01*
X41757Y410680D01*
X41806Y410864D01*
X41859Y411048D01*
X41917Y411230D01*
X41979Y411411D01*
X42046Y411590D01*
X42117Y411768D01*
X42192Y411943D01*
X42272Y412117D01*
X42356Y412289D01*
X42444Y412459D01*
X42536Y412626D01*
X42632Y412791D01*
X42732Y412954D01*
X42837Y413114D01*
X42945Y413272D01*
X43057Y413427D01*
X43173Y413579D01*
X43292Y413728D01*
X43415Y413875D01*
X43542Y414018D01*
X43672Y414158D01*
X43805Y414295D01*
X43942Y414428D01*
X44082Y414558D01*
X44225Y414685D01*
X44372Y414808D01*
X44521Y414927D01*
X44673Y415043D01*
X44828Y415155D01*
X44986Y415263D01*
X45146Y415368D01*
X45309Y415468D01*
X45474Y415564D01*
X45641Y415656D01*
X45811Y415744D01*
X45983Y415828D01*
X46157Y415908D01*
X46332Y415983D01*
X46510Y416054D01*
X46689Y416121D01*
X46870Y416183D01*
X47052Y416241D01*
X47236Y416294D01*
X47420Y416343D01*
X47606Y416387D01*
X47793Y416426D01*
X47981Y416461D01*
X48170Y416492D01*
X48360Y416517D01*
X48550Y416538D01*
X48740Y416555D01*
X48931Y416567D01*
X49122Y416574D01*
X49313Y416576D01*
X60997Y416576D01*
X72004Y416576D02*
X72004Y381524D01*
X91477Y381524D02*
X72004Y416576D01*
X91477Y416576D02*
X91477Y381524D01*
X102484Y381524D02*
X102484Y416576D01*
X112221Y416576D01*
X112456Y416573D01*
X112691Y416565D01*
X112926Y416550D01*
X113161Y416531D01*
X113395Y416505D01*
X113628Y416474D01*
X113860Y416437D01*
X114092Y416395D01*
X114322Y416347D01*
X114551Y416293D01*
X114779Y416234D01*
X115005Y416169D01*
X115230Y416099D01*
X115453Y416024D01*
X115674Y415943D01*
X115893Y415857D01*
X116110Y415766D01*
X116324Y415669D01*
X116536Y415568D01*
X116746Y415461D01*
X116953Y415349D01*
X117157Y415232D01*
X117359Y415110D01*
X117557Y414984D01*
X117752Y414852D01*
X117944Y414716D01*
X118133Y414576D01*
X118318Y414431D01*
X118500Y414281D01*
X118678Y414127D01*
X118852Y413969D01*
X119022Y413807D01*
X119189Y413640D01*
X119351Y413470D01*
X119509Y413296D01*
X119663Y413118D01*
X119813Y412936D01*
X119958Y412751D01*
X120098Y412562D01*
X120234Y412370D01*
X120366Y412175D01*
X120492Y411977D01*
X120614Y411775D01*
X120731Y411571D01*
X120843Y411364D01*
X120950Y411154D01*
X121051Y410942D01*
X121148Y410728D01*
X121239Y410511D01*
X121325Y410292D01*
X121406Y410071D01*
X121481Y409848D01*
X121551Y409623D01*
X121616Y409397D01*
X121675Y409169D01*
X121729Y408940D01*
X121777Y408710D01*
X121819Y408478D01*
X121856Y408246D01*
X121887Y408013D01*
X121913Y407779D01*
X121932Y407544D01*
X121947Y407309D01*
X121955Y407074D01*
X121958Y406839D01*
X121957Y406839D02*
X121957Y391261D01*
X121958Y391261D02*
X121955Y391022D01*
X121946Y390783D01*
X121932Y390545D01*
X121911Y390307D01*
X121885Y390069D01*
X121853Y389832D01*
X121815Y389596D01*
X121771Y389361D01*
X121721Y389128D01*
X121666Y388895D01*
X121605Y388664D01*
X121539Y388435D01*
X121467Y388207D01*
X121389Y387981D01*
X121306Y387757D01*
X121217Y387535D01*
X121123Y387315D01*
X121023Y387098D01*
X120918Y386883D01*
X120808Y386671D01*
X120693Y386462D01*
X120573Y386255D01*
X120447Y386052D01*
X120317Y385851D01*
X120182Y385654D01*
X120042Y385461D01*
X119897Y385271D01*
X119748Y385084D01*
X119594Y384901D01*
X119436Y384722D01*
X119273Y384547D01*
X119106Y384376D01*
X118935Y384209D01*
X118760Y384046D01*
X118581Y383888D01*
X118398Y383734D01*
X118212Y383585D01*
X118021Y383440D01*
X117828Y383300D01*
X117631Y383165D01*
X117430Y383035D01*
X117227Y382909D01*
X117020Y382789D01*
X116811Y382674D01*
X116599Y382564D01*
X116384Y382459D01*
X116167Y382359D01*
X115947Y382265D01*
X115725Y382176D01*
X115501Y382093D01*
X115275Y382015D01*
X115048Y381943D01*
X114818Y381877D01*
X114587Y381816D01*
X114354Y381761D01*
X114121Y381711D01*
X113886Y381667D01*
X113650Y381629D01*
X113413Y381597D01*
X113175Y381571D01*
X112937Y381550D01*
X112699Y381536D01*
X112460Y381527D01*
X112221Y381524D01*
X102484Y381524D01*
D11*
X156000Y174000D03*
X156000Y191000D03*
D12*
X212200Y234500D03*
X195200Y234500D03*
X389300Y324100D03*
X406300Y324100D03*
D13*
X339900Y225500D03*
X385900Y225500D03*
D14*
X390100Y299000D03*
X407100Y299000D03*
D15*
X252016Y142751D03*
X212016Y142751D03*
D16*
X664000Y317000D03*
X664000Y302000D03*
D17*
X275096Y344514D03*
X275096Y321400D03*
X275096Y298286D03*
D18*
X339104Y321400D03*
D19*
X252016Y142751D02*
X252016Y112016D01*
X245000Y105000D01*
X180000Y105000D01*
X156000Y129000D02*
X156000Y174000D01*
X156000Y129000D02*
X180000Y105000D01*
X252016Y142751D02*
X482249Y142751D01*
X485000Y140000D01*
X485000Y40000D01*
X480000Y35000D01*
X315000Y35000D01*
X315000Y140000D01*
X212016Y142751D02*
X212016Y192016D01*
X245500Y225500D01*
X248286Y298286D02*
X275096Y298286D01*
X248286Y298286D02*
X245000Y295000D01*
X245000Y255000D01*
X245000Y235000D01*
X245000Y226000D01*
X245500Y225500D01*
X245000Y255000D02*
X300000Y255000D01*
X329500Y225500D02*
X339900Y225500D01*
X329500Y225500D02*
X300000Y255000D01*
X212700Y235000D02*
X212200Y234500D01*
X212700Y235000D02*
X245000Y235000D01*
X661000Y299000D02*
X664000Y302000D01*
X661000Y299000D02*
X407100Y299000D01*
X275096Y344514D02*
X250486Y344514D01*
X247500Y347500D01*
X245000Y350000D01*
X406300Y343700D02*
X406300Y324100D01*
X406300Y343700D02*
X380000Y370000D01*
X255000Y370000D01*
X245000Y360000D02*
X245000Y350000D01*
X245000Y360000D02*
X255000Y370000D01*
X195200Y295200D02*
X195200Y234500D01*
X195200Y295200D02*
X247500Y347500D01*
X156000Y216000D02*
X156000Y191000D01*
X156000Y216000D02*
X175000Y235000D01*
X175500Y234500D01*
X195200Y234500D01*
X656900Y324100D02*
X664000Y317000D01*
X656900Y324100D02*
X406300Y324100D01*
X156000Y364000D02*
X156000Y216000D01*
X156000Y364000D02*
X155000Y365000D01*
X30000Y365000D01*
X30000Y250000D01*
X35000Y245000D01*
X155000Y245000D01*
X389300Y299800D02*
X390100Y299000D01*
X389300Y299800D02*
X389300Y324100D01*
X341804Y324100D01*
X339104Y321400D01*
X390100Y299000D02*
X390100Y225100D01*
X390000Y225000D01*
X386400Y225000D01*
X385900Y225500D01*
M02*
