G04 EAGLE Gerber X2 export*
%TF.Part,Single*%
%TF.FileFunction,Other,Silk screen CMP*%
%TF.FilePolarity,Positive*%
%TF.GenerationSoftware,Autodesk,EAGLE,8.6.3*%
%TF.CreationDate,2019-06-11T09:33:43Z*%
G75*
%MOMM*%
%FSLAX34Y34*%
%LPD*%
%AMOC8*
5,1,8,0,0,1.08239X$1,22.5*%
G01*
%ADD10C,0.000000*%
%ADD11C,0.127000*%
%ADD12C,0.152400*%
%ADD13C,0.050800*%
%ADD14C,0.025400*%
%ADD15C,0.101600*%
%ADD16C,0.200000*%


D10*
X10900Y-2750D02*
X1293200Y-1250D01*
X1295000Y430700D01*
X12700Y429200D01*
X10900Y-2750D01*
D11*
X892767Y307821D02*
X892767Y323315D01*
X892767Y307821D02*
X899653Y307821D01*
X905651Y307821D02*
X912537Y307821D01*
X905651Y307821D02*
X905651Y323315D01*
X912537Y323315D01*
X910815Y316429D02*
X905651Y316429D01*
X918507Y323315D02*
X918507Y307821D01*
X918507Y323315D02*
X922811Y323315D01*
X922941Y323313D01*
X923071Y323307D01*
X923201Y323297D01*
X923330Y323284D01*
X923459Y323266D01*
X923587Y323245D01*
X923714Y323219D01*
X923841Y323190D01*
X923967Y323157D01*
X924091Y323120D01*
X924215Y323080D01*
X924337Y323035D01*
X924458Y322987D01*
X924577Y322936D01*
X924695Y322881D01*
X924811Y322822D01*
X924925Y322760D01*
X925038Y322694D01*
X925148Y322625D01*
X925256Y322553D01*
X925362Y322478D01*
X925465Y322399D01*
X925566Y322317D01*
X925665Y322233D01*
X925761Y322145D01*
X925854Y322054D01*
X925945Y321961D01*
X926033Y321865D01*
X926117Y321766D01*
X926199Y321665D01*
X926278Y321562D01*
X926353Y321456D01*
X926425Y321348D01*
X926494Y321238D01*
X926560Y321125D01*
X926622Y321011D01*
X926681Y320895D01*
X926736Y320777D01*
X926787Y320658D01*
X926835Y320537D01*
X926880Y320415D01*
X926920Y320291D01*
X926957Y320167D01*
X926990Y320041D01*
X927019Y319914D01*
X927045Y319787D01*
X927066Y319659D01*
X927084Y319530D01*
X927097Y319401D01*
X927107Y319271D01*
X927113Y319141D01*
X927115Y319011D01*
X927115Y312125D01*
X927113Y311995D01*
X927107Y311865D01*
X927097Y311735D01*
X927084Y311606D01*
X927066Y311477D01*
X927045Y311349D01*
X927019Y311222D01*
X926990Y311095D01*
X926957Y310969D01*
X926920Y310845D01*
X926880Y310721D01*
X926835Y310599D01*
X926787Y310478D01*
X926736Y310359D01*
X926681Y310241D01*
X926622Y310125D01*
X926560Y310011D01*
X926494Y309898D01*
X926425Y309788D01*
X926353Y309680D01*
X926278Y309574D01*
X926199Y309471D01*
X926117Y309370D01*
X926033Y309271D01*
X925945Y309175D01*
X925854Y309082D01*
X925761Y308991D01*
X925665Y308903D01*
X925566Y308819D01*
X925465Y308737D01*
X925362Y308658D01*
X925256Y308583D01*
X925148Y308511D01*
X925038Y308442D01*
X924925Y308376D01*
X924811Y308314D01*
X924695Y308255D01*
X924577Y308200D01*
X924458Y308149D01*
X924337Y308101D01*
X924215Y308056D01*
X924091Y308016D01*
X923967Y307979D01*
X923841Y307946D01*
X923714Y307917D01*
X923587Y307891D01*
X923459Y307870D01*
X923330Y307852D01*
X923201Y307839D01*
X923071Y307829D01*
X922941Y307823D01*
X922811Y307821D01*
X918507Y307821D01*
D12*
X607218Y180268D02*
X607218Y164012D01*
X605412Y164012D02*
X609024Y164012D01*
X609024Y180268D02*
X605412Y180268D01*
X615729Y180268D02*
X615729Y164012D01*
X624760Y164012D02*
X615729Y180268D01*
X624760Y180268D02*
X624760Y164012D01*
X632020Y170334D02*
X642857Y170334D01*
X637439Y164915D02*
X637439Y175752D01*
X609843Y280993D02*
X607134Y280993D01*
X609843Y280993D02*
X609843Y271962D01*
X604424Y271962D01*
X604306Y271964D01*
X604188Y271970D01*
X604070Y271979D01*
X603953Y271993D01*
X603836Y272010D01*
X603719Y272031D01*
X603604Y272056D01*
X603489Y272085D01*
X603375Y272118D01*
X603263Y272154D01*
X603152Y272194D01*
X603042Y272237D01*
X602933Y272284D01*
X602826Y272334D01*
X602721Y272389D01*
X602618Y272446D01*
X602517Y272507D01*
X602417Y272571D01*
X602320Y272638D01*
X602225Y272708D01*
X602133Y272782D01*
X602042Y272858D01*
X601955Y272938D01*
X601870Y273020D01*
X601788Y273105D01*
X601708Y273192D01*
X601632Y273283D01*
X601558Y273375D01*
X601488Y273470D01*
X601421Y273567D01*
X601357Y273667D01*
X601296Y273768D01*
X601239Y273871D01*
X601184Y273976D01*
X601134Y274083D01*
X601087Y274192D01*
X601044Y274302D01*
X601004Y274413D01*
X600968Y274525D01*
X600935Y274639D01*
X600906Y274754D01*
X600881Y274869D01*
X600860Y274986D01*
X600843Y275103D01*
X600829Y275220D01*
X600820Y275338D01*
X600814Y275456D01*
X600812Y275574D01*
X600812Y284606D01*
X600814Y284724D01*
X600820Y284842D01*
X600829Y284960D01*
X600843Y285077D01*
X600860Y285194D01*
X600881Y285311D01*
X600906Y285426D01*
X600935Y285541D01*
X600968Y285655D01*
X601004Y285767D01*
X601044Y285878D01*
X601087Y285988D01*
X601134Y286097D01*
X601184Y286204D01*
X601238Y286309D01*
X601296Y286412D01*
X601357Y286513D01*
X601421Y286613D01*
X601488Y286710D01*
X601558Y286805D01*
X601632Y286897D01*
X601708Y286988D01*
X601788Y287075D01*
X601870Y287160D01*
X601955Y287242D01*
X602042Y287322D01*
X602133Y287398D01*
X602225Y287472D01*
X602320Y287542D01*
X602417Y287609D01*
X602517Y287673D01*
X602618Y287734D01*
X602721Y287791D01*
X602826Y287845D01*
X602933Y287896D01*
X603042Y287943D01*
X603152Y287986D01*
X603263Y288026D01*
X603375Y288062D01*
X603489Y288095D01*
X603604Y288124D01*
X603719Y288149D01*
X603836Y288170D01*
X603953Y288187D01*
X604070Y288201D01*
X604188Y288210D01*
X604306Y288216D01*
X604424Y288218D01*
X609843Y288218D01*
X617485Y288218D02*
X617485Y271962D01*
X626516Y271962D02*
X617485Y288218D01*
X626516Y288218D02*
X626516Y271962D01*
X634159Y271962D02*
X634159Y288218D01*
X638674Y288218D01*
X638805Y288216D01*
X638937Y288210D01*
X639068Y288201D01*
X639198Y288187D01*
X639329Y288170D01*
X639458Y288149D01*
X639587Y288125D01*
X639715Y288096D01*
X639843Y288064D01*
X639969Y288028D01*
X640094Y287989D01*
X640219Y287946D01*
X640341Y287899D01*
X640463Y287849D01*
X640583Y287795D01*
X640701Y287738D01*
X640817Y287677D01*
X640932Y287613D01*
X641045Y287546D01*
X641156Y287475D01*
X641264Y287401D01*
X641371Y287324D01*
X641475Y287244D01*
X641577Y287161D01*
X641676Y287076D01*
X641773Y286987D01*
X641867Y286895D01*
X641959Y286801D01*
X642048Y286704D01*
X642133Y286605D01*
X642216Y286503D01*
X642296Y286399D01*
X642373Y286292D01*
X642447Y286184D01*
X642518Y286073D01*
X642585Y285960D01*
X642649Y285845D01*
X642710Y285729D01*
X642767Y285611D01*
X642821Y285491D01*
X642871Y285369D01*
X642918Y285247D01*
X642961Y285122D01*
X643000Y284997D01*
X643036Y284871D01*
X643068Y284743D01*
X643097Y284615D01*
X643121Y284486D01*
X643142Y284357D01*
X643159Y284226D01*
X643173Y284096D01*
X643182Y283965D01*
X643188Y283833D01*
X643190Y283702D01*
X643190Y276478D01*
X643188Y276347D01*
X643182Y276215D01*
X643173Y276084D01*
X643159Y275954D01*
X643142Y275823D01*
X643121Y275694D01*
X643097Y275565D01*
X643068Y275437D01*
X643036Y275309D01*
X643000Y275183D01*
X642961Y275058D01*
X642918Y274933D01*
X642871Y274811D01*
X642821Y274689D01*
X642767Y274569D01*
X642710Y274451D01*
X642649Y274335D01*
X642585Y274220D01*
X642518Y274107D01*
X642447Y273996D01*
X642373Y273888D01*
X642296Y273781D01*
X642216Y273677D01*
X642133Y273575D01*
X642048Y273476D01*
X641959Y273379D01*
X641867Y273285D01*
X641773Y273193D01*
X641676Y273104D01*
X641577Y273019D01*
X641475Y272936D01*
X641371Y272856D01*
X641264Y272779D01*
X641156Y272705D01*
X641045Y272634D01*
X640932Y272567D01*
X640817Y272503D01*
X640701Y272442D01*
X640583Y272385D01*
X640463Y272331D01*
X640341Y272281D01*
X640219Y272234D01*
X640094Y272191D01*
X639969Y272152D01*
X639843Y272116D01*
X639715Y272084D01*
X639587Y272055D01*
X639458Y272031D01*
X639328Y272010D01*
X639198Y271993D01*
X639068Y271979D01*
X638937Y271970D01*
X638805Y271964D01*
X638674Y271962D01*
X634159Y271962D01*
D13*
X726121Y260373D02*
X726121Y255872D01*
X726121Y260373D02*
X727372Y260373D01*
X727441Y260371D01*
X727510Y260365D01*
X727578Y260356D01*
X727645Y260343D01*
X727712Y260326D01*
X727778Y260305D01*
X727842Y260281D01*
X727905Y260253D01*
X727967Y260222D01*
X728027Y260188D01*
X728084Y260150D01*
X728140Y260109D01*
X728193Y260066D01*
X728244Y260019D01*
X728292Y259970D01*
X728337Y259918D01*
X728379Y259863D01*
X728418Y259807D01*
X728455Y259748D01*
X728487Y259687D01*
X728517Y259625D01*
X728543Y259561D01*
X728565Y259496D01*
X728584Y259430D01*
X728599Y259363D01*
X728610Y259295D01*
X728618Y259226D01*
X728622Y259157D01*
X728622Y259089D01*
X728618Y259020D01*
X728610Y258951D01*
X728599Y258883D01*
X728584Y258816D01*
X728565Y258750D01*
X728543Y258685D01*
X728517Y258621D01*
X728487Y258559D01*
X728455Y258498D01*
X728418Y258439D01*
X728379Y258383D01*
X728337Y258328D01*
X728292Y258276D01*
X728244Y258227D01*
X728193Y258180D01*
X728140Y258137D01*
X728084Y258096D01*
X728027Y258058D01*
X727967Y258024D01*
X727905Y257993D01*
X727842Y257965D01*
X727778Y257941D01*
X727712Y257920D01*
X727645Y257903D01*
X727578Y257890D01*
X727510Y257881D01*
X727441Y257875D01*
X727372Y257873D01*
X727372Y257872D02*
X726121Y257872D01*
X727622Y257872D02*
X728622Y255872D01*
X730597Y259373D02*
X731847Y260373D01*
X731847Y255872D01*
X730597Y255872D02*
X733098Y255872D01*
X631414Y223994D02*
X631414Y222769D01*
X631412Y222700D01*
X631406Y222632D01*
X631397Y222564D01*
X631383Y222496D01*
X631366Y222430D01*
X631345Y222364D01*
X631321Y222300D01*
X631293Y222238D01*
X631261Y222176D01*
X631226Y222117D01*
X631188Y222060D01*
X631147Y222005D01*
X631102Y221953D01*
X631055Y221903D01*
X631005Y221856D01*
X630953Y221811D01*
X630898Y221770D01*
X630841Y221732D01*
X630782Y221697D01*
X630721Y221665D01*
X630658Y221637D01*
X630594Y221613D01*
X630528Y221592D01*
X630462Y221575D01*
X630394Y221561D01*
X630326Y221552D01*
X630258Y221546D01*
X630189Y221544D01*
X627126Y221544D01*
X627057Y221546D01*
X626989Y221552D01*
X626921Y221561D01*
X626853Y221575D01*
X626787Y221592D01*
X626721Y221613D01*
X626657Y221637D01*
X626595Y221665D01*
X626533Y221697D01*
X626474Y221732D01*
X626417Y221770D01*
X626362Y221811D01*
X626310Y221856D01*
X626260Y221903D01*
X626213Y221953D01*
X626168Y222005D01*
X626127Y222060D01*
X626089Y222117D01*
X626054Y222176D01*
X626022Y222237D01*
X625994Y222300D01*
X625970Y222364D01*
X625949Y222430D01*
X625932Y222496D01*
X625918Y222564D01*
X625909Y222632D01*
X625903Y222700D01*
X625901Y222769D01*
X625901Y223994D01*
X627126Y226076D02*
X625901Y227607D01*
X631414Y227607D01*
X631414Y226076D02*
X631414Y229139D01*
D11*
X636550Y237200D02*
X636550Y240200D01*
X645550Y240200D02*
X645550Y237200D01*
X1133950Y252650D02*
X1133950Y282650D01*
X1147950Y282650D02*
X1147950Y254950D01*
D14*
X1128323Y259077D02*
X1124513Y259077D01*
X1124513Y260135D01*
X1124515Y260199D01*
X1124521Y260263D01*
X1124530Y260326D01*
X1124544Y260388D01*
X1124561Y260450D01*
X1124582Y260510D01*
X1124606Y260569D01*
X1124634Y260627D01*
X1124666Y260682D01*
X1124700Y260736D01*
X1124738Y260787D01*
X1124779Y260837D01*
X1124823Y260883D01*
X1124869Y260927D01*
X1124919Y260968D01*
X1124970Y261006D01*
X1125024Y261040D01*
X1125079Y261072D01*
X1125137Y261100D01*
X1125196Y261124D01*
X1125256Y261145D01*
X1125318Y261162D01*
X1125380Y261176D01*
X1125444Y261185D01*
X1125507Y261191D01*
X1125571Y261193D01*
X1125571Y261194D02*
X1127265Y261194D01*
X1127265Y261193D02*
X1127329Y261191D01*
X1127393Y261185D01*
X1127456Y261176D01*
X1127518Y261162D01*
X1127580Y261145D01*
X1127640Y261124D01*
X1127699Y261100D01*
X1127757Y261072D01*
X1127812Y261040D01*
X1127866Y261006D01*
X1127917Y260968D01*
X1127967Y260927D01*
X1128013Y260883D01*
X1128057Y260837D01*
X1128098Y260787D01*
X1128136Y260736D01*
X1128170Y260682D01*
X1128202Y260627D01*
X1128230Y260569D01*
X1128254Y260510D01*
X1128275Y260450D01*
X1128292Y260388D01*
X1128306Y260326D01*
X1128315Y260263D01*
X1128321Y260199D01*
X1128323Y260135D01*
X1128323Y259077D01*
X1125360Y262857D02*
X1124513Y263915D01*
X1128323Y263915D01*
X1128323Y262857D02*
X1128323Y264973D01*
D11*
X1133950Y282650D02*
X1135150Y282650D01*
X1146650Y282650D02*
X1147950Y282650D01*
X1147950Y254850D02*
X1147950Y254050D01*
X1147850Y253950D02*
X1146950Y252650D01*
X1144650Y262750D02*
X1137450Y262750D01*
X1141150Y264550D02*
X1144650Y262750D01*
X1141150Y264550D02*
X1137450Y262750D01*
X1135050Y252650D02*
X1133950Y252650D01*
X1146650Y252650D02*
X1146750Y252650D01*
D15*
X677416Y261808D02*
X677416Y268425D01*
X677416Y261808D02*
X677418Y261708D01*
X677424Y261608D01*
X677434Y261509D01*
X677447Y261410D01*
X677465Y261311D01*
X677486Y261214D01*
X677512Y261117D01*
X677541Y261022D01*
X677573Y260927D01*
X677610Y260834D01*
X677650Y260743D01*
X677693Y260653D01*
X677740Y260564D01*
X677791Y260478D01*
X677845Y260394D01*
X677902Y260312D01*
X677962Y260232D01*
X678026Y260155D01*
X678092Y260080D01*
X678161Y260008D01*
X678233Y259939D01*
X678308Y259873D01*
X678385Y259809D01*
X678465Y259749D01*
X678547Y259692D01*
X678631Y259638D01*
X678717Y259587D01*
X678806Y259540D01*
X678896Y259497D01*
X678987Y259457D01*
X679080Y259420D01*
X679175Y259388D01*
X679270Y259359D01*
X679367Y259333D01*
X679464Y259312D01*
X679563Y259294D01*
X679662Y259281D01*
X679761Y259271D01*
X679861Y259265D01*
X679961Y259263D01*
X680061Y259265D01*
X680161Y259271D01*
X680260Y259281D01*
X680359Y259294D01*
X680458Y259312D01*
X680555Y259333D01*
X680652Y259359D01*
X680747Y259388D01*
X680842Y259420D01*
X680935Y259457D01*
X681026Y259497D01*
X681116Y259540D01*
X681205Y259587D01*
X681291Y259638D01*
X681375Y259692D01*
X681457Y259749D01*
X681537Y259809D01*
X681614Y259873D01*
X681689Y259939D01*
X681761Y260008D01*
X681830Y260080D01*
X681896Y260155D01*
X681960Y260232D01*
X682020Y260312D01*
X682077Y260394D01*
X682131Y260478D01*
X682182Y260564D01*
X682229Y260653D01*
X682272Y260743D01*
X682312Y260834D01*
X682349Y260927D01*
X682381Y261022D01*
X682410Y261117D01*
X682436Y261214D01*
X682457Y261311D01*
X682475Y261410D01*
X682488Y261509D01*
X682498Y261608D01*
X682504Y261708D01*
X682506Y261808D01*
X682506Y268425D01*
X688815Y268425D02*
X688815Y259264D01*
X688815Y263844D02*
X687543Y264608D01*
X687478Y264649D01*
X687416Y264693D01*
X687355Y264740D01*
X687298Y264791D01*
X687243Y264844D01*
X687190Y264900D01*
X687141Y264958D01*
X687094Y265019D01*
X687051Y265082D01*
X687011Y265148D01*
X686974Y265215D01*
X686940Y265284D01*
X686911Y265354D01*
X686884Y265426D01*
X686862Y265500D01*
X686843Y265574D01*
X686828Y265649D01*
X686816Y265725D01*
X686809Y265801D01*
X686805Y265878D01*
X686806Y265954D01*
X686810Y266031D01*
X686818Y266107D01*
X686830Y266183D01*
X686845Y266258D01*
X686864Y266332D01*
X686888Y266405D01*
X686914Y266477D01*
X686945Y266547D01*
X686978Y266616D01*
X687016Y266683D01*
X687056Y266748D01*
X687100Y266811D01*
X687147Y266872D01*
X687197Y266930D01*
X687250Y266985D01*
X687305Y267038D01*
X687363Y267088D01*
X687424Y267135D01*
X687487Y267179D01*
X687552Y267220D01*
X687619Y267257D01*
X687687Y267291D01*
X687758Y267321D01*
X687830Y267348D01*
X687903Y267371D01*
X687977Y267391D01*
X688052Y267406D01*
X688177Y267427D01*
X688302Y267444D01*
X688428Y267457D01*
X688554Y267466D01*
X688680Y267471D01*
X688807Y267472D01*
X688933Y267469D01*
X689059Y267462D01*
X689185Y267451D01*
X689311Y267436D01*
X689436Y267418D01*
X689560Y267395D01*
X689684Y267369D01*
X689807Y267338D01*
X689928Y267304D01*
X690049Y267266D01*
X690168Y267224D01*
X690286Y267179D01*
X690403Y267130D01*
X690518Y267077D01*
X690631Y267021D01*
X690742Y266961D01*
X690851Y266897D01*
X688815Y263844D02*
X690088Y263081D01*
X690088Y263080D02*
X690153Y263039D01*
X690215Y262995D01*
X690276Y262948D01*
X690333Y262897D01*
X690388Y262844D01*
X690441Y262788D01*
X690490Y262730D01*
X690537Y262669D01*
X690580Y262606D01*
X690620Y262540D01*
X690657Y262473D01*
X690691Y262404D01*
X690720Y262333D01*
X690747Y262261D01*
X690769Y262188D01*
X690788Y262114D01*
X690803Y262039D01*
X690815Y261963D01*
X690822Y261887D01*
X690826Y261810D01*
X690825Y261734D01*
X690821Y261657D01*
X690813Y261581D01*
X690801Y261505D01*
X690786Y261430D01*
X690767Y261356D01*
X690743Y261283D01*
X690717Y261211D01*
X690686Y261141D01*
X690653Y261072D01*
X690615Y261005D01*
X690575Y260940D01*
X690531Y260877D01*
X690484Y260816D01*
X690434Y260758D01*
X690381Y260703D01*
X690326Y260650D01*
X690268Y260600D01*
X690207Y260553D01*
X690144Y260509D01*
X690079Y260468D01*
X690012Y260431D01*
X689944Y260397D01*
X689873Y260367D01*
X689801Y260340D01*
X689728Y260317D01*
X689654Y260297D01*
X689579Y260282D01*
X689454Y260261D01*
X689329Y260244D01*
X689203Y260231D01*
X689077Y260222D01*
X688951Y260217D01*
X688824Y260216D01*
X688698Y260219D01*
X688572Y260226D01*
X688446Y260237D01*
X688320Y260252D01*
X688195Y260270D01*
X688071Y260293D01*
X687947Y260319D01*
X687824Y260350D01*
X687703Y260384D01*
X687582Y260422D01*
X687463Y260464D01*
X687345Y260509D01*
X687228Y260558D01*
X687113Y260611D01*
X687000Y260667D01*
X686889Y260727D01*
X686779Y260791D01*
X697619Y268424D02*
X697714Y268422D01*
X697808Y268416D01*
X697902Y268406D01*
X697996Y268393D01*
X698089Y268375D01*
X698181Y268354D01*
X698272Y268329D01*
X698363Y268300D01*
X698451Y268267D01*
X698539Y268231D01*
X698625Y268191D01*
X698709Y268148D01*
X698791Y268101D01*
X698872Y268051D01*
X698950Y267998D01*
X699026Y267941D01*
X699099Y267881D01*
X699170Y267819D01*
X699238Y267753D01*
X699304Y267685D01*
X699366Y267614D01*
X699426Y267541D01*
X699483Y267465D01*
X699536Y267387D01*
X699586Y267306D01*
X699633Y267224D01*
X699676Y267140D01*
X699716Y267054D01*
X699752Y266966D01*
X699785Y266878D01*
X699814Y266787D01*
X699839Y266696D01*
X699860Y266604D01*
X699878Y266511D01*
X699891Y266417D01*
X699901Y266323D01*
X699907Y266229D01*
X699909Y266134D01*
X697619Y268424D02*
X697513Y268422D01*
X697408Y268416D01*
X697302Y268407D01*
X697198Y268394D01*
X697093Y268377D01*
X696990Y268356D01*
X696887Y268331D01*
X696785Y268303D01*
X696684Y268272D01*
X696584Y268236D01*
X696486Y268197D01*
X696389Y268155D01*
X696294Y268109D01*
X696201Y268060D01*
X696109Y268007D01*
X696019Y267951D01*
X695932Y267892D01*
X695846Y267830D01*
X695763Y267765D01*
X695682Y267696D01*
X695604Y267625D01*
X695528Y267552D01*
X695455Y267475D01*
X695385Y267396D01*
X695318Y267315D01*
X695253Y267231D01*
X695192Y267145D01*
X695134Y267056D01*
X695079Y266966D01*
X695027Y266874D01*
X694979Y266780D01*
X694934Y266684D01*
X694892Y266587D01*
X694854Y266488D01*
X694820Y266388D01*
X699146Y264353D02*
X699213Y264419D01*
X699278Y264489D01*
X699340Y264560D01*
X699399Y264634D01*
X699455Y264711D01*
X699509Y264789D01*
X699559Y264870D01*
X699606Y264952D01*
X699650Y265036D01*
X699691Y265122D01*
X699728Y265209D01*
X699762Y265297D01*
X699793Y265387D01*
X699820Y265478D01*
X699843Y265570D01*
X699863Y265663D01*
X699880Y265756D01*
X699893Y265850D01*
X699902Y265944D01*
X699907Y266039D01*
X699909Y266134D01*
X699146Y264353D02*
X694820Y259264D01*
X699909Y259264D01*
D11*
X704650Y252500D02*
X689650Y252500D01*
X689650Y222500D02*
X704650Y222500D01*
D16*
X672500Y247000D02*
X672502Y247063D01*
X672508Y247125D01*
X672518Y247187D01*
X672531Y247249D01*
X672549Y247309D01*
X672570Y247368D01*
X672595Y247426D01*
X672624Y247482D01*
X672656Y247536D01*
X672691Y247588D01*
X672729Y247637D01*
X672771Y247685D01*
X672815Y247729D01*
X672863Y247771D01*
X672912Y247809D01*
X672964Y247844D01*
X673018Y247876D01*
X673074Y247905D01*
X673132Y247930D01*
X673191Y247951D01*
X673251Y247969D01*
X673313Y247982D01*
X673375Y247992D01*
X673437Y247998D01*
X673500Y248000D01*
X673563Y247998D01*
X673625Y247992D01*
X673687Y247982D01*
X673749Y247969D01*
X673809Y247951D01*
X673868Y247930D01*
X673926Y247905D01*
X673982Y247876D01*
X674036Y247844D01*
X674088Y247809D01*
X674137Y247771D01*
X674185Y247729D01*
X674229Y247685D01*
X674271Y247637D01*
X674309Y247588D01*
X674344Y247536D01*
X674376Y247482D01*
X674405Y247426D01*
X674430Y247368D01*
X674451Y247309D01*
X674469Y247249D01*
X674482Y247187D01*
X674492Y247125D01*
X674498Y247063D01*
X674500Y247000D01*
X674498Y246937D01*
X674492Y246875D01*
X674482Y246813D01*
X674469Y246751D01*
X674451Y246691D01*
X674430Y246632D01*
X674405Y246574D01*
X674376Y246518D01*
X674344Y246464D01*
X674309Y246412D01*
X674271Y246363D01*
X674229Y246315D01*
X674185Y246271D01*
X674137Y246229D01*
X674088Y246191D01*
X674036Y246156D01*
X673982Y246124D01*
X673926Y246095D01*
X673868Y246070D01*
X673809Y246049D01*
X673749Y246031D01*
X673687Y246018D01*
X673625Y246008D01*
X673563Y246002D01*
X673500Y246000D01*
X673437Y246002D01*
X673375Y246008D01*
X673313Y246018D01*
X673251Y246031D01*
X673191Y246049D01*
X673132Y246070D01*
X673074Y246095D01*
X673018Y246124D01*
X672964Y246156D01*
X672912Y246191D01*
X672863Y246229D01*
X672815Y246271D01*
X672771Y246315D01*
X672729Y246363D01*
X672691Y246412D01*
X672656Y246464D01*
X672624Y246518D01*
X672595Y246574D01*
X672570Y246632D01*
X672549Y246691D01*
X672531Y246751D01*
X672518Y246813D01*
X672508Y246875D01*
X672502Y246937D01*
X672500Y247000D01*
M02*
