G04 EAGLE Gerber X2 export*
%TF.Part,Single*%
%TF.FileFunction,Other,Component side*%
%TF.FilePolarity,Positive*%
%TF.GenerationSoftware,Autodesk,EAGLE,8.6.3*%
%TF.CreationDate,2019-06-11T09:33:43Z*%
G75*
%MOMM*%
%FSLAX34Y34*%
%LPD*%
%AMOC8*
5,1,8,0,0,1.08239X$1,22.5*%
G01*
%ADD10R,1.100000X1.250000*%
%ADD11R,1.700000X2.500000*%
%ADD12R,1.000000X1.100000*%
%ADD13R,0.800000X1.200000*%
%ADD14R,0.800000X2.000000*%
%ADD15R,1.420000X0.580000*%
%ADD16C,0.508000*%
%ADD17C,0.254000*%
%ADD18C,0.500000*%
%ADD19C,2.000000*%
%ADD20C,1.016000*%
%ADD21C,0.806400*%


D10*
X734750Y246250D03*
X751750Y246250D03*
D11*
X640551Y163685D03*
X640551Y203684D03*
D12*
X641050Y230200D03*
X641050Y247200D03*
D13*
X1140950Y254950D03*
D14*
X1140950Y276450D03*
D15*
X685700Y247000D03*
X685700Y237500D03*
X685700Y228000D03*
X708600Y228000D03*
X708600Y247000D03*
D16*
X640551Y227100D02*
X640551Y203684D01*
X640551Y227100D02*
X640551Y229701D01*
X641050Y230200D01*
X641451Y228000D02*
X685700Y228000D01*
X641451Y228000D02*
X640551Y227100D01*
D17*
X685700Y247000D02*
X697500Y247000D01*
X697500Y228150D01*
X685700Y228150D01*
X685700Y228000D01*
D18*
X537400Y247500D02*
X479800Y247500D01*
X537400Y247500D02*
X613700Y247500D01*
D19*
X479800Y247500D02*
X476800Y247500D01*
D16*
X613700Y247500D02*
X640750Y247500D01*
X641050Y247200D01*
X662750Y237500D02*
X685700Y237500D01*
X653050Y247200D02*
X642300Y247200D01*
X653050Y247200D02*
X662750Y237500D01*
D17*
X642300Y247200D02*
X641050Y247200D01*
X682300Y276450D02*
X1140950Y276450D01*
X682300Y276450D02*
X653050Y247200D01*
D16*
X539450Y245450D02*
X537400Y247500D01*
D20*
X539450Y245450D02*
X539450Y240350D01*
D17*
X751750Y246250D02*
X1132250Y246250D01*
X1140950Y254950D01*
D21*
X420800Y218500D03*
D18*
X420308Y227925D01*
X418339Y237196D01*
X414929Y246080D01*
X410150Y254355D01*
X404110Y261810D01*
X396949Y268255D01*
X388834Y273520D01*
X379959Y277466D01*
X370538Y279984D01*
X360800Y281000D01*
X350984Y280477D01*
X341332Y278417D01*
X332085Y274856D01*
X323476Y269873D01*
X315722Y263578D01*
X309023Y256118D01*
X303553Y247669D01*
X299457Y238432D01*
X296847Y228629D01*
X295800Y218500D01*
X296353Y208293D01*
X298506Y198259D01*
X302216Y188650D01*
X307405Y179706D01*
X313954Y171654D01*
X321712Y164700D01*
X330496Y159025D01*
X340096Y154779D01*
X350280Y152078D01*
X360800Y151000D01*
X371398Y151584D01*
X381813Y153828D01*
X391785Y157689D01*
X401063Y163082D01*
X409414Y169886D01*
X416622Y177943D01*
X422502Y187061D01*
X426898Y197023D01*
X429691Y207589D01*
X430800Y218500D01*
X430185Y229490D01*
X427849Y240286D01*
X423839Y250620D01*
X418240Y260233D01*
X411181Y268881D01*
X402827Y276345D01*
X393374Y282430D01*
X383049Y286976D01*
X372102Y289860D01*
X360800Y291000D01*
X349419Y290354D01*
X338242Y287927D01*
X327545Y283766D01*
X317598Y277963D01*
X308651Y270649D01*
X300933Y261996D01*
X294643Y252209D01*
X289946Y241522D01*
X286970Y230193D01*
X285800Y218500D01*
X286476Y206728D01*
X288995Y195169D01*
X293306Y184110D01*
X299315Y173828D01*
X306883Y164583D01*
X315834Y156610D01*
X325956Y150115D01*
X337006Y145269D01*
X348715Y142201D01*
X360800Y141000D01*
X372963Y141707D01*
X384903Y144318D01*
X396325Y148779D01*
X406941Y154992D01*
X416485Y162815D01*
X424712Y172065D01*
X431412Y182521D01*
X436409Y193933D01*
X439568Y206024D01*
X440800Y218500D01*
X440062Y231054D01*
X437360Y243376D01*
X432749Y255160D01*
X426330Y266111D01*
X418252Y275952D01*
X408704Y284435D01*
X397914Y291340D01*
X386139Y296487D01*
X373667Y299737D01*
X360800Y301000D01*
X347855Y300231D01*
X335152Y297438D01*
X323005Y292676D01*
X311720Y286053D01*
X301580Y277720D01*
X292843Y267874D01*
X285733Y256749D01*
X280436Y244612D01*
X277093Y231758D01*
X275800Y218500D01*
X276600Y205164D01*
X279485Y192079D01*
X284396Y179570D01*
X291225Y167950D01*
X299812Y157512D01*
X309957Y148520D01*
X321416Y141205D01*
X333916Y135758D01*
X347151Y132324D01*
X360800Y131000D01*
X374527Y131830D01*
X387993Y134807D01*
X400865Y139869D01*
X412819Y146902D01*
X423556Y155744D01*
X432803Y166187D01*
X440322Y177981D01*
X445920Y190843D01*
X449445Y204460D01*
X450800Y218500D01*
X449939Y232618D01*
X446871Y246466D01*
X441659Y259700D01*
X434421Y271988D01*
X425323Y283023D01*
X414582Y292525D01*
X402454Y300250D01*
X389230Y305997D01*
X375231Y309614D01*
X360800Y311000D01*
X346291Y310108D01*
X332061Y306948D01*
X318465Y301586D01*
X305842Y294143D01*
X294509Y284791D01*
X284752Y273752D01*
X276823Y261289D01*
X270925Y247702D01*
X267217Y233322D01*
X265800Y218500D01*
X266723Y203600D01*
X269974Y188989D01*
X275486Y175030D01*
X283134Y162073D01*
X292741Y150441D01*
X304079Y140430D01*
X316876Y132295D01*
X330825Y126248D01*
X345587Y122447D01*
X360800Y121000D01*
X376091Y121953D01*
X391084Y125296D01*
X405405Y130959D01*
X418697Y138812D01*
X430627Y148673D01*
X440893Y160309D01*
X449232Y173441D01*
X455430Y187753D01*
X459322Y202896D01*
X460800Y218500D01*
X459816Y234183D01*
X456381Y249556D01*
X450569Y264240D01*
X442511Y277866D01*
X432395Y290095D01*
X420460Y300615D01*
X406994Y309160D01*
X392320Y315508D01*
X376795Y319491D01*
X360800Y321000D01*
X344726Y319985D01*
X328971Y316459D01*
X313925Y310496D01*
X299964Y302233D01*
X287438Y291862D01*
X276662Y279630D01*
X267913Y265829D01*
X261415Y250792D01*
X257340Y234887D01*
X255800Y218500D01*
X256846Y202035D01*
X260464Y185899D01*
X266576Y170491D01*
X275044Y156195D01*
X285670Y143370D01*
X298201Y132340D01*
X312337Y123385D01*
X327735Y116737D01*
X344022Y112570D01*
X360800Y111000D01*
X377656Y112077D01*
X394174Y115786D01*
X409944Y122049D01*
X424575Y130722D01*
X437698Y141602D01*
X448983Y154431D01*
X458142Y168902D01*
X464941Y184663D01*
X471199Y210331D01*
X471800Y228500D01*
D21*
X471800Y228500D03*
D18*
X420800Y218500D02*
X381800Y218500D01*
D19*
X380800Y218500D01*
D16*
X603350Y176900D02*
X621800Y158450D01*
X635316Y158450D02*
X640551Y163685D01*
X635316Y158450D02*
X621800Y158450D01*
X603350Y176900D02*
X576950Y176900D01*
X484950Y215350D02*
X471800Y228500D01*
X484950Y215350D02*
X538500Y215350D01*
X576950Y176900D01*
X538500Y215350D02*
X538800Y215650D01*
D20*
X538800Y221650D01*
D17*
X708600Y246250D02*
X734750Y246250D01*
X708600Y246250D02*
X708600Y247000D01*
M02*
