G04 EAGLE Gerber X2 export*
%TF.Part,Single*%
%TF.FileFunction,Other,Solder stop mask CMP*%
%TF.FilePolarity,Positive*%
%TF.GenerationSoftware,Autodesk,EAGLE,8.6.3*%
%TF.CreationDate,2019-06-11T09:18:05Z*%
G75*
%MOMM*%
%FSLAX34Y34*%
%LPD*%
%AMOC8*
5,1,8,0,0,1.08239X$1,22.5*%
G01*
%ADD10R,1.203200X1.303200*%
%ADD11R,1.003200X1.403200*%
%ADD12R,1.003200X2.203200*%
%ADD13R,1.303200X1.453200*%
%ADD14R,0.400000X0.600000*%
%ADD15R,0.668747X0.668747*%
%ADD16C,1.009600*%

G36*
X447104Y153749D02*
X447104Y153749D01*
X447104Y153750D01*
X447104Y155500D01*
X447103Y155502D01*
X447103Y155503D01*
X444728Y157753D01*
X444726Y157753D01*
X444726Y157754D01*
X444725Y157754D01*
X442100Y157754D01*
X442096Y157751D01*
X442096Y157750D01*
X442096Y153750D01*
X442099Y153746D01*
X442100Y153746D01*
X447100Y153746D01*
X447104Y153749D01*
G37*
G36*
X455104Y153749D02*
X455104Y153749D01*
X455104Y153750D01*
X455104Y157750D01*
X455101Y157754D01*
X455100Y157754D01*
X452475Y157754D01*
X452474Y157753D01*
X452472Y157753D01*
X450097Y155503D01*
X450097Y155502D01*
X450097Y155501D01*
X450096Y155500D01*
X450096Y153750D01*
X450099Y153746D01*
X450100Y153746D01*
X455100Y153746D01*
X455104Y153749D01*
G37*
G36*
X444726Y160247D02*
X444726Y160247D01*
X444728Y160247D01*
X447103Y162497D01*
X447103Y162499D01*
X447104Y162500D01*
X447104Y164250D01*
X447101Y164254D01*
X447100Y164254D01*
X442100Y164254D01*
X442096Y164251D01*
X442096Y164250D01*
X442096Y160250D01*
X442099Y160246D01*
X442100Y160246D01*
X444725Y160246D01*
X444726Y160247D01*
G37*
G36*
X455104Y160249D02*
X455104Y160249D01*
X455104Y160250D01*
X455104Y164250D01*
X455101Y164254D01*
X455100Y164254D01*
X450100Y164254D01*
X450096Y164251D01*
X450096Y164250D01*
X450096Y162500D01*
X450097Y162498D01*
X450097Y162497D01*
X452472Y160247D01*
X452474Y160247D01*
X452475Y160246D01*
X455100Y160246D01*
X455104Y160249D01*
G37*
D10*
X414000Y151300D03*
X414000Y168300D03*
D11*
X914600Y153300D03*
D12*
X914600Y174800D03*
D13*
X480100Y150300D03*
X497100Y150300D03*
D14*
X386900Y150900D03*
X394900Y150900D03*
D15*
G36*
X448944Y163383D02*
X453671Y158656D01*
X448944Y153929D01*
X444217Y158656D01*
X448944Y163383D01*
G37*
D16*
X235000Y169000D03*
X286000Y179000D03*
M02*
