G04 EAGLE Gerber X2 export*
%TF.Part,Single*%
%TF.FileFunction,Other,Component side*%
%TF.FilePolarity,Positive*%
%TF.GenerationSoftware,Autodesk,EAGLE,8.6.3*%
%TF.CreationDate,2019-07-10T15:58:50Z*%
G75*
%MOMM*%
%FSLAX34Y34*%
%LPD*%
%AMOC8*
5,1,8,0,0,1.08239X$1,22.5*%
G01*
%ADD10R,1.100000X1.000000*%
%ADD11R,1.200000X0.800000*%
%ADD12R,2.000000X0.800000*%
%ADD13R,1.250000X1.100000*%
%ADD14R,0.400000X0.600000*%
%ADD15R,0.520000X0.520000*%
%ADD16R,0.100000X0.100000*%
%ADD17C,0.254000*%
%ADD18C,1.016000*%
%ADD19C,0.806400*%
%ADD20C,0.500000*%
%ADD21C,2.000000*%
%ADD22C,0.508000*%

G36*
X702554Y394599D02*
X702554Y394599D01*
X702554Y394600D01*
X702554Y398500D01*
X702551Y398504D01*
X702550Y398504D01*
X701450Y398504D01*
X701448Y398503D01*
X701447Y398503D01*
X699947Y396953D01*
X699947Y396952D01*
X699946Y396951D01*
X699946Y396950D01*
X699946Y394600D01*
X699949Y394596D01*
X699950Y394596D01*
X702550Y394596D01*
X702554Y394599D01*
G37*
G36*
X694552Y402697D02*
X694552Y402697D01*
X694553Y402697D01*
X696053Y404247D01*
X696053Y404249D01*
X696054Y404250D01*
X696054Y406600D01*
X696051Y406604D01*
X696050Y406604D01*
X693450Y406604D01*
X693446Y406601D01*
X693446Y406600D01*
X693446Y402700D01*
X693449Y402696D01*
X693450Y402696D01*
X694550Y402696D01*
X694552Y402697D01*
G37*
G36*
X702554Y402699D02*
X702554Y402699D01*
X702554Y402700D01*
X702554Y406600D01*
X702551Y406604D01*
X702550Y406604D01*
X699950Y406604D01*
X699946Y406601D01*
X699946Y406600D01*
X699946Y404250D01*
X699947Y404249D01*
X699947Y404247D01*
X701447Y402697D01*
X701449Y402697D01*
X701450Y402696D01*
X702550Y402696D01*
X702554Y402699D01*
G37*
G36*
X696054Y394599D02*
X696054Y394599D01*
X696054Y394600D01*
X696054Y396950D01*
X696053Y396951D01*
X696053Y396953D01*
X694553Y398503D01*
X694551Y398503D01*
X694550Y398504D01*
X693450Y398504D01*
X693446Y398501D01*
X693446Y398500D01*
X693446Y394600D01*
X693449Y394596D01*
X693450Y394596D01*
X696050Y394596D01*
X696054Y394599D01*
G37*
D10*
X678700Y394000D03*
X661700Y394000D03*
D11*
X793300Y383400D03*
D12*
X814800Y383400D03*
D13*
X718300Y401900D03*
X718300Y384900D03*
D14*
X670900Y377900D03*
X678900Y377900D03*
D15*
G36*
X694324Y400600D02*
X698000Y404276D01*
X701676Y400600D01*
X698000Y396924D01*
X694324Y400600D01*
G37*
D16*
X701250Y396600D03*
X694750Y396600D03*
X701250Y404600D03*
X694750Y404600D03*
D17*
X701250Y396600D02*
X701250Y388250D01*
X690900Y377900D02*
X678900Y377900D01*
X694750Y381750D02*
X701250Y388250D01*
X694750Y381750D02*
X690900Y377900D01*
X678900Y393800D02*
X678700Y394000D01*
X678900Y393800D02*
X678900Y377900D01*
X694750Y381750D02*
X694750Y396600D01*
X694750Y404600D02*
X694750Y410250D01*
X691000Y414000D01*
X689000Y414000D01*
X669000Y414000D01*
X661000Y406000D01*
X661000Y394700D01*
X661700Y394000D01*
X814800Y391200D02*
X814800Y383400D01*
X814800Y391200D02*
X811000Y395000D01*
X742000Y395000D01*
X739000Y398000D01*
X739000Y409000D01*
X725000Y423000D01*
X698000Y423000D01*
X689000Y414000D01*
X661700Y394000D02*
X640000Y394000D01*
D18*
X634000Y394000D01*
D17*
X718300Y384900D02*
X719900Y383300D01*
X720000Y383400D02*
X793300Y383400D01*
X720000Y383400D02*
X719900Y383300D01*
X718300Y401900D02*
X718300Y409700D01*
X715000Y413000D01*
X704000Y413000D01*
X701250Y410250D02*
X701250Y404600D01*
X701250Y410250D02*
X704000Y413000D01*
D19*
X579000Y368000D03*
D20*
X578508Y377425D01*
X576539Y386696D01*
X573129Y395580D01*
X568350Y403855D01*
X562310Y411310D01*
X555149Y417755D01*
X547034Y423020D01*
X538159Y426966D01*
X528738Y429484D01*
X519000Y430500D01*
X509184Y429977D01*
X499532Y427917D01*
X490285Y424356D01*
X481676Y419373D01*
X473922Y413078D01*
X467223Y405618D01*
X461753Y397169D01*
X457657Y387932D01*
X455047Y378129D01*
X454000Y368000D01*
X454553Y357793D01*
X456706Y347759D01*
X460416Y338150D01*
X465605Y329206D01*
X472154Y321154D01*
X479912Y314200D01*
X488696Y308525D01*
X498296Y304279D01*
X508480Y301578D01*
X519000Y300500D01*
X529598Y301084D01*
X540013Y303328D01*
X549985Y307189D01*
X559263Y312582D01*
X567614Y319386D01*
X574822Y327443D01*
X580702Y336561D01*
X585098Y346523D01*
X587891Y357089D01*
X589000Y368000D01*
X588385Y378990D01*
X586049Y389786D01*
X582039Y400120D01*
X576440Y409733D01*
X569381Y418381D01*
X561027Y425845D01*
X551574Y431930D01*
X541249Y436476D01*
X530302Y439360D01*
X519000Y440500D01*
X507619Y439854D01*
X496442Y437427D01*
X485745Y433266D01*
X475798Y427463D01*
X466851Y420149D01*
X459133Y411496D01*
X452843Y401709D01*
X448146Y391022D01*
X445170Y379693D01*
X444000Y368000D01*
X444676Y356228D01*
X447195Y344669D01*
X451506Y333610D01*
X457515Y323328D01*
X465083Y314083D01*
X474034Y306110D01*
X484156Y299615D01*
X495206Y294769D01*
X506915Y291701D01*
X519000Y290500D01*
X531163Y291207D01*
X543103Y293818D01*
X554525Y298279D01*
X565141Y304492D01*
X574685Y312315D01*
X582912Y321565D01*
X589612Y332021D01*
X594609Y343433D01*
X597768Y355524D01*
X599000Y368000D01*
X598262Y380554D01*
X595560Y392876D01*
X590949Y404660D01*
X584530Y415611D01*
X576452Y425452D01*
X566904Y433935D01*
X556114Y440840D01*
X544339Y445987D01*
X531867Y449237D01*
X519000Y450500D01*
X506055Y449731D01*
X493352Y446938D01*
X481205Y442176D01*
X469920Y435553D01*
X459780Y427220D01*
X451043Y417374D01*
X443933Y406249D01*
X438636Y394112D01*
X435293Y381258D01*
X434000Y368000D01*
X434800Y354664D01*
X437685Y341579D01*
X442596Y329070D01*
X449425Y317450D01*
X458012Y307012D01*
X468157Y298020D01*
X479616Y290705D01*
X492116Y285258D01*
X505351Y281824D01*
X519000Y280500D01*
X532727Y281330D01*
X546193Y284307D01*
X559065Y289369D01*
X571019Y296402D01*
X581756Y305244D01*
X591003Y315687D01*
X598522Y327481D01*
X604120Y340343D01*
X607645Y353960D01*
X609000Y368000D01*
X608139Y382118D01*
X605071Y395966D01*
X599859Y409200D01*
X592621Y421488D01*
X583523Y432523D01*
X572782Y442025D01*
X560654Y449750D01*
X547430Y455497D01*
X533431Y459114D01*
X519000Y460500D01*
X504491Y459608D01*
X490261Y456448D01*
X476665Y451086D01*
X464042Y443643D01*
X452709Y434291D01*
X442952Y423252D01*
X435023Y410789D01*
X429125Y397202D01*
X425417Y382822D01*
X424000Y368000D01*
X424923Y353100D01*
X428174Y338489D01*
X433686Y324530D01*
X441334Y311573D01*
X450941Y299941D01*
X462279Y289930D01*
X475076Y281795D01*
X489025Y275748D01*
X503787Y271947D01*
X519000Y270500D01*
X534291Y271453D01*
X549284Y274796D01*
X563605Y280459D01*
X576897Y288312D01*
X588827Y298173D01*
X599093Y309809D01*
X607432Y322941D01*
X613630Y337253D01*
X617522Y352396D01*
X619000Y368000D01*
X618016Y383683D01*
X614581Y399056D01*
X608769Y413740D01*
X600711Y427366D01*
X590595Y439595D01*
X578660Y450115D01*
X565194Y458660D01*
X550520Y465008D01*
X534995Y468991D01*
X519000Y470500D01*
X502926Y469485D01*
X487171Y465959D01*
X472125Y459996D01*
X458164Y451733D01*
X445638Y441362D01*
X434862Y429130D01*
X426113Y415329D01*
X419615Y400292D01*
X415540Y384387D01*
X414000Y368000D01*
X415046Y351535D01*
X418664Y335399D01*
X424776Y319991D01*
X433244Y305695D01*
X443870Y292870D01*
X456401Y281840D01*
X470537Y272885D01*
X485935Y266237D01*
X502222Y262070D01*
X519000Y260500D01*
X535856Y261577D01*
X552374Y265286D01*
X568144Y271549D01*
X582775Y280222D01*
X595898Y291102D01*
X607183Y303931D01*
X616342Y318402D01*
X623141Y334163D01*
X629399Y359831D01*
X630000Y378000D01*
D19*
X630000Y378000D03*
D20*
X654000Y378000D01*
X579000Y368000D02*
X540000Y368000D01*
D21*
X539000Y368000D01*
D22*
X652900Y377900D02*
X670900Y377900D01*
X654000Y378000D02*
X652900Y377900D01*
M02*
