G04 EAGLE Gerber X2 export*
%TF.Part,Single*%
%TF.FileFunction,Other,Silk screen CMP*%
%TF.FilePolarity,Positive*%
%TF.GenerationSoftware,Autodesk,EAGLE,8.6.3*%
%TF.CreationDate,2019-07-10T15:58:50Z*%
G75*
%MOMM*%
%FSLAX34Y34*%
%LPD*%
%AMOC8*
5,1,8,0,0,1.08239X$1,22.5*%
G01*
%ADD10C,0.000000*%
%ADD11C,0.152400*%
%ADD12C,0.050800*%
%ADD13C,0.127000*%
%ADD14C,0.025400*%
%ADD15C,0.050000*%


D10*
X0Y0D02*
X1000000Y0D01*
X1000000Y681100D01*
X0Y681100D01*
X0Y0D01*
D11*
X931000Y49000D02*
X931000Y50000D01*
D12*
X682212Y378851D02*
X680987Y378851D01*
X680918Y378853D01*
X680850Y378859D01*
X680782Y378868D01*
X680714Y378882D01*
X680648Y378899D01*
X680582Y378920D01*
X680518Y378944D01*
X680455Y378972D01*
X680394Y379004D01*
X680335Y379039D01*
X680278Y379077D01*
X680223Y379118D01*
X680171Y379163D01*
X680121Y379210D01*
X680074Y379260D01*
X680029Y379312D01*
X679988Y379367D01*
X679950Y379424D01*
X679915Y379483D01*
X679883Y379544D01*
X679855Y379607D01*
X679831Y379671D01*
X679810Y379737D01*
X679793Y379803D01*
X679779Y379871D01*
X679770Y379939D01*
X679764Y380007D01*
X679762Y380076D01*
X679762Y383139D01*
X679764Y383208D01*
X679770Y383276D01*
X679779Y383344D01*
X679793Y383412D01*
X679810Y383478D01*
X679831Y383544D01*
X679855Y383608D01*
X679883Y383670D01*
X679915Y383732D01*
X679950Y383791D01*
X679988Y383848D01*
X680029Y383903D01*
X680074Y383955D01*
X680121Y384005D01*
X680171Y384052D01*
X680223Y384097D01*
X680278Y384138D01*
X680335Y384176D01*
X680394Y384211D01*
X680455Y384243D01*
X680518Y384271D01*
X680582Y384295D01*
X680648Y384316D01*
X680714Y384333D01*
X680782Y384347D01*
X680850Y384356D01*
X680918Y384362D01*
X680987Y384364D01*
X682212Y384364D01*
X684293Y383139D02*
X685824Y384364D01*
X685824Y378851D01*
X684293Y378851D02*
X687356Y378851D01*
D13*
X671700Y389500D02*
X668700Y389500D01*
X668700Y398500D02*
X671700Y398500D01*
X791000Y390400D02*
X821000Y390400D01*
X821000Y376400D02*
X793300Y376400D01*
D14*
X797427Y396027D02*
X797427Y399837D01*
X798485Y399837D01*
X798549Y399835D01*
X798613Y399829D01*
X798676Y399820D01*
X798738Y399806D01*
X798800Y399789D01*
X798860Y399768D01*
X798919Y399744D01*
X798977Y399716D01*
X799032Y399684D01*
X799086Y399650D01*
X799137Y399612D01*
X799187Y399571D01*
X799233Y399527D01*
X799277Y399481D01*
X799318Y399431D01*
X799356Y399380D01*
X799390Y399326D01*
X799422Y399271D01*
X799450Y399213D01*
X799474Y399154D01*
X799495Y399094D01*
X799512Y399032D01*
X799526Y398970D01*
X799535Y398907D01*
X799541Y398843D01*
X799543Y398779D01*
X799544Y398779D02*
X799544Y397085D01*
X799543Y397085D02*
X799541Y397021D01*
X799535Y396957D01*
X799526Y396894D01*
X799512Y396832D01*
X799495Y396770D01*
X799474Y396710D01*
X799450Y396651D01*
X799422Y396593D01*
X799390Y396538D01*
X799356Y396484D01*
X799318Y396433D01*
X799277Y396383D01*
X799233Y396337D01*
X799187Y396293D01*
X799137Y396252D01*
X799086Y396214D01*
X799032Y396180D01*
X798977Y396148D01*
X798919Y396120D01*
X798860Y396096D01*
X798800Y396075D01*
X798738Y396058D01*
X798676Y396044D01*
X798613Y396035D01*
X798549Y396029D01*
X798485Y396027D01*
X797427Y396027D01*
X801207Y398990D02*
X802265Y399837D01*
X802265Y396027D01*
X801207Y396027D02*
X803323Y396027D01*
D13*
X821000Y390400D02*
X821000Y389200D01*
X821000Y377700D02*
X821000Y376400D01*
X793200Y376400D02*
X792400Y376400D01*
X792300Y376500D02*
X791000Y377400D01*
X801100Y379700D02*
X801100Y386900D01*
X802900Y383200D02*
X801100Y379700D01*
X802900Y383200D02*
X801100Y386900D01*
X791000Y389300D02*
X791000Y390400D01*
X791000Y377700D02*
X791000Y377600D01*
D12*
X732423Y403552D02*
X727922Y403552D01*
X727922Y404803D01*
X727924Y404872D01*
X727930Y404941D01*
X727939Y405009D01*
X727952Y405076D01*
X727969Y405143D01*
X727990Y405209D01*
X728014Y405273D01*
X728042Y405336D01*
X728073Y405398D01*
X728107Y405458D01*
X728145Y405515D01*
X728186Y405571D01*
X728229Y405624D01*
X728276Y405675D01*
X728325Y405723D01*
X728377Y405768D01*
X728432Y405810D01*
X728488Y405849D01*
X728547Y405886D01*
X728608Y405918D01*
X728670Y405948D01*
X728734Y405974D01*
X728799Y405996D01*
X728865Y406015D01*
X728932Y406030D01*
X729000Y406041D01*
X729069Y406049D01*
X729138Y406053D01*
X729206Y406053D01*
X729275Y406049D01*
X729344Y406041D01*
X729412Y406030D01*
X729479Y406015D01*
X729545Y405996D01*
X729610Y405974D01*
X729674Y405948D01*
X729736Y405918D01*
X729797Y405886D01*
X729856Y405849D01*
X729912Y405810D01*
X729967Y405768D01*
X730019Y405723D01*
X730068Y405675D01*
X730115Y405624D01*
X730158Y405571D01*
X730199Y405515D01*
X730237Y405458D01*
X730271Y405398D01*
X730302Y405336D01*
X730330Y405273D01*
X730354Y405209D01*
X730375Y405143D01*
X730392Y405076D01*
X730405Y405009D01*
X730414Y404941D01*
X730420Y404872D01*
X730422Y404803D01*
X730422Y403552D01*
X730422Y405053D02*
X732423Y406053D01*
X728922Y408028D02*
X727922Y409278D01*
X732423Y409278D01*
X732423Y408028D02*
X732423Y410529D01*
D15*
X703750Y406600D02*
X703752Y406631D01*
X703758Y406662D01*
X703768Y406692D01*
X703781Y406720D01*
X703798Y406747D01*
X703818Y406771D01*
X703841Y406793D01*
X703866Y406811D01*
X703894Y406826D01*
X703923Y406838D01*
X703953Y406846D01*
X703984Y406850D01*
X704016Y406850D01*
X704047Y406846D01*
X704077Y406838D01*
X704106Y406826D01*
X704134Y406811D01*
X704159Y406793D01*
X704182Y406771D01*
X704202Y406747D01*
X704219Y406720D01*
X704232Y406692D01*
X704242Y406662D01*
X704248Y406631D01*
X704250Y406600D01*
X704248Y406569D01*
X704242Y406538D01*
X704232Y406508D01*
X704219Y406480D01*
X704202Y406453D01*
X704182Y406429D01*
X704159Y406407D01*
X704134Y406389D01*
X704106Y406374D01*
X704077Y406362D01*
X704047Y406354D01*
X704016Y406350D01*
X703984Y406350D01*
X703953Y406354D01*
X703923Y406362D01*
X703894Y406374D01*
X703866Y406389D01*
X703841Y406407D01*
X703818Y406429D01*
X703798Y406453D01*
X703781Y406480D01*
X703768Y406508D01*
X703758Y406538D01*
X703752Y406569D01*
X703750Y406600D01*
D14*
X698128Y390869D02*
X698128Y388410D01*
X698130Y388349D01*
X698136Y388289D01*
X698145Y388229D01*
X698159Y388170D01*
X698176Y388112D01*
X698197Y388055D01*
X698222Y388000D01*
X698250Y387946D01*
X698281Y387894D01*
X698316Y387844D01*
X698354Y387797D01*
X698394Y387752D01*
X698438Y387710D01*
X698484Y387670D01*
X698533Y387634D01*
X698584Y387601D01*
X698636Y387571D01*
X698691Y387545D01*
X698747Y387522D01*
X698805Y387503D01*
X698863Y387488D01*
X698923Y387476D01*
X698983Y387468D01*
X699044Y387464D01*
X699104Y387464D01*
X699165Y387468D01*
X699225Y387476D01*
X699285Y387488D01*
X699343Y387503D01*
X699401Y387522D01*
X699457Y387545D01*
X699512Y387571D01*
X699564Y387601D01*
X699615Y387634D01*
X699664Y387670D01*
X699710Y387710D01*
X699754Y387752D01*
X699794Y387797D01*
X699832Y387844D01*
X699867Y387894D01*
X699898Y387946D01*
X699926Y388000D01*
X699951Y388055D01*
X699972Y388112D01*
X699989Y388170D01*
X700003Y388229D01*
X700012Y388289D01*
X700018Y388349D01*
X700020Y388410D01*
X700019Y388410D02*
X700019Y390869D01*
X702257Y390869D02*
X702257Y387464D01*
X702257Y389167D02*
X701784Y389450D01*
X701784Y389451D02*
X701745Y389476D01*
X701708Y389506D01*
X701673Y389538D01*
X701642Y389573D01*
X701613Y389610D01*
X701587Y389650D01*
X701565Y389691D01*
X701547Y389735D01*
X701532Y389779D01*
X701521Y389825D01*
X701514Y389872D01*
X701510Y389919D01*
X701511Y389966D01*
X701515Y390013D01*
X701524Y390059D01*
X701536Y390105D01*
X701552Y390149D01*
X701572Y390192D01*
X701595Y390233D01*
X701621Y390272D01*
X701651Y390309D01*
X701684Y390343D01*
X701719Y390374D01*
X701757Y390402D01*
X701797Y390427D01*
X701839Y390448D01*
X701882Y390466D01*
X701927Y390480D01*
X701973Y390491D01*
X701974Y390491D02*
X702045Y390502D01*
X702116Y390510D01*
X702188Y390514D01*
X702260Y390515D01*
X702332Y390512D01*
X702404Y390506D01*
X702475Y390497D01*
X702546Y390484D01*
X702616Y390468D01*
X702686Y390448D01*
X702754Y390425D01*
X702821Y390399D01*
X702887Y390370D01*
X702951Y390337D01*
X703014Y390301D01*
X702257Y389167D02*
X702730Y388883D01*
X702730Y388882D02*
X702769Y388857D01*
X702806Y388827D01*
X702841Y388795D01*
X702872Y388760D01*
X702901Y388723D01*
X702927Y388683D01*
X702949Y388642D01*
X702967Y388598D01*
X702982Y388554D01*
X702993Y388508D01*
X703000Y388461D01*
X703004Y388414D01*
X703003Y388367D01*
X702999Y388320D01*
X702990Y388274D01*
X702978Y388228D01*
X702962Y388184D01*
X702942Y388141D01*
X702919Y388100D01*
X702893Y388061D01*
X702863Y388024D01*
X702830Y387990D01*
X702795Y387959D01*
X702757Y387931D01*
X702717Y387906D01*
X702675Y387885D01*
X702631Y387867D01*
X702587Y387853D01*
X702541Y387842D01*
X702540Y387842D02*
X702469Y387831D01*
X702398Y387823D01*
X702326Y387819D01*
X702254Y387818D01*
X702182Y387821D01*
X702110Y387827D01*
X702038Y387836D01*
X701967Y387849D01*
X701897Y387865D01*
X701828Y387885D01*
X701760Y387908D01*
X701692Y387934D01*
X701627Y387964D01*
X701562Y387996D01*
X701500Y388032D01*
X704385Y387464D02*
X705330Y387464D01*
X705391Y387466D01*
X705451Y387472D01*
X705511Y387481D01*
X705570Y387495D01*
X705628Y387512D01*
X705685Y387533D01*
X705740Y387558D01*
X705794Y387586D01*
X705846Y387617D01*
X705896Y387652D01*
X705943Y387690D01*
X705988Y387730D01*
X706030Y387774D01*
X706070Y387820D01*
X706106Y387869D01*
X706139Y387920D01*
X706169Y387972D01*
X706195Y388027D01*
X706218Y388083D01*
X706237Y388141D01*
X706252Y388199D01*
X706264Y388259D01*
X706272Y388319D01*
X706276Y388380D01*
X706276Y388440D01*
X706272Y388501D01*
X706264Y388561D01*
X706252Y388621D01*
X706237Y388679D01*
X706218Y388737D01*
X706195Y388793D01*
X706169Y388848D01*
X706139Y388900D01*
X706106Y388951D01*
X706070Y389000D01*
X706030Y389046D01*
X705988Y389090D01*
X705943Y389130D01*
X705896Y389168D01*
X705846Y389203D01*
X705794Y389234D01*
X705740Y389262D01*
X705685Y389287D01*
X705628Y389308D01*
X705570Y389325D01*
X705511Y389339D01*
X705451Y389348D01*
X705391Y389354D01*
X705330Y389356D01*
X705520Y390869D02*
X704385Y390869D01*
X705520Y390870D02*
X705574Y390868D01*
X705628Y390862D01*
X705681Y390853D01*
X705733Y390839D01*
X705785Y390822D01*
X705834Y390802D01*
X705883Y390777D01*
X705929Y390750D01*
X705974Y390719D01*
X706016Y390685D01*
X706055Y390648D01*
X706092Y390609D01*
X706126Y390567D01*
X706157Y390522D01*
X706184Y390476D01*
X706209Y390427D01*
X706229Y390378D01*
X706246Y390326D01*
X706260Y390274D01*
X706269Y390221D01*
X706275Y390167D01*
X706277Y390113D01*
X706275Y390059D01*
X706269Y390005D01*
X706260Y389952D01*
X706246Y389900D01*
X706229Y389848D01*
X706209Y389799D01*
X706184Y389750D01*
X706157Y389704D01*
X706126Y389659D01*
X706092Y389617D01*
X706055Y389578D01*
X706016Y389541D01*
X705974Y389507D01*
X705929Y389476D01*
X705883Y389449D01*
X705834Y389424D01*
X705785Y389404D01*
X705733Y389387D01*
X705681Y389373D01*
X705628Y389364D01*
X705574Y389358D01*
X705520Y389356D01*
X704763Y389356D01*
M02*
