G04 EAGLE Gerber X2 export*
%TF.Part,Single*%
%TF.FileFunction,Other,Component side*%
%TF.FilePolarity,Positive*%
%TF.GenerationSoftware,Autodesk,EAGLE,8.6.3*%
%TF.CreationDate,2019-05-27T14:53:50Z*%
G75*
%MOMM*%
%FSLAX34Y34*%
%LPD*%
%AMOC8*
5,1,8,0,0,1.08239X$1,22.5*%
G01*
%ADD10R,1.100000X1.250000*%
%ADD11R,2.500000X1.700000*%
%ADD12R,1.000000X1.100000*%
%ADD13R,1.200000X0.800000*%
%ADD14R,2.000000X0.800000*%
%ADD15R,1.420000X0.580000*%
%ADD16C,0.304800*%
%ADD17C,0.203200*%
%ADD18C,0.254000*%
%ADD19C,2.540000*%


D10*
X900950Y242150D03*
X917950Y242150D03*
D11*
X660635Y200649D03*
X700634Y200649D03*
D12*
X699550Y229000D03*
X699550Y246000D03*
D13*
X1043250Y240300D03*
D14*
X1064750Y240300D03*
D15*
X785200Y242600D03*
X785200Y233100D03*
X785200Y223600D03*
X808100Y223600D03*
X808100Y242600D03*
D16*
X700634Y227916D02*
X699550Y229000D01*
X700634Y221200D02*
X700634Y200649D01*
X700634Y221200D02*
X700634Y227916D01*
D17*
X703034Y223600D02*
X785200Y223600D01*
X703034Y223600D02*
X700634Y221200D01*
X785200Y242600D02*
X794050Y242600D01*
X797150Y239500D02*
X797150Y225950D01*
X794800Y223600D01*
X785200Y223600D01*
X797150Y239500D02*
X794050Y242600D01*
D16*
X785200Y242600D02*
X772200Y242600D01*
X772150Y242650D01*
X700275Y246725D02*
X699550Y246000D01*
D18*
X700275Y246725D02*
X564175Y246725D01*
D19*
X563850Y246400D01*
D17*
X700275Y246725D02*
X703200Y249650D01*
X719750Y233100D02*
X785200Y233100D01*
X719750Y233100D02*
X703200Y249650D01*
D16*
X1064750Y254250D02*
X1064750Y240300D01*
X1064750Y254250D02*
X1063350Y255650D01*
X709200Y255650D01*
X700275Y246725D01*
X917950Y242150D02*
X1041400Y242150D01*
X1043250Y240300D01*
D18*
X660635Y200649D02*
X563399Y200649D01*
D19*
X563150Y200400D01*
D16*
X808100Y242600D02*
X900500Y242600D01*
X900950Y242150D01*
M02*
