G04 EAGLE Gerber X2 export*
%TF.Part,Single*%
%TF.FileFunction,Other,Silk screen CMP*%
%TF.FilePolarity,Positive*%
%TF.GenerationSoftware,Autodesk,EAGLE,8.6.3*%
%TF.CreationDate,2019-05-27T14:53:50Z*%
G75*
%MOMM*%
%FSLAX34Y34*%
%LPD*%
%AMOC8*
5,1,8,0,0,1.08239X$1,22.5*%
G01*
%ADD10C,0.000000*%
%ADD11C,0.127000*%
%ADD12C,0.152400*%
%ADD13C,0.050800*%
%ADD14C,0.025400*%
%ADD15C,0.101600*%
%ADD16C,0.200000*%


D10*
X-160100Y-1000D02*
X1293200Y-1250D01*
X1293250Y656650D01*
X-160050Y656900D01*
X-160100Y-1000D01*
D11*
X892767Y307821D02*
X892767Y323315D01*
X892767Y307821D02*
X899653Y307821D01*
X905651Y307821D02*
X912537Y307821D01*
X905651Y307821D02*
X905651Y323315D01*
X912537Y323315D01*
X910815Y316429D02*
X905651Y316429D01*
X918507Y323315D02*
X918507Y307821D01*
X918507Y323315D02*
X922811Y323315D01*
X922941Y323313D01*
X923071Y323307D01*
X923201Y323297D01*
X923330Y323284D01*
X923459Y323266D01*
X923587Y323245D01*
X923714Y323219D01*
X923841Y323190D01*
X923967Y323157D01*
X924091Y323120D01*
X924215Y323080D01*
X924337Y323035D01*
X924458Y322987D01*
X924577Y322936D01*
X924695Y322881D01*
X924811Y322822D01*
X924925Y322760D01*
X925038Y322694D01*
X925148Y322625D01*
X925256Y322553D01*
X925362Y322478D01*
X925465Y322399D01*
X925566Y322317D01*
X925665Y322233D01*
X925761Y322145D01*
X925854Y322054D01*
X925945Y321961D01*
X926033Y321865D01*
X926117Y321766D01*
X926199Y321665D01*
X926278Y321562D01*
X926353Y321456D01*
X926425Y321348D01*
X926494Y321238D01*
X926560Y321125D01*
X926622Y321011D01*
X926681Y320895D01*
X926736Y320777D01*
X926787Y320658D01*
X926835Y320537D01*
X926880Y320415D01*
X926920Y320291D01*
X926957Y320167D01*
X926990Y320041D01*
X927019Y319914D01*
X927045Y319787D01*
X927066Y319659D01*
X927084Y319530D01*
X927097Y319401D01*
X927107Y319271D01*
X927113Y319141D01*
X927115Y319011D01*
X927115Y312125D01*
X927113Y311995D01*
X927107Y311865D01*
X927097Y311735D01*
X927084Y311606D01*
X927066Y311477D01*
X927045Y311349D01*
X927019Y311222D01*
X926990Y311095D01*
X926957Y310969D01*
X926920Y310845D01*
X926880Y310721D01*
X926835Y310599D01*
X926787Y310478D01*
X926736Y310359D01*
X926681Y310241D01*
X926622Y310125D01*
X926560Y310011D01*
X926494Y309898D01*
X926425Y309788D01*
X926353Y309680D01*
X926278Y309574D01*
X926199Y309471D01*
X926117Y309370D01*
X926033Y309271D01*
X925945Y309175D01*
X925854Y309082D01*
X925761Y308991D01*
X925665Y308903D01*
X925566Y308819D01*
X925465Y308737D01*
X925362Y308658D01*
X925256Y308583D01*
X925148Y308511D01*
X925038Y308442D01*
X924925Y308376D01*
X924811Y308314D01*
X924695Y308255D01*
X924577Y308200D01*
X924458Y308149D01*
X924337Y308101D01*
X924215Y308056D01*
X924091Y308016D01*
X923967Y307979D01*
X923841Y307946D01*
X923714Y307917D01*
X923587Y307891D01*
X923459Y307870D01*
X923330Y307852D01*
X923201Y307839D01*
X923071Y307829D01*
X922941Y307823D01*
X922811Y307821D01*
X918507Y307821D01*
D12*
X514168Y178768D02*
X514168Y162512D01*
X512362Y162512D02*
X515974Y162512D01*
X515974Y178768D02*
X512362Y178768D01*
X522679Y178768D02*
X522679Y162512D01*
X531710Y162512D02*
X522679Y178768D01*
X531710Y178768D02*
X531710Y162512D01*
X538970Y168834D02*
X549807Y168834D01*
X544389Y163415D02*
X544389Y174252D01*
X516793Y279493D02*
X514084Y279493D01*
X516793Y279493D02*
X516793Y270462D01*
X511374Y270462D01*
X511256Y270464D01*
X511138Y270470D01*
X511020Y270479D01*
X510903Y270493D01*
X510786Y270510D01*
X510669Y270531D01*
X510554Y270556D01*
X510439Y270585D01*
X510325Y270618D01*
X510213Y270654D01*
X510102Y270694D01*
X509992Y270737D01*
X509883Y270784D01*
X509776Y270834D01*
X509671Y270889D01*
X509568Y270946D01*
X509467Y271007D01*
X509367Y271071D01*
X509270Y271138D01*
X509175Y271208D01*
X509083Y271282D01*
X508992Y271358D01*
X508905Y271438D01*
X508820Y271520D01*
X508738Y271605D01*
X508658Y271692D01*
X508582Y271783D01*
X508508Y271875D01*
X508438Y271970D01*
X508371Y272067D01*
X508307Y272167D01*
X508246Y272268D01*
X508189Y272371D01*
X508134Y272476D01*
X508084Y272583D01*
X508037Y272692D01*
X507994Y272802D01*
X507954Y272913D01*
X507918Y273025D01*
X507885Y273139D01*
X507856Y273254D01*
X507831Y273369D01*
X507810Y273486D01*
X507793Y273603D01*
X507779Y273720D01*
X507770Y273838D01*
X507764Y273956D01*
X507762Y274074D01*
X507762Y283106D01*
X507764Y283224D01*
X507770Y283342D01*
X507779Y283460D01*
X507793Y283577D01*
X507810Y283694D01*
X507831Y283811D01*
X507856Y283926D01*
X507885Y284041D01*
X507918Y284155D01*
X507954Y284267D01*
X507994Y284378D01*
X508037Y284488D01*
X508084Y284597D01*
X508134Y284704D01*
X508188Y284809D01*
X508246Y284912D01*
X508307Y285013D01*
X508371Y285113D01*
X508438Y285210D01*
X508508Y285305D01*
X508582Y285397D01*
X508658Y285488D01*
X508738Y285575D01*
X508820Y285660D01*
X508905Y285742D01*
X508992Y285822D01*
X509083Y285898D01*
X509175Y285972D01*
X509270Y286042D01*
X509367Y286109D01*
X509467Y286173D01*
X509568Y286234D01*
X509671Y286291D01*
X509776Y286345D01*
X509883Y286396D01*
X509992Y286443D01*
X510102Y286486D01*
X510213Y286526D01*
X510325Y286562D01*
X510439Y286595D01*
X510554Y286624D01*
X510669Y286649D01*
X510786Y286670D01*
X510903Y286687D01*
X511020Y286701D01*
X511138Y286710D01*
X511256Y286716D01*
X511374Y286718D01*
X516793Y286718D01*
X524435Y286718D02*
X524435Y270462D01*
X533466Y270462D02*
X524435Y286718D01*
X533466Y286718D02*
X533466Y270462D01*
X541109Y270462D02*
X541109Y286718D01*
X545624Y286718D01*
X545755Y286716D01*
X545887Y286710D01*
X546018Y286701D01*
X546148Y286687D01*
X546279Y286670D01*
X546408Y286649D01*
X546537Y286625D01*
X546665Y286596D01*
X546793Y286564D01*
X546919Y286528D01*
X547044Y286489D01*
X547169Y286446D01*
X547291Y286399D01*
X547413Y286349D01*
X547533Y286295D01*
X547651Y286238D01*
X547767Y286177D01*
X547882Y286113D01*
X547995Y286046D01*
X548106Y285975D01*
X548214Y285901D01*
X548321Y285824D01*
X548425Y285744D01*
X548527Y285661D01*
X548626Y285576D01*
X548723Y285487D01*
X548817Y285395D01*
X548909Y285301D01*
X548998Y285204D01*
X549083Y285105D01*
X549166Y285003D01*
X549246Y284899D01*
X549323Y284792D01*
X549397Y284684D01*
X549468Y284573D01*
X549535Y284460D01*
X549599Y284345D01*
X549660Y284229D01*
X549717Y284111D01*
X549771Y283991D01*
X549821Y283869D01*
X549868Y283747D01*
X549911Y283622D01*
X549950Y283497D01*
X549986Y283371D01*
X550018Y283243D01*
X550047Y283115D01*
X550071Y282986D01*
X550092Y282857D01*
X550109Y282726D01*
X550123Y282596D01*
X550132Y282465D01*
X550138Y282333D01*
X550140Y282202D01*
X550140Y274978D01*
X550138Y274847D01*
X550132Y274715D01*
X550123Y274584D01*
X550109Y274454D01*
X550092Y274323D01*
X550071Y274194D01*
X550047Y274065D01*
X550018Y273937D01*
X549986Y273809D01*
X549950Y273683D01*
X549911Y273558D01*
X549868Y273433D01*
X549821Y273311D01*
X549771Y273189D01*
X549717Y273069D01*
X549660Y272951D01*
X549599Y272835D01*
X549535Y272720D01*
X549468Y272607D01*
X549397Y272496D01*
X549323Y272388D01*
X549246Y272281D01*
X549166Y272177D01*
X549083Y272075D01*
X548998Y271976D01*
X548909Y271879D01*
X548817Y271785D01*
X548723Y271693D01*
X548626Y271604D01*
X548527Y271519D01*
X548425Y271436D01*
X548321Y271356D01*
X548214Y271279D01*
X548106Y271205D01*
X547995Y271134D01*
X547882Y271067D01*
X547767Y271003D01*
X547651Y270942D01*
X547533Y270885D01*
X547413Y270831D01*
X547291Y270781D01*
X547169Y270734D01*
X547044Y270691D01*
X546919Y270652D01*
X546793Y270616D01*
X546665Y270584D01*
X546537Y270555D01*
X546408Y270531D01*
X546278Y270510D01*
X546148Y270493D01*
X546018Y270479D01*
X545887Y270470D01*
X545755Y270464D01*
X545624Y270462D01*
X541109Y270462D01*
D13*
X892321Y256273D02*
X892321Y251772D01*
X892321Y256273D02*
X893572Y256273D01*
X893641Y256271D01*
X893710Y256265D01*
X893778Y256256D01*
X893845Y256243D01*
X893912Y256226D01*
X893978Y256205D01*
X894042Y256181D01*
X894105Y256153D01*
X894167Y256122D01*
X894227Y256088D01*
X894284Y256050D01*
X894340Y256009D01*
X894393Y255966D01*
X894444Y255919D01*
X894492Y255870D01*
X894537Y255818D01*
X894579Y255763D01*
X894618Y255707D01*
X894655Y255648D01*
X894687Y255587D01*
X894717Y255525D01*
X894743Y255461D01*
X894765Y255396D01*
X894784Y255330D01*
X894799Y255263D01*
X894810Y255195D01*
X894818Y255126D01*
X894822Y255057D01*
X894822Y254989D01*
X894818Y254920D01*
X894810Y254851D01*
X894799Y254783D01*
X894784Y254716D01*
X894765Y254650D01*
X894743Y254585D01*
X894717Y254521D01*
X894687Y254459D01*
X894655Y254398D01*
X894618Y254339D01*
X894579Y254283D01*
X894537Y254228D01*
X894492Y254176D01*
X894444Y254127D01*
X894393Y254080D01*
X894340Y254037D01*
X894284Y253996D01*
X894227Y253958D01*
X894167Y253924D01*
X894105Y253893D01*
X894042Y253865D01*
X893978Y253841D01*
X893912Y253820D01*
X893845Y253803D01*
X893778Y253790D01*
X893710Y253781D01*
X893641Y253775D01*
X893572Y253773D01*
X893572Y253772D02*
X892321Y253772D01*
X893822Y253772D02*
X894822Y251772D01*
X896797Y255273D02*
X898047Y256273D01*
X898047Y251772D01*
X896797Y251772D02*
X899298Y251772D01*
X689914Y222794D02*
X689914Y221569D01*
X689912Y221500D01*
X689906Y221432D01*
X689897Y221364D01*
X689883Y221296D01*
X689866Y221230D01*
X689845Y221164D01*
X689821Y221100D01*
X689793Y221038D01*
X689761Y220976D01*
X689726Y220917D01*
X689688Y220860D01*
X689647Y220805D01*
X689602Y220753D01*
X689555Y220703D01*
X689505Y220656D01*
X689453Y220611D01*
X689398Y220570D01*
X689341Y220532D01*
X689282Y220497D01*
X689221Y220465D01*
X689158Y220437D01*
X689094Y220413D01*
X689028Y220392D01*
X688962Y220375D01*
X688894Y220361D01*
X688826Y220352D01*
X688758Y220346D01*
X688689Y220344D01*
X685626Y220344D01*
X685557Y220346D01*
X685489Y220352D01*
X685421Y220361D01*
X685353Y220375D01*
X685287Y220392D01*
X685221Y220413D01*
X685157Y220437D01*
X685095Y220465D01*
X685033Y220497D01*
X684974Y220532D01*
X684917Y220570D01*
X684862Y220611D01*
X684810Y220656D01*
X684760Y220703D01*
X684713Y220753D01*
X684668Y220805D01*
X684627Y220860D01*
X684589Y220917D01*
X684554Y220976D01*
X684522Y221037D01*
X684494Y221100D01*
X684470Y221164D01*
X684449Y221230D01*
X684432Y221296D01*
X684418Y221364D01*
X684409Y221432D01*
X684403Y221500D01*
X684401Y221569D01*
X684401Y222794D01*
X685626Y224876D02*
X684401Y226407D01*
X689914Y226407D01*
X689914Y224876D02*
X689914Y227939D01*
D11*
X695050Y236000D02*
X695050Y239000D01*
X704050Y239000D02*
X704050Y236000D01*
X1040950Y247300D02*
X1070950Y247300D01*
X1070950Y233300D02*
X1043250Y233300D01*
D14*
X1047377Y252927D02*
X1047377Y256737D01*
X1048435Y256737D01*
X1048499Y256735D01*
X1048563Y256729D01*
X1048626Y256720D01*
X1048688Y256706D01*
X1048750Y256689D01*
X1048810Y256668D01*
X1048869Y256644D01*
X1048927Y256616D01*
X1048982Y256584D01*
X1049036Y256550D01*
X1049087Y256512D01*
X1049137Y256471D01*
X1049183Y256427D01*
X1049227Y256381D01*
X1049268Y256331D01*
X1049306Y256280D01*
X1049340Y256226D01*
X1049372Y256171D01*
X1049400Y256113D01*
X1049424Y256054D01*
X1049445Y255994D01*
X1049462Y255932D01*
X1049476Y255870D01*
X1049485Y255807D01*
X1049491Y255743D01*
X1049493Y255679D01*
X1049494Y255679D02*
X1049494Y253985D01*
X1049493Y253985D02*
X1049491Y253921D01*
X1049485Y253857D01*
X1049476Y253794D01*
X1049462Y253732D01*
X1049445Y253670D01*
X1049424Y253610D01*
X1049400Y253551D01*
X1049372Y253493D01*
X1049340Y253438D01*
X1049306Y253384D01*
X1049268Y253333D01*
X1049227Y253283D01*
X1049183Y253237D01*
X1049137Y253193D01*
X1049087Y253152D01*
X1049036Y253114D01*
X1048982Y253080D01*
X1048927Y253048D01*
X1048869Y253020D01*
X1048810Y252996D01*
X1048750Y252975D01*
X1048688Y252958D01*
X1048626Y252944D01*
X1048563Y252935D01*
X1048499Y252929D01*
X1048435Y252927D01*
X1047377Y252927D01*
X1051157Y255890D02*
X1052215Y256737D01*
X1052215Y252927D01*
X1051157Y252927D02*
X1053273Y252927D01*
D11*
X1070950Y247300D02*
X1070950Y246100D01*
X1070950Y234600D02*
X1070950Y233300D01*
X1043150Y233300D02*
X1042350Y233300D01*
X1042250Y233400D02*
X1040950Y234300D01*
X1051050Y236600D02*
X1051050Y243800D01*
X1052850Y240100D02*
X1051050Y236600D01*
X1052850Y240100D02*
X1051050Y243800D01*
X1040950Y246200D02*
X1040950Y247300D01*
X1040950Y234600D02*
X1040950Y234500D01*
D15*
X776916Y257408D02*
X776916Y264025D01*
X776916Y257408D02*
X776918Y257308D01*
X776924Y257208D01*
X776934Y257109D01*
X776947Y257010D01*
X776965Y256911D01*
X776986Y256814D01*
X777012Y256717D01*
X777041Y256622D01*
X777073Y256527D01*
X777110Y256434D01*
X777150Y256343D01*
X777193Y256253D01*
X777240Y256164D01*
X777291Y256078D01*
X777345Y255994D01*
X777402Y255912D01*
X777462Y255832D01*
X777526Y255755D01*
X777592Y255680D01*
X777661Y255608D01*
X777733Y255539D01*
X777808Y255473D01*
X777885Y255409D01*
X777965Y255349D01*
X778047Y255292D01*
X778131Y255238D01*
X778217Y255187D01*
X778306Y255140D01*
X778396Y255097D01*
X778487Y255057D01*
X778580Y255020D01*
X778675Y254988D01*
X778770Y254959D01*
X778867Y254933D01*
X778964Y254912D01*
X779063Y254894D01*
X779162Y254881D01*
X779261Y254871D01*
X779361Y254865D01*
X779461Y254863D01*
X779561Y254865D01*
X779661Y254871D01*
X779760Y254881D01*
X779859Y254894D01*
X779958Y254912D01*
X780055Y254933D01*
X780152Y254959D01*
X780247Y254988D01*
X780342Y255020D01*
X780435Y255057D01*
X780526Y255097D01*
X780616Y255140D01*
X780705Y255187D01*
X780791Y255238D01*
X780875Y255292D01*
X780957Y255349D01*
X781037Y255409D01*
X781114Y255473D01*
X781189Y255539D01*
X781261Y255608D01*
X781330Y255680D01*
X781396Y255755D01*
X781460Y255832D01*
X781520Y255912D01*
X781577Y255994D01*
X781631Y256078D01*
X781682Y256164D01*
X781729Y256253D01*
X781772Y256343D01*
X781812Y256434D01*
X781849Y256527D01*
X781881Y256622D01*
X781910Y256717D01*
X781936Y256814D01*
X781957Y256911D01*
X781975Y257010D01*
X781988Y257109D01*
X781998Y257208D01*
X782004Y257308D01*
X782006Y257408D01*
X782006Y264025D01*
X788315Y264025D02*
X788315Y254864D01*
X788315Y259444D02*
X787043Y260208D01*
X786978Y260249D01*
X786916Y260293D01*
X786855Y260340D01*
X786798Y260391D01*
X786743Y260444D01*
X786690Y260500D01*
X786641Y260558D01*
X786594Y260619D01*
X786551Y260682D01*
X786511Y260748D01*
X786474Y260815D01*
X786440Y260884D01*
X786411Y260954D01*
X786384Y261026D01*
X786362Y261100D01*
X786343Y261174D01*
X786328Y261249D01*
X786316Y261325D01*
X786309Y261401D01*
X786305Y261478D01*
X786306Y261554D01*
X786310Y261631D01*
X786318Y261707D01*
X786330Y261783D01*
X786345Y261858D01*
X786364Y261932D01*
X786388Y262005D01*
X786414Y262077D01*
X786445Y262147D01*
X786478Y262216D01*
X786516Y262283D01*
X786556Y262348D01*
X786600Y262411D01*
X786647Y262472D01*
X786697Y262530D01*
X786750Y262585D01*
X786805Y262638D01*
X786863Y262688D01*
X786924Y262735D01*
X786987Y262779D01*
X787052Y262820D01*
X787119Y262857D01*
X787187Y262891D01*
X787258Y262921D01*
X787330Y262948D01*
X787403Y262971D01*
X787477Y262991D01*
X787552Y263006D01*
X787677Y263027D01*
X787802Y263044D01*
X787928Y263057D01*
X788054Y263066D01*
X788180Y263071D01*
X788307Y263072D01*
X788433Y263069D01*
X788559Y263062D01*
X788685Y263051D01*
X788811Y263036D01*
X788936Y263018D01*
X789060Y262995D01*
X789184Y262969D01*
X789307Y262938D01*
X789428Y262904D01*
X789549Y262866D01*
X789668Y262824D01*
X789786Y262779D01*
X789903Y262730D01*
X790018Y262677D01*
X790131Y262621D01*
X790242Y262561D01*
X790351Y262497D01*
X788315Y259444D02*
X789588Y258681D01*
X789588Y258680D02*
X789653Y258639D01*
X789715Y258595D01*
X789776Y258548D01*
X789833Y258497D01*
X789888Y258444D01*
X789941Y258388D01*
X789990Y258330D01*
X790037Y258269D01*
X790080Y258206D01*
X790120Y258140D01*
X790157Y258073D01*
X790191Y258004D01*
X790220Y257933D01*
X790247Y257861D01*
X790269Y257788D01*
X790288Y257714D01*
X790303Y257639D01*
X790315Y257563D01*
X790322Y257487D01*
X790326Y257410D01*
X790325Y257334D01*
X790321Y257257D01*
X790313Y257181D01*
X790301Y257105D01*
X790286Y257030D01*
X790267Y256956D01*
X790243Y256883D01*
X790217Y256811D01*
X790186Y256741D01*
X790153Y256672D01*
X790115Y256605D01*
X790075Y256540D01*
X790031Y256477D01*
X789984Y256416D01*
X789934Y256358D01*
X789881Y256303D01*
X789826Y256250D01*
X789768Y256200D01*
X789707Y256153D01*
X789644Y256109D01*
X789579Y256068D01*
X789512Y256031D01*
X789444Y255997D01*
X789373Y255967D01*
X789301Y255940D01*
X789228Y255917D01*
X789154Y255897D01*
X789079Y255882D01*
X788954Y255861D01*
X788829Y255844D01*
X788703Y255831D01*
X788577Y255822D01*
X788451Y255817D01*
X788324Y255816D01*
X788198Y255819D01*
X788072Y255826D01*
X787946Y255837D01*
X787820Y255852D01*
X787695Y255870D01*
X787571Y255893D01*
X787447Y255919D01*
X787324Y255950D01*
X787203Y255984D01*
X787082Y256022D01*
X786963Y256064D01*
X786845Y256109D01*
X786728Y256158D01*
X786613Y256211D01*
X786500Y256267D01*
X786389Y256327D01*
X786279Y256391D01*
X797119Y264024D02*
X797214Y264022D01*
X797308Y264016D01*
X797402Y264006D01*
X797496Y263993D01*
X797589Y263975D01*
X797681Y263954D01*
X797772Y263929D01*
X797863Y263900D01*
X797951Y263867D01*
X798039Y263831D01*
X798125Y263791D01*
X798209Y263748D01*
X798291Y263701D01*
X798372Y263651D01*
X798450Y263598D01*
X798526Y263541D01*
X798599Y263481D01*
X798670Y263419D01*
X798738Y263353D01*
X798804Y263285D01*
X798866Y263214D01*
X798926Y263141D01*
X798983Y263065D01*
X799036Y262987D01*
X799086Y262906D01*
X799133Y262824D01*
X799176Y262740D01*
X799216Y262654D01*
X799252Y262566D01*
X799285Y262478D01*
X799314Y262387D01*
X799339Y262296D01*
X799360Y262204D01*
X799378Y262111D01*
X799391Y262017D01*
X799401Y261923D01*
X799407Y261829D01*
X799409Y261734D01*
X797119Y264024D02*
X797013Y264022D01*
X796908Y264016D01*
X796802Y264007D01*
X796698Y263994D01*
X796593Y263977D01*
X796490Y263956D01*
X796387Y263931D01*
X796285Y263903D01*
X796184Y263872D01*
X796084Y263836D01*
X795986Y263797D01*
X795889Y263755D01*
X795794Y263709D01*
X795701Y263660D01*
X795609Y263607D01*
X795519Y263551D01*
X795432Y263492D01*
X795346Y263430D01*
X795263Y263365D01*
X795182Y263296D01*
X795104Y263225D01*
X795028Y263152D01*
X794955Y263075D01*
X794885Y262996D01*
X794818Y262915D01*
X794753Y262831D01*
X794692Y262745D01*
X794634Y262656D01*
X794579Y262566D01*
X794527Y262474D01*
X794479Y262380D01*
X794434Y262284D01*
X794392Y262187D01*
X794354Y262088D01*
X794320Y261988D01*
X798646Y259953D02*
X798713Y260019D01*
X798778Y260089D01*
X798840Y260160D01*
X798899Y260234D01*
X798955Y260311D01*
X799009Y260389D01*
X799059Y260470D01*
X799106Y260552D01*
X799150Y260636D01*
X799191Y260722D01*
X799228Y260809D01*
X799262Y260897D01*
X799293Y260987D01*
X799320Y261078D01*
X799343Y261170D01*
X799363Y261263D01*
X799380Y261356D01*
X799393Y261450D01*
X799402Y261544D01*
X799407Y261639D01*
X799409Y261734D01*
X798646Y259953D02*
X794320Y254864D01*
X799409Y254864D01*
D11*
X804150Y248100D02*
X789150Y248100D01*
X789150Y218100D02*
X804150Y218100D01*
D16*
X772000Y242600D02*
X772002Y242663D01*
X772008Y242725D01*
X772018Y242787D01*
X772031Y242849D01*
X772049Y242909D01*
X772070Y242968D01*
X772095Y243026D01*
X772124Y243082D01*
X772156Y243136D01*
X772191Y243188D01*
X772229Y243237D01*
X772271Y243285D01*
X772315Y243329D01*
X772363Y243371D01*
X772412Y243409D01*
X772464Y243444D01*
X772518Y243476D01*
X772574Y243505D01*
X772632Y243530D01*
X772691Y243551D01*
X772751Y243569D01*
X772813Y243582D01*
X772875Y243592D01*
X772937Y243598D01*
X773000Y243600D01*
X773063Y243598D01*
X773125Y243592D01*
X773187Y243582D01*
X773249Y243569D01*
X773309Y243551D01*
X773368Y243530D01*
X773426Y243505D01*
X773482Y243476D01*
X773536Y243444D01*
X773588Y243409D01*
X773637Y243371D01*
X773685Y243329D01*
X773729Y243285D01*
X773771Y243237D01*
X773809Y243188D01*
X773844Y243136D01*
X773876Y243082D01*
X773905Y243026D01*
X773930Y242968D01*
X773951Y242909D01*
X773969Y242849D01*
X773982Y242787D01*
X773992Y242725D01*
X773998Y242663D01*
X774000Y242600D01*
X773998Y242537D01*
X773992Y242475D01*
X773982Y242413D01*
X773969Y242351D01*
X773951Y242291D01*
X773930Y242232D01*
X773905Y242174D01*
X773876Y242118D01*
X773844Y242064D01*
X773809Y242012D01*
X773771Y241963D01*
X773729Y241915D01*
X773685Y241871D01*
X773637Y241829D01*
X773588Y241791D01*
X773536Y241756D01*
X773482Y241724D01*
X773426Y241695D01*
X773368Y241670D01*
X773309Y241649D01*
X773249Y241631D01*
X773187Y241618D01*
X773125Y241608D01*
X773063Y241602D01*
X773000Y241600D01*
X772937Y241602D01*
X772875Y241608D01*
X772813Y241618D01*
X772751Y241631D01*
X772691Y241649D01*
X772632Y241670D01*
X772574Y241695D01*
X772518Y241724D01*
X772464Y241756D01*
X772412Y241791D01*
X772363Y241829D01*
X772315Y241871D01*
X772271Y241915D01*
X772229Y241963D01*
X772191Y242012D01*
X772156Y242064D01*
X772124Y242118D01*
X772095Y242174D01*
X772070Y242232D01*
X772049Y242291D01*
X772031Y242351D01*
X772018Y242413D01*
X772008Y242475D01*
X772002Y242537D01*
X772000Y242600D01*
M02*
