G04 EAGLE Gerber X2 export*
%TF.Part,Single*%
%TF.FileFunction,Other,Component side*%
%TF.FilePolarity,Positive*%
%TF.GenerationSoftware,Autodesk,EAGLE,8.6.3*%
%TF.CreationDate,2019-05-12T15:35:41Z*%
G75*
%MOMM*%
%FSLAX34Y34*%
%LPD*%
%AMOC8*
5,1,8,0,0,1.08239X$1,22.5*%
G01*
%ADD10C,0.203200*%
%ADD11R,1.100000X1.250000*%
%ADD12R,1.625600X0.889000*%
%ADD13R,1.625600X3.175000*%
%ADD14R,1.700000X2.500000*%
%ADD15R,1.100000X1.000000*%
%ADD16R,0.800000X0.800000*%
%ADD17C,0.406400*%
%ADD18C,2.540000*%
%ADD19C,0.508000*%


D10*
X544612Y77384D02*
X544612Y54016D01*
X542016Y54016D02*
X547209Y54016D01*
X547209Y77384D02*
X542016Y77384D01*
X555520Y77384D02*
X555520Y54016D01*
X568503Y54016D02*
X555520Y77384D01*
X568503Y77384D02*
X568503Y54016D01*
X588324Y63104D02*
X603903Y63104D01*
X596113Y55314D02*
X596113Y70893D01*
X3612Y79384D02*
X3612Y56016D01*
X1016Y56016D02*
X6209Y56016D01*
X6209Y79384D02*
X1016Y79384D01*
X14520Y79384D02*
X14520Y56016D01*
X27503Y56016D02*
X14520Y79384D01*
X27503Y79384D02*
X27503Y56016D01*
X47324Y65104D02*
X62903Y65104D01*
D11*
X311700Y326800D03*
X294700Y326800D03*
D12*
X442996Y350114D03*
X442996Y327000D03*
X442996Y303886D03*
D13*
X507004Y327000D03*
D14*
X222851Y189085D03*
X222851Y229084D03*
X363149Y230916D03*
X363149Y190916D03*
D15*
X283500Y152000D03*
X300500Y152000D03*
X281500Y268000D03*
X298500Y268000D03*
D16*
X106000Y296500D03*
X106000Y311500D03*
D17*
X222851Y229084D02*
X261767Y268000D01*
X281500Y268000D01*
X261767Y268000D02*
X261767Y303886D01*
X442996Y303886D01*
X442996Y350114D02*
X172886Y350114D01*
X106000Y296500D02*
X106000Y278000D01*
X298500Y268000D02*
X363149Y268000D01*
X363149Y232000D01*
X363149Y230916D01*
X442996Y350114D02*
X442996Y433000D01*
X557000Y433000D01*
X557000Y232000D01*
X363149Y232000D01*
X106000Y278000D02*
X43000Y278000D01*
X172886Y350114D02*
X172886Y412000D01*
X43000Y412000D02*
X43000Y278000D01*
X43000Y412000D02*
X172886Y412000D01*
X311700Y326800D02*
X442796Y326800D01*
X442996Y327000D01*
X342000Y152000D02*
X300500Y152000D01*
D18*
X355000Y104000D02*
X355000Y42000D01*
X505000Y42000D01*
X505000Y105000D01*
X483000Y105000D01*
X384000Y105000D02*
X355000Y105000D01*
X384000Y105000D02*
X483000Y105000D01*
X483000Y57000D01*
X372000Y57000D01*
X372000Y79000D01*
X372000Y89000D01*
X372000Y79000D02*
X470000Y79000D01*
X472000Y90000D02*
X384000Y90000D01*
X384000Y105000D01*
D19*
X355000Y105000D02*
X355000Y121234D01*
D17*
X363149Y173149D02*
X363149Y190916D01*
X363149Y173149D02*
X342000Y152000D01*
X355000Y139000D02*
X355000Y121234D01*
X355000Y139000D02*
X342000Y152000D01*
D18*
X99000Y106000D02*
X99000Y44000D01*
X249000Y44000D01*
X249000Y107000D01*
X227000Y107000D01*
X99000Y107000D01*
X227000Y107000D02*
X227000Y59000D01*
X116000Y59000D01*
X116000Y81000D01*
X214000Y81000D01*
X218000Y93000D02*
X116000Y93000D01*
X116000Y81000D01*
D19*
X227000Y107000D02*
X227000Y120000D01*
D17*
X222851Y172149D02*
X222851Y189085D01*
X243000Y152000D02*
X283500Y152000D01*
X243000Y152000D02*
X222851Y172149D01*
X227000Y136000D02*
X227000Y120000D01*
X227000Y136000D02*
X243000Y152000D01*
X106000Y311500D02*
X106000Y326800D01*
X294700Y326800D01*
M02*
