G04 EAGLE Gerber X2 export*
%TF.Part,Single*%
%TF.FileFunction,Other,Component side*%
%TF.FilePolarity,Positive*%
%TF.GenerationSoftware,Autodesk,EAGLE,8.6.3*%
%TF.CreationDate,2019-05-17T13:18:32Z*%
G75*
%MOMM*%
%FSLAX34Y34*%
%LPD*%
%AMOC8*
5,1,8,0,0,1.08239X$1,22.5*%
G01*
%ADD10C,0.050800*%
%ADD11C,0.127000*%
%ADD12R,1.100000X1.250000*%
%ADD13R,1.625600X0.889000*%
%ADD14R,1.625600X3.175000*%
%ADD15R,2.500000X1.700000*%
%ADD16R,1.000000X1.100000*%
%ADD17R,1.200000X0.800000*%
%ADD18R,2.000000X0.800000*%
%ADD19C,0.304800*%
%ADD20C,0.254000*%
%ADD21C,1.270000*%
%ADD22C,2.540000*%
%ADD23C,0.756400*%


D10*
X615096Y470956D02*
X609508Y470956D01*
X609508Y469404D02*
X609508Y472508D01*
X611371Y474652D02*
X614165Y474652D01*
X614165Y474653D02*
X614223Y474655D01*
X614282Y474660D01*
X614339Y474669D01*
X614397Y474682D01*
X614453Y474699D01*
X614508Y474718D01*
X614561Y474742D01*
X614614Y474768D01*
X614664Y474798D01*
X614712Y474831D01*
X614758Y474867D01*
X614802Y474905D01*
X614844Y474947D01*
X614882Y474991D01*
X614918Y475037D01*
X614951Y475085D01*
X614981Y475135D01*
X615007Y475188D01*
X615031Y475241D01*
X615050Y475296D01*
X615067Y475352D01*
X615080Y475410D01*
X615089Y475467D01*
X615094Y475526D01*
X615096Y475584D01*
X615096Y477136D01*
X611371Y477136D01*
X611371Y479773D02*
X615096Y479773D01*
X611371Y479773D02*
X611371Y481325D01*
X611373Y481383D01*
X611378Y481442D01*
X611387Y481499D01*
X611400Y481557D01*
X611417Y481613D01*
X611436Y481668D01*
X611460Y481721D01*
X611486Y481774D01*
X611516Y481824D01*
X611549Y481872D01*
X611585Y481918D01*
X611623Y481962D01*
X611665Y482004D01*
X611709Y482042D01*
X611755Y482078D01*
X611803Y482111D01*
X611853Y482141D01*
X611906Y482167D01*
X611959Y482191D01*
X612014Y482210D01*
X612070Y482227D01*
X612128Y482240D01*
X612185Y482249D01*
X612244Y482254D01*
X612302Y482256D01*
X615096Y482256D01*
X615096Y484893D02*
X611371Y484893D01*
X611371Y486446D01*
X611373Y486504D01*
X611378Y486563D01*
X611387Y486620D01*
X611400Y486678D01*
X611417Y486734D01*
X611436Y486789D01*
X611460Y486842D01*
X611486Y486895D01*
X611516Y486945D01*
X611549Y486993D01*
X611585Y487039D01*
X611623Y487083D01*
X611665Y487125D01*
X611709Y487163D01*
X611755Y487199D01*
X611803Y487232D01*
X611853Y487262D01*
X611906Y487288D01*
X611959Y487312D01*
X612014Y487331D01*
X612070Y487348D01*
X612128Y487361D01*
X612185Y487370D01*
X612244Y487375D01*
X612302Y487377D01*
X615096Y487377D01*
X615096Y489793D02*
X611371Y489793D01*
X609818Y489637D02*
X609508Y489637D01*
X609508Y489948D01*
X609818Y489948D01*
X609818Y489637D01*
X611371Y492208D02*
X615096Y492208D01*
X611371Y492208D02*
X611371Y493761D01*
X611373Y493819D01*
X611378Y493878D01*
X611387Y493935D01*
X611400Y493993D01*
X611417Y494049D01*
X611436Y494104D01*
X611460Y494157D01*
X611486Y494210D01*
X611516Y494260D01*
X611549Y494308D01*
X611585Y494354D01*
X611623Y494398D01*
X611665Y494440D01*
X611709Y494478D01*
X611755Y494514D01*
X611803Y494547D01*
X611853Y494577D01*
X611906Y494603D01*
X611959Y494627D01*
X612014Y494646D01*
X612070Y494663D01*
X612128Y494676D01*
X612185Y494685D01*
X612244Y494690D01*
X612302Y494692D01*
X615096Y494692D01*
X615096Y498049D02*
X615096Y499601D01*
X615096Y498049D02*
X615094Y497991D01*
X615089Y497932D01*
X615080Y497875D01*
X615067Y497817D01*
X615050Y497761D01*
X615031Y497706D01*
X615007Y497653D01*
X614981Y497600D01*
X614951Y497550D01*
X614918Y497502D01*
X614882Y497456D01*
X614844Y497412D01*
X614802Y497370D01*
X614758Y497332D01*
X614712Y497296D01*
X614664Y497263D01*
X614614Y497233D01*
X614561Y497207D01*
X614508Y497183D01*
X614453Y497164D01*
X614397Y497147D01*
X614339Y497134D01*
X614282Y497125D01*
X614223Y497120D01*
X614165Y497118D01*
X614165Y497117D02*
X612302Y497117D01*
X612302Y497118D02*
X612244Y497120D01*
X612185Y497125D01*
X612128Y497134D01*
X612070Y497147D01*
X612014Y497164D01*
X611959Y497183D01*
X611906Y497207D01*
X611853Y497233D01*
X611803Y497263D01*
X611755Y497296D01*
X611709Y497332D01*
X611665Y497370D01*
X611623Y497412D01*
X611585Y497456D01*
X611549Y497502D01*
X611516Y497550D01*
X611486Y497600D01*
X611460Y497653D01*
X611436Y497706D01*
X611417Y497761D01*
X611400Y497817D01*
X611387Y497875D01*
X611378Y497932D01*
X611373Y497991D01*
X611371Y498049D01*
X611371Y499601D01*
X616027Y499601D01*
X616085Y499599D01*
X616144Y499594D01*
X616201Y499585D01*
X616259Y499572D01*
X616315Y499555D01*
X616370Y499536D01*
X616423Y499512D01*
X616476Y499486D01*
X616526Y499456D01*
X616574Y499423D01*
X616620Y499387D01*
X616664Y499349D01*
X616706Y499307D01*
X616744Y499263D01*
X616780Y499217D01*
X616813Y499169D01*
X616843Y499119D01*
X616869Y499066D01*
X616893Y499013D01*
X616912Y498958D01*
X616929Y498902D01*
X616942Y498844D01*
X616951Y498787D01*
X616956Y498728D01*
X616958Y498670D01*
X616959Y498670D02*
X616959Y497428D01*
X615096Y505948D02*
X615096Y507190D01*
X615096Y505948D02*
X615094Y505890D01*
X615089Y505831D01*
X615080Y505774D01*
X615067Y505716D01*
X615050Y505660D01*
X615031Y505605D01*
X615007Y505552D01*
X614981Y505499D01*
X614951Y505449D01*
X614918Y505401D01*
X614882Y505355D01*
X614844Y505311D01*
X614802Y505269D01*
X614758Y505231D01*
X614712Y505195D01*
X614664Y505162D01*
X614614Y505132D01*
X614561Y505106D01*
X614508Y505082D01*
X614453Y505063D01*
X614397Y505046D01*
X614339Y505033D01*
X614282Y505024D01*
X614223Y505019D01*
X614165Y505017D01*
X614165Y505016D02*
X612302Y505016D01*
X612302Y505017D02*
X612244Y505019D01*
X612185Y505024D01*
X612128Y505033D01*
X612070Y505046D01*
X612014Y505063D01*
X611959Y505082D01*
X611906Y505106D01*
X611853Y505132D01*
X611803Y505162D01*
X611755Y505195D01*
X611709Y505231D01*
X611665Y505269D01*
X611623Y505311D01*
X611585Y505355D01*
X611549Y505401D01*
X611516Y505449D01*
X611486Y505499D01*
X611460Y505552D01*
X611436Y505605D01*
X611417Y505660D01*
X611400Y505716D01*
X611387Y505774D01*
X611378Y505831D01*
X611373Y505890D01*
X611371Y505948D01*
X611371Y507190D01*
X612923Y510274D02*
X612923Y511671D01*
X612922Y510274D02*
X612924Y510210D01*
X612930Y510145D01*
X612939Y510082D01*
X612952Y510019D01*
X612969Y509957D01*
X612990Y509896D01*
X613014Y509836D01*
X613042Y509778D01*
X613073Y509721D01*
X613107Y509667D01*
X613145Y509614D01*
X613186Y509564D01*
X613229Y509517D01*
X613275Y509472D01*
X613324Y509430D01*
X613375Y509391D01*
X613429Y509355D01*
X613484Y509322D01*
X613542Y509293D01*
X613600Y509267D01*
X613661Y509244D01*
X613722Y509225D01*
X613785Y509210D01*
X613849Y509199D01*
X613912Y509191D01*
X613977Y509187D01*
X614041Y509187D01*
X614106Y509191D01*
X614169Y509199D01*
X614233Y509210D01*
X614296Y509225D01*
X614357Y509244D01*
X614418Y509267D01*
X614476Y509293D01*
X614534Y509322D01*
X614589Y509355D01*
X614643Y509391D01*
X614694Y509430D01*
X614743Y509472D01*
X614789Y509517D01*
X614832Y509564D01*
X614873Y509614D01*
X614911Y509667D01*
X614945Y509721D01*
X614976Y509778D01*
X615004Y509836D01*
X615028Y509896D01*
X615049Y509957D01*
X615066Y510019D01*
X615079Y510082D01*
X615088Y510145D01*
X615094Y510210D01*
X615096Y510274D01*
X615096Y511671D01*
X612302Y511671D01*
X612302Y511670D02*
X612244Y511668D01*
X612185Y511663D01*
X612128Y511654D01*
X612070Y511641D01*
X612014Y511624D01*
X611959Y511605D01*
X611906Y511581D01*
X611853Y511555D01*
X611803Y511525D01*
X611755Y511492D01*
X611709Y511456D01*
X611665Y511418D01*
X611623Y511376D01*
X611585Y511332D01*
X611549Y511286D01*
X611516Y511238D01*
X611486Y511188D01*
X611460Y511135D01*
X611436Y511082D01*
X611417Y511027D01*
X611400Y510971D01*
X611387Y510913D01*
X611378Y510856D01*
X611373Y510797D01*
X611371Y510739D01*
X611371Y509498D01*
X611371Y514366D02*
X616959Y514366D01*
X611371Y514366D02*
X611371Y515918D01*
X611373Y515976D01*
X611378Y516035D01*
X611387Y516092D01*
X611400Y516150D01*
X611417Y516206D01*
X611436Y516261D01*
X611460Y516314D01*
X611486Y516367D01*
X611516Y516417D01*
X611549Y516465D01*
X611585Y516511D01*
X611623Y516555D01*
X611665Y516597D01*
X611709Y516635D01*
X611755Y516671D01*
X611803Y516704D01*
X611853Y516734D01*
X611906Y516760D01*
X611959Y516784D01*
X612014Y516803D01*
X612070Y516820D01*
X612128Y516833D01*
X612185Y516842D01*
X612244Y516847D01*
X612302Y516849D01*
X614165Y516849D01*
X614223Y516847D01*
X614282Y516842D01*
X614339Y516833D01*
X614397Y516820D01*
X614453Y516803D01*
X614508Y516784D01*
X614561Y516760D01*
X614614Y516734D01*
X614664Y516704D01*
X614712Y516671D01*
X614758Y516635D01*
X614802Y516597D01*
X614844Y516555D01*
X614882Y516511D01*
X614918Y516465D01*
X614951Y516417D01*
X614981Y516367D01*
X615007Y516314D01*
X615031Y516261D01*
X615050Y516206D01*
X615067Y516150D01*
X615080Y516092D01*
X615089Y516035D01*
X615094Y515976D01*
X615096Y515918D01*
X615096Y514366D01*
X612923Y520149D02*
X612923Y521546D01*
X612922Y520149D02*
X612924Y520085D01*
X612930Y520020D01*
X612939Y519957D01*
X612952Y519894D01*
X612969Y519832D01*
X612990Y519771D01*
X613014Y519711D01*
X613042Y519653D01*
X613073Y519596D01*
X613107Y519542D01*
X613145Y519489D01*
X613186Y519439D01*
X613229Y519392D01*
X613275Y519347D01*
X613324Y519305D01*
X613375Y519266D01*
X613429Y519230D01*
X613484Y519197D01*
X613542Y519168D01*
X613600Y519142D01*
X613661Y519119D01*
X613722Y519100D01*
X613785Y519085D01*
X613849Y519074D01*
X613912Y519066D01*
X613977Y519062D01*
X614041Y519062D01*
X614106Y519066D01*
X614169Y519074D01*
X614233Y519085D01*
X614296Y519100D01*
X614357Y519119D01*
X614418Y519142D01*
X614476Y519168D01*
X614534Y519197D01*
X614589Y519230D01*
X614643Y519266D01*
X614694Y519305D01*
X614743Y519347D01*
X614789Y519392D01*
X614832Y519439D01*
X614873Y519489D01*
X614911Y519542D01*
X614945Y519596D01*
X614976Y519653D01*
X615004Y519711D01*
X615028Y519771D01*
X615049Y519832D01*
X615066Y519894D01*
X615079Y519957D01*
X615088Y520020D01*
X615094Y520085D01*
X615096Y520149D01*
X615096Y521546D01*
X612302Y521546D01*
X612244Y521544D01*
X612185Y521539D01*
X612128Y521530D01*
X612070Y521517D01*
X612014Y521500D01*
X611959Y521481D01*
X611906Y521457D01*
X611853Y521431D01*
X611803Y521401D01*
X611755Y521368D01*
X611709Y521332D01*
X611665Y521294D01*
X611623Y521252D01*
X611585Y521208D01*
X611549Y521162D01*
X611516Y521114D01*
X611486Y521064D01*
X611460Y521011D01*
X611436Y520958D01*
X611417Y520903D01*
X611400Y520847D01*
X611387Y520789D01*
X611378Y520732D01*
X611373Y520673D01*
X611371Y520615D01*
X611371Y519373D01*
X615096Y524967D02*
X615096Y526209D01*
X615096Y524967D02*
X615094Y524909D01*
X615089Y524850D01*
X615080Y524793D01*
X615067Y524735D01*
X615050Y524679D01*
X615031Y524624D01*
X615007Y524571D01*
X614981Y524518D01*
X614951Y524468D01*
X614918Y524420D01*
X614882Y524374D01*
X614844Y524330D01*
X614802Y524288D01*
X614758Y524250D01*
X614712Y524214D01*
X614664Y524181D01*
X614614Y524151D01*
X614561Y524125D01*
X614508Y524101D01*
X614453Y524082D01*
X614397Y524065D01*
X614339Y524052D01*
X614282Y524043D01*
X614223Y524038D01*
X614165Y524036D01*
X612302Y524036D01*
X612244Y524038D01*
X612185Y524043D01*
X612128Y524052D01*
X612070Y524065D01*
X612014Y524082D01*
X611959Y524101D01*
X611906Y524125D01*
X611853Y524151D01*
X611803Y524181D01*
X611755Y524214D01*
X611709Y524250D01*
X611665Y524288D01*
X611623Y524330D01*
X611585Y524374D01*
X611549Y524420D01*
X611516Y524468D01*
X611486Y524518D01*
X611460Y524571D01*
X611436Y524624D01*
X611417Y524679D01*
X611400Y524735D01*
X611387Y524793D01*
X611378Y524850D01*
X611373Y524909D01*
X611371Y524967D01*
X611371Y526209D01*
X611371Y528197D02*
X615096Y528197D01*
X609818Y528042D02*
X609508Y528042D01*
X609508Y528352D01*
X609818Y528352D01*
X609818Y528042D01*
X611371Y529964D02*
X611371Y531826D01*
X609508Y530585D02*
X614165Y530585D01*
X614223Y530587D01*
X614282Y530592D01*
X614339Y530601D01*
X614397Y530614D01*
X614453Y530631D01*
X614508Y530650D01*
X614561Y530674D01*
X614614Y530700D01*
X614664Y530730D01*
X614712Y530763D01*
X614758Y530799D01*
X614802Y530837D01*
X614844Y530879D01*
X614882Y530923D01*
X614918Y530969D01*
X614951Y531017D01*
X614981Y531068D01*
X615007Y531120D01*
X615031Y531173D01*
X615050Y531228D01*
X615067Y531284D01*
X615080Y531342D01*
X615089Y531399D01*
X615094Y531458D01*
X615096Y531516D01*
X615096Y531826D01*
X613854Y533905D02*
X612612Y533905D01*
X612612Y533904D02*
X612542Y533906D01*
X612473Y533912D01*
X612404Y533922D01*
X612336Y533935D01*
X612268Y533953D01*
X612202Y533974D01*
X612137Y533999D01*
X612073Y534027D01*
X612011Y534059D01*
X611951Y534094D01*
X611893Y534133D01*
X611838Y534175D01*
X611784Y534220D01*
X611734Y534268D01*
X611686Y534318D01*
X611641Y534372D01*
X611599Y534427D01*
X611560Y534485D01*
X611525Y534545D01*
X611493Y534607D01*
X611465Y534671D01*
X611440Y534736D01*
X611419Y534802D01*
X611401Y534870D01*
X611388Y534938D01*
X611378Y535007D01*
X611372Y535076D01*
X611370Y535146D01*
X611372Y535216D01*
X611378Y535285D01*
X611388Y535354D01*
X611401Y535422D01*
X611419Y535490D01*
X611440Y535556D01*
X611465Y535621D01*
X611493Y535685D01*
X611525Y535747D01*
X611560Y535807D01*
X611599Y535865D01*
X611641Y535920D01*
X611686Y535974D01*
X611734Y536024D01*
X611784Y536072D01*
X611838Y536117D01*
X611893Y536159D01*
X611951Y536198D01*
X612011Y536233D01*
X612073Y536265D01*
X612137Y536293D01*
X612202Y536318D01*
X612268Y536339D01*
X612336Y536357D01*
X612404Y536370D01*
X612473Y536380D01*
X612542Y536386D01*
X612612Y536388D01*
X613854Y536388D01*
X613924Y536386D01*
X613993Y536380D01*
X614062Y536370D01*
X614130Y536357D01*
X614198Y536339D01*
X614264Y536318D01*
X614329Y536293D01*
X614393Y536265D01*
X614455Y536233D01*
X614515Y536198D01*
X614573Y536159D01*
X614628Y536117D01*
X614682Y536072D01*
X614732Y536024D01*
X614780Y535974D01*
X614825Y535920D01*
X614867Y535865D01*
X614906Y535807D01*
X614941Y535747D01*
X614973Y535685D01*
X615001Y535621D01*
X615026Y535556D01*
X615047Y535490D01*
X615065Y535422D01*
X615078Y535354D01*
X615088Y535285D01*
X615094Y535216D01*
X615096Y535146D01*
X615094Y535076D01*
X615088Y535007D01*
X615078Y534938D01*
X615065Y534870D01*
X615047Y534802D01*
X615026Y534736D01*
X615001Y534671D01*
X614973Y534607D01*
X614941Y534545D01*
X614906Y534485D01*
X614867Y534427D01*
X614825Y534372D01*
X614780Y534318D01*
X614732Y534268D01*
X614682Y534220D01*
X614628Y534175D01*
X614573Y534133D01*
X614515Y534094D01*
X614455Y534059D01*
X614393Y534027D01*
X614329Y533999D01*
X614264Y533974D01*
X614198Y533953D01*
X614130Y533935D01*
X614062Y533922D01*
X613993Y533912D01*
X613924Y533906D01*
X613854Y533904D01*
X615096Y538875D02*
X611371Y538875D01*
X611371Y540738D01*
X611992Y540738D01*
X562096Y448675D02*
X556508Y448675D01*
X562096Y448054D02*
X562096Y449296D01*
X556508Y449296D02*
X556508Y448054D01*
X558371Y451639D02*
X562096Y451639D01*
X558371Y451639D02*
X558371Y453192D01*
X558373Y453250D01*
X558378Y453309D01*
X558387Y453366D01*
X558400Y453424D01*
X558417Y453480D01*
X558436Y453535D01*
X558460Y453588D01*
X558486Y453641D01*
X558516Y453691D01*
X558549Y453739D01*
X558585Y453785D01*
X558623Y453829D01*
X558665Y453871D01*
X558709Y453909D01*
X558755Y453945D01*
X558803Y453978D01*
X558853Y454008D01*
X558906Y454034D01*
X558959Y454058D01*
X559014Y454077D01*
X559070Y454094D01*
X559128Y454107D01*
X559185Y454116D01*
X559244Y454121D01*
X559302Y454123D01*
X562096Y454123D01*
X554604Y559154D02*
X553362Y559154D01*
X553292Y559156D01*
X553223Y559162D01*
X553154Y559172D01*
X553086Y559185D01*
X553018Y559203D01*
X552952Y559224D01*
X552887Y559249D01*
X552823Y559277D01*
X552761Y559309D01*
X552701Y559344D01*
X552643Y559383D01*
X552588Y559425D01*
X552534Y559470D01*
X552484Y559518D01*
X552436Y559568D01*
X552391Y559622D01*
X552349Y559677D01*
X552310Y559735D01*
X552275Y559795D01*
X552243Y559857D01*
X552215Y559921D01*
X552190Y559986D01*
X552169Y560052D01*
X552151Y560120D01*
X552138Y560188D01*
X552128Y560257D01*
X552122Y560326D01*
X552120Y560396D01*
X552122Y560466D01*
X552128Y560535D01*
X552138Y560604D01*
X552151Y560672D01*
X552169Y560740D01*
X552190Y560806D01*
X552215Y560871D01*
X552243Y560935D01*
X552275Y560997D01*
X552310Y561057D01*
X552349Y561115D01*
X552391Y561170D01*
X552436Y561224D01*
X552484Y561274D01*
X552534Y561322D01*
X552588Y561367D01*
X552643Y561409D01*
X552701Y561448D01*
X552761Y561483D01*
X552823Y561515D01*
X552887Y561543D01*
X552952Y561568D01*
X553018Y561589D01*
X553086Y561607D01*
X553154Y561620D01*
X553223Y561630D01*
X553292Y561636D01*
X553362Y561638D01*
X554604Y561638D01*
X554674Y561636D01*
X554743Y561630D01*
X554812Y561620D01*
X554880Y561607D01*
X554948Y561589D01*
X555014Y561568D01*
X555079Y561543D01*
X555143Y561515D01*
X555205Y561483D01*
X555265Y561448D01*
X555323Y561409D01*
X555378Y561367D01*
X555432Y561322D01*
X555482Y561274D01*
X555530Y561224D01*
X555575Y561170D01*
X555617Y561115D01*
X555656Y561057D01*
X555691Y560997D01*
X555723Y560935D01*
X555751Y560871D01*
X555776Y560806D01*
X555797Y560740D01*
X555815Y560672D01*
X555828Y560604D01*
X555838Y560535D01*
X555844Y560466D01*
X555846Y560396D01*
X555844Y560326D01*
X555838Y560257D01*
X555828Y560188D01*
X555815Y560120D01*
X555797Y560052D01*
X555776Y559986D01*
X555751Y559921D01*
X555723Y559857D01*
X555691Y559795D01*
X555656Y559735D01*
X555617Y559677D01*
X555575Y559622D01*
X555530Y559568D01*
X555482Y559518D01*
X555432Y559470D01*
X555378Y559425D01*
X555323Y559383D01*
X555265Y559344D01*
X555205Y559309D01*
X555143Y559277D01*
X555079Y559249D01*
X555014Y559224D01*
X554948Y559203D01*
X554880Y559185D01*
X554812Y559172D01*
X554743Y559162D01*
X554674Y559156D01*
X554604Y559154D01*
X554915Y564092D02*
X552121Y564092D01*
X554915Y564092D02*
X554973Y564094D01*
X555032Y564099D01*
X555089Y564108D01*
X555147Y564121D01*
X555203Y564138D01*
X555258Y564157D01*
X555311Y564181D01*
X555364Y564207D01*
X555414Y564237D01*
X555462Y564270D01*
X555508Y564306D01*
X555552Y564344D01*
X555594Y564386D01*
X555632Y564430D01*
X555668Y564476D01*
X555701Y564524D01*
X555731Y564574D01*
X555757Y564627D01*
X555781Y564680D01*
X555800Y564735D01*
X555817Y564791D01*
X555830Y564849D01*
X555839Y564906D01*
X555844Y564965D01*
X555846Y565023D01*
X555846Y566575D01*
X552121Y566575D01*
X552121Y568563D02*
X552121Y570426D01*
X550258Y569184D02*
X554915Y569184D01*
X554973Y569186D01*
X555032Y569191D01*
X555089Y569200D01*
X555147Y569213D01*
X555203Y569230D01*
X555258Y569249D01*
X555311Y569273D01*
X555364Y569299D01*
X555414Y569329D01*
X555462Y569362D01*
X555508Y569398D01*
X555552Y569436D01*
X555594Y569478D01*
X555632Y569522D01*
X555668Y569568D01*
X555701Y569616D01*
X555731Y569667D01*
X555757Y569719D01*
X555781Y569772D01*
X555800Y569827D01*
X555817Y569883D01*
X555830Y569941D01*
X555839Y569998D01*
X555844Y570057D01*
X555846Y570115D01*
X555846Y570426D01*
X426496Y431704D02*
X420908Y431704D01*
X420908Y433256D01*
X420910Y433332D01*
X420915Y433408D01*
X420925Y433484D01*
X420938Y433559D01*
X420955Y433633D01*
X420975Y433707D01*
X420999Y433779D01*
X421026Y433850D01*
X421057Y433920D01*
X421091Y433988D01*
X421129Y434054D01*
X421170Y434118D01*
X421213Y434181D01*
X421260Y434241D01*
X421310Y434298D01*
X421363Y434353D01*
X421418Y434406D01*
X421475Y434456D01*
X421535Y434503D01*
X421598Y434546D01*
X421662Y434587D01*
X421728Y434625D01*
X421796Y434659D01*
X421866Y434690D01*
X421937Y434717D01*
X422010Y434741D01*
X422083Y434761D01*
X422157Y434778D01*
X422232Y434791D01*
X422308Y434801D01*
X422384Y434806D01*
X422460Y434808D01*
X424944Y434808D01*
X425020Y434806D01*
X425096Y434801D01*
X425172Y434791D01*
X425247Y434778D01*
X425321Y434761D01*
X425395Y434741D01*
X425467Y434717D01*
X425538Y434690D01*
X425608Y434659D01*
X425676Y434625D01*
X425742Y434587D01*
X425806Y434546D01*
X425869Y434503D01*
X425929Y434456D01*
X425986Y434406D01*
X426041Y434353D01*
X426094Y434298D01*
X426144Y434241D01*
X426191Y434181D01*
X426234Y434118D01*
X426275Y434054D01*
X426313Y433988D01*
X426347Y433920D01*
X426378Y433850D01*
X426405Y433779D01*
X426429Y433707D01*
X426449Y433633D01*
X426466Y433559D01*
X426479Y433484D01*
X426489Y433408D01*
X426494Y433332D01*
X426496Y433256D01*
X426496Y431704D01*
X426496Y437533D02*
X422771Y437533D01*
X422771Y439396D01*
X423392Y439396D01*
X422771Y441120D02*
X426496Y441120D01*
X421218Y440965D02*
X420908Y440965D01*
X420908Y441275D01*
X421218Y441275D01*
X421218Y440965D01*
X420908Y443422D02*
X425565Y443422D01*
X425565Y443423D02*
X425623Y443425D01*
X425682Y443430D01*
X425739Y443439D01*
X425797Y443452D01*
X425853Y443469D01*
X425908Y443488D01*
X425961Y443512D01*
X426014Y443538D01*
X426064Y443568D01*
X426112Y443601D01*
X426158Y443637D01*
X426202Y443675D01*
X426244Y443717D01*
X426282Y443761D01*
X426318Y443807D01*
X426351Y443855D01*
X426381Y443905D01*
X426407Y443958D01*
X426431Y444011D01*
X426450Y444066D01*
X426467Y444122D01*
X426480Y444180D01*
X426489Y444237D01*
X426494Y444296D01*
X426496Y444354D01*
X425565Y446348D02*
X420908Y446348D01*
X425565Y446349D02*
X425623Y446351D01*
X425682Y446356D01*
X425739Y446365D01*
X425797Y446378D01*
X425853Y446395D01*
X425908Y446414D01*
X425961Y446438D01*
X426014Y446464D01*
X426064Y446494D01*
X426112Y446527D01*
X426158Y446563D01*
X426202Y446601D01*
X426244Y446643D01*
X426282Y446687D01*
X426318Y446733D01*
X426351Y446781D01*
X426381Y446831D01*
X426407Y446884D01*
X426431Y446937D01*
X426450Y446992D01*
X426467Y447048D01*
X426480Y447106D01*
X426489Y447163D01*
X426494Y447222D01*
X426496Y447280D01*
X495658Y391004D02*
X501246Y391004D01*
X495658Y391004D02*
X495658Y392556D01*
X495660Y392632D01*
X495665Y392708D01*
X495675Y392784D01*
X495688Y392859D01*
X495705Y392933D01*
X495725Y393007D01*
X495749Y393079D01*
X495776Y393150D01*
X495807Y393220D01*
X495841Y393288D01*
X495879Y393354D01*
X495920Y393418D01*
X495963Y393481D01*
X496010Y393541D01*
X496060Y393598D01*
X496113Y393653D01*
X496168Y393706D01*
X496225Y393756D01*
X496285Y393803D01*
X496348Y393846D01*
X496412Y393887D01*
X496478Y393925D01*
X496546Y393959D01*
X496616Y393990D01*
X496687Y394017D01*
X496760Y394041D01*
X496833Y394061D01*
X496907Y394078D01*
X496982Y394091D01*
X497058Y394101D01*
X497134Y394106D01*
X497210Y394108D01*
X499694Y394108D01*
X499770Y394106D01*
X499846Y394101D01*
X499922Y394091D01*
X499997Y394078D01*
X500071Y394061D01*
X500145Y394041D01*
X500217Y394017D01*
X500288Y393990D01*
X500358Y393959D01*
X500426Y393925D01*
X500492Y393887D01*
X500556Y393846D01*
X500619Y393803D01*
X500679Y393756D01*
X500736Y393706D01*
X500791Y393653D01*
X500844Y393598D01*
X500894Y393541D01*
X500941Y393481D01*
X500984Y393418D01*
X501025Y393354D01*
X501063Y393288D01*
X501097Y393220D01*
X501128Y393150D01*
X501155Y393079D01*
X501179Y393007D01*
X501199Y392933D01*
X501216Y392859D01*
X501229Y392784D01*
X501239Y392708D01*
X501244Y392632D01*
X501246Y392556D01*
X501246Y391004D01*
X501246Y396833D02*
X497521Y396833D01*
X497521Y398696D01*
X498142Y398696D01*
X497521Y400420D02*
X501246Y400420D01*
X495968Y400265D02*
X495658Y400265D01*
X495658Y400575D01*
X495968Y400575D01*
X495968Y400265D01*
X495658Y402722D02*
X500315Y402722D01*
X500315Y402723D02*
X500373Y402725D01*
X500432Y402730D01*
X500489Y402739D01*
X500547Y402752D01*
X500603Y402769D01*
X500658Y402788D01*
X500711Y402812D01*
X500764Y402838D01*
X500814Y402868D01*
X500862Y402901D01*
X500908Y402937D01*
X500952Y402975D01*
X500994Y403017D01*
X501032Y403061D01*
X501068Y403107D01*
X501101Y403155D01*
X501131Y403205D01*
X501157Y403258D01*
X501181Y403311D01*
X501200Y403366D01*
X501217Y403422D01*
X501230Y403480D01*
X501239Y403537D01*
X501244Y403596D01*
X501246Y403654D01*
X500315Y405648D02*
X495658Y405648D01*
X500315Y405649D02*
X500373Y405651D01*
X500432Y405656D01*
X500489Y405665D01*
X500547Y405678D01*
X500603Y405695D01*
X500658Y405714D01*
X500711Y405738D01*
X500764Y405764D01*
X500814Y405794D01*
X500862Y405827D01*
X500908Y405863D01*
X500952Y405901D01*
X500994Y405943D01*
X501032Y405987D01*
X501068Y406033D01*
X501101Y406081D01*
X501131Y406131D01*
X501157Y406184D01*
X501181Y406237D01*
X501200Y406292D01*
X501217Y406348D01*
X501230Y406406D01*
X501239Y406463D01*
X501244Y406522D01*
X501246Y406580D01*
D11*
X825667Y488571D02*
X825667Y504065D01*
X825667Y488571D02*
X832553Y488571D01*
X838551Y488571D02*
X845437Y488571D01*
X838551Y488571D02*
X838551Y504065D01*
X845437Y504065D01*
X843715Y497179D02*
X838551Y497179D01*
X851407Y504065D02*
X851407Y488571D01*
X851407Y504065D02*
X855711Y504065D01*
X855841Y504063D01*
X855971Y504057D01*
X856101Y504047D01*
X856230Y504034D01*
X856359Y504016D01*
X856487Y503995D01*
X856614Y503969D01*
X856741Y503940D01*
X856867Y503907D01*
X856991Y503870D01*
X857115Y503830D01*
X857237Y503785D01*
X857358Y503737D01*
X857477Y503686D01*
X857595Y503631D01*
X857711Y503572D01*
X857825Y503510D01*
X857938Y503444D01*
X858048Y503375D01*
X858156Y503303D01*
X858262Y503228D01*
X858365Y503149D01*
X858466Y503067D01*
X858565Y502983D01*
X858661Y502895D01*
X858754Y502804D01*
X858845Y502711D01*
X858933Y502615D01*
X859017Y502516D01*
X859099Y502415D01*
X859178Y502312D01*
X859253Y502206D01*
X859325Y502098D01*
X859394Y501988D01*
X859460Y501875D01*
X859522Y501761D01*
X859581Y501645D01*
X859636Y501527D01*
X859687Y501408D01*
X859735Y501287D01*
X859780Y501165D01*
X859820Y501041D01*
X859857Y500917D01*
X859890Y500791D01*
X859919Y500664D01*
X859945Y500537D01*
X859966Y500409D01*
X859984Y500280D01*
X859997Y500151D01*
X860007Y500021D01*
X860013Y499891D01*
X860015Y499761D01*
X860015Y492875D01*
X860013Y492745D01*
X860007Y492615D01*
X859997Y492485D01*
X859984Y492356D01*
X859966Y492227D01*
X859945Y492099D01*
X859919Y491972D01*
X859890Y491845D01*
X859857Y491719D01*
X859820Y491595D01*
X859780Y491471D01*
X859735Y491349D01*
X859687Y491228D01*
X859636Y491109D01*
X859581Y490991D01*
X859522Y490875D01*
X859460Y490761D01*
X859394Y490648D01*
X859325Y490538D01*
X859253Y490430D01*
X859178Y490324D01*
X859099Y490221D01*
X859017Y490120D01*
X858933Y490021D01*
X858845Y489925D01*
X858754Y489832D01*
X858661Y489741D01*
X858565Y489653D01*
X858466Y489569D01*
X858365Y489487D01*
X858262Y489408D01*
X858156Y489333D01*
X858048Y489261D01*
X857938Y489192D01*
X857825Y489126D01*
X857711Y489064D01*
X857595Y489005D01*
X857477Y488950D01*
X857358Y488899D01*
X857237Y488851D01*
X857115Y488806D01*
X856991Y488766D01*
X856867Y488729D01*
X856741Y488696D01*
X856614Y488667D01*
X856487Y488641D01*
X856359Y488620D01*
X856230Y488602D01*
X856101Y488589D01*
X855971Y488579D01*
X855841Y488573D01*
X855711Y488571D01*
X851407Y488571D01*
D12*
X833750Y417450D03*
X850750Y417450D03*
D13*
X702446Y440364D03*
X702446Y417250D03*
X702446Y394136D03*
D14*
X766454Y417250D03*
D15*
X593535Y381399D03*
X633534Y381399D03*
D16*
X632450Y409750D03*
X632450Y426750D03*
D17*
X850150Y466250D03*
D18*
X828650Y466250D03*
D19*
X633534Y408666D02*
X633534Y381399D01*
X633534Y408666D02*
X632450Y409750D01*
X633534Y381399D02*
X663599Y381399D01*
X676336Y394136D02*
X702446Y394136D01*
X676336Y394136D02*
X663599Y381399D01*
X766654Y417450D02*
X833750Y417450D01*
X766654Y417450D02*
X766454Y417250D01*
D20*
X593535Y381399D02*
X593535Y468350D01*
X585100Y468350D01*
X556400Y468350D01*
X554850Y468350D01*
X585100Y468350D02*
X585100Y487200D01*
X585300Y487200D01*
D21*
X585100Y487200D02*
X585100Y492500D01*
X585300Y492500D01*
X556400Y468350D02*
X543700Y468350D01*
X543700Y483450D02*
X556900Y483450D01*
X556900Y468350D01*
X556400Y468350D01*
X543700Y468350D02*
X543700Y483450D01*
X543700Y475350D02*
X551650Y475350D01*
D20*
X543700Y475350D02*
X543700Y468350D01*
D19*
X671950Y466250D02*
X828650Y466250D01*
X671950Y466250D02*
X646200Y440500D01*
X632450Y426750D01*
X646336Y440364D02*
X702446Y440364D01*
X646336Y440364D02*
X646200Y440500D01*
D20*
X632450Y426750D02*
X632450Y543250D01*
X585100Y543250D01*
X555250Y543250D01*
X585100Y543250D02*
X585100Y524200D01*
X584700Y524200D01*
D21*
X584700Y523150D01*
X555250Y543250D02*
X542700Y543250D01*
X542700Y530150D01*
X555250Y530150D01*
X555250Y543250D01*
D19*
X850750Y465650D02*
X850750Y417450D01*
X850750Y465650D02*
X850150Y466250D01*
D20*
X423290Y419500D02*
X423290Y248250D01*
X499490Y172050D01*
X867790Y172050D01*
X943990Y248250D01*
X943990Y603850D01*
X867790Y680050D01*
X512190Y680050D01*
X435990Y603850D01*
X435990Y252060D01*
X503300Y184750D01*
X862710Y184750D01*
X931290Y253330D01*
X931290Y600040D01*
X863980Y667350D01*
X516000Y667350D01*
X448690Y600040D01*
X448690Y257140D01*
X508380Y197450D01*
X857630Y197450D01*
X918590Y258410D01*
X918590Y596230D01*
X860170Y654650D01*
X521080Y654650D01*
X461390Y594960D01*
X461390Y426050D01*
X423290Y419500D02*
X398500Y419500D01*
D22*
X384450Y419500D01*
D23*
X423290Y419500D03*
D20*
X461390Y426050D02*
X461390Y260950D01*
X512190Y210150D01*
X855090Y210150D01*
X905890Y260950D01*
X905890Y591150D01*
X855090Y641950D01*
X524890Y641950D01*
X474090Y591150D01*
X474090Y263490D01*
X514730Y222850D01*
X851280Y222850D01*
X893190Y264760D01*
X893190Y587340D01*
X851280Y629250D01*
X528700Y629250D01*
X486790Y587340D01*
X486790Y268570D01*
X519810Y235550D01*
X846200Y235550D01*
X880490Y269840D01*
X880490Y582260D01*
X846200Y616550D01*
X535050Y616550D01*
X499490Y580990D01*
X515750Y420100D02*
X517450Y420100D01*
D22*
X515750Y420100D02*
X529250Y420100D01*
X529250Y420050D01*
D20*
X515750Y420100D02*
X499740Y420100D01*
D23*
X499740Y420100D03*
D20*
X499490Y420100D02*
X499490Y580990D01*
X499490Y420100D02*
X499740Y420100D01*
M02*
