  0
SECTION
  2
HEADER
  9
$ACADVER
  1
AC1015
  9
$ACADMAINTVER
 70
     6
  9
$DWGCODEPAGE
  3
ANSI_1252
  9
$INSBASE
 10
0.0
 20
0.0
 30
0.0
  9
$EXTMIN
 10
-6.6866708457
 20
-6.6073905415
 30
0.0
  9
$EXTMAX
 10
6.5390362224
 20
6.4401085738
 30
0.0
  9
$LIMMIN
 10
0.0
 20
0.0
  9
$LIMMAX
 10
420.0
 20
297.0
  9
$ORTHOMODE
 70
     0
  9
$REGENMODE
 70
     1
  9
$FILLMODE
 70
     1
  9
$QTEXTMODE
 70
     0
  9
$MIRRTEXT
 70
     1
  9
$LTSCALE
 40
1.0
  9
$ATTMODE
 70
     1
  9
$TEXTSIZE
 40
3.5
  9
$TRACEWID
 40
1.0
  9
$TEXTSTYLE
  7
Standard
  9
$CLAYER
  8
0
  9
$CELTYPE
  6
ByLayer
  9
$CECOLOR
 62
   256
  9
$CELTSCALE
 40
1.0
  9
$DISPSILH
 70
     0
  9
$DIMSCALE
 40
1.0
  9
$DIMASZ
 40
3.302
  9
$DIMEXO
 40
1.0
  9
$DIMDLI
 40
3.75
  9
$DIMRND
 40
0.0
  9
$DIMDLE
 40
0.0
  9
$DIMEXE
 40
1.0
  9
$DIMTP
 40
0.0
  9
$DIMTM
 40
0.0
  9
$DIMTXT
 40
3.5
  9
$DIMCEN
 40
2.5
  9
$DIMTSZ
 40
0.0
  9
$DIMTOL
 70
     0
  9
$DIMLIM
 70
     0
  9
$DIMTIH
 70
     1
  9
$DIMTOH
 70
     1
  9
$DIMSE1
 70
     0
  9
$DIMSE2
 70
     0
  9
$DIMTAD
 70
     1
  9
$DIMZIN
 70
     1
  9
$DIMBLK
  1

  9
$DIMASO
 70
     1
  9
$DIMSHO
 70
     1
  9
$DIMPOST
  1

  9
$DIMAPOST
  1

  9
$DIMALT
 70
     0
  9
$DIMALTD
 70
     3
  9
$DIMALTF
 40
0.0393700787
  9
$DIMLFAC
 40
1.0
  9
$DIMTOFL
 70
     1
  9
$DIMTVP
 40
0.0
  9
$DIMTIX
 70
     0
  9
$DIMSOXD
 70
     0
  9
$DIMSAH
 70
     0
  9
$DIMBLK1
  1

  9
$DIMBLK2
  1

  9
$DIMSTYLE
  2
ISO-25
  9
$DIMCLRD
 70
     0
  9
$DIMCLRE
 70
     0
  9
$DIMCLRT
 70
     0
  9
$DIMTFAC
 40
1.0
  9
$DIMGAP
 40
1.524
  9
$DIMJUST
 70
     0
  9
$DIMSD1
 70
     0
  9
$DIMSD2
 70
     0
  9
$DIMTOLJ
 70
     0
  9
$DIMTZIN
 70
     1
  9
$DIMALTZ
 70
     0
  9
$DIMALTTZ
 70
     0
  9
$DIMUPT
 70
     0
  9
$DIMDEC
 70
     2
  9
$DIMTDEC
 70
     2
  9
$DIMALTU
 70
     2
  9
$DIMALTTD
 70
     3
  9
$DIMTXSTY
  7
Standard
  9
$DIMAUNIT
 70
     0
  9
$DIMADEC
 70
     2
  9
$DIMALTRND
 40
0.0
  9
$DIMAZIN
 70
     0
  9
$DIMDSEP
 70
    44
  9
$DIMATFIT
 70
     3
  9
$DIMFRAC
 70
     0
  9
$DIMLDRBLK
  1

  9
$DIMLUNIT
 70
     2
  9
$DIMLWD
 70
    -2
  9
$DIMLWE
 70
    -2
  9
$DIMTMOVE
 70
     0
  9
$LUNITS
 70
     2
  9
$LUPREC
 70
     2
  9
$SKETCHINC
 40
1.0
  9
$FILLETRAD
 40
10.0
  9
$AUNITS
 70
     0
  9
$AUPREC
 70
     2
  9
$MENU
  1
.
  9
$ELEVATION
 40
0.0
  9
$PELEVATION
 40
0.0
  9
$THICKNESS
 40
0.0
  9
$LIMCHECK
 70
     0
  9
$CHAMFERA
 40
0.0
  9
$CHAMFERB
 40
0.0
  9
$CHAMFERC
 40
0.0
  9
$CHAMFERD
 40
0.0
  9
$SKPOLY
 70
     0
  9
$TDCREATE
 40
2458640.856269132
  9
$TDUCREATE
 40
2458640.814602465
  9
$TDUPDATE
 40
2458640.856332951
  9
$TDUUPDATE
 40
2458640.814666285
  9
$TDINDWG
 40
0.0000000116
  9
$TDUSRTIMER
 40
0.0000000116
  9
$USRTIMER
 70
     1
  9
$ANGBASE
 50
0.0
  9
$ANGDIR
 70
     0
  9
$PDMODE
 70
     0
  9
$PDSIZE
 40
-1.0
  9
$PLINEWID
 40
0.0
  9
$SPLFRAME
 70
     0
  9
$SPLINETYPE
 70
     6
  9
$SPLINESEGS
 70
     8
  9
$HANDSEED
  5
77
  9
$SURFTAB1
 70
     6
  9
$SURFTAB2
 70
     6
  9
$SURFTYPE
 70
     6
  9
$SURFU
 70
     6
  9
$SURFV
 70
     6
  9
$UCSBASE
  2

  9
$UCSNAME
  2

  9
$UCSORG
 10
0.0
 20
0.0
 30
0.0
  9
$UCSXDIR
 10
1.0
 20
0.0
 30
0.0
  9
$UCSYDIR
 10
0.0
 20
1.0
 30
0.0
  9
$UCSORTHOREF
  2

  9
$UCSORTHOVIEW
 70
     0
  9
$UCSORGTOP
 10
0.0
 20
0.0
 30
0.0
  9
$UCSORGBOTTOM
 10
0.0
 20
0.0
 30
0.0
  9
$UCSORGLEFT
 10
0.0
 20
0.0
 30
0.0
  9
$UCSORGRIGHT
 10
0.0
 20
0.0
 30
0.0
  9
$UCSORGFRONT
 10
0.0
 20
0.0
 30
0.0
  9
$UCSORGBACK
 10
0.0
 20
0.0
 30
0.0
  9
$PUCSBASE
  2

  9
$PUCSNAME
  2

  9
$PUCSORG
 10
0.0
 20
0.0
 30
0.0
  9
$PUCSXDIR
 10
1.0
 20
0.0
 30
0.0
  9
$PUCSYDIR
 10
0.0
 20
1.0
 30
0.0
  9
$PUCSORTHOREF
  2

  9
$PUCSORTHOVIEW
 70
     0
  9
$PUCSORGTOP
 10
0.0
 20
0.0
 30
0.0
  9
$PUCSORGBOTTOM
 10
0.0
 20
0.0
 30
0.0
  9
$PUCSORGLEFT
 10
0.0
 20
0.0
 30
0.0
  9
$PUCSORGRIGHT
 10
0.0
 20
0.0
 30
0.0
  9
$PUCSORGFRONT
 10
0.0
 20
0.0
 30
0.0
  9
$PUCSORGBACK
 10
0.0
 20
0.0
 30
0.0
  9
$USERI1
 70
     0
  9
$USERI2
 70
     0
  9
$USERI3
 70
     0
  9
$USERI4
 70
     0
  9
$USERI5
 70
     0
  9
$USERR1
 40
0.0
  9
$USERR2
 40
0.0
  9
$USERR3
 40
0.0
  9
$USERR4
 40
0.0
  9
$USERR5
 40
0.0
  9
$WORLDVIEW
 70
     1
  9
$SHADEDGE
 70
     3
  9
$SHADEDIF
 70
    70
  9
$TILEMODE
 70
     1
  9
$MAXACTVP
 70
    64
  9
$PINSBASE
 10
0.0
 20
0.0
 30
0.0
  9
$PLIMCHECK
 70
     0
  9
$PEXTMIN
 10
1.0000000000E+20
 20
1.0000000000E+20
 30
1.0000000000E+20
  9
$PEXTMAX
 10
-1.0000000000E+20
 20
-1.0000000000E+20
 30
-1.0000000000E+20
  9
$PLIMMIN
 10
0.0
 20
0.0
  9
$PLIMMAX
 10
420.0
 20
297.0
  9
$UNITMODE
 70
     0
  9
$VISRETAIN
 70
     1
  9
$PLINEGEN
 70
     0
  9
$PSLTSCALE
 70
     1
  9
$TREEDEPTH
 70
  3020
  9
$CMLSTYLE
  2
Standard
  9
$CMLJUST
 70
     0
  9
$CMLSCALE
 40
20.0
  9
$PROXYGRAPHICS
 70
     1
  9
$MEASUREMENT
 70
     1
  9
$CELWEIGHT
370
    -1
  9
$ENDCAPS
280
     0
  9
$JOINSTYLE
280
     0
  9
$LWDISPLAY
290
     1
  9
$INSUNITS
 70
     4
  9
$HYPERLINKBASE
  1

  9
$STYLESHEET
  1

  9
$XEDIT
290
     1
  9
$CEPSNTYPE
380
     0
  9
$PSTYLEMODE
290
     1
  9
$FINGERPRINTGUID
  2
{159bd6ac-5d9e-43a7-8a16-490e84546a00}
  9
$VERSIONGUID
  2
{FAEB1C32-E019-11D5-929B-00C0DF256EC4}
  9
$EXTNAMES
290
     1
  9
$PSVPSCALE
 40
0.0
  9
$OLESTARTUP
290
     0
  0
ENDSEC
  0
SECTION
  2
CLASSES
  0
CLASS
  1
ACDBDICTIONARYWDFLT
  2
AcDbDictionaryWithDefault
  3
ObjectDBX Classes
 90
        0
280
     0
281
     0
  0
CLASS
  1
VISUALSTYLE
  2
AcDbVisualStyle
  3
ObjectDBX Classes
 90
     4095
280
     0
281
     0
  0
CLASS
  1
MATERIAL
  2
AcDbMaterial
  3
ObjectDBX Classes
 90
     1153
280
     0
281
     0
  0
CLASS
  1
SCALE
  2
AcDbScale
  3
ObjectDBX Classes
 90
     1153
280
     0
281
     0
  0
CLASS
  1
TABLESTYLE
  2
AcDbTableStyle
  3
ObjectDBX Classes
 90
     4095
280
     0
281
     0
  0
CLASS
  1
MLEADERSTYLE
  2
AcDbMLeaderStyle
  3
ACDB_MLEADERSTYLE_CLASS
 90
     4095
280
     0
281
     0
  0
CLASS
  1
SUN
  2
AcDbSun
  3
SCENEOE
 90
     1153
280
     0
281
     0
  0
CLASS
  1
ACDBPLACEHOLDER
  2
AcDbPlaceHolder
  3
ObjectDBX Classes
 90
        0
280
     0
281
     0
  0
CLASS
  1
LAYOUT
  2
AcDbLayout
  3
ObjectDBX Classes
 90
        0
280
     0
281
     0
  0
ENDSEC
  0
SECTION
  2
TABLES
  0
TABLE
  2
VPORT
  5
8
330
0
100
AcDbSymbolTable
 70
     1
  0
VPORT
  5
29
330
8
100
AcDbSymbolTableRecord
100
AcDbViewportTableRecord
  2
*Active
 70
     0
 10
0.0
 20
0.0
 11
1.0
 21
1.0
 12
-0.0738173117
 22
-0.0836409839
 13
0.0
 23
0.0
 14
10.0
 24
10.0
 15
10.0
 25
10.0
 16
0.0
 26
0.0
 36
1.0
 17
0.0
 27
0.0
 37
0.0
 40
13.3084490977
 41
1.0136583993
 42
50.0
 43
0.0
 44
0.0
 50
0.0
 51
0.0
 71
     0
 72
   100
 73
     1
 74
     3
 75
     0
 76
     0
 77
     0
 78
     0
281
     0
 65
     1
110
0.0
120
0.0
130
0.0
111
1.0
121
0.0
131
0.0
112
0.0
122
1.0
132
0.0
 79
     0
146
0.0
  0
ENDTAB
  0
TABLE
  2
LTYPE
  5
5
330
0
100
AcDbSymbolTable
 70
     6
  0
LTYPE
  5
14
330
5
100
AcDbSymbolTableRecord
100
AcDbLinetypeTableRecord
  2
ByBlock
 70
     0
  3

 72
    65
 73
     0
 40
0.0
  0
LTYPE
  5
15
330
5
100
AcDbSymbolTableRecord
100
AcDbLinetypeTableRecord
  2
ByLayer
 70
     0
  3

 72
    65
 73
     0
 40
0.0
  0
LTYPE
  5
16
330
5
100
AcDbSymbolTableRecord
100
AcDbLinetypeTableRecord
  2
Continuous
 70
     0
  3
Solid line
 72
    65
 73
     0
 40
0.0
  0
LTYPE
  5
6E
330
5
100
AcDbSymbolTableRecord
100
AcDbLinetypeTableRecord
  2
HIDDEN
 70
     0
  3
Hidden __ __ __ __ __ __ __ __ __ __ __ __ __ __
 72
    65
 73
     2
 40
1.905
 49
1.27
 74
     0
 49
-0.635
 74
     0
  0
LTYPE
  5
6F
330
5
100
AcDbSymbolTableRecord
100
AcDbLinetypeTableRecord
  2
PHANTOM
 70
     0
  3
Phantom ______  __  __  ______  __  __  ______
 72
    65
 73
     6
 40
12.7
 49
6.35
 74
     0
 49
-1.27
 74
     0
 49
1.27
 74
     0
 49
-1.27
 74
     0
 49
1.27
 74
     0
 49
-1.27
 74
     0
  0
LTYPE
  5
70
330
5
100
AcDbSymbolTableRecord
100
AcDbLinetypeTableRecord
  2
CENTER
 70
     0
  3
Center ____ _ ____ _ ____ _ ____ _ ____ _ ____
 72
    65
 73
     4
 40
10.16
 49
6.35
 74
     0
 49
-1.27
 74
     0
 49
1.27
 74
     0
 49
-1.27
 74
     0
  0
LTYPE
  5
71
330
5
100
AcDbSymbolTableRecord
100
AcDbLinetypeTableRecord
  2
CENTERX2
 70
     0
  3
Center (2x) ________  __  ________  __  _____
 72
    65
 73
     4
 40
20.32
 49
12.7
 74
     0
 49
-2.54
 74
     0
 49
2.54
 74
     0
 49
-2.54
 74
     0
  0
LTYPE
  5
72
330
5
100
AcDbSymbolTableRecord
100
AcDbLinetypeTableRecord
  2
DOT2
 70
     0
  3
Dot (.5x) ........................................
 72
    65
 73
     2
 40
0.635
 49
0.0
 74
     0
 49
-0.635
 74
     0
  0
ENDTAB
  0
TABLE
  2
LAYER
  5
2
330
0
100
AcDbSymbolTable
 70
     1
  0
LAYER
  5
10
330
2
100
AcDbSymbolTableRecord
100
AcDbLayerTableRecord
  2
0
 70
     0
 62
     7
  6
Continuous
370
    -3
390
F
  0
ENDTAB
  0
TABLE
  2
STYLE
  5
3
330
0
100
AcDbSymbolTable
 70
     1
  0
STYLE
  5
11
330
3
100
AcDbSymbolTableRecord
100
AcDbTextStyleTableRecord
  2
Standard
 70
     0
 40
0.0
 41
1.0
 50
0.0
 71
     0
 42
3.5
  3
txt
  4

  0
ENDTAB
  0
TABLE
  2
VIEW
  5
6
330
0
100
AcDbSymbolTable
 70
     0
  0
ENDTAB
  0
TABLE
  2
UCS
  5
7
330
0
100
AcDbSymbolTable
 70
     0
  0
ENDTAB
  0
TABLE
  2
APPID
  5
9
330
0
100
AcDbSymbolTable
 70
     1
  0
APPID
  5
12
330
9
100
AcDbSymbolTableRecord
100
AcDbRegAppTableRecord
  2
ACAD
 70
     0
  0
ENDTAB
  0
TABLE
  2
DIMSTYLE
  5
A
330
0
100
AcDbSymbolTable
 70
     1
100
AcDbDimStyleTable
  0
DIMSTYLE
105
27
330
A
100
AcDbSymbolTableRecord
100
AcDbDimStyleTableRecord
  2
ISO-25
 70
     0
 41
2.5
 42
0.625
 43
3.75
 44
1.25
 73
     0
 74
     0
 77
     1
 78
     8
140
2.5
141
2.5
143
0.0393700787
147
0.625
171
     3
172
     1
178
     0
271
     2
272
     2
274
     3
278
    44
283
     0
284
     8
340
11
  0
ENDTAB
  0
TABLE
  2
BLOCK_RECORD
  5
1
330
0
100
AcDbSymbolTable
 70
     1
  0
BLOCK_RECORD
  5
1F
330
1
100
AcDbSymbolTableRecord
100
AcDbBlockTableRecord
  2
*Model_Space
340
22
  0
BLOCK_RECORD
  5
1B
330
1
100
AcDbSymbolTableRecord
100
AcDbBlockTableRecord
  2
*Paper_Space
340
1E
  0
BLOCK_RECORD
  5
23
330
1
100
AcDbSymbolTableRecord
100
AcDbBlockTableRecord
  2
*Paper_Space0
340
26
  0
ENDTAB
  0
ENDSEC
  0
SECTION
  2
BLOCKS
  0
BLOCK
  5
20
330
1F
100
AcDbEntity
  8
0
100
AcDbBlockBegin
  2
*Model_Space
 70
     0
 10
0.0
 20
0.0
 30
0.0
  3
*Model_Space
  1

  0
ENDBLK
  5
21
330
1F
100
AcDbEntity
  8
0
100
AcDbBlockEnd
  0
BLOCK
  5
1C
330
1B
100
AcDbEntity
 67
     1
  8
0
100
AcDbBlockBegin
  2
*Paper_Space
 70
     0
 10
0.0
 20
0.0
 30
0.0
  3
*Paper_Space
  1

  0
ENDBLK
  5
1D
330
1B
100
AcDbEntity
 67
     1
  8
0
100
AcDbBlockEnd
  0
BLOCK
  5
24
330
23
100
AcDbEntity
  8
0
100
AcDbBlockBegin
  2
*Paper_Space0
 70
     0
 10
0.0
 20
0.0
 30
0.0
  3
*Paper_Space0
  1

  0
ENDBLK
  5
25
330
23
100
AcDbEntity
  8
0
100
AcDbBlockEnd
  0
ENDSEC
  0
SECTION
  2
ENTITIES
  0
SPLINE
  5
73
330
1F
100
AcDbEntity
  8
0
  6
Continuous
 62
     7
370
    25
100
AcDbSpline
210
0.0
220
0.0
230
1.0
 70
     8
 71
     3
 72
   496
 73
   492
 74
     0
 42
0.000000001
 43
0.00000001
 40
0.0
 40
0.0
 40
0.0
 40
0.0
 40
0.0009586003953015
 40
0.0019167461413099
 40
0.0028786644578372
 40
0.0043185166385679
 40
0.0057518640378771
 40
0.0071846932039615
 40
0.0086205570281072
 40
0.0114812098868922
 40
0.0143373505046515
 40
0.0171889166531684
 40
0.0200360099828025
 40
0.0228785100116192
 40
0.0257165843961349
 40
0.0285500472886387
 40
0.0313791309084748
 40
0.0342035856693039
 40
0.0370237065473598
 40
0.039839182195104
 40
0.04265036820172
 40
0.0454568937617138
 40
0.048259172619586
 40
0.051056777116789
 40
0.0538501764058175
 40
0.0566388888577848
 40
0.0594234360198564
 40
0.0622032854297959
 40
0.0649790077734987
 40
0.0677500231234198
 40
0.0705169478286949
 40
0.0732791580726443
 40
0.076037312195373
 40
0.0787907462527634
 40
0.0815401567292914
 40
0.0842848434783177
 40
0.087025537129913
 40
0.0897615054010609
 40
0.0924935089383117
 40
0.0952207875079552
 40
0.0979441275351062
 40
0.1006627451191989
 40
0.1033774481384248
 40
0.1060874333862809
 40
0.1087935258018984
 40
0.1114949072900656
 40
0.1141924154126868
 40
0.1168852216389101
 40
0.1195741716895358
 40
0.1222584310668163
 40
0.1249388491808697
 40
0.1276145900316124
 40
0.1302865022629134
 40
0.1329537528131699
 40
0.1356171851378533
 40
0.1382759735116553
 40
0.1409309518320296
 40
0.1435813060458174
 40
0.1462278561941691
 40
0.1488698041513113
 40
0.1515079518936496
 40
0.1541415213790576
 40
0.1567712924188055
 40
0.1593965110936382
 40
0.1620179310752674
 40
0.1646348264717327
 40
0.1672479209843452
 40
0.1698565205005934
 40
0.1724613150814459
 40
0.1750616459765569
 40
0.1780272203108328
 40
0.1809872522301607
 40
0.1839418657190091
 40
0.1868913561742392
 40
0.1898351189152691
 40
0.1927739617518143
 40
0.195707103067236
 40
0.1986351569897374
 40
0.2015578587860227
 40
0.2044750894477392
 40
0.2073873515240728
 40
0.2102939199266881
 40
0.2131956134061352
 40
0.2160917494759714
 40
0.2189827495352391
 40
0.221868587695624
 40
0.2247489204044389
 40
0.2276244083309534
 40
0.2304942704925418
 40
0.233359268756223
 40
0.2362188761467644
 40
0.2390732900656991
 40
0.2419227205025698
 40
0.2447666370934399
 40
0.2476057986471374
 40
0.2504394350728391
 40
0.2532681891075348
 40
0.256091732836763
 40
0.258910028779936
 40
0.261723498486483
 40
0.2645314763841061
 40
0.2673347539873725
 40
0.2701326364384198
 40
0.2729255951950403
 40
0.2757135279732865
 40
0.27849617305575
 40
0.2812741213123247
 40
0.2840466322384395
 40
0.2868144639935366
 40
0.2895770544183567
 40
0.2923346673985099
 40
0.2950874309561472
 40
0.2978348898254174
 40
0.3005777493397239
 40
0.3033152580993373
 40
0.3060480787622991
 40
0.308775828310311
 40
0.3114985459070531
 40
0.3142165729770905
 40
0.3169293064693325
 40
0.3196375044528927
 40
0.3223404677998726
 40
0.3250387097197276
 40
0.3277320578547541
 40
0.3304203299219135
 40
0.3331040454380015
 40
0.3357825093092777
 40
0.3384564684925391
 40
0.3411253340747968
 40
0.3437894292439974
 40
0.3464488041498824
 40
0.3491030786143539
 40
0.3517529008285988
 40
0.3543975445618599
 40
0.357037684150261
 40
0.3596728895345348
 40
0.362303271093403
 40
0.3649290918076105
 40
0.3675498133527172
 40
0.3701661548914114
 40
0.3727774205797186
 40
0.3753841571529417
 40
0.3779861289289578
 40
0.3805832299590943
 40
0.3831759076440406
 40
0.3857635164648507
 40
0.3883467853244269
 40
0.39092510663069
 40
0.3934988555394006
 40
0.396068009003163
 40
0.3986322611699074
 40
0.4011922002087019
 40
0.4037471308400103
 40
0.4062977313254611
 40
0.408843532518772
 40
0.4113847101591235
 40
0.4139214511923284
 40
0.4164532834552684
 40
0.4189808824869793
 40
0.4215035627044882
 40
0.4240218963124276
 40
0.4265355913808523
 40
0.4290446145422014
 40
0.4315493410861191
 40
0.4340491784785545
 40
0.4365448313752365
 40
0.4390356811702749
 40
0.4415221475848574
 40
0.4440041395594224
 40
0.4464814240967783
 40
0.4489545272262275
 40
0.4514227897043276
 40
0.4538868864919905
 40
0.456346317119915
 40
0.458801316515561
 40
0.4612519986522474
 40
0.4636979582238645
 40
0.4661398231622836
 40
0.4685769245245111
 40
0.4710098522501441
 40
0.4734382653523594
 40
0.4758621986971122
 40
0.4782819562418859
 40
0.4806970011129151
 40
0.4831080081906964
 40
0.4855143550678859
 40
0.4879164986356113
 40
0.4903142854502741
 40
0.4927075532321229
 40
0.4950967644874733
 40
0.4974813004004416
 40
0.4998618259586455
 40
0.5022378168749413
 40
0.5046095608714348
 40
0.50697710259456
 40
0.5093401035860168
 40
0.5116991409061047
 40
0.5140535680188226
 40
0.5164039852603262
 40
0.5187500097649818
 40
0.5210917397988247
 40
0.5234294094837477
 40
0.5257625395696948
 40
0.5280917703002309
 40
0.5304164821915671
 40
0.5327371619816352
 40
0.5350535998514818
 40
0.5373657014789782
 40
0.5396738651681754
 40
0.5419775162377699
 40
0.5442773036026736
 40
0.5465726863464497
 40
0.5488639984561998
 40
0.5511512194136923
 40
0.5534340769303017
 40
0.5557130946308861
 40
0.5579876535341559
 40
0.5602583574709964
 40
0.5625247887780707
 40
0.5647871039093786
 40
0.5670454692957654
 40
0.5692994645881175
 40
0.571549691193499
 40
0.5737955387631055
 40
0.5760375167092576
 40
0.5782753651376757
 40
0.580509054342472
 40
0.5827389184299391
 40
0.584964429889238
 40
0.5871862160489321
 40
0.5894037261874012
 40
0.5916173339666753
 40
0.5938269583198418
 40
0.5960323918182414
 40
0.5982341027660302
 40
0.6004315042635002
 40
0.6026251972030333
 40
0.6048147360355831
 40
0.6070003299082549
 40
0.6091820802872192
 40
0.6113596263436497
 40
0.6135335271017375
 40
0.6157031870266281
 40
0.6178691313194156
 40
0.6200310564123219
 40
0.6221889933451992
 40
0.6243432127199933
 40
0.626493236578129
 40
0.6286396657403976
 40
0.6307819461008879
 40
0.6329204844126322
 40
0.6350551440705505
 40
0.6371857806030676
 40
0.6393128057622073
 40
0.6414356686394005
 40
0.6435549612481791
 40
0.6456702168353656
 40
0.6477816915491579
 40
0.6498894251366014
 40
0.6519931162809676
 40
0.654093278717395
 40
0.6561893368591338
 40
0.6582818251629445
 40
0.6603704027779149
 40
0.6624551571866109
 40
0.6645362968189704
 40
0.6666133950166462
 40
0.6686870217644679
 40
0.6707566255592559
 40
0.6728226397255326
 40
0.6746073493811088
 40
0.6763892864134403
 40
0.6781683980362472
 40
0.6799447457325941
 40
0.6817182768817742
 40
0.6834890527740001
 40
0.6852570209536185
 40
0.6870222425185954
 40
0.6887846651778131
 40
0.6905443498375938
 40
0.6923012443708393
 40
0.6940554094928295
 40
0.6958067932399713
 40
0.6975554561371011
 40
0.6993013463836182
 40
0.7010445243145126
 40
0.7027849382916651
 40
0.7045226484608154
 40
0.7062576033458148
 40
0.7079898629037463
 40
0.7097193758199252
 40
0.7114462018633689
 40
0.7131702898803496
 40
0.7148916994524095
 40
0.7166103795862727
 40
0.7183263896765941
 40
0.7200396788900467
 40
0.7217503064349845
 40
0.7234582216375272
 40
0.7251634835203121
 40
0.7268660415684061
 40
0.7285659546193123
 40
0.730263172316546
 40
0.7319577533130568
 40
0.7336496474103109
 40
0.7353389130772838
 40
0.7370255002728978
 40
0.7387094672827306
 40
0.7403907642226664
 40
0.7420694491954609
 40
0.7437454724734678
 40
0.7454188919771945
 40
0.7470896581349731
 40
0.7487578286856336
 40
0.7504233542129981
 40
0.7520862922747894
 40
0.7537465936098315
 40
0.7554043155953082
 40
0.757059409124559
 40
0.7587119313947945
 40
0.7603618334533858
 40
0.7620091723181349
 40
0.7636538991899608
 40
0.7652960709078205
 40
0.7669356388256989
 40
0.7685726596042672
 40
0.7702070847500961
 40
0.7718389707461325
 40
0.7734682692510553
 40
0.775095036570643
 40
0.7767192245152049
 40
0.7783408892139072
 40
0.7799599826282139
 40
0.7815765607112329
 40
0.783190575575109
 40
0.7848020829974443
 40
0.7864110352405911
 40
0.7880174879071962
 40
0.7896213934093491
 40
0.7912228071752894
 40
0.7928216817663739
 40
0.7944180724369826
 40
0.7960119318972716
 40
0.7976033152283064
 40
0.7991921752885752
 40
0.8007785669863727
 40
0.8023624433280545
 40
0.8039438590496863
 40
0.8055227673050265
 40
0.8070992226584527
 40
0.8086731784106643
 40
0.8102446889548887
 40
0.8118137077383051
 40
0.8133802889835278
 40
0.8149443862837561
 40
0.8165060536915266
 40
0.8180652449456015
 40
0.8196220139289722
 40
0.821176314525507
 40
0.8227282004491847
 40
0.8242776257285243
 40
0.8258246439090215
 40
0.8273692091633927
 40
0.8289113748691797
 40
0.830451095342843
 40
0.8319884237944974
 40
0.8335233146838976
 40
0.8350558210542559
 40
0.8365858975081713
 40
0.8381135969224773
 40
0.8396388740421695
 40
0.8411617815782246
 40
0.8426822744175877
 40
0.8442004051058991
 40
0.8457161286716083
 40
0.8472294974955377
 40
0.8487404667471972
 40
0.8502490886431083
 40
0.8517553184933994
 40
0.8532592083508059
 40
0.8547607136656334
 40
0.8562598863273457
 40
0.8577566819259852
 40
0.8592511521882562
 40
0.8607432528435004
 40
0.8622330354561727
 40
0.8637204558944769
 40
0.8652055655611276
 40
0.8666883204627552
 40
0.8681687718408412
 40
0.8696468758400084
 40
0.871122683541011
 40
0.8725961512260317
 40
0.8740673298156013
 40
0.8755361757290306
 40
0.8770027397271299
 40
0.8784669783659076
 40
0.8799289422469548
 40
0.8813885880625489
 40
0.8828459662555612
 40
0.8843010336541107
 40
0.8857538405428459
 40
0.887204343885302
 40
0.8886525938084014
 40
0.8900985474106697
 40
0.8915422546617984
 40
0.8929836727948806
 40
0.8944228516228697
 40
0.8958597485130049
 40
0.8972944131219928
 40
0.8987268029507965
 40
0.9001569675003664
 40
0.9015848644049711
 40
0.9030105430102929
 40
0.9044339610834874
 40
0.9058551678154566
 40
0.907274121105826
 40
0.9086908699912023
 40
0.910105372503266
 40
0.9115176775248119
 40
0.9129277432191611
 40
0.91433561831578
 40
0.9157412611092169
 40
0.9171447201760903
 40
0.9185459539417647
 40
0.91994501083049
 40
0.9213418493980362
 40
0.9227365179167628
 40
0.9241289750724362
 40
0.9255192689860019
 40
0.926907358472815
 40
0.9282932915028818
 40
0.92967702702074
 40
0.93105861284593
 40
0.9324380080517668
 40
0.9338152603077969
 40
0.9351903288157085
 40
0.9365632610955247
 40
0.9379340164769044
 40
0.9393026423308164
 40
0.9406690981144886
 40
0.9420334310503031
 40
0.9433956007226569
 40
0.9447556542058115
 40
0.9461135512109339
 40
0.9474693386646295
 40
0.948822976404438
 40
0.9501745112097715
 40
0.9515239030441456
 40
0.9528711985402414
 40
0.9542163577871557
 40
0.9555594272712986
 40
0.9569004038684372
 40
0.9582395633908863
 40
0.9595763337963272
 40
0.9609112928266325
 40
0.9622438702337826
 40
0.9635746419474713
 40
0.9649030395083578
 40
0.9662296370396269
 40
0.9675538678649963
 40
0.9688763043068707
 40
0.9701963814664503
 40
0.9715146698707895
 40
0.9728307349765267
 40
0.974144764755472
 40
0.9754568253745503
 40
0.9767666049239524
 40
0.9780745500513863
 40
0.979380221263052
 40
0.9806840637990206
 40
0.981985639569161
 40
0.983285392446282
 40
0.9845828855554299
 40
0.985878561267001
 40
0.9871719848492613
 40
0.9884635976301669
 40
0.9897529630725277
 40
0.9910405203312637
 40
0.9923258452949958
 40
0.9936093760480454
 40
0.9948906587967661
 40
0.9961701478123778
 40
0.9974474488259047
 40
0.9978153452005233
 40
0.9981802349585941
 40
0.998543261778009
 40
0.9989055869781625
 40
0.9992683786162967
 40
0.9996328002645505
 40
1.0
 40
1.0
 40
1.0
 40
1.0
 10
-6.6866708457
 20
-0.4378111776
 30
0.0
 10
-6.672693745387164
 20
-0.5845586261999011
 30
0.0
 10
-6.644746173792571
 20
-0.8779839233800544
 30
0.0
 10
-6.565688474461965
 20
-1.313992042407707
 30
0.0
 10
-6.442202880934278
 20
-1.815979719609382
 30
0.0
 10
-6.254107218996757
 20
-2.376244614705221
 30
0.0
 10
-5.981287901898459
 20
-2.981186746520087
 30
0.0
 10
-5.64986519754653
 20
-3.555763749011877
 30
0.0
 10
-5.13468143006969
 20
-4.273186711104848
 30
0.0
 10
-4.36247286977215
 20
-5.069948745978652
 30
0.0
 10
-3.266449605307419
 20
-5.820948365040279
 30
0.0
 10
-2.046661379993467
 20
-6.343337885884122
 30
0.0
 10
-0.7496877515006952
 20
-6.612602452196477
 30
0.0
 10
0.5723784239040052
 20
-6.623685451927102
 30
0.0
 10
1.867542350635744
 20
-6.372280109002315
 30
0.0
 10
3.085925052056287
 20
-5.873616490604111
 30
0.0
 10
4.178172374131409
 20
-5.14387340343689
 30
0.0
 10
5.104290587900401
 20
-4.216141838384721
 30
0.0
 10
5.825310041215733
 20
-3.124409382575008
 30
0.0
 10
6.317164877473046
 20
-1.914421298478086
 30
0.0
 10
6.557359491398171
 20
-0.6325139069506706
 30
0.0
 10
6.541299600562861
 20
0.6700027829932302
 30
0.0
 10
6.266427610043277
 20
1.94183711615979
 30
0.0
 10
5.748160306847279
 20
3.133978213339563
 30
0.0
 10
5.004170023336882
 20
4.198330874066466
 30
0.0
 10
4.067375909768955
 20
5.095616798506702
 30
0.0
 10
2.972759563399559
 20
5.788550161259422
 30
0.0
 10
1.765603375808053
 20
6.25346668057673
 30
0.0
 10
0.4925371818234004
 20
6.46975302212022
 30
0.0
 10
-0.7957539350911331
 20
6.432817165735275
 30
0.0
 10
-2.048483547881474
 20
6.141901253639506
 30
0.0
 10
-3.217273589090812
 20
5.612026587238149
 30
0.0
 10
-4.25530185531697
 20
4.862293338110964
 30
0.0
 10
-5.123785515597395
 20
3.924911364947297
 30
0.0
 10
-5.787316495712147
 20
2.835670982609922
 30
0.0
 10
-6.222481578815846
 20
1.638977311931751
 30
0.0
 10
-6.410876209933547
 20
0.3814907501419046
 30
0.0
 10
-6.347865320982208
 20
-0.8869726643189214
 30
0.0
 10
-6.034888878330222
 20
-2.116412255797007
 30
0.0
 10
-5.486644819605453
 20
-3.259139937218301
 30
0.0
 10
-4.724066468422745
 20
-4.269840275787826
 30
0.0
 10
-3.778830259607493
 20
-5.110108689234934
 30
0.0
 10
-2.687890231392506
 20
-5.746546866421801
 30
0.0
 10
-1.495016966026098
 20
-6.155737329308955
 30
0.0
 10
-0.24716327996912
 20
-6.321480463746805
 30
0.0
 10
1.006466871395826
 20
-6.238756171566513
 30
0.0
 10
2.216513493940998
 20
-5.911056845237699
 30
0.0
 10
3.335764961821853
 20
-5.352385219734155
 30
0.0
 10
4.320387946206649
 20
-4.585245287201959
 30
0.0
 10
5.132236850075724
 20
-3.640431235364979
 30
0.0
 10
5.740004986579764
 20
-2.555731654848183
 30
0.0
 10
6.120278813492001
 20
-1.373998480451655
 30
0.0
 10
6.259225661368614
 20
-0.1421478529769588
 30
0.0
 10
6.151584187129137
 20
1.091421504210713
 30
0.0
 10
5.803108670050424
 20
2.278249229027613
 30
0.0
 10
5.227366401283601
 20
3.371692589898536
 30
0.0
 10
4.448656118154056
 20
4.329529863980037
 30
0.0
 10
3.497220899045776
 20
5.113871042075941
 30
0.0
 10
2.411894559877981
 20
5.695464928113539
 30
0.0
 10
1.234951113694368
 20
6.050818331661108
 30
0.0
 10
0.0134471759222737
 20
6.16825888567558
 30
0.0
 10
-1.20474100456309
 20
6.042141834058319
 30
0.0
 10
-2.371920341267645
 20
5.680134964750103
 30
0.0
 10
-3.441852588777818
 20
5.095192411245
 30
0.0
 10
-4.373843286597796
 20
4.312975548014826
 30
0.0
 10
-5.130253747739399
 20
3.362985223103114
 30
0.0
 10
-5.683846811793907
 20
2.284657543523555
 30
0.0
 10
-6.011229432190179
 20
1.119519736067942
 30
0.0
 10
-6.102844548091887
 20
-0.0856719824056008
 30
0.0
 10
-5.94608241825528
 20
-1.34009478778329
 30
0.0
 10
-5.509828602297134
 20
-2.58919686656571
 30
0.0
 10
-4.772235815442502
 20
-3.754009196563123
 30
0.0
 10
-3.794321778941052
 20
-4.723472696180048
 30
0.0
 10
-2.624570969276674
 20
-5.446348191953993
 30
0.0
 10
-1.325066673970819
 20
-5.888165980825186
 30
0.0
 10
0.0377503291044698
 20
-6.0269289152274
 30
0.0
 10
1.393530652829421
 20
-5.85542175760837
 30
0.0
 10
2.673476895280149
 20
-5.386104586639607
 30
0.0
 10
3.810973984361222
 20
-4.640884427024037
 30
0.0
 10
4.750076863131284
 20
-3.661916270855946
 30
0.0
 10
5.441698100843849
 20
-2.498158753940531
 30
0.0
 10
5.852136124393751
 20
-1.210880525353291
 30
0.0
 10
5.961979636408663
 20
0.1337941457267787
 30
0.0
 10
5.764590274542932
 20
1.4665868237649
 30
0.0
 10
5.274299182037396
 20
2.719898701146314
 30
0.0
 10
4.513994844509283
 20
3.828549258877851
 30
0.0
 10
3.52625309525801
 20
4.737780591500073
 30
0.0
 10
2.360991940849071
 20
5.400667029605493
 30
0.0
 10
1.079027724043183
 20
5.784098963123372
 30
0.0
 10
-0.2535077185550518
 20
5.870951074739537
 30
0.0
 10
-1.568074431647577
 20
5.655048975533891
 30
0.0
 10
-2.798010272145524
 20
5.151934040294064
 30
0.0
 10
-3.879498843402335
 20
4.385343011301861
 30
0.0
 10
-4.758769269814058
 20
3.39760688013216
 30
0.0
 10
-5.391148613577569
 20
2.239243199593233
 30
0.0
 10
-5.74422486942621
 20
0.9701916663707298
 30
0.0
 10
-5.803208471807992
 20
-0.3438287309333811
 30
0.0
 10
-5.562882537444756
 20
-1.63533445695103
 30
0.0
 10
-5.040028553745808
 20
-2.838782582970267
 30
0.0
 10
-4.25982098393337
 20
-3.891987850746836
 30
0.0
 10
-3.264587400849714
 20
-4.742104688248739
 30
0.0
 10
-2.105856345790718
 20
-5.346702115167915
 30
0.0
 10
-0.8431108341798398
 20
-5.674000418572892
 30
0.0
 10
0.4580693088824588
 20
-5.711089504551921
 30
0.0
 10
1.730944855048786
 20
-5.453717147099581
 30
0.0
 10
2.910838496708547
 20
-4.919207335080372
 30
0.0
 10
3.937116301575927
 20
-4.133963973457194
 30
0.0
 10
4.757745622216001
 20
-3.139789245446491
 30
0.0
 10
5.33253517882006
 20
-1.988763534872364
 30
0.0
 10
5.630578237913079
 20
-0.7395713550489302
 30
0.0
 10
5.640797438109125
 20
0.5427669026846916
 30
0.0
 10
5.360451933817473
 20
1.792568107629714
 30
0.0
 10
4.807466040330279
 20
2.94618027876664
 30
0.0
 10
4.009957014054113
 20
3.944722512207437
 30
0.0
 10
3.0095636897954
 20
4.736994422813085
 30
0.0
 10
1.859217520315366
 20
5.284888708239416
 30
0.0
 10
0.6172696680402611
 20
5.558426360017099
 30
0.0
 10
-0.6515761839890971
 20
5.547831181931876
 30
0.0
 10
-1.882405931475377
 20
5.251834686774465
 30
0.0
 10
-3.01235941627953
 20
4.688387304455334
 30
0.0
 10
-3.98420268015366
 20
3.886972577093659
 30
0.0
 10
-4.747553321354356
 20
2.888683598135634
 30
0.0
 10
-5.266290410872283
 20
1.746768357678936
 30
0.0
 10
-5.51172036820129
 20
0.5189606702399492
 30
0.0
 10
-5.475290198763477
 20
-0.730761733430461
 30
0.0
 10
-5.157675798759615
 20
-1.938545927131894
 30
0.0
 10
-4.577057114343433
 20
-3.042491643542941
 30
0.0
 10
-3.764619054425007
 20
-3.987122779534395
 30
0.0
 10
-2.761379411148114
 20
-4.722985540899782
 30
0.0
 10
-1.621120665062158
 20
-5.215662610968296
 30
0.0
 10
-0.4014329266485799
 20
-5.437872547816124
 30
0.0
 10
0.834196672976422
 20
-5.381743841837308
 30
0.0
 10
2.022712849582939
 20
-5.049756597675351
 30
0.0
 10
3.102977326883195
 20
-4.459899681471264
 30
0.0
 10
4.021125709306874
 20
-3.644578249070346
 30
0.0
 10
4.728712494229564
 20
-2.644463550330289
 30
0.0
 10
5.192882111997155
 20
-1.51330914370142
 30
0.0
 10
5.388121596044265
 20
-0.3082797145318228
 30
0.0
 10
5.30724924458979
 20
0.907991373388395
 30
0.0
 10
4.954896167167084
 20
2.073519003130474
 30
0.0
 10
4.349205771152715
 20
3.128120415671611
 30
0.0
 10
3.524010580856281
 20
4.019554433360495
 30
0.0
 10
2.520181814597545
 20
4.700572607347507
 30
0.0
 10
1.391626490691318
 20
5.13954571565584
 30
0.0
 10
0.1955110511589345
 20
5.312778544564115
 30
0.0
 10
-1.006120539546547
 20
5.213375351802968
 30
0.0
 10
-2.152116045146333
 20
4.847814387736112
 30
0.0
 10
-3.183097759790973
 20
4.234125947109145
 30
0.0
 10
-4.048253993905076
 20
3.406981334632578
 30
0.0
 10
-4.701697065931417
 20
2.407255534581434
 30
0.0
 10
-5.112872794660917
 20
1.288449227161155
 30
0.0
 10
-5.260197402637038
 20
0.1074346542470814
 30
0.0
 10
-5.137207709605964
 20
-1.074653669533987
 30
0.0
 10
-4.752436357094098
 20
-2.197735763993263
 30
0.0
 10
-4.124267245068545
 20
-3.203466528955004
 30
0.0
 10
-3.288340849621427
 20
-4.042401544017601
 30
0.0
 10
-2.286078254128686
 20
-4.670209393375639
 30
0.0
 10
-1.170786901181131
 20
-5.057104913414128
 30
0.0
 10
0.0005936419362744
 20
-5.183544302691327
 30
0.0
 10
1.167556476857092
 20
-5.043239818031537
 30
0.0
 10
2.270866258653692
 20
-4.646325539409707
 30
0.0
 10
3.25311158851797
 20
-4.011390113114098
 30
0.0
 10
4.066014562259647
 20
-3.174419166581824
 30
0.0
 10
4.666939297736448
 20
-2.177148748668832
 30
0.0
 10
5.026822872153479
 20
-1.072227692530048
 30
0.0
 10
5.128337920446168
 20
0.0836732083362088
 30
0.0
 10
4.965660826170842
 20
1.230964441366865
 30
0.0
 10
4.550609668070868
 20
2.311447623364043
 30
0.0
 10
3.902536024589853
 20
3.268906983543864
 30
0.0
 10
3.057869971487724
 20
4.05613124039502
 30
0.0
 10
2.059141141021792
 20
4.63230481832132
 30
0.0
 10
0.9586257932455656
 20
4.968889950398654
 30
0.0
 10
-0.1869831668923387
 20
5.050550698792071
 30
0.0
 10
-1.31872897174738
 20
4.871809353728772
 30
0.0
 10
-2.37922344993758
 20
4.445609945457656
 30
0.0
 10
-3.31338720742078
 20
3.791963111006364
 30
0.0
 10
-4.074892384781413
 20
2.947151582133443
 30
0.0
 10
-4.62483461967175
 20
1.954206786190768
 30
0.0
 10
-4.93527119360487
 20
0.8646547338646874
 30
0.0
 10
-4.992919088401897
 20
-0.2651476757756246
 30
0.0
 10
-4.793051324476367
 20
-1.377150134197019
 30
0.0
 10
-4.349769105170575
 20
-2.414935414788297
 30
0.0
 10
-3.684258358544614
 20
-3.324796869357768
 30
0.0
 10
-2.832843188143092
 20
-4.061226901882034
 30
0.0
 10
-1.839427274198199
 20
-4.587244081321114
 30
0.0
 10
-0.7551372252924461
 20
-4.87542473017793
 30
0.0
 10
0.3637656256475946
 20
-4.914169260992082
 30
0.0
 10
1.45986609592551
 20
-4.699494164894827
 30
0.0
 10
2.477499983761625
 20
-4.24606192862388
 30
0.0
 10
3.364266631356235
 20
-3.576067141957822
 30
0.0
 10
4.075369614025854
 20
-2.725408681092305
 30
0.0
 10
4.575761645593832
 20
-1.738481785831038
 30
0.0
 10
4.838726980345898
 20
-0.6657108378112708
 30
0.0
 10
4.85431560583842
 20
0.4370993447642841
 30
0.0
 10
4.619763427400267
 20
1.51343727903128
 30
0.0
 10
4.150324987404425
 20
2.508529696825184
 30
0.0
 10
3.469639469898424
 20
3.371465937757183
 30
0.0
 10
2.613472957554496
 20
4.058164626770904
 30
0.0
 10
1.626983339550541
 20
4.535399963554729
 30
0.0
 10
0.5602861699449226
 20
4.77719497244696
 30
0.0
 10
-0.5310587991929078
 20
4.774801372418923
 30
0.0
 10
-1.591194785119869
 20
4.526653191398153
 30
0.0
 10
-2.566035343698462
 20
4.048082764883748
 30
0.0
 10
-3.406073963344839
 20
3.363897829197746
 30
0.0
 10
-4.067917398565614
 20
2.509385205739906
 30
0.0
 10
-4.520091563516605
 20
1.530016782004935
 30
0.0
 10
-4.73764831743607
 20
0.4753492473088236
 30
0.0
 10
-4.712978445540919
 20
-0.5996552586010996
 30
0.0
 10
-4.446128782050964
 20
-1.640048347728608
 30
0.0
 10
-3.952663916805037
 20
-2.592571886886656
 30
0.0
 10
-3.258866842957431
 20
-3.409232076729083
 30
0.0
 10
-2.399934838933001
 20
-4.047406530054224
 30
0.0
 10
-1.421848237694698
 20
-4.477142886316744
 30
0.0
 10
-0.3740145340843378
 20
-4.674632488509429
 30
0.0
 10
0.6890031298169433
 20
-4.632930166295257
 30
0.0
 10
1.712934675968243
 20
-4.353595629468408
 30
0.0
 10
2.645175194801578
 20
-3.852042961030246
 30
0.0
 10
3.439124704354521
 20
-3.155636335781874
 30
0.0
 10
4.052987051496635
 20
-2.299237168218304
 30
0.0
 10
4.458212616795885
 20
-1.328853354900248
 30
0.0
 10
4.63244600161258
 20
-0.2935042868418179
 30
0.0
 10
4.56939265544831
 20
0.7529649386380814
 30
0.0
 10
4.272443603515475
 20
1.75719905632551
 30
0.0
 10
3.757138184028844
 20
2.667407496526582
 30
0.0
 10
3.052116296869106
 20
3.438408671087717
 30
0.0
 10
2.192362041172885
 20
4.029383220287885
 30
0.0
 10
1.22407134841714
 20
4.412903755740493
 30
0.0
 10
0.196247801883369
 20
4.568122276127552
 30
0.0
 10
-0.8377583292649172
 20
4.489028834712155
 30
0.0
 10
-1.825300733076137
 20
4.180608222517413
 30
0.0
 10
-2.715267035961964
 20
3.658275826024151
 30
0.0
 10
-3.463733384928828
 20
2.951454590577812
 30
0.0
 10
-4.030990178396785
 20
2.095078497197561
 30
0.0
 10
-4.39059892800551
 20
1.135046673675458
 30
0.0
 10
-4.523481892464852
 20
0.1200968028533265
 30
0.0
 10
-4.424019559595762
 20
-0.8971950820894032
 30
0.0
 10
-4.098986900040393
 20
-1.86510221038682
 30
0.0
 10
-3.56406005715587
 20
-2.733380768102679
 30
0.0
 10
-2.849562480127685
 20
-3.459317489069417
 30
0.0
 10
-1.990851719227703
 20
-4.004488867799527
 30
0.0
 10
-1.033700757483812
 20
-4.343168659385919
 30
0.0
 10
-0.0269029665316112
 20
-4.458010427363499
 30
0.0
 10
0.9775005376208199
 20
-4.343543080462917
 30
0.0
 10
1.92850726787688
 20
-4.007964334901542
 30
0.0
 10
2.776649143903036
 20
-3.467067977777505
 30
0.0
 10
3.480252383777966
 20
-2.751547139409102
 30
0.0
 10
4.002303803952141
 20
-1.896990955162415
 30
0.0
 10
4.317732922240991
 20
-0.9486341967120512
 30
0.0
 10
4.411092950846086
 20
0.0449571328832142
 30
0.0
 10
4.277288961818165
 20
1.03252811717655
 30
0.0
 10
3.926027889313382
 20
1.963972443592375
 30
0.0
 10
3.373689548201856
 20
2.790817905715302
 30
0.0
 10
2.65142344430987
 20
3.472348533496024
 30
0.0
 10
1.795469895361129
 20
3.973079477753045
 30
0.0
 10
0.850761004013122
 20
4.26841129406508
 30
0.0
 10
-0.1341066616069897
 20
4.344625350705692
 30
0.0
 10
-1.10842023513986
 20
4.196884222116818
 30
0.0
 10
-2.022773767459717
 20
3.835934011062149
 30
0.0
 10
-2.829639828739961
 20
3.278657986634251
 30
0.0
 10
-3.489094694816033
 20
2.556138715282807
 30
0.0
 10
-3.967270017874771
 20
1.705031220922285
 30
0.0
 10
-4.240079790769328
 20
0.7696289432024951
 30
0.0
 10
-4.295602455500781
 20
-0.2017455391117202
 30
0.0
 10
-4.129589167177897
 20
-1.159157406937831
 30
0.0
 10
-3.753857319991102
 20
-2.054042436844106
 30
0.0
 10
-3.186243918207812
 20
-2.84002686110062
 30
0.0
 10
-2.457916970289145
 20
-3.477916219294262
 30
0.0
 10
-1.606254589182785
 20
-3.935488097304198
 30
0.0
 10
-0.6752967637850765
 20
-4.189081551382177
 30
0.0
 10
0.2439504503196067
 20
-4.22654068662747
 30
0.0
 10
1.103622680463059
 20
-4.076986206267845
 30
0.0
 10
1.876494387586048
 20
-3.780284406819064
 30
0.0
 10
2.574186083603789
 20
-3.338081157982647
 30
0.0
 10
3.171883410396153
 20
-2.770399107716901
 30
0.0
 10
3.644817496903385
 20
-2.097179650783445
 30
0.0
 10
3.977759376351352
 20
-1.346364924218296
 30
0.0
 10
4.155555203671198
 20
-0.5457552412619535
 30
0.0
 10
4.174870845043308
 20
0.273092143255785
 30
0.0
 10
4.032391666880649
 20
1.078782850196669
 30
0.0
 10
3.737114051405155
 20
1.840957690354794
 30
0.0
 10
3.29799038404055
 20
2.529415291380676
 30
0.0
 10
2.734905217729705
 20
3.119594809261778
 30
0.0
 10
2.067642310651596
 20
3.587064147370648
 30
0.0
 10
1.323888266633969
 20
3.916752173096636
 30
0.0
 10
0.5311877235947629
 20
4.093668066983168
 30
0.0
 10
-0.2792216159943172
 20
4.114458364200263
 30
0.0
 10
-1.076263384136364
 20
3.975789592360957
 30
0.0
 10
-1.829912069342984
 20
3.686461527217395
 30
0.0
 10
-2.510298255731626
 20
3.255230959720704
 30
0.0
 10
-3.093158099561725
 20
2.701639214015753
 30
0.0
 10
-3.554354955516033
 20
2.045128570600121
 30
0.0
 10
-3.879033161771906
 20
1.312948772279246
 30
0.0
 10
-4.052416233427687
 20
0.5322098426644857
 30
0.0
 10
-4.071252454552884
 20
-0.2663141202553631
 30
0.0
 10
-3.932309548479914
 20
-1.052007952826176
 30
0.0
 10
-3.644360587481042
 20
-1.795265961347458
 30
0.0
 10
-3.216135769239244
 20
-2.466636359260431
 30
0.0
 10
-2.667026119471839
 20
-3.042167891074418
 30
0.0
 10
-2.01632437297241
 20
-3.498034853748998
 30
0.0
 10
-1.291029964586577
 20
-3.819540173271545
 30
0.0
 10
-0.5180038869337822
 20
-3.992065095484628
 30
0.0
 10
0.2722914630294911
 20
-4.012339387021417
 30
0.0
 10
1.049551018562376
 20
-3.877112310757488
 30
0.0
 10
1.784494487657242
 20
-3.594965236030208
 30
0.0
 10
2.447993799689502
 20
-3.174437614239384
 30
0.0
 10
3.016387328437047
 20
-2.634585762790709
 30
0.0
 10
3.466137489094122
 20
-1.994369413660796
 30
0.0
 10
3.782757330578673
 20
-1.280361983485877
 30
0.0
 10
3.951837113594641
 20
-0.5190006374747692
 30
0.0
 10
3.970205828315637
 20
0.2597043254387046
 30
0.0
 10
3.834711421704446
 20
1.025897595977858
 30
0.0
 10
3.55390922238695
 20
1.750708280236352
 30
0.0
 10
3.13631274852747
 20
2.405415571544685
 30
0.0
 10
2.600831749442523
 20
2.96666267363294
 30
0.0
 10
1.966280123060731
 20
3.41121522652688
 30
0.0
 10
1.258987190587874
 20
3.724740930877473
 30
0.0
 10
0.5051472670761492
 20
3.892983863327885
 30
0.0
 10
-0.2655333132956172
 20
3.912754956209673
 30
0.0
 10
-1.023501641700212
 20
3.780884154209005
 30
0.0
 10
-1.740204149602857
 20
3.505739840996084
 30
0.0
 10
-2.387235711786671
 20
3.095649522687663
 30
0.0
 10
-2.941521972784102
 20
2.569196547596
 30
0.0
 10
-3.380109539892676
 20
1.94487007581042
 30
0.0
 10
-3.688871021538707
 20
1.248583983904515
 30
0.0
 10
-3.853754321573312
 20
0.5061192787227765
 30
0.0
 10
-3.871667133185503
 20
-0.2532585827121185
 30
0.0
 10
-3.739535635854419
 20
-1.000435286261996
 30
0.0
 10
-3.465702818857477
 20
-1.707256500419475
 30
0.0
 10
-3.058470898727212
 20
-2.345714255817555
 30
0.0
 10
-2.536280293439786
 20
-2.893031461200747
 30
0.0
 10
-1.917477948571136
 20
-3.326550422796286
 30
0.0
 10
-1.227739703601507
 20
-3.632294562378235
 30
0.0
 10
-0.4926097426487199
 20
-3.796361782095588
 30
0.0
 10
0.2589428977532676
 20
-3.815642165482775
 30
0.0
 10
0.9980987984751137
 20
-3.687044336550806
 30
0.0
 10
1.697013077510171
 20
-3.418728979509747
 30
0.0
 10
2.327985611874416
 20
-3.018816915578415
 30
0.0
 10
2.868514741063015
 20
-2.50543026285261
 30
0.0
 10
3.296216765095568
 20
-1.896599288913932
 30
0.0
 10
3.597314927804137
 20
-1.217594699756605
 30
0.0
 10
3.758105899647525
 20
-0.4935576294114989
 30
0.0
 10
3.775574123457306
 20
0.2469728203741126
 30
0.0
 10
3.646722069534225
 20
0.9756049394402776
 30
0.0
 10
3.379685657972635
 20
1.664883173927225
 30
0.0
 10
2.982561048082789
 20
2.287494699473925
 30
0.0
 10
2.473330975090073
 20
2.821227741825501
 30
0.0
 10
1.86988702176176
 20
3.243986960819014
 30
0.0
 10
1.197267764970595
 20
3.542142670515739
 30
0.0
 10
0.4803833938527046
 20
3.702137816783079
 30
0.0
 10
-0.252516053312062
 20
3.720939669861558
 30
0.0
 10
-0.9733264422129273
 20
3.59553358030217
 30
0.0
 10
-1.654893988095486
 20
3.333877687860578
 30
0.0
 10
-2.270206072375281
 20
2.943891258682386
 30
0.0
 10
-2.797319515482713
 20
2.443246628170233
 30
0.0
 10
-3.214406170646458
 20
1.849526560900209
 30
0.0
 10
-3.508031214493568
 20
1.187374555487089
 30
0.0
 10
-3.66483142786262
 20
0.4813077544990537
 30
0.0
 10
-3.68186609833667
 20
-0.2408430677856654
 30
0.0
 10
-3.556212093534323
 20
-0.9513908704844469
 30
0.0
 10
-3.295803403729576
 20
-1.623561534042992
 30
0.0
 10
-2.908535245256871
 20
-2.230720125924873
 30
0.0
 10
-2.411944030067464
 20
-2.751206157966224
 30
0.0
 10
-1.823477280016968
 20
-3.163472686254154
 30
0.0
 10
-1.167552125937344
 20
-3.454228307429119
 30
0.0
 10
-0.4684604974490307
 20
-3.610252447249418
 30
0.0
 10
0.2462487202141827
 20
-3.628587646922937
 30
0.0
 10
0.9491689245174882
 20
-3.506294079222867
 30
0.0
 10
1.613820275240707
 20
-3.251132366511341
 30
0.0
 10
2.21386059465365
 20
-2.870825222365654
 30
0.0
 10
2.727891322880411
 20
-2.382606362896123
 30
0.0
 10
3.1346260777817
 20
-1.803622156493667
 30
0.0
 10
3.42096348216392
 20
-1.157904461394125
 30
0.0
 10
3.573871985861062
 20
-0.4693619158862757
 30
0.0
 10
3.590483863595126
 20
0.234865452856642
 30
0.0
 10
3.467948533795175
 20
0.9277777836596045
 30
0.0
 10
3.214003068720748
 20
1.583265478385717
 30
0.0
 10
2.836346729043247
 20
2.175354671357671
 30
0.0
 10
2.352080680979705
 20
2.682922477833649
 30
0.0
 10
1.778219406862982
 20
3.084956739206399
 30
0.0
 10
1.138574015491217
 20
3.368495938676443
 30
0.0
 10
0.4568335218877572
 20
3.520647630615815
 30
0.0
 10
-0.2401369394610803
 20
3.538527759008665
 30
0.0
 10
-0.9256109853765786
 20
3.419269461797122
 30
0.0
 10
-1.57376599317726
 20
3.170440746241204
 30
0.0
 10
-2.158913585951418
 20
2.799572651694882
 30
0.0
 10
-2.66018630630483
 20
2.323471161306613
 30
0.0
 10
-3.056826090379541
 20
1.758857078436088
 30
0.0
 10
-3.33605673117946
 20
1.129165801575092
 30
0.0
 10
-3.485170115661081
 20
0.4577125675312331
 30
0.0
 10
-3.501369694177846
 20
-0.2290361995995743
 30
0.0
 10
-3.381875635291328
 20
-0.9047507628635945
 30
0.0
 10
-3.134232980661726
 20
-1.543969552423178
 30
0.0
 10
-2.765949898827501
 20
-2.121363362082693
 30
0.0
 10
-2.293703112871697
 20
-2.616333567451024
 30
0.0
 10
-1.734084813447669
 20
-3.008389522099503
 30
0.0
 10
-1.110315128509676
 20
-3.284891408155026
 30
0.0
 10
-0.4454951225490222
 20
-3.433266764601004
 30
0.0
 10
0.2341768503144226
 20
-3.450703116374522
 30
0.0
 10
0.9026377435241738
 20
-3.334404755624443
 30
0.0
 10
1.534705840098356
 20
-3.091751855127538
 30
0.0
 10
2.105330336906198
 20
-2.730088537281088
 30
0.0
 10
2.594161697314038
 20
-2.265803668408519
 30
0.0
 10
2.98095706312696
 20
-1.715203049167943
 30
0.0
 10
3.253257326970475
 20
-1.101140422165507
 30
0.0
 10
3.398669785361925
 20
-0.4463523506813308
 30
0.0
 10
3.41446729773961
 20
0.223351625745265
 30
0.0
 10
3.297939026811644
 20
0.8822952622046958
 30
0.0
 10
3.056442749750724
 20
1.505648933392388
 30
0.0
 10
2.697300285781869
 20
2.068712092440584
 30
0.0
 10
2.236774449338738
 20
2.551397363406454
 30
0.0
 10
1.691045620481626
 20
2.933722668345727
 30
0.0
 10
1.082757614195631
 20
3.203361903891221
 30
0.0
 10
0.4344381371035733
 20
3.348054651765954
 30
0.0
 10
-0.2283646878569051
 20
3.365058241253318
 30
0.0
 10
-0.8802346870397056
 20
3.251646352694033
 30
0.0
 10
-1.496615142175793
 20
3.015015986347647
 30
0.0
 10
-2.053076999625307
 20
2.662328986848136
 30
0.0
 10
-2.529775788958448
 20
2.209567456343045
 30
0.0
 10
-2.906971070474102
 20
1.672632492966354
 30
0.0
 10
-3.172512966151696
 20
1.073810619871964
 30
0.0
 10
-3.314316353748235
 20
0.4352740892250256
 30
0.0
 10
-3.329721779084971
 20
-0.2178081404171138
 30
0.0
 10
-3.216085686613309
 20
-0.8603970968150492
 30
0.0
 10
-2.980583236837433
 20
-1.468279414622375
 30
0.0
 10
-2.630354524773618
 20
-2.017367603261635
 30
0.0
 10
-2.181258729229955
 20
-2.488072846285292
 30
0.0
 10
-1.649074640624679
 20
-2.860909011796263
 30
0.0
 10
-1.055884064798217
 20
-3.123855924682553
 30
0.0
 10
-0.4236555809852842
 20
-3.264957464648381
 30
0.0
 10
0.2226967806177363
 20
-3.281539032811609
 30
0.0
 10
0.8583876641849143
 20
-3.170941975521541
 30
0.0
 10
1.459469837977531
 20
-2.940184666778797
 30
0.0
 10
2.002120566308255
 20
-2.596251197504967
 30
0.0
 10
2.466987909438747
 20
-2.154727001372664
 30
0.0
 10
2.834821376364022
 20
-1.631118518523478
 30
0.0
 10
3.093772643486661
 20
-1.047159130786858
 30
0.0
 10
3.232056535775265
 20
-0.4244707851568193
 30
0.0
 10
3.247079605497139
 20
0.2124022418626894
 30
0.0
 10
3.13626390891465
 20
0.8390424338903428
 30
0.0
 10
2.906606522438203
 20
1.431837390230271
 30
0.0
 10
2.565070326768569
 20
1.967297460881973
 30
0.0
 10
2.127120884699006
 20
2.426320014637446
 30
0.0
 10
1.608145358472829
 20
2.789902557374103
 30
0.0
 10
1.029677515206976
 20
3.046323245952659
 30
0.0
 10
0.4131406035714544
 20
3.183922717744885
 30
0.0
 10
-0.2171694015004163
 20
3.200092710680876
 30
0.0
 10
-0.8370834208301502
 20
3.092240727125672
 30
0.0
 10
-1.42324442894903
 20
2.867210317346569
 30
0.0
 10
-1.952436422598681
 20
2.531814579310997
 30
0.0
 10
-2.405730195266757
 20
2.101243377397163
 30
0.0
 10
-2.764567403927347
 20
1.590650852437609
 30
0.0
 10
-3.016597967990096
 20
1.021104548623986
 30
0.0
 10
-3.153306203000466
 20
0.4140998101182511
 30
0.0
 10
-3.165747602386912
 20
-0.2070199335489752
 30
0.0
 10
-3.059934714080833
 20
-0.8186187556803248
 30
0.0
 10
-2.833800143027642
 20
-1.395917560900352
 30
0.0
 10
-2.50265092261869
 20
-1.919414548257044
 30
0.0
 10
-2.073858415597722
 20
-2.365494172342562
 30
0.0
 10
-1.569016433501144
 20
-2.722002807031333
 30
0.0
 10
-1.003921911481837
 20
-2.969978289629903
 30
0.0
 10
-0.4030945704836811
 20
-3.106437156402337
 30
0.0
 10
0.2116812381429977
 20
-3.119912655524193
 30
0.0
 10
0.8167042882765535
 20
-3.016990584135438
 30
0.0
 10
1.387558752585097
 20
-2.795377668300368
 30
0.0
 10
1.904935889608845
 20
-2.470207128530318
 30
0.0
 10
2.345483753368785
 20
-2.048586497629596
 30
0.0
 10
2.697202461086463
 20
-1.551898031236825
 30
0.0
 10
2.94140088025675
 20
-0.9955525861877843
 30
0.0
 10
3.075138376228805
 20
-0.4038303526392621
 30
0.0
 10
3.087145088983696
 20
0.2019712616861178
 30
0.0
 10
2.983984162787807
 20
0.7983361171271435
 30
0.0
 10
2.763430185012034
 20
1.361340859924174
 30
0.0
 10
2.44051199261416
 20
1.871806714163759
 30
0.0
 10
2.022328112679179
 20
2.306833631660887
 30
0.0
 10
1.530039437625218
 20
2.654463388727946
 30
0.0
 10
0.9789324677022223
 20
2.896288741892287
 30
0.0
 10
0.3930504551579294
 20
3.029341729787644
 30
0.0
 10
-0.206503132754778
 20
3.042472536778703
 30
0.0
 10
-0.796470531697565
 20
2.942098524491473
 30
0.0
 10
-1.353174107126551
 20
2.725972205619667
 30
0.0
 10
-1.857659585270885
 20
2.408879722324118
 30
0.0
 10
-2.287294924867705
 20
1.997697584075426
 30
0.0
 10
-2.630218698958365
 20
1.513492424971002
 30
0.0
 10
-2.812092775646206
 20
1.099015503699752
 30
0.0
 10
-2.900481245190085
 20
0.8030682334286465
 30
0.0
 10
-2.939652677680791
 20
0.6392350106426978
 30
0.0
 10
-2.969321165676483
 20
0.4742935270348341
 30
0.0
 10
-2.989563863675537
 20
0.3082288590127259
 30
0.0
 10
-3.000153679366954
 20
0.1410666230627292
 30
0.0
 10
-3.001921931479175
 20
-0.0272505198040689
 30
0.0
 10
-2.995168935017177
 20
-0.1395329872479912
 30
0.0
 10
-2.9917796157
 20
-0.1958873985
 30
0.0
  0
LINE
  5
74
330
1F
100
AcDbEntity
  8
0
  6
Continuous
 62
     7
370
    25
100
AcDbLine
 10
-2.9917796157
 20
-0.1958873985
 30
0.0
 11
-2.9419166221
 21
-0.1926226085
 31
0.0
  0
SPLINE
  5
75
330
1F
100
AcDbEntity
  8
0
  6
Continuous
 62
     7
370
    25
100
AcDbSpline
210
0.0
220
0.0
230
1.0
 70
     8
 71
     3
 72
   478
 73
   474
 74
     0
 42
0.000000001
 43
0.00000001
 40
0.0
 40
0.0
 40
0.0
 40
0.0
 40
0.0006811555271569
 40
0.0013639658437311
 40
0.0020489227503778
 40
0.0027300684883512
 40
0.0040967088097087
 40
0.0054655077160302
 40
0.0068367663252848
 40
0.0082101328896351
 40
0.0095891608320691
 40
0.010964349208587
 40
0.0123477696504687
 40
0.0137278069444903
 40
0.0151154617032844
 40
0.0165005442001669
 40
0.0178923379541241
 40
0.0192826024460805
 40
0.0206785098471632
 40
0.022074024472289
 40
0.0234740895889896
 40
0.0248748536692315
 40
0.0262790603978779
 40
0.0276851268313991
 40
0.0290936622639966
 40
0.0305048959343175
 40
0.0319180659726415
 40
0.0333338102974576
 40
0.0347517627931856
 40
0.0361722426990759
 40
0.0375950098599928
 40
0.0390202288573149
 40
0.0404478350518976
 40
0.0418778036774866
 40
0.0433102621356719
 40
0.0447450013195516
 40
0.0461823163450076
 40
0.0476218562892102
 40
0.0490640274807691
 40
0.0505084040924076
 40
0.051958321371295
 40
0.0534050091570696
 40
0.0548594155536835
 40
0.0563113381756544
 40
0.0577701111813179
 40
0.0592274335461392
 40
0.0606905228868063
 40
0.0621533398533308
 40
0.0636207680950103
 40
0.0650891025802891
 40
0.066560951621791
 40
0.0680347661981048
 40
0.0695112044390469
 40
0.0709903752539238
 40
0.0724716249080749
 40
0.0739555835716831
 40
0.0754418395366214
 40
0.0769307672084988
 40
0.07842206509641
 40
0.0799159637114577
 40
0.0814123321648758
 40
0.082911210020863
 40
0.0844126668667152
 40
0.0859165422271467
 40
0.0874230943422563
 40
0.0889319961660336
 40
0.0904436444276051
 40
0.0919576088842682
 40
0.0936902465494275
 40
0.0954260343058491
 40
0.0971652028054799
 40
0.098907831327537
 40
0.1006535887878327
 40
0.1024029235011839
 40
0.1041555019731598
 40
0.1059114094277928
 40
0.1076708737836586
 40
0.1094334832464615
 40
0.1111996637897559
 40
0.1129691990068488
 40
0.1147420149729022
 40
0.1165184632224706
 40
0.1182981021627496
 40
0.1200812819624385
 40
0.1218679347717524
 40
0.1236578345527219
 40
0.1254514154384866
 40
0.1272482610079297
 40
0.1290486003372238
 40
0.1308525264971627
 40
0.1326596897098199
 40
0.134470553998792
 40
0.1362847813586975
 40
0.1381024488285494
 40
0.1399238020407457
 40
0.1417484111016425
 40
0.1435767129897891
 40
0.1454084935827623
 40
0.1472436650532949
 40
0.1490825984895103
 40
0.150924837025464
 40
0.1527707356267136
 40
0.1546202354263839
 40
0.1564730926034357
 40
0.1583297602352769
 40
0.1601898114218672
 40
0.16205347312685
 40
0.1639208530275951
 40
0.1657915819736662
 40
0.1676661399651804
 40
0.1695441847976237
 40
0.1714257845944255
 40
0.173311203518234
 40
0.1751999930812431
 40
0.1770926012463262
 40
0.1789888167473778
 40
0.1808885370260517
 40
0.1827921534395865
 40
0.1846991936032607
 40
0.1866100169652646
 40
0.1885245743973589
 40
0.1904426034918562
 40
0.1923645767864542
 40
0.1942900569465507
 40
0.1962192682518251
 40
0.1981523338326334
 40
0.2000888644744109
 40
0.2020293564112661
 40
0.2039734635821586
 40
0.205921244428518
 40
0.2078729824841268
 40
0.2098282101709915
 40
0.2117873863935253
 40
0.213750303349992
 40
0.2157168428914817
 40
0.2176874173732802
 40
0.219661538657451
 40
0.2216395703301128
 40
0.2236214737928439
 40
0.2256069672249735
 40
0.2275965431418322
 40
0.2295897538415864
 40
0.2315868203123904
 40
0.2335878820161303
 40
0.2355925289699794
 40
0.2376012738880032
 40
0.2396137672276247
 40
0.241630056944901
 40
0.2436504468102815
 40
0.2456744496591809
 40
0.2477025352711101
 40
0.2497344999541562
 40
0.251770209078104
 40
0.2538100967381185
 40
0.2558536588210764
 40
0.2579012626742615
 40
0.2599528810568265
 40
0.2620082118858863
 40
0.2640677681722091
 40
0.266131091938597
 40
0.2681984002365022
 40
0.2702698497707332
 40
0.2723450090739414
 40
0.2744244075733072
 40
0.2765076926537327
 40
0.2785949009444684
 40
0.2806863573429631
 40
0.2827815546021538
 40
0.2848809732849353
 40
0.286984414493497
 40
0.2890917261939436
 40
0.2912033649754955
 40
0.2933188105416736
 40
0.2954384335904681
 40
0.297562219104073
 40
0.2996898438651581
 40
0.3018218418972713
 40
0.3039577450658852
 40
0.3060977658014424
 40
0.3082420789966198
 40
0.3103902309715889
 40
0.3125427680856128
 40
0.3146993350958177
 40
0.3168599564240482
 40
0.3190249790100003
 40
0.3211938750297239
 40
0.3233671357108316
 40
0.3255445676741573
 40
0.3277260005277997
 40
0.3299119141209239
 40
0.3321017717807375
 40
0.334295947110089
 40
0.3364944382185414
 40
0.3386968998590147
 40
0.3409038875837278
 40
0.3431149232467264
 40
0.3453302139324523
 40
0.347549953700641
 40
0.349773665919819
 40
0.3520019140846595
 40
0.3542343408067385
 40
0.356470957379627
 40
0.3587121337254997
 40
0.3609573209516189
 40
0.3632070208029394
 40
0.3654610461851999
 40
0.3677192073619563
 40
0.3699820082192128
 40
0.3722488955316012
 40
0.3745202453238431
 40
0.3767960697772169
 40
0.3790760006964818
 40
0.3813606156759038
 40
0.3836494267336487
 40
0.3859426348408965
 40
0.3882404542385516
 40
0.3905423845936692
 40
0.3928490067224891
 40
0.3951599616125421
 40
0.3974752464669018
 40
0.3997952551554576
 40
0.4021194172283927
 40
0.404448244770091
 40
0.4067815577806444
 40
0.4091191461601277
 40
0.4114615386184833
 40
0.4138081652197662
 40
0.4161594038886381
 40
0.4185152818636344
 40
0.4208754070598385
 40
0.4232403796232899
 40
0.4256097019433099
 40
0.4279835680666719
 40
0.4303622134651388
 40
0.4327451133444105
 40
0.4351328660096659
 40
0.4375251113870336
 40
0.4399218315844287
 40
0.4423234454096636
 40
0.4447293603723371
 40
0.4471400986859076
 40
0.4495554882989339
 40
0.4519752976965549
 40
0.4544000812090687
 40
0.4568292520518547
 40
0.4592631894867719
 40
0.461701936837527
 40
0.464145077164959
 40
0.4665932336717442
 40
0.469045899358806
 40
0.4715032604918339
 40
0.4739655748593565
 40
0.4764322924364456
 40
0.4789040291641132
 40
0.4813804245127716
 40
0.4838614444470157
 40
0.4863475337276747
 40
0.4888380773462964
 40
0.491333607400637
 40
0.4938339606879856
 40
0.4963388831945427
 40
0.4988489556757124
 40
0.5013635743817326
 40
0.5038831193061778
 40
0.5064076509294069
 40
0.5089367264704817
 40
0.5114709926874228
 40
0.5140099334686097
 40
0.5160918225267769
 40
0.518177017835715
 40
0.5202654576257308
 40
0.5223572140697432
 40
0.5244522252036992
 40
0.5265505634276113
 40
0.5286521665824552
 40
0.5307571072960529
 40
0.5328653232137939
 40
0.534976887192026
 40
0.5370917366799381
 40
0.5392099447631228
 40
0.5413314486939509
 40
0.5434563217879813
 40
0.5455845011001469
 40
0.5477160601766968
 40
0.5498509358745058
 40
0.5519892019712382
 40
0.5541307951250861
 40
0.5562757893458579
 40
0.5584241210924394
 40
0.560575864607513
 40
0.5627309561500298
 40
0.5648894701962792
 40
0.5670513428046502
 40
0.5692166486857738
 40
0.5713853236968434
 40
0.5735574427835703
 40
0.5757329416013208
 40
0.5779118953316251
 40
0.580094239427387
 40
0.5822800493066975
 40
0.5844692602193615
 40
0.5866619478207752
 40
0.5888580471570043
 40
0.5910576341214978
 40
0.5932606435559418
 40
0.5954671515925862
 40
0.5976770928680943
 40
0.599890543754269
 40
0.6021074386821055
 40
0.6043278542637132
 40
0.606551724723772
 40
0.6087791269154539
 40
0.6110099948564749
 40
0.6132444056418278
 40
0.6154822930816128
 40
0.6177237345134048
 40
0.6199686635390362
 40
0.6222171577394262
 40
0.6244691505074831
 40
0.6267247196682377
 40
0.6289837984050166
 40
0.6312464647877292
 40
0.6335126517894614
 40
0.6357824377257724
 40
0.6380557553588457
 40
0.6403326832506631
 40
0.6426131539518415
 40
0.644897246271561
 40
0.6471848925482073
 40
0.649476171838935
 40
0.6517710162692307
 40
0.6540695051450057
 40
0.6563715703781767
 40
0.6586772915241936
 40
0.6609866002807314
 40
0.6632995764535641
 40
0.6656161515254517
 40
0.6679364055532793
 40
0.6702602698042145
 40
0.6725878245870445
 40
0.6749190009526675
 40
0.6772538794625644
 40
0.6795923909506825
 40
0.6819346162319918
 40
0.6842804859228073
 40
0.6866300810923858
 40
0.6889833321387233
 40
0.6913403203861641
 40
0.6937009760136998
 40
0.6960653806015641
 40
0.6984334641090542
 40
0.7008053083730987
 40
0.70318084313261
 40
0.705560150482019
 40
0.707943159939159
 40
0.7103299538567739
 40
0.7127204615309226
 40
0.7151147655734746
 40
0.7175127950580165
 40
0.7199146328563585
 40
0.7223202078189155
 40
0.7247296030782564
 40
0.7271427472609209
 40
0.7295597237610577
 40
0.7319804609806281
 40
0.7344050425761828
 40
0.7368333967243972
 40
0.7392656073450504
 40
0.7417016023888237
 40
0.7441414660395522
 40
0.7465851260212109
 40
0.7490326667825229
 40
0.7514840158200448
 40
0.7539392578482198
 40
0.7563983201354696
 40
0.7588612876627947
 40
0.7613280874697649
 40
0.7637988048047757
 40
0.766273366477824
 40
0.7687518580055424
 40
0.771234205967634
 40
0.7737204961498119
 40
0.7762106549007588
 40
0.7787047682761163
 40
0.7812027623928212
 40
0.7837047235772913
 40
0.7862105777139878
 40
0.7887204114009575
 40
0.791234150289455
 40
0.7937518812500106
 40
0.7962735296999378
 40
0.7987991827831081
 40
0.8013287656821585
 40
0.8038623658151612
 40
0.8063999081293376
 40
0.8089414803178239
 40
0.8114870070916856
 40
0.8140365764199884
 40
0.8165901127768983
 40
0.8191477044082784
 40
0.8217092755506513
 40
0.8242749147275477
 40
0.8268445459370974
 40
0.8294182579813745
 40
0.8319959746193661
 40
0.8345777849325646
 40
0.8371636124400621
 40
0.8397535465036491
 40
0.8423475104017686
 40
0.8449455937773901
 40
0.8475477196675496
 40
0.8501539779972814
 40
0.8527642915614553
 40
0.8553787505680576
 40
0.8579972775690291
 40
0.8606199630561989
 40
0.8632467293378154
 40
0.8658776671904429
 40
0.8685126986778695
 40
0.8711519148622913
 40
0.8737952375622677
 40
0.876442758126525
 40
0.8790943981276218
 40
0.8817502492017163
 40
0.8844102326745934
 40
0.8870744404707466
 40
0.8897427936684097
 40
0.8924153844813202
 40
0.895092133739382
 40
0.8977731339464854
 40
0.900458305683423
 40
0.9031477417451524
 40
0.9058413624625711
 40
0.9085392609226187
 40
0.9112413572055109
 40
0.9139477446910889
 40
0.9166583432080984
 40
0.9193732464302025
 40
0.9220923739338855
 40
0.9248158196875587
 40
0.9275435030146507
 40
0.9302755181792473
 40
0.9330117842509257
 40
0.9357523957903766
 40
0.9384972716125276
 40
0.941246506575607
 40
0.9440000192390906
 40
0.9467579047596819
 40
0.9495200814406018
 40
0.952286644737967
 40
0.9550575126979363
 40
0.9578327810769828
 40
0.9606123676633953
 40
0.9633963685149468
 40
0.9661847011612441
 40
0.9689774619623099
 40
0.9717745681882554
 40
0.974576116502303
 40
0.9773820239142511
 40
0.9801923873914764
 40
0.9830071236826462
 40
0.9858263300602434
 40
0.9886499230109661
 40
0.9914779907321477
 40
0.9928986922343567
 40
0.994313824378344
 40
0.9957320156934177
 40
0.9971540917189405
 40
0.9977257080778461
 40
0.9982952293123264
 40
0.998863530782034
 40
0.9994314934864539
 40
1.0
 40
1.0
 40
1.0
 40
1.0
 10
-2.9419166221
 20
-0.1926226085
 30
0.0
 10
-2.946603190682367
 20
-0.089689062174457
 30
0.0
 10
-2.955987713388382
 20
0.1164280958083128
 30
0.0
 10
-2.928424859363948
 20
0.4256205541498043
 30
0.0
 10
-2.87140097144463
 20
0.7303145240317328
 30
0.0
 10
-2.75186220481201
 20
1.126136468973043
 30
0.0
 10
-2.525121225660053
 20
1.594265424760675
 30
0.0
 10
-2.141457174444389
 20
2.087528131744029
 30
0.0
 10
-1.661774499407414
 20
2.490360544113853
 30
0.0
 10
-1.107026345983234
 20
2.784867937514776
 30
0.0
 10
-0.5022734102810263
 20
2.959265408950293
 30
0.0
 10
0.1274282047147027
 20
3.000377308288831
 30
0.0
 10
0.7530271143426146
 20
2.913557726984412
 30
0.0
 10
1.347291818978348
 20
2.693970407262002
 30
0.0
 10
1.885380855897098
 20
2.359062139313187
 30
0.0
 10
2.340237502920756
 20
1.9154932693321
 30
0.0
 10
2.696357342300387
 20
1.389208572430796
 30
0.0
 10
2.93154864450811
 20
0.7975896835637885
 30
0.0
 10
3.042311098313887
 20
0.1704272404490602
 30
0.0
 10
3.015380029261348
 20
-0.4670042848103996
 30
0.0
 10
2.859749577397972
 20
-1.086319190095579
 30
0.0
 10
2.573686978037008
 20
-1.658658498953733
 30
0.0
 10
2.176944900597947
 20
-2.161986958649525
 30
0.0
 10
1.679958307210513
 20
-2.569012360331062
 30
0.0
 10
1.109663017162988
 20
-2.867632940267221
 30
0.0
 10
0.4869994932768203
 20
-3.037652969936203
 30
0.0
 10
-0.1584714603547344
 20
-3.07631436979235
 30
0.0
 10
-0.7993384673076191
 20
-2.97943937027242
 30
0.0
 10
-1.406941077202086
 20
-2.750628780308108
 30
0.0
 10
-1.955002578695503
 20
-2.400535153949913
 30
0.0
 10
-2.418223176269051
 20
-1.942855451718802
 30
0.0
 10
-2.777310073667869
 20
-1.39870627360886
 30
0.0
 10
-3.014318627011697
 20
-0.7906338889060879
 30
0.0
 10
-3.120435542417122
 20
-0.1459832298188428
 30
0.0
 10
-3.088436270489443
 20
0.507332786294247
 30
0.0
 10
-2.921255435715173
 20
1.140633335256706
 30
0.0
 10
-2.624105494894431
 20
1.725575454662134
 30
0.0
 10
-2.210917265601264
 20
2.236769160369966
 30
0.0
 10
-1.698688537803203
 20
2.651052919768995
 30
0.0
 10
-1.109555467333228
 20
2.949774116956137
 30
0.0
 10
-0.4702242494415066
 20
3.121373910858395
 30
0.0
 10
0.1926750872800013
 20
3.152340450684607
 30
0.0
 10
0.8488849492223373
 20
3.048846602860783
 30
0.0
 10
1.469417565435695
 20
2.806429265355103
 30
0.0
 10
2.028763773186169
 20
2.443756604387525
 30
0.0
 10
2.498341253586976
 20
1.968572511339104
 30
0.0
 10
2.862584513437117
 20
1.408186304825233
 30
0.0
 10
3.098307872742097
 20
0.7816202974218343
 30
0.0
 10
3.202541592043511
 20
0.1199194007114688
 30
0.0
 10
3.161762459520009
 20
-0.5497209873269127
 30
0.0
 10
2.985978091323303
 20
-1.197979506054475
 30
0.0
 10
2.673996828031977
 20
-1.794193714565731
 30
0.0
 10
2.246866288868897
 20
-2.315688726740197
 30
0.0
 10
1.71646181974457
 20
-2.734387101780724
 30
0.0
 10
1.11017793971763
 20
-3.035621044093011
 30
0.0
 10
0.4526449000288967
 20
-3.203963597929359
 30
0.0
 10
-0.2269692405689558
 20
-3.231433417522263
 30
0.0
 10
-0.8989738830147243
 20
-3.117318410266162
 30
0.0
 10
-1.533390318286745
 20
-2.864725207954702
 30
0.0
 10
-2.102898728571689
 20
-2.485996953542104
 30
0.0
 10
-2.580995230867421
 20
-1.995667710642683
 30
0.0
 10
-2.947944443464081
 20
-1.416507669742681
 30
0.0
 10
-3.185276841970132
 20
-0.7725085621078491
 30
0.0
 10
-3.284164972205409
 20
-0.0925932900184058
 30
0.0
 10
-3.237804750866215
 20
0.5937422043735322
 30
0.0
 10
-3.049475674845435
 20
1.256342268833357
 30
0.0
 10
-2.725638344796487
 20
1.865684652031273
 30
0.0
 10
-2.259979317529273
 20
2.420125602615709
 30
0.0
 10
-1.652957014160395
 20
2.878465747680068
 30
0.0
 10
-0.9222259419074806
 20
3.192325793010351
 30
0.0
 10
-0.1358590455780311
 20
3.324793080498414
 30
0.0
 10
0.6614259751285783
 20
3.265879948674426
 30
0.0
 10
1.423723019177328
 20
3.019445515014895
 30
0.0
 10
2.107347005773957
 20
2.598697502236134
 30
0.0
 10
2.671983748780198
 20
2.026460844380152
 30
0.0
 10
3.085909212209546
 20
1.336096422033175
 30
0.0
 10
3.323552590692281
 20
0.5659586978491467
 30
0.0
 10
3.371159626972894
 20
-0.2395265150723286
 30
0.0
 10
3.225724490768258
 20
-1.034489467018211
 30
0.0
 10
2.893516224423951
 20
-1.772767139476657
 30
0.0
 10
2.394451686194639
 20
-2.41236392412735
 30
0.0
 10
1.755521780239209
 20
-2.915615897403097
 30
0.0
 10
1.01322741546525
 20
-3.252978146545492
 30
0.0
 10
0.2099960007412147
 20
-3.405419270875083
 30
0.0
 10
-0.6084709828219842
 20
-3.361826456325347
 30
0.0
 10
-1.395127257695271
 20
-3.125495148078514
 30
0.0
 10
-2.104734126003629
 20
-2.708533970039773
 30
0.0
 10
-2.69570915768271
 20
-2.133954022353367
 30
0.0
 10
-3.134731571141219
 20
-1.435038937772803
 30
0.0
 10
-3.394570760767495
 20
-0.6505640425562692
 30
0.0
 10
-3.460661204458792
 20
0.1741230221674982
 30
0.0
 10
-3.328385258995177
 20
0.9921184725962314
 30
0.0
 10
-3.003601086838068
 20
1.755962764990322
 30
0.0
 10
-2.505730992439759
 20
2.422261504677414
 30
0.0
 10
-1.861424280785739
 20
2.951556346587578
 30
0.0
 10
-1.107807415568945
 20
3.313238826697178
 30
0.0
 10
-0.2876988955186937
 20
3.486465965017039
 30
0.0
 10
0.5521526270369478
 20
3.459078201076163
 30
0.0
 10
1.363560968141797
 20
3.233604576137333
 30
0.0
 10
2.099709744609026
 20
2.821060431931825
 30
0.0
 10
2.717760354822221
 20
2.244664664844509
 30
0.0
 10
3.182646755991402
 20
1.537488771144564
 30
0.0
 10
3.465576113731724
 20
0.7388002408533557
 30
0.0
 10
3.551022139164341
 20
-0.1051814072028961
 30
0.0
 10
3.432688558953607
 20
-0.946502258378451
 30
0.0
 10
3.116103918892143
 20
-1.73641632210297
 30
0.0
 10
2.619993404125021
 20
-2.430039692795984
 30
0.0
 10
1.970741592297481
 20
-2.986157163042956
 30
0.0
 10
1.206042430305413
 20
-3.373027790386275
 30
0.0
 10
0.3690662570157776
 20
-3.567866808421908
 30
0.0
 10
-0.49235936270794
 20
-3.557601891297485
 30
0.0
 10
-1.328902812546548
 20
-3.343754482392021
 30
0.0
 10
-2.09216111178176
 20
-2.936299718094962
 30
0.0
 10
-2.738026821186279
 20
-2.358638539881159
 30
0.0
 10
-3.229548040603512
 20
-1.643509270829078
 30
0.0
 10
-3.536499080845329
 20
-0.830760453844336
 30
0.0
 10
-3.642180377035033
 20
0.0325944858161081
 30
0.0
 10
-3.538614390682677
 20
0.8975269875363203
 30
0.0
 10
-3.231028122779914
 20
1.714007962094436
 30
0.0
 10
-2.737260233704669
 20
2.435575165499524
 30
0.0
 10
-2.083535606964432
 20
3.019319747483733
 30
0.0
 10
-1.308011818825958
 20
3.432248866581103
 30
0.0
 10
-0.4541975930743171
 20
3.649561457411611
 30
0.0
 10
0.4289769918605002
 20
3.657357910241104
 30
0.0
 10
1.291028745795932
 20
3.455921675490163
 30
0.0
 10
2.081972464959696
 20
3.054273419318676
 30
0.0
 10
2.756391128477755
 20
2.47591775753649
 30
0.0
 10
3.275334560358449
 20
1.75316789954826
 30
0.0
 10
3.607263032640021
 20
0.9265382211282396
 30
0.0
 10
3.734069482670205
 20
0.0437460302495108
 30
0.0
 10
3.646139852039626
 20
-0.8450760430867086
 30
0.0
 10
3.348373869884632
 20
-1.688614252032913
 30
0.0
 10
2.857549770254669
 20
-2.438740984740985
 30
0.0
 10
2.199868081640169
 20
-3.05094118440141
 30
0.0
 10
1.413793821905483
 20
-3.490800779168061
 30
0.0
 10
0.5431941105770407
 20
-3.731486121098091
 30
0.0
 10
-0.3618892326122268
 20
-3.758302508748385
 30
0.0
 10
-1.249812035851845
 20
-3.570078202345388
 30
0.0
 10
-2.069024720099344
 20
-3.175001898093921
 30
0.0
 10
-2.772729618308624
 20
-2.596540457864425
 30
0.0
 10
-3.319908888719696
 20
-1.866535912886367
 30
0.0
 10
-3.677784733852743
 20
-1.026227061569904
 30
0.0
 10
-3.826618111132897
 20
-0.1239495171789507
 30
0.0
 10
-3.755239640667133
 20
0.7890303925488433
 30
0.0
 10
-3.468135308162215
 20
1.660106711139416
 30
0.0
 10
-2.980885800406776
 20
2.439413583799334
 30
0.0
 10
-2.319798523113607
 20
3.080911858689758
 30
0.0
 10
-1.523465951867254
 20
3.548577592444815
 30
0.0
 10
-0.6361585461183665
 20
3.813573149251879
 30
0.0
 10
0.2909776611510992
 20
3.860387507655274
 30
0.0
 10
1.205123608706392
 20
3.686191587654029
 30
0.0
 10
2.053194748852066
 20
3.298503753636455
 30
0.0
 10
2.786914153675749
 20
2.720541686118216
 30
0.0
 10
3.363169704540125
 20
1.983684878553918
 30
0.0
 10
3.747976146533281
 20
1.129920853246669
 30
0.0
 10
3.919749278396352
 20
0.2081260665967747
 30
0.0
 10
3.865886019430569
 20
-0.7292683668974597
 30
0.0
 10
3.590300096945611
 20
-1.628352300672844
 30
0.0
 10
3.107297871164044
 20
-2.437471883065002
 30
0.0
 10
2.443383651291864
 20
-3.109115636632731
 30
0.0
 10
1.637104867554791
 20
-3.605468330917965
 30
0.0
 10
0.7331949994523654
 20
-3.895751567316403
 30
0.0
 10
-0.2161214222522396
 20
-3.963557289412125
 30
0.0
 10
-1.15683513841984
 20
-3.804234871934374
 30
0.0
 10
-2.034354010788049
 20
-3.4247930795076
 30
0.0
 10
-2.798812393098314
 20
-2.847953893700831
 30
0.0
 10
-3.405011380904231
 20
-2.104686327614648
 30
0.0
 10
-3.817744183453827
 20
-1.237713787457435
 30
0.0
 10
-4.013380560182838
 20
-0.2963862233880106
 30
0.0
 10
-3.978048015903799
 20
0.6656651438518066
 30
0.0
 10
-3.714851113405839
 20
1.593214897337038
 30
0.0
 10
-3.236814391198284
 20
2.43279105510006
 30
0.0
 10
-2.570678605219729
 20
3.135431639128429
 30
0.0
 10
-1.754785694418902
 20
3.66135634293446
 30
0.0
 10
-0.8344091062725154
 20
3.977947115806321
 30
0.0
 10
0.1371977863127883
 20
4.067747997458571
 30
0.0
 10
1.104818750164544
 20
3.92418852503959
 30
0.0
 10
2.012368671523877
 20
3.553878535202084
 30
0.0
 10
2.808287552510709
 20
2.978806813710781
 30
0.0
 10
3.445324478196831
 20
2.229611754199888
 30
0.0
 10
3.88698796451886
 20
1.349699554511371
 30
0.0
 10
4.107433930510542
 20
0.3888418568639997
 30
0.0
 10
4.091688512673665
 20
-0.5980925136048497
 30
0.0
 10
3.841766998649249
 20
-1.554555383517756
 30
0.0
 10
3.369462046766349
 20
-2.425242173888575
 30
0.0
 10
2.70173683839558
 20
-3.159734075102708
 30
0.0
 10
1.876581783524844
 20
-3.716119488977618
 30
0.0
 10
0.9399082453927253
 20
-4.060081261880487
 30
0.0
 10
-0.0540829511854468
 20
-4.17288994273899
 30
0.0
 10
-1.048943491442746
 20
-4.046030649049518
 30
0.0
 10
-1.987100955731959
 20
-3.685765369232787
 30
0.0
 10
-2.815197998487938
 20
-3.113126503330858
 30
0.0
 10
-3.483995873862357
 20
-2.358532831635799
 30
0.0
 10
-3.95559770965032
 20
-1.46597038088942
 30
0.0
 10
-4.201839643813075
 20
-0.4856073528637928
 30
0.0
 10
-4.206762837148486
 20
0.5264192869025834
 30
0.0
 10
-3.971022111812571
 20
1.512231487398073
 30
0.0
 10
-3.505265911418712
 20
2.414692618540939
 30
0.0
 10
-2.836608448345651
 20
3.181890169283195
 30
0.0
 10
-2.002568898779936
 20
3.769638200743684
 30
0.0
 10
-1.049800722799887
 20
4.142068595211798
 30
0.0
 10
-0.0333480423137632
 20
4.278908137257876
 30
0.0
 10
0.9890751545691505
 20
4.169736114911765
 30
0.0
 10
1.95840906434681
 20
3.820455311062608
 30
0.0
 10
2.8193974774821
 20
3.250935113003804
 30
0.0
 10
3.520907701477662
 20
2.491521236468111
 30
0.0
 10
4.023457547510709
 20
1.586617216270027
 30
0.0
 10
4.29652473697212
 20
0.5867991232146887
 30
0.0
 10
4.323221420957194
 20
-0.4505118462095101
 30
0.0
 10
4.102585379045814
 20
-1.466097731386781
 30
0.0
 10
3.644249796408727
 20
-2.401006246837038
 30
0.0
 10
2.975338496276816
 20
-3.201759008785602
 30
0.0
 10
2.132828868341769
 20
-3.821800653166934
 30
0.0
 10
1.164194673110685
 20
-4.223815093260165
 30
0.0
 10
0.1252214909751952
 20
-4.385722350368072
 30
0.0
 10
-0.9250765871372453
 20
-4.295276716706578
 30
0.0
 10
-1.926145997734763
 20
-3.957944449834907
 30
0.0
 10
-2.820740421256037
 20
-3.392257101452087
 30
0.0
 10
-3.55593539270186
 20
-2.6286470644929
 30
0.0
 10
-4.090446003543207
 20
-1.711729972323694
 30
0.0
 10
-4.391411877749545
 20
-0.692535435389146
 30
0.0
 10
-4.441009740233527
 20
0.3702341219156789
 30
0.0
 10
-4.236420102350984
 20
1.416005734564398
 30
0.0
 10
-3.786435661884755
 20
2.384042423074848
 30
0.0
 10
-3.11796835414098
 20
3.219194284537747
 30
0.0
 10
-2.267444346021783
 20
3.872491478792255
 30
0.0
 10
-1.283198592431121
 20
4.305221025017957
 30
0.0
 10
-0.2216646349360882
 20
4.493245920735179
 30
0.0
 10
0.8568078075245754
 20
4.422621702666439
 30
0.0
 10
1.890158804215986
 20
4.098220722715938
 30
0.0
 10
2.819086834879492
 20
3.537126320798407
 30
0.0
 10
3.588946009893014
 20
2.76997677254462
 30
0.0
 10
4.156436113298271
 20
1.84139781663425
 30
0.0
 10
4.486419520217072
 20
0.8029361677991755
 30
0.0
 10
4.560066147993613
 20
-0.2854473323989966
 30
0.0
 10
4.372490814855182
 20
-1.361806481673036
 30
0.0
 10
3.931841611135905
 20
-2.363654888213968
 30
0.0
 10
3.264536093130691
 20
-3.234044709708792
 30
0.0
 10
2.406498054956366
 20
-3.921590425172911
 30
0.0
 10
1.406921358625006
 20
-4.386180976557277
 30
0.0
 10
0.3228052772747128
 20
-4.601385650764952
 30
0.0
 10
-0.7841252875550405
 20
-4.55173682861076
 30
0.0
 10
-1.850290748447898
 20
-4.241266330166838
 30
0.0
 10
-2.814293307754827
 20
-3.685576368976981
 30
0.0
 10
-3.619800910577368
 20
-2.915574852270971
 30
0.0
 10
-4.221294384396149
 20
-1.975708326306096
 30
0.0
 10
-4.581462599506004
 20
-0.9181228743754248
 30
0.0
 10
-4.680318664934062
 20
0.1960101382250905
 30
0.0
 10
-4.510773856265719
 20
1.303352844379306
 30
0.0
 10
-4.080478818632715
 20
2.33969070859545
 30
0.0
 10
-3.415076942951408
 20
3.246154092222216
 30
0.0
 10
-2.550072564842474
 20
3.968972496954196
 30
0.0
 10
-1.535471717638835
 20
4.466581998875451
 30
0.0
 10
-0.4287721953731518
 20
4.710047992569928
 30
0.0
 10
0.7068816603396528
 20
4.682582305534718
 30
0.0
 10
1.806381629537949
 20
4.38705827940573
 30
0.0
 10
2.806211723822706
 20
3.83763901970303
 30
0.0
 10
3.648355859820251
 20
3.065503927835985
 30
0.0
 10
4.28488081909907
 20
2.114747056141443
 30
0.0
 10
4.676451339782248
 20
1.038219114939786
 30
0.0
 10
4.801688186767533
 20
-0.1017798209025922
 30
0.0
 10
4.651244434226964
 20
-1.240494650324263
 30
0.0
 10
4.232354520008999
 20
-2.311992483310558
 30
0.0
 10
3.569620813371265
 20
-3.255359591505078
 30
0.0
 10
2.698255321381577
 20
-4.014512634186494
 30
0.0
 10
1.66893928929465
 20
-4.546285496701421
 30
0.0
 10
0.5397625368101979
 20
-4.819206717107626
 30
0.0
 10
-0.5545281219602857
 20
-4.815164625873981
 30
0.0
 10
-1.552180969511718
 20
-4.592285934546544
 30
0.0
 10
-2.424285676322862
 20
-4.205773330071451
 30
0.0
 10
-3.206620757196669
 20
-3.657663543071624
 30
0.0
 10
-3.86683229736685
 20
-2.965692146158286
 30
0.0
 10
-4.381695179889667
 20
-2.15848786417698
 30
0.0
 10
-4.72790294319971
 20
-1.264852507698247
 30
0.0
 10
-4.894956982818613
 20
-0.3201953535900374
 30
0.0
 10
-4.872309802160293
 20
0.6398876788589669
 30
0.0
 10
-4.66384748797195
 20
1.578587391053833
 30
0.0
 10
-4.273479690919186
 20
2.458903378967053
 30
0.0
 10
-3.718972495193928
 20
3.248240667283098
 30
0.0
 10
-3.018187194979648
 20
3.913836284897466
 30
0.0
 10
-2.200143812772055
 20
4.432314347801651
 30
0.0
 10
-1.294015305545686
 20
4.780179889017149
 30
0.0
 10
-0.3357143335551226
 20
4.946904424857961
 30
0.0
 10
0.6386587656698572
 20
4.921907790016958
 30
0.0
 10
1.591740186559065
 20
4.709197892181776
 30
0.0
 10
2.485972147537784
 20
4.312806676397339
 30
0.0
 10
3.288237120294932
 20
3.750757936927376
 30
0.0
 10
3.965246887951478
 20
3.041172030364993
 30
0.0
 10
4.493214999284901
 20
2.213424207512041
 30
0.0
 10
4.848233817958654
 20
1.29704451564006
 30
0.0
 10
5.019539684824862
 20
0.3283447317932183
 30
0.0
 10
4.996316079679993
 20
-0.6561736113710431
 30
0.0
 10
4.782548149892397
 20
-1.618764382745759
 30
0.0
 10
4.382245009939422
 20
-2.521485497470346
 30
0.0
 10
3.813624923904158
 20
-3.330912391263165
 30
0.0
 10
3.09500377489532
 20
-4.013448236872555
 30
0.0
 10
2.256140181515133
 20
-4.545122204778562
 30
0.0
 10
1.326949588192792
 20
-4.901841352297398
 30
0.0
 10
0.3442586766584527
 20
-5.072809232836199
 30
0.0
 10
-0.6549134175389826
 20
-5.04717640286447
 30
0.0
 10
-1.632251933972887
 20
-4.829052776252211
 30
0.0
 10
-2.549243199289447
 20
-4.422572916010309
 30
0.0
 10
-3.371926803309317
 20
-3.846219344156204
 30
0.0
 10
-4.066167303051198
 20
-3.118573602667315
 30
0.0
 10
-4.607572852824388
 20
-2.269758578643597
 30
0.0
 10
-4.971627337513739
 20
-1.330055895415455
 30
0.0
 10
-5.147293149594351
 20
-0.3367015094579781
 30
0.0
 10
-5.123478475106902
 20
0.6728740376264934
 30
0.0
 10
-4.904269888326509
 20
1.659963929223288
 30
0.0
 10
-4.493778540629779
 20
2.585660407699902
 30
0.0
 10
-3.910686373350061
 20
3.415688212463108
 30
0.0
 10
-3.173775431370711
 20
4.1155954356452
 30
0.0
 10
-2.31356172677468
 20
4.660801160603238
 30
0.0
 10
-1.360722088882147
 20
5.026599249600134
 30
0.0
 10
-0.3530204838123934
 20
5.201918473185241
 30
0.0
 10
0.671581770310047
 20
5.175633256132914
 30
0.0
 10
1.673794755234311
 20
4.951958114681181
 30
0.0
 10
2.614124577204192
 20
4.535132841559684
 30
0.0
 10
3.4577464917906
 20
3.944110361726064
 30
0.0
 10
4.169656266962964
 20
3.197945140277495
 30
0.0
 10
4.724841254527673
 20
2.327526728876399
 30
0.0
 10
5.098161374056984
 20
1.363907455448001
 30
0.0
 10
5.278298097325506
 20
0.3452709774027391
 30
0.0
 10
5.253877310053013
 20
-0.6899995102908503
 30
0.0
 10
5.029089594861081
 20
-1.702212054881489
 30
0.0
 10
4.608150736990296
 20
-2.651468648403644
 30
0.0
 10
4.010218156181179
 20
-3.502621682684225
 30
0.0
 10
3.254551923482863
 20
-4.220342406384918
 30
0.0
 10
2.372444721055436
 20
-4.779424288271501
 30
0.0
 10
1.395354141293037
 20
-5.154532388984542
 30
0.0
 10
0.3620052897454966
 20
-5.334313702653586
 30
0.0
 10
-0.6886743531801867
 20
-5.30735949446632
 30
0.0
 10
-1.716394892442288
 20
-5.077991545287698
 30
0.0
 10
-2.680657266065455
 20
-4.650557555792174
 30
0.0
 10
-3.545750397000648
 20
-4.044492826211322
 30
0.0
 10
-4.27577915241667
 20
-3.279336781237871
 30
0.0
 10
-4.845094281429127
 20
-2.386765149653691
 30
0.0
 10
-5.227915857612329
 20
-1.398620579359645
 30
0.0
 10
-5.412637282262783
 20
-0.3540585488570074
 30
0.0
 10
-5.38759495588862
 20
0.7075608473184337
 30
0.0
 10
-5.157086116598355
 20
1.745535447351235
 30
0.0
 10
-4.725433846557237
 20
2.718951789852856
 30
0.0
 10
-4.112283145423764
 20
3.591767716750331
 30
0.0
 10
-3.337384276767108
 20
4.327755316488849
 30
0.0
 10
-2.432826360034322
 20
4.901066520581363
 30
0.0
 10
-1.430867622074892
 20
5.28572158427076
 30
0.0
 10
-0.3712187700511906
 20
5.470078553709953
 30
0.0
 10
0.7062019633279405
 20
5.442438327739691
 30
0.0
 10
1.760079255589226
 20
5.207232681868765
 30
0.0
 10
2.748883293769673
 20
4.768919971106498
 30
0.0
 10
3.635994109943869
 20
4.14743014800311
 30
0.0
 10
4.384602995957826
 20
3.362799939665663
 30
0.0
 10
4.968407895914217
 20
2.44751126117089
 30
0.0
 10
5.360972752520841
 20
1.434217195011782
 30
0.0
 10
5.550395564847875
 20
0.3630697748235499
 30
0.0
 10
5.524715880436736
 20
-0.7255691419939784
 30
0.0
 10
5.288340307396366
 20
-1.789961473496822
 30
0.0
 10
4.845701955655369
 20
-2.788152460333624
 30
0.0
 10
4.216945814299452
 20
-3.683182627135269
 30
0.0
 10
3.422324815421142
 20
-4.437902017396007
 30
0.0
 10
2.494744786063905
 20
-5.025804697462996
 30
0.0
 10
1.46728496466499
 20
-5.42024970609014
 30
0.0
 10
0.3806667447739774
 20
-5.609298787372045
 30
0.0
 10
-0.7241756727328712
 20
-5.58095508362173
 30
0.0
 10
-1.804875439559903
 20
-5.339763164490814
 30
0.0
 10
-2.818845757875085
 20
-4.890294855612333
 30
0.0
 10
-3.728534636484642
 20
-4.252987351365651
 30
0.0
 10
-4.496196540295181
 20
-3.448387338230952
 30
0.0
 10
-5.094859993705131
 20
-2.509803436013644
 30
0.0
 10
-5.497416109217493
 20
-1.470719788357007
 30
0.0
 10
-5.691659965325634
 20
-0.3723103475851545
 30
0.0
 10
-5.665326701330724
 20
0.7440357699397784
 30
0.0
 10
-5.422935078943321
 20
1.835518196702671
 30
0.0
 10
-4.969031036197696
 20
2.859114373074188
 30
0.0
 10
-4.324272276953145
 20
3.776924159534583
 30
0.0
 10
-3.509427195358277
 20
4.550852087447899
 30
0.0
 10
-2.558239112266588
 20
5.153717614517187
 30
0.0
 10
-1.504629173459142
 20
5.55820173423372
 30
0.0
 10
-0.3903551820852121
 20
5.752062347381486
 30
0.0
 10
0.7426068351705085
 20
5.722997261475456
 30
0.0
 10
1.850811741563481
 20
5.475666711059868
 30
0.0
 10
2.890588852826174
 20
5.014758880358935
 30
0.0
 10
3.823430433357046
 20
4.36123111551007
 30
0.0
 10
4.610630277724161
 20
3.536153041460337
 30
0.0
 10
5.224530453066031
 20
2.573681023396978
 30
0.0
 10
5.637332117323872
 20
1.508151417642833
 30
0.0
 10
5.836519718712679
 20
0.3817861042999126
 30
0.0
 10
5.809516240728985
 20
-0.7629723963020856
 30
0.0
 10
5.560955453132176
 20
-1.8822343946013
 30
0.0
 10
5.095498993676091
 20
-2.931882353858723
 30
0.0
 10
4.434330330216025
 20
-3.873051529343144
 30
0.0
 10
3.598746438100606
 20
-4.666676875840825
 30
0.0
 10
2.623349447242028
 20
-5.284886072790024
 30
0.0
 10
1.542923838343316
 20
-5.699664811332711
 30
0.0
 10
0.4002902020539403
 20
-5.898459415756022
 30
0.0
 10
-0.7615070933836358
 20
-5.868654587630316
 30
0.0
 10
-1.897917179007418
 20
-5.615029170206451
 30
0.0
 10
-2.964157897870114
 20
-5.14239066776891
 30
0.0
 10
-3.920741445090495
 20
-4.472229816715921
 30
0.0
 10
-4.727976494655406
 20
-3.6261524898893
 30
0.0
 10
-5.357501185261025
 20
-2.639184374021832
 30
0.0
 10
-5.780809160093703
 20
-1.54653572797779
 30
0.0
 10
-5.985066331167002
 20
-0.3915030306892179
 30
0.0
 10
-5.957375581423364
 20
0.7823909831189785
 30
0.0
 10
-5.702488615767376
 20
1.93013957725085
 30
0.0
 10
-5.225185716372891
 20
3.006502369342231
 30
0.0
 10
-4.547189496432058
 20
3.971625459060248
 30
0.0
 10
-3.690338965535787
 20
4.78544954769574
 30
0.0
 10
-2.690116920402911
 20
5.419392929813664
 30
0.0
 10
-1.582193149595067
 20
5.844728297905837
 30
0.0
 10
-0.4104780805122922
 20
6.048582469757051
 30
0.0
 10
0.7808883864372652
 20
6.018019072061419
 30
0.0
 10
1.946221507827872
 20
5.757938575513957
 30
0.0
 10
3.039599365684553
 20
5.273270841302048
 30
0.0
 10
4.020529141876594
 20
4.586053571523375
 30
0.0
 10
4.848309317277854
 20
3.718442535083569
 30
0.0
 10
5.493856186296791
 20
2.706354865564525
 30
0.0
 10
5.927937870243333
 20
1.585896966267628
 30
0.0
 10
6.137393637791142
 20
0.4014672648180289
 30
0.0
 10
6.108998124375222
 20
-0.8023037968776733
 30
0.0
 10
5.84762397164
 20
-1.979264005777402
 30
0.0
 10
5.358173125825865
 20
-3.083021556088236
 30
0.0
 10
4.662921067374492
 20
-4.072708216647838
 30
0.0
 10
3.784262635558035
 20
-4.907245130276023
 30
0.0
 10
2.758583707956262
 20
-5.557323151946238
 30
0.0
 10
1.622461913164529
 20
-5.993483828806634
 30
0.0
 10
0.4209252530202321
 20
-6.202526340305844
 30
0.0
 10
-0.8007629572603628
 20
-6.17118506651088
 30
0.0
 10
-1.995755241286663
 20
-5.904485201129048
 30
0.0
 10
-3.116960911734624
 20
-5.407482076384246
 30
0.0
 10
-4.122856558399333
 20
-4.702774281024261
 30
0.0
 10
-4.971704758383518
 20
-3.813081475550411
 30
0.0
 10
-5.633681589981951
 20
-2.77523492881355
 30
0.0
 10
-6.078811187203248
 20
-1.62625999653135
 30
0.0
 10
-6.293597861905957
 20
-0.4116851009729971
 30
0.0
 10
-6.264479647714551
 20
0.8227234162618171
 30
0.0
 10
-5.996453201002304
 20
2.02963871148892
 30
0.0
 10
-5.494545228576367
 20
3.161488250342852
 30
0.0
 10
-4.781598149280073
 20
4.176363654863385
 30
0.0
 10
-3.880576778616299
 20
5.032140560380945
 30
0.0
 10
-2.828793059545667
 20
5.698763868044209
 30
0.0
 10
-1.663755566343695
 20
6.146025371108672
 30
0.0
 10
-0.4316383189306173
 20
6.36038827188773
 30
0.0
 10
0.8211433603792729
 20
6.328249324089045
 30
0.0
 10
2.046549669245119
 20
6.054761618786565
 30
0.0
 10
3.196291404374846
 20
5.545109152633149
 30
0.0
 10
4.227788333652562
 20
4.822465676282269
 30
0.0
 10
5.098240765383016
 20
3.910129093567092
 30
0.0
 10
5.777065722337229
 20
2.845868074472284
 30
0.0
 10
6.233524415824739
 20
1.667650315613829
 30
0.0
 10
6.453777675843946
 20
0.4221629936162689
 30
0.0
 10
6.423918367210176
 20
-0.8436627400190285
 30
0.0
 10
6.149070317607944
 20
-2.08129551577905
 30
0.0
 10
5.634388168767385
 20
-3.241952017450972
 30
0.0
 10
4.903295710782272
 20
-4.28265725578532
 30
0.0
 10
3.979342228633633
 20
-5.160214717278669
 30
0.0
 10
2.900789350105248
 20
-5.843804483113709
 30
0.0
 10
1.70610010205411
 20
-6.302449064200957
 30
0.0
 10
0.4426243888912507
 20
-6.522268804199522
 30
0.0
 10
-0.8420437542258155
 20
-6.489307992031238
 30
0.0
 10
-2.098632073316905
 20
-6.20887423444703
 30
0.0
 10
-3.277658929288763
 20
-5.686196068769308
 30
0.0
 10
-4.335322344655658
 20
-4.945364810782082
 30
0.0
 10
-5.079662642214545
 20
-4.164852805285131
 30
0.0
 10
-5.57600383633736
 20
-3.464390172033025
 30
0.0
 10
-5.895276369343281
 20
-2.904086764593998
 30
0.0
 10
-6.157979061412878
 20
-2.315226503406394
 30
0.0
 10
-6.320973613774378
 20
-1.824648008709606
 30
0.0
 10
-6.417981385161166
 20
-1.44932339075847
 30
0.0
 10
-6.472897282891384
 20
-1.196685095239185
 30
0.0
 10
-6.517523018876867
 20
-0.942645253787986
 30
0.0
 10
-6.552784483677922
 20
-0.6872663536591614
 30
0.0
 10
-6.56774332968535
 20
-0.5161256316842153
 30
0.0
 10
-6.5752263316
 20
-0.4305143246
 30
0.0
  0
LINE
  5
76
330
1F
100
AcDbEntity
  8
0
  6
Continuous
 62
     7
370
    25
100
AcDbLine
 10
-6.5752263316
 20
-0.4305143246
 30
0.0
 11
-6.6866708457
 21
-0.4378111776
 31
0.0
  0
ENDSEC
  0
SECTION
  2
OBJECTS
  0
DICTIONARY
  5
C
330
0
100
AcDbDictionary
281
     1
  3
ACAD_GROUP
350
D
  3
ACAD_LAYOUT
350
1A
  3
ACAD_MLINESTYLE
350
17
  3
ACAD_PLOTSETTINGS
350
19
  3
ACAD_PLOTSTYLENAME
350
E
  3
ACAD_SCALELIST
350
47
  0
DICTIONARY
  5
D
102
{ACAD_REACTORS
330
C
102
}
330
C
100
AcDbDictionary
281
     1
  0
DICTIONARY
  5
1A
102
{ACAD_REACTORS
330
C
102
}
330
C
100
AcDbDictionary
281
     1
  3
Layout1
350
1E
  3
Layout2
350
26
  3
Model
350
22
  0
DICTIONARY
  5
17
102
{ACAD_REACTORS
330
C
102
}
330
C
100
AcDbDictionary
281
     1
  3
Standard
350
18
  0
DICTIONARY
  5
19
102
{ACAD_REACTORS
330
C
102
}
330
C
100
AcDbDictionary
281
     1
  0
ACDBDICTIONARYWDFLT
  5
E
102
{ACAD_REACTORS
330
C
102
}
330
C
100
AcDbDictionary
281
     1
  3
Normal
350
F
100
AcDbDictionaryWithDefault
340
F
  0
DICTIONARY
  5
47
102
{ACAD_REACTORS
330
C
102
}
330
C
100
AcDbDictionary
281
     1
  3
A0
350
48
  3
A1
350
49
  3
A2
350
4A
  3
A3
350
4B
  3
A4
350
4C
  3
A5
350
4D
  3
A6
350
4E
  3
A7
350
4F
  3
A8
350
50
  3
A9
350
51
  3
B0
350
52
  3
B1
350
53
  3
B2
350
54
  3
B3
350
55
  3
B4
350
56
  3
B5
350
57
  3
B6
350
58
  3
B7
350
59
  3
B8
350
5A
  3
B9
350
5B
  3
C0
350
5C
  3
C1
350
5D
  3
C2
350
5E
  3
C3
350
5F
  3
C4
350
60
  3
C5
350
61
  3
C6
350
62
  3
C7
350
63
  3
C8
350
64
  3
C9
350
65
  3
D0
350
66
  3
D1
350
67
  3
D2
350
68
  0
LAYOUT
  5
1E
102
{ACAD_REACTORS
330
1A
102
}
330
1A
100
AcDbPlotSettings
  1

  2
none_device
  4

  6

 40
0.0
 41
0.0
 42
0.0
 43
0.0
 44
0.0
 45
0.0
 46
0.0
 47
0.0
 48
0.0
 49
0.0
140
0.0
141
0.0
142
1.0
143
1.0
 70
   688
 72
     1
 73
     0
 74
     5
  7

 75
    16
147
1.0
148
0.0
149
0.0
100
AcDbLayout
  1
Layout1
 70
     1
 71
     1
 10
0.0
 20
0.0
 11
420.0
 21
297.0
 12
0.0
 22
0.0
 32
0.0
 14
1.0000000000E+20
 24
1.0000000000E+20
 34
1.0000000000E+20
 15
-1.0000000000E+20
 25
-1.0000000000E+20
 35
-1.0000000000E+20
146
0.0
 13
0.0
 23
0.0
 33
0.0
 16
1.0
 26
0.0
 36
0.0
 17
0.0
 27
1.0
 37
0.0
 76
     0
330
1B
  0
LAYOUT
  5
26
102
{ACAD_REACTORS
330
1A
102
}
330
1A
100
AcDbPlotSettings
  1

  2
none_device
  4

  6

 40
0.0
 41
0.0
 42
0.0
 43
0.0
 44
0.0
 45
0.0
 46
0.0
 47
0.0
 48
0.0
 49
0.0
140
0.0
141
0.0
142
1.0
143
1.0
 70
   688
 72
     1
 73
     0
 74
     5
  7

 75
    16
147
1.0
148
0.0
149
0.0
100
AcDbLayout
  1
Layout2
 70
     1
 71
     2
 10
0.0
 20
0.0
 11
0.0
 21
0.0
 12
0.0
 22
0.0
 32
0.0
 14
0.0
 24
0.0
 34
0.0
 15
0.0
 25
0.0
 35
0.0
146
0.0
 13
0.0
 23
0.0
 33
0.0
 16
1.0
 26
0.0
 36
0.0
 17
0.0
 27
1.0
 37
0.0
 76
     0
330
23
  0
LAYOUT
  5
22
102
{ACAD_REACTORS
330
1A
102
}
330
1A
100
AcDbPlotSettings
  1

  2
none_device
  4
ANSI_A_(11.00_x_8.50_Inches)
  6

 40
6.35
 41
19.05
 42
6.35000508
 43
19.05000254
 44
279.4
 45
215.9
 46
134.5592549484
 47
90.2701852595
 48
0.0
 49
0.0
140
0.0
141
0.0
142
0.6449511838
143
1.0
 70
  1696
 72
     0
 73
     0
 74
     0
  7

 75
     0
147
0.0179189148
148
-1300.4909072572
149
0.0
100
AcDbLayout
  1
Model
 70
     1
 71
     0
 10
0.0
 20
0.0
 11
420.0
 21
297.0
 12
0.0
 22
0.0
 32
0.0
 14
-6.6866708457
 24
-6.6073905415
 34
0.0
 15
6.5390362224
 25
6.4401085738
 35
0.0
146
0.0
 13
0.0
 23
0.0
 33
0.0
 16
1.0
 26
0.0
 36
0.0
 17
0.0
 27
1.0
 37
0.0
 76
     0
330
1F
331
29
  0
MLINESTYLE
  5
18
102
{ACAD_REACTORS
330
17
102
}
330
17
100
AcDbMlineStyle
  2
Standard
 70
     0
  3

 62
   256
 51
90.0
 52
90.0
 71
     2
 49
0.5
 62
   256
  6
BYLAYER
 49
-0.5
 62
   256
  6
BYLAYER
  0
ACDBPLACEHOLDER
  5
F
102
{ACAD_REACTORS
330
E
102
}
330
E
  0
SCALE
  5
48
102
{ACAD_REACTORS
330
47
102
}
330
47
100
AcDbScale
 70
     0
300
1:1
140
1.0
141
1.0
290
     1
  0
SCALE
  5
49
102
{ACAD_REACTORS
330
47
102
}
330
47
100
AcDbScale
 70
     0
300
1:2
140
1.0
141
2.0
290
     0
  0
SCALE
  5
4A
102
{ACAD_REACTORS
330
47
102
}
330
47
100
AcDbScale
 70
     0
300
1:4
140
1.0
141
4.0
290
     0
  0
SCALE
  5
4B
102
{ACAD_REACTORS
330
47
102
}
330
47
100
AcDbScale
 70
     0
300
1:5
140
1.0
141
5.0
290
     0
  0
SCALE
  5
4C
102
{ACAD_REACTORS
330
47
102
}
330
47
100
AcDbScale
 70
     0
300
1:8
140
1.0
141
8.0
290
     0
  0
SCALE
  5
4D
102
{ACAD_REACTORS
330
47
102
}
330
47
100
AcDbScale
 70
     0
300
1:10
140
1.0
141
10.0
290
     0
  0
SCALE
  5
4E
102
{ACAD_REACTORS
330
47
102
}
330
47
100
AcDbScale
 70
     0
300
1:16
140
1.0
141
16.0
290
     0
  0
SCALE
  5
4F
102
{ACAD_REACTORS
330
47
102
}
330
47
100
AcDbScale
 70
     0
300
1:20
140
1.0
141
20.0
290
     0
  0
SCALE
  5
50
102
{ACAD_REACTORS
330
47
102
}
330
47
100
AcDbScale
 70
     0
300
1:30
140
1.0
141
30.0
290
     0
  0
SCALE
  5
51
102
{ACAD_REACTORS
330
47
102
}
330
47
100
AcDbScale
 70
     0
300
1:40
140
1.0
141
40.0
290
     0
  0
SCALE
  5
52
102
{ACAD_REACTORS
330
47
102
}
330
47
100
AcDbScale
 70
     0
300
1:50
140
1.0
141
50.0
290
     0
  0
SCALE
  5
53
102
{ACAD_REACTORS
330
47
102
}
330
47
100
AcDbScale
 70
     0
300
1:100
140
1.0
141
100.0
290
     0
  0
SCALE
  5
54
102
{ACAD_REACTORS
330
47
102
}
330
47
100
AcDbScale
 70
     0
300
2:1
140
2.0
141
1.0
290
     0
  0
SCALE
  5
55
102
{ACAD_REACTORS
330
47
102
}
330
47
100
AcDbScale
 70
     0
300
4:1
140
4.0
141
1.0
290
     0
  0
SCALE
  5
56
102
{ACAD_REACTORS
330
47
102
}
330
47
100
AcDbScale
 70
     0
300
8:1
140
8.0
141
1.0
290
     0
  0
SCALE
  5
57
102
{ACAD_REACTORS
330
47
102
}
330
47
100
AcDbScale
 70
     0
300
10:1
140
10.0
141
1.0
290
     0
  0
SCALE
  5
58
102
{ACAD_REACTORS
330
47
102
}
330
47
100
AcDbScale
 70
     0
300
100:1
140
100.0
141
1.0
290
     0
  0
SCALE
  5
59
102
{ACAD_REACTORS
330
47
102
}
330
47
100
AcDbScale
 70
     0
300
1/128" = 1'-0"
140
0.0078125
141
12.0
290
     0
  0
SCALE
  5
5A
102
{ACAD_REACTORS
330
47
102
}
330
47
100
AcDbScale
 70
     0
300
1/64" = 1'-0"
140
0.015625
141
12.0
290
     0
  0
SCALE
  5
5B
102
{ACAD_REACTORS
330
47
102
}
330
47
100
AcDbScale
 70
     0
300
1/32" = 1'-0"
140
0.03125
141
12.0
290
     0
  0
SCALE
  5
5C
102
{ACAD_REACTORS
330
47
102
}
330
47
100
AcDbScale
 70
     0
300
1/16" = 1'-0"
140
0.0625
141
12.0
290
     0
  0
SCALE
  5
5D
102
{ACAD_REACTORS
330
47
102
}
330
47
100
AcDbScale
 70
     0
300
3/32" = 1'-0"
140
0.09375
141
12.0
290
     0
  0
SCALE
  5
5E
102
{ACAD_REACTORS
330
47
102
}
330
47
100
AcDbScale
 70
     0
300
1/8" = 1'-0"
140
0.125
141
12.0
290
     0
  0
SCALE
  5
5F
102
{ACAD_REACTORS
330
47
102
}
330
47
100
AcDbScale
 70
     0
300
3/16" = 1'-0"
140
0.1875
141
12.0
290
     0
  0
SCALE
  5
60
102
{ACAD_REACTORS
330
47
102
}
330
47
100
AcDbScale
 70
     0
300
1/4" = 1'-0"
140
0.25
141
12.0
290
     0
  0
SCALE
  5
61
102
{ACAD_REACTORS
330
47
102
}
330
47
100
AcDbScale
 70
     0
300
3/8" = 1'-0"
140
0.375
141
12.0
290
     0
  0
SCALE
  5
62
102
{ACAD_REACTORS
330
47
102
}
330
47
100
AcDbScale
 70
     0
300
1/2" = 1'-0"
140
0.5
141
12.0
290
     0
  0
SCALE
  5
63
102
{ACAD_REACTORS
330
47
102
}
330
47
100
AcDbScale
 70
     0
300
3/4" = 1'-0"
140
0.75
141
12.0
290
     0
  0
SCALE
  5
64
102
{ACAD_REACTORS
330
47
102
}
330
47
100
AcDbScale
 70
     0
300
1" = 1'-0"
140
1.0
141
12.0
290
     0
  0
SCALE
  5
65
102
{ACAD_REACTORS
330
47
102
}
330
47
100
AcDbScale
 70
     0
300
1-1/2" = 1'-0"
140
1.5
141
12.0
290
     0
  0
SCALE
  5
66
102
{ACAD_REACTORS
330
47
102
}
330
47
100
AcDbScale
 70
     0
300
3" = 1'-0"
140
3.0
141
12.0
290
     0
  0
SCALE
  5
67
102
{ACAD_REACTORS
330
47
102
}
330
47
100
AcDbScale
 70
     0
300
6" = 1'-0"
140
6.0
141
12.0
290
     0
  0
SCALE
  5
68
102
{ACAD_REACTORS
330
47
102
}
330
47
100
AcDbScale
 70
     0
300
1'-0" = 1'-0"
140
12.0
141
12.0
290
     0
  0
ENDSEC
  0
EOF
