G04 EAGLE Gerber X2 export*
%TF.Part,Single*%
%TF.FileFunction,Other,Component side*%
%TF.FilePolarity,Positive*%
%TF.GenerationSoftware,Autodesk,EAGLE,8.6.3*%
%TF.CreationDate,2019-06-16T16:53:22Z*%
G75*
%MOMM*%
%FSLAX34Y34*%
%LPD*%
%AMOC8*
5,1,8,0,0,1.08239X$1,22.5*%
G01*
%ADD10R,1.100000X1.000000*%
%ADD11R,1.200000X0.800000*%
%ADD12R,2.000000X0.800000*%
%ADD13R,1.250000X1.100000*%
%ADD14R,0.400000X0.600000*%
%ADD15R,0.520000X0.520000*%
%ADD16R,0.100000X0.100000*%
%ADD17C,0.254000*%
%ADD18C,1.016000*%
%ADD19C,1.270000*%

G36*
X702554Y394599D02*
X702554Y394599D01*
X702554Y394600D01*
X702554Y398500D01*
X702551Y398504D01*
X702550Y398504D01*
X701450Y398504D01*
X701448Y398503D01*
X701447Y398503D01*
X699947Y396953D01*
X699947Y396952D01*
X699946Y396951D01*
X699946Y396950D01*
X699946Y394600D01*
X699949Y394596D01*
X699950Y394596D01*
X702550Y394596D01*
X702554Y394599D01*
G37*
G36*
X694552Y402697D02*
X694552Y402697D01*
X694553Y402697D01*
X696053Y404247D01*
X696053Y404249D01*
X696054Y404250D01*
X696054Y406600D01*
X696051Y406604D01*
X696050Y406604D01*
X693450Y406604D01*
X693446Y406601D01*
X693446Y406600D01*
X693446Y402700D01*
X693449Y402696D01*
X693450Y402696D01*
X694550Y402696D01*
X694552Y402697D01*
G37*
G36*
X702554Y402699D02*
X702554Y402699D01*
X702554Y402700D01*
X702554Y406600D01*
X702551Y406604D01*
X702550Y406604D01*
X699950Y406604D01*
X699946Y406601D01*
X699946Y406600D01*
X699946Y404250D01*
X699947Y404249D01*
X699947Y404247D01*
X701447Y402697D01*
X701449Y402697D01*
X701450Y402696D01*
X702550Y402696D01*
X702554Y402699D01*
G37*
G36*
X696054Y394599D02*
X696054Y394599D01*
X696054Y394600D01*
X696054Y396950D01*
X696053Y396951D01*
X696053Y396953D01*
X694553Y398503D01*
X694551Y398503D01*
X694550Y398504D01*
X693450Y398504D01*
X693446Y398501D01*
X693446Y398500D01*
X693446Y394600D01*
X693449Y394596D01*
X693450Y394596D01*
X696050Y394596D01*
X696054Y394599D01*
G37*
D10*
X678700Y394000D03*
X661700Y394000D03*
D11*
X793300Y383400D03*
D12*
X814800Y383400D03*
D13*
X718300Y401900D03*
X718300Y384900D03*
D14*
X670900Y377900D03*
X678900Y377900D03*
D15*
G36*
X694324Y400600D02*
X698000Y404276D01*
X701676Y400600D01*
X698000Y396924D01*
X694324Y400600D01*
G37*
D16*
X701250Y396600D03*
X694750Y396600D03*
X701250Y404600D03*
X694750Y404600D03*
D17*
X701250Y396600D02*
X701250Y388250D01*
X690900Y377900D02*
X678900Y377900D01*
X694750Y381750D02*
X701250Y388250D01*
X694750Y381750D02*
X690900Y377900D01*
X678900Y393800D02*
X678700Y394000D01*
X678900Y393800D02*
X678900Y377900D01*
X694750Y381750D02*
X694750Y396600D01*
X694750Y404600D02*
X694750Y410250D01*
X691000Y414000D01*
X689000Y414000D01*
X669000Y414000D01*
X661000Y406000D01*
X661000Y394700D01*
X661700Y394000D01*
X814800Y391200D02*
X814800Y383400D01*
X814800Y391200D02*
X811000Y395000D01*
X742000Y395000D01*
X739000Y398000D01*
X739000Y409000D01*
X725000Y423000D01*
X698000Y423000D01*
X689000Y414000D01*
X661700Y394000D02*
X640000Y394000D01*
D18*
X636000Y394000D01*
D17*
X718300Y384900D02*
X719900Y383300D01*
X720000Y383400D02*
X793300Y383400D01*
X720000Y383400D02*
X719900Y383300D01*
X718300Y401900D02*
X718300Y409700D01*
X715000Y413000D01*
X704000Y413000D01*
X701250Y410250D02*
X701250Y404600D01*
X701250Y410250D02*
X704000Y413000D01*
X587910Y403000D02*
X587910Y553950D01*
X511710Y630150D01*
X143410Y630150D01*
X67210Y553950D01*
X67210Y198350D01*
X143410Y122150D01*
X499010Y122150D01*
X575210Y198350D01*
X575210Y550140D01*
X507900Y617450D01*
X148490Y617450D01*
X79910Y548870D01*
X79910Y202160D01*
X147220Y134850D01*
X495200Y134850D01*
X562510Y202160D01*
X562510Y545060D01*
X502820Y604750D01*
X153570Y604750D01*
X92610Y543790D01*
X92610Y205970D01*
X151030Y147550D01*
X490120Y147550D01*
X549810Y207240D01*
X549810Y376150D01*
X587700Y402790D02*
X587910Y403000D01*
X587910Y389090D01*
X599100Y377900D02*
X670900Y377900D01*
X599100Y377900D02*
X587910Y389090D01*
X549810Y376150D02*
X549810Y541250D01*
X499010Y592050D01*
X156110Y592050D01*
X105310Y541250D01*
X105310Y211050D01*
X156110Y160250D01*
X486310Y160250D01*
X537110Y211050D01*
X537110Y538710D01*
X496470Y579350D01*
X159920Y579350D01*
X118010Y537440D01*
X118010Y214860D01*
X159920Y172950D01*
X482500Y172950D01*
X524410Y214860D01*
X524410Y533630D01*
X491390Y566650D01*
X165000Y566650D01*
X130710Y532360D01*
X130710Y219940D01*
X165000Y185650D01*
X476150Y185650D01*
X511710Y221210D01*
X511710Y350750D01*
D19*
X512000Y349100D02*
X504100Y349100D01*
X504000Y349000D01*
X496000Y349000D01*
X496000Y357000D01*
X512000Y357000D01*
X512000Y349100D01*
X512310Y349100D01*
M02*
