G04 EAGLE Gerber X2 export*
%TF.Part,Single*%
%TF.FileFunction,Other,Solder stop mask CMP*%
%TF.FilePolarity,Positive*%
%TF.GenerationSoftware,Autodesk,EAGLE,8.6.3*%
%TF.CreationDate,2019-06-16T16:53:22Z*%
G75*
%MOMM*%
%FSLAX34Y34*%
%LPD*%
%AMOC8*
5,1,8,0,0,1.08239X$1,22.5*%
G01*
%ADD10R,1.303200X1.203200*%
%ADD11R,1.403200X1.003200*%
%ADD12R,2.203200X1.003200*%
%ADD13R,1.453200X1.303200*%
%ADD14R,0.400000X0.600000*%
%ADD15R,0.668747X0.668747*%

G36*
X703254Y402099D02*
X703254Y402099D01*
X703254Y402100D01*
X703254Y407100D01*
X703251Y407104D01*
X703250Y407104D01*
X699250Y407104D01*
X699246Y407101D01*
X699246Y407100D01*
X699246Y404475D01*
X699247Y404474D01*
X699247Y404472D01*
X701497Y402097D01*
X701499Y402097D01*
X701500Y402096D01*
X703250Y402096D01*
X703254Y402099D01*
G37*
G36*
X696754Y394099D02*
X696754Y394099D01*
X696754Y394100D01*
X696754Y396725D01*
X696753Y396726D01*
X696753Y396728D01*
X694503Y399103D01*
X694501Y399103D01*
X694500Y399104D01*
X692750Y399104D01*
X692746Y399101D01*
X692746Y399100D01*
X692746Y394100D01*
X692749Y394096D01*
X692750Y394096D01*
X696750Y394096D01*
X696754Y394099D01*
G37*
G36*
X694502Y402097D02*
X694502Y402097D01*
X694503Y402097D01*
X696753Y404472D01*
X696753Y404474D01*
X696754Y404475D01*
X696754Y407100D01*
X696751Y407104D01*
X696750Y407104D01*
X692750Y407104D01*
X692746Y407101D01*
X692746Y407100D01*
X692746Y402100D01*
X692749Y402096D01*
X692750Y402096D01*
X694500Y402096D01*
X694502Y402097D01*
G37*
G36*
X703254Y394099D02*
X703254Y394099D01*
X703254Y394100D01*
X703254Y399100D01*
X703251Y399104D01*
X703250Y399104D01*
X701500Y399104D01*
X701498Y399103D01*
X701497Y399103D01*
X699247Y396728D01*
X699247Y396726D01*
X699246Y396725D01*
X699246Y394100D01*
X699249Y394096D01*
X699250Y394096D01*
X703250Y394096D01*
X703254Y394099D01*
G37*
D10*
X678700Y394000D03*
X661700Y394000D03*
D11*
X793300Y383400D03*
D12*
X814800Y383400D03*
D13*
X718300Y401900D03*
X718300Y384900D03*
D14*
X670900Y377900D03*
X678900Y377900D03*
D15*
G36*
X693617Y400944D02*
X698344Y405671D01*
X703071Y400944D01*
X698344Y396217D01*
X693617Y400944D01*
G37*
M02*
